<svg width="20" height="14" xmlns="http://www.w3.org/2000/svg">
 <metadata>Svg Vector Icons : http://www.onlinewebfonts.com/icon</metadata>

 <g>
  <title>background</title>
  <rect fill="none" id="canvas_background" height="16" width="22" y="-1" x="-1"/>
 </g>
 <g>
  <title>Layer 1</title>
  <path stroke="null" id="svg_2" d="m15.237669,0.04014l0.02224,11.1789c0,0.58729 -0.2427,0.90039 -0.82999,0.90039l-8.53888,-0.02408c-0.58729,0 -0.84666,-0.26864 -0.84666,-0.85408l0,-11.20113l-1.32279,0l0,11.20669c0,1.17644 0.95597,2.13055 2.1324,2.13055l8.52591,0c1.17643,0 2.1324,-0.95597 2.1324,-2.13055l0,-11.20669l-1.27463,0l0,0zm-8.40919,2.39733l0,7.93491c0,0.05187 0.00742,0.1019 0.02038,0.14821c0.39091,0 0.78182,0 1.17088,-0.0037c0.01297,-0.04632 0.02038,-0.09449 0.02038,-0.14451l0,-7.93121c-0.40388,-0.00185 -0.80776,-0.0037 -1.21164,-0.0037l0,0l0,0l0,0zm5.35047,0.02779l0,7.90712c0,0.04076 0.00555,0.08152 0.01296,0.12042c0.39462,-0.00185 0.79109,-0.0037 1.18385,-0.0037c0.00741,-0.03706 0.01297,-0.07596 0.01297,-0.11672l0,-7.90342c-0.40203,0 -0.80591,-0.00185 -1.20978,-0.0037l0,0l0,0l0,0zm-2.63262,7.90897c0,0.04076 0.00555,0.08152 0.01297,0.12042c0.39091,-0.00185 0.78181,-0.0037 1.17458,-0.0037c0.00741,-0.03891 0.01297,-0.07596 0.01297,-0.11672l0,-7.90341c-0.40018,-0.00186 -0.80035,-0.00186 -1.20052,-0.00371l0,0l0,0l0,7.90712z"/>
 </g>
</svg>