<svg width="20" height="20" xmlns="http://www.w3.org/2000/svg">
 <metadata>Svg Vector Icons : http://www.onlinewebfonts.com/icon</metadata>

 <g>
  <title>background</title>
  <rect fill="none" id="canvas_background" height="22" width="22" y="-1" x="-1"/>
 </g>
 <g>
  <title>Layer 1</title>
  <path stroke="null" id="svg_2" d="m15.142154,5.790565l0.022232,11.178905c0,0.587291 -0.242697,0.900389 -0.829988,0.900389l-8.538876,-0.024084c-0.587291,0 -0.846662,-0.268635 -0.846662,-0.854073l0,-11.201137l-1.322794,0l0,11.206695c0,1.176434 0.955969,2.13055 2.132403,2.13055l8.525907,0c1.176434,0 2.132403,-0.955969 2.132403,-2.13055l0,-11.206695l-1.274625,0l0,0zm-8.40919,2.397332l0,7.934911c0,0.051874 0.007411,0.101896 0.020379,0.148212c0.39091,0 0.781819,0 1.170876,-0.003705c0.012969,-0.046316 0.020379,-0.094485 0.020379,-0.144507l0,-7.931206c-0.403878,-0.001853 -0.807757,-0.003705 -1.211635,-0.003705l0,0l0,0zm5.350461,0.02779l0,7.907121c0,0.040758 0.005558,0.081517 0.012969,0.120422c0.394615,-0.001853 0.791083,-0.003705 1.183845,-0.003705c0.007411,-0.037053 0.012969,-0.075959 0.012969,-0.116717l0,-7.903416c-0.402026,0 -0.805904,-0.001853 -1.209782,-0.003705l0,0l0,0zm6.549127,-4.574199l-4.73538,0l0,-1.335762c-1.117684,-0.227608 -0.865189,-1.33391 -1.748904,-1.33391l-4.25369,0c-1.098623,0 -1.72482,0.413142 -1.72482,1.296857l-0.005558,1.372816l-4.809486,0l0,1.304267l17.275985,0l0.001853,-1.304267l0,0zm-5.947015,0l-5.328229,0l0,-0.933737c0,-0.296424 0.20935,-0.553943 0.505774,-0.553943l4.261101,0.024084c0.296424,0 0.555796,0.213055 0.555796,0.509479l0.005558,0.954116zm-3.234731,4.576052l0,7.907121c0,0.040758 0.005558,0.081517 0.012969,0.120422c0.39091,-0.001853 0.781819,-0.003705 1.174582,-0.003705c0.007411,-0.038906 0.012969,-0.075959 0.012969,-0.116717l0,-7.903416c-0.400173,-0.001853 -0.800346,-0.001853 -1.200519,-0.003705l0,0l0,0z"/>
 </g>
</svg>