<svg width="20" height="10" xmlns="http://www.w3.org/2000/svg">
 <metadata>Svg Vector Icons : http://www.onlinewebfonts.com/icon</metadata>

 <g>
  <title>background</title>
  <rect fill="none" id="canvas_background" height="2.487805" width="2.97561" y="-1" x="-1"/>
 </g>
 <g>
  <title>Layer 1</title>
  <path id="svg_2" d="m19.729799,8.352009l-5.336833,0l0,-1.505418c-0.247864,-1.155876 -0.97508,-1.503334 -1.971033,-1.503334l-4.793963,0c-1.23817,0 -1.943894,0.465614 -1.943894,1.461566l-0.006266,1.547186l-5.420356,0l0,1.469929l19.47026,0l0.002085,-1.469929l0,0zm-6.702356,0l-6.004983,0l0,-1.052337c0,-0.334069 0.23594,-0.624297 0.570009,-0.624297l4.802314,0.027138c0.33408,0 0.626394,0.240121 0.626394,0.57419l0.006266,1.075305l0,0.000001z" stroke="null"/>
 </g>
</svg>