<svg width="20" height="13" xmlns="http://www.w3.org/2000/svg">

 <g>
  <title>background</title>
  <rect fill="none" id="canvas_background" height="15" width="22" y="-1" x="-1"/>
 </g>
 <g>
  <title>Layer 1</title>
  <g stroke="null" id="svgg">
   <path fill-rule="evenodd" fill="#000000" d="m0.398276,0.847817c-0.409568,0.383916 -0.38068,1.078738 0.065512,1.574261c0.557404,0.619049 0.809112,0.907223 1.333524,1.527061c0.281149,0.332217 0.538698,0.604052 0.572243,0.604052c0.033624,0 0.061171,0.035519 0.061171,0.07893c0,0.043412 0.062118,0.143653 0.138128,0.22282c0.193063,0.201114 0.528437,0.584793 1.115046,1.275826c0.276887,0.326139 0.561035,0.650779 0.631441,0.721342c0.070485,0.070564 0.287937,0.317773 0.483289,0.549275c0.195352,0.231581 0.515019,0.601447 0.710371,0.822057c0.195352,0.22061 0.515019,0.590476 0.710371,0.822057c0.195352,0.231502 0.412252,0.478711 0.482105,0.549275c0.069774,0.070564 0.351397,0.394729 0.625916,0.720316c0.274519,0.325587 0.5548,0.648332 0.622995,0.717238c0.068117,0.068906 0.315641,0.344609 0.550143,0.612655c0.607762,0.694822 0.809744,0.801219 1.52122,0.801219c0.775962,0 0.889227,-0.08043 2.098278,-1.490911c0.544697,-0.635466 1.032248,-1.198554 1.271722,-1.468968c0.558352,-0.630257 1.267854,-1.444184 1.438343,-1.650034c0.104503,-0.12613 0.278781,-0.325587 0.38731,-0.443193c0.108529,-0.117606 0.357159,-0.403727 0.552511,-0.635703c0.195352,-0.232054 0.515019,-0.602316 0.710371,-0.822925c0.195352,-0.22061 0.515019,-0.590476 0.710371,-0.821978c0.195352,-0.231423 0.429459,-0.496391 0.520307,-0.58874c0.09077,-0.092348 0.37547,-0.416514 0.632704,-0.720395c0.690559,-0.815979 0.923088,-1.078185 1.076764,-1.214734c0.075931,-0.067485 0.138128,-0.159518 0.138128,-0.204587c0,-0.04499 0.071037,-0.126209 0.15786,-0.180434c0.28991,-0.180987 0.226529,-1.050954 -0.098663,-1.355782l-0.256523,-0.240421l-9.353217,0l-9.353217,0l-0.256523,0.240421" id="path0"/>
  </g>
 </g>
</svg>