<svg width="30" height="23" xmlns="http://www.w3.org/2000/svg">

 <g>
  <title>background</title>
  <rect fill="none" id="canvas_background" height="25" width="32" y="-1" x="-1"/>
 </g>
 <g>
  <title>Layer 1</title>
  <g stroke="null" id="svgg">
   <path fill-rule="evenodd" fill="#000000" d="m14.539241,0.406554c-0.774063,0.087669 -1.614651,0.634162 -2.076349,1.349804c-1.772676,2.747714 1.165184,6.01179 4.08492,4.538587c0.304409,-0.153604 1.15929,-0.923026 1.15929,-1.043405c0,-0.041477 0.046855,-0.127746 0.104171,-0.191692c0.2079,-0.232138 0.411527,-1.016147 0.411527,-1.584667c0,-1.935858 -1.637858,-3.300322 -3.683559,-3.068626m-5.451668,0.811193c-1.093575,0.259249 -2.357699,1.769287 -1.836328,2.193486c0.535884,0.435912 0.709454,0.615965 0.944538,0.979753c0.297853,0.46074 0.523434,1.039058 0.523434,1.3417c0,0.25004 0.08509,0.257186 0.605061,0.050833c0.647201,-0.256818 1.564997,-0.164508 2.359467,0.237369c0.250998,0.127009 0.659799,-0.416095 0.423315,-0.562332c-0.510394,-0.31546 -0.778336,-1.978734 -0.482031,-2.993113l0.179905,-0.616112l-0.161487,-0.127156c-0.574046,-0.451752 -1.776802,-0.68912 -2.555875,-0.504427m10.682323,-0.024311c-0.255123,0.046634 -1.031397,0.411822 -1.031397,0.485272c0,0.033078 -0.041772,0.060116 -0.092752,0.060116c-0.109844,0 -0.317891,0.2994 -0.281571,0.405192c0.330563,0.962956 0.276341,1.996342 -0.150068,2.862347c-0.219319,0.445416 -0.262564,0.637035 -0.143585,0.637035c0.037793,0 0.089732,0.066304 0.115443,0.147342c0.059674,0.188009 0.261164,0.188009 0.75594,-0.000074c0.490503,-0.186388 1.427527,-0.200975 1.857766,-0.028805c0.393257,0.157362 0.489103,0.10535 0.549587,-0.298074c0.125315,-0.835431 0.879634,-1.893276 1.598296,-2.241299c0.259175,-0.125536 0.25947,-0.142922 0.010903,-0.60322c-0.579129,-1.07221 -1.897475,-1.661801 -3.188563,-1.425832m-14.781388,2.165565c-2.306866,0.482841 -3.194825,3.299512 -1.556525,4.937738c1.060718,1.060718 3.162041,1.160248 3.381581,0.160161c0.154636,-0.704739 0.989772,-2.00312 1.288362,-2.00312c0.189777,0 0.30522,-0.281129 0.242084,-0.58937c-0.037425,-0.182336 -0.088553,-0.438712 -0.113675,-0.569773c-0.025122,-0.131061 -0.091205,-0.275972 -0.146753,-0.32209c-0.055622,-0.046192 -0.101077,-0.12502 -0.101077,-0.175264c0,-0.71439 -1.958254,-1.655097 -2.993997,-1.438283m18.833303,-0.025417c-1.230604,0.471717 -1.882299,1.274806 -2.092335,2.578418c-0.032784,0.203406 -0.003242,0.255344 0.241789,0.42523c0.62208,0.43105 1.155827,1.251674 1.324755,2.03664c0.092531,0.430019 0.291222,0.56992 0.967818,0.681606c0.101298,0.016723 -0.056137,0.03492 -0.349938,0.040445c-0.530433,0.009946 -0.534116,0.011419 -0.536768,0.212615c-0.007662,0.595116 -0.294832,1.300002 -0.804858,1.975493c-0.266911,0.353548 -0.287833,0.408065 -0.171801,0.447405c1.880973,0.638214 2.966591,2.217724 2.967991,4.318016l0.000442,0.644623l0.624142,0c0.874477,0 2.155693,-0.272436 3.133088,-0.666209l0.33152,-0.133566l0.01967,-1.897917c0.016723,-1.607137 0.000958,-1.955012 -0.102624,-2.270693c-0.153973,-0.468991 -0.464055,-1.072653 -0.550987,-1.072653c-0.036246,0 -0.065936,-0.031679 -0.065936,-0.070356c0,-0.150584 -0.785114,-0.814361 -1.240181,-1.048562c-0.4754,-0.244588 -1.329028,-0.427735 -2.03362,-0.436281c-0.55968,-0.006704 -0.618322,-0.017828 -0.36261,-0.068441c2.740789,-0.542515 3.269822,-4.254732 0.782977,-5.494766c-0.42022,-0.209521 -1.730463,-0.336014 -2.082537,-0.201049m-14.448467,2.898961c-2.354163,0.596958 -2.749409,4.116009 -0.59821,5.325838c1.07781,0.606093 2.949426,0.376312 3.081298,-0.378375c0.094667,-0.54141 0.785114,-1.665411 1.13962,-1.855188c0.414916,-0.222045 -0.046266,-1.675725 -0.752404,-2.371549c-0.688163,-0.678217 -1.868817,-0.97467 -2.870303,-0.720725m9.724597,0.000516c-0.277814,0.069914 -0.764044,0.328205 -0.940707,0.499785c-0.056358,0.054664 -0.180642,0.150731 -0.276267,0.213352c-0.095625,0.062621 -0.173864,0.159793 -0.173864,0.21593c0,0.056137 -0.032342,0.102035 -0.071977,0.102035c-0.167381,0 -0.592243,1.156122 -0.59018,1.605958c0.000663,0.144027 0.068662,0.24282 0.246209,0.357821c0.266542,0.172538 0.846187,0.834695 0.989551,1.130411c0.140712,0.290117 0.384122,1.041195 0.384122,1.185075c0,0.180789 0.654053,0.362315 1.300591,0.360915c1.862187,-0.003905 3.205654,-1.707035 2.788234,-3.53467c-0.074334,-0.3257 -0.179389,-0.628931 -0.23339,-0.673723c-0.054001,-0.044792 -0.098204,-0.122663 -0.098204,-0.173054c0,-0.191619 -0.795502,-0.916985 -1.224342,-1.116413c-0.474811,-0.220719 -1.556746,-0.310082 -2.099776,-0.173422m-6.087377,0.56248c-0.129293,0.05459 -0.114559,0.198102 0.04133,0.403423c0.21232,0.279508 0.455951,1.006864 0.455951,1.361002c0,0.370419 0.031237,0.381543 0.487409,0.173717c0.566016,-0.257849 1.660401,-0.271331 2.441021,-0.030132c0.142259,0.043982 0.16576,0.024311 0.16576,-0.138797c0,-0.239652 0.258439,-0.945054 0.497944,-1.35916c0.100635,-0.174085 0.159719,-0.339845 0.131208,-0.368356c-0.060042,-0.060116 -4.08271,-0.099824 -4.220622,-0.041698m1.123486,2.467469c-1.903443,0.770085 -2.421425,3.31874 -0.963177,4.738973c0.601157,0.585539 1.229646,0.850313 2.018296,0.850313c1.186327,0 2.732243,-1.038837 2.740053,-1.84119c0.000589,-0.061073 0.053706,-0.26028 0.118021,-0.442617c0.392152,-1.111404 -0.390531,-2.685168 -1.6106,-3.238364c-0.632025,-0.286581 -1.684344,-0.317228 -2.302593,-0.067114m-10.719158,0.065788c-1.133358,0.198765 -2.221186,1.184043 -2.647964,2.398218c-0.137912,0.392299 -0.151542,0.602483 -0.151542,2.331988l0,1.900717l0.239431,0.103508c0.984173,0.42523 2.605676,0.768096 3.673098,0.776642l0.192134,0.001547l0.041109,-0.976143c0.041624,-0.987636 0.134671,-1.359307 0.520119,-2.077233c0.254976,-0.474811 1.27488,-1.514238 1.485874,-1.514238c0.027921,0 0.138723,-0.061736 0.246283,-0.137102c0.10756,-0.075439 0.319365,-0.177327 0.470759,-0.226392c0.371376,-0.120452 0.379628,-0.156478 0.106308,-0.463613c-0.371303,-0.417421 -0.687352,-1.077662 -0.794249,-1.659296l-0.09813,-0.534116l-1.475855,0.008693c-0.811709,0.004715 -1.625039,0.034773 -1.807375,0.06682m4.604449,2.823006c-1.293592,0.407696 -2.115174,1.202977 -2.550718,2.469016c-0.207016,0.601673 -0.21151,4.209719 -0.005231,4.209719c0.073155,0 0.330121,0.062547 0.570952,0.138944c0.728534,0.23118 2.168143,0.508921 3.281904,0.633278l0.412853,0.046044l0.041551,-0.943212c0.061221,-1.390617 0.409906,-2.219934 1.30479,-3.103546c0.392446,-0.38751 1.344426,-0.970765 1.584446,-0.970765c0.212247,0 0.188525,-0.162298 -0.064683,-0.442617c-0.373513,-0.413443 -0.674754,-1.056887 -0.784377,-1.67543l-0.094667,-0.534116l-1.590561,0.005083c-1.426643,0.004568 -1.643678,0.021807 -2.106259,0.167602m10.694626,-0.123547c-0.027037,0.026964 -0.049139,0.129661 -0.049139,0.228086c0,0.487482 -0.311924,1.256609 -0.745258,1.837654c-0.308609,0.413737 -0.348907,0.537284 -0.175264,0.537284c0.185578,0 0.840736,0.345739 1.241581,0.655158c1.180654,0.911534 1.740629,2.190686 1.741513,3.978539l0.000221,0.39753l0.541925,-0.04575c1.057476,-0.089437 2.196875,-0.344855 3.095369,-0.693909l0.506342,-0.196702l-0.035215,-1.918471c-0.036688,-1.997742 -0.120084,-2.514545 -0.471201,-2.918926c-0.055548,-0.063947 -0.101003,-0.151984 -0.101003,-0.195597c0,-0.407254 -1.37603,-1.357613 -2.317696,-1.600654c-0.451457,-0.116548 -3.126753,-0.169738 -3.232176,-0.064241m-5.611314,3.04122c-1.028229,0.27413 -1.792788,0.845819 -2.306203,1.724422c-0.419263,0.717484 -0.456467,0.96244 -0.456467,3.004237l0,1.893571l0.460445,0.144617c1.839717,0.577656 3.647755,0.787029 5.789524,0.67026c1.157374,-0.063063 2.22627,-0.292033 3.167493,-0.678438l0.392667,-0.161266l-0.031089,-1.915451c-0.048476,-2.985525 -0.57935,-3.904278 -2.706606,-4.683793c-0.459561,-0.168412 -3.676413,-0.167013 -4.309765,0.001842" id="path0"/>
  </g>
 </g>
</svg>