<svg width="50" height="40" xmlns="http://www.w3.org/2000/svg">

 <g>
  <title>background</title>
  <rect fill="none" id="canvas_background" height="42" width="52" y="-1" x="-1"/>
 </g>
 <g>
  <title>Layer 1</title>
  <g stroke="null" id="svgg">
   <path fill-rule="evenodd" fill="#0f0f0f" d="m3.68968,6.876887c-0.310752,0.159518 -0.423833,0.385554 -0.402497,0.804367c0.015814,0.310752 0.086222,0.417056 0.377396,0.570173c0.164287,0.086473 1.135576,0.125757 1.541713,0.062502c0.163534,-0.025478 0.304979,-0.02485 0.826205,0.003765c0.832731,0.045559 0.871387,0.045935 1.171345,0.010919c0.273226,-0.031878 0.320165,-0.031753 0.697436,0.001632c0.561889,0.0497 0.723792,0.005648 1.023625,-0.278497l0.151109,-0.143202l0,-0.20608c0,-0.365724 -0.199931,-0.651752 -0.54959,-0.786043l-0.183364,-0.070534l-0.412789,0.015437c-0.226914,0.008409 -0.431489,0.014559 -0.454456,0.013555c-0.022968,-0.001004 -0.771359,-0.005146 -1.662952,-0.009162c-0.891593,-0.004016 -1.677636,-0.013806 -1.746664,-0.021713c-0.069028,-0.008032 -0.153745,-0.018324 -0.188259,-0.022968c-0.041793,-0.005773 -0.104421,0.012802 -0.188259,0.05585m7.30293,0.016943c-0.360704,0.128643 -0.522983,0.401744 -0.474914,0.798844c0.038781,0.319914 0.14772,0.455084 0.469266,0.582472l0.170311,0.067522l0.617112,-0.015688c0.339368,-0.00866 0.711241,-0.021587 0.826205,-0.028866c0.115842,-0.007154 0.367857,-0.000879 0.564776,0.014182c0.357942,0.027486 0.717266,0.023344 1.317811,-0.015312c0.304979,-0.019579 0.40576,-0.01619 1.247151,0.040789c0.44655,0.030247 0.711492,-0.00502 0.796083,-0.106178c0.181356,-0.216623 0.288412,-0.63531 0.213611,-0.835492c-0.122368,-0.327445 -0.21587,-0.43061 -0.463995,-0.511938l-0.173323,-0.056854l-0.506416,0.022215c-0.289542,0.012802 -1.097548,0.018951 -1.886101,0.014308c-0.758933,-0.004267 -1.455491,-0.000251 -1.547988,0.009036c-0.146089,0.01481 -0.388691,0.006777 -0.879419,-0.028741c-0.100279,-0.007279 -0.158514,0.002636 -0.290169,0.0497m13.049966,0.017696c-0.275862,0.096514 -0.342003,0.155502 -0.465752,0.415926l-0.072668,0.153117l0.025101,0.20357c0.071287,0.576574 0.395469,0.745504 1.245394,0.649116c0.220514,-0.024976 0.310752,-0.026231 0.476796,-0.006652c0.16002,0.018951 0.251639,0.018324 0.418311,-0.002385c0.28904,-0.036146 15.948898,-0.041417 16.263416,-0.005522c0.803111,0.091619 1.057637,0.023595 1.319317,-0.352295c0.091117,-0.130777 0.154623,-0.458096 0.109065,-0.561262c-0.068401,-0.154749 -0.186251,-0.32004 -0.27285,-0.382793c-0.194408,-0.140817 0.59929,-0.129271 -9.455355,-0.137554c-4.99877,-0.004142 -9.164056,-0.013053 -9.256051,-0.019704c-0.147846,-0.010668 -0.186878,-0.005271 -0.334724,0.046437m-14.41459,2.073732c-0.412789,0.047065 -0.684634,0.570549 -0.617237,1.188414c0.016943,0.156129 0.02347,3.067989 0.02347,10.605238l0,10.389996l0.064259,0.136048c0.035267,0.074676 0.101158,0.18487 0.146214,0.244611c0.307238,0.407392 0.92686,0.293809 1.16369,-0.213234l0.058611,-0.125506l0.013806,-9.799993c0.00753,-5.389971 0.0123,-9.884584 0.010417,-9.988127c-0.006652,-0.382918 -0.001757,-0.721156 0.015939,-1.098176c0.0497,-1.062281 -0.184242,-1.418717 -0.879168,-1.339272m14.369157,3.975396c-0.374635,0.121992 -0.542185,0.475039 -0.438894,0.924225c0.059992,0.260801 0.17985,0.377772 0.480687,0.46889l0.170939,0.051834l0.446424,-0.034389c0.245489,-0.018951 0.46663,-0.027109 0.491481,-0.018073c0.032883,0.011798 4.869122,0.044304 7.26189,0.048696c0.045935,0.000126 0.519092,0.001004 1.051362,0.001883l0.967775,0.001757l0.20357,-0.053716c0.359574,-0.095008 0.569796,-0.272222 0.666185,-0.561889l0.055097,-0.165417l-0.038028,-0.125506c-0.132534,-0.43789 -0.414295,-0.540428 -1.484231,-0.540177c-6.367159,0.001004 -8.093993,-0.001506 -8.199042,-0.011672c-0.069028,-0.006777 -0.229425,-0.001757 -0.356311,0.011045c-0.230178,0.023093 -0.241348,0.022591 -0.972042,-0.048822c-0.09187,-0.008911 -0.153619,0.001381 -0.306862,0.051332m0.024474,6.703013c-0.299959,0.113583 -0.450817,0.323805 -0.488217,0.680367l-0.020834,0.198801l0.091494,0.188259c0.135923,0.27925 0.186753,0.32506 0.4281,0.385177l0.198676,0.049449l0.217502,-0.055223c0.246368,-0.062502 0.446926,-0.069781 0.786545,-0.028364c0.162655,0.019704 2.129582,0.023093 8.837741,0.014935l8.628522,-0.010417l0.153619,-0.050955c0.703209,-0.232939 0.676978,-1.16507 -0.038028,-1.350317c-0.123247,-0.032004 -0.828213,-0.034514 -9.160918,-0.033134c-7.922427,0.001381 -9.050598,-0.002259 -9.215764,-0.029745c-0.23457,-0.039032 -0.196668,-0.042797 -0.418436,0.041166m0.010542,6.027164c-0.346898,0.102287 -0.488092,0.324181 -0.482319,0.758431c0.007405,0.551096 0.361708,0.823945 0.942423,0.725549c0.384048,-0.065012 0.569043,-0.078943 0.737472,-0.055474c0.14019,0.019453 2.520282,0.023721 7.786504,0.013555c0.17257,-0.000251 0.572683,0.002259 0.888957,0.005773c0.73333,0.008032 0.938783,-0.049198 1.285932,-0.357942l0.10417,-0.092498l0.022591,-0.206959c0.028364,-0.259922 0.016441,-0.297574 -0.145587,-0.459602c-0.155376,-0.155376 -0.28176,-0.231182 -0.478679,-0.287157c-0.181356,-0.051583 -8.775113,-0.084842 -9.375031,-0.036271c-0.258165,0.020834 -0.34125,0.018575 -0.700699,-0.019202c-0.224279,-0.02347 -0.407768,-0.042295 -0.407894,-0.041668c0,0.000628 -0.080073,0.024725 -0.177842,0.053465m-8.210212,6.681928c-0.491355,0.079947 -1.197702,0.098899 -2.290481,0.061498c-1.090771,-0.037401 -2.415735,-0.006024 -2.614662,0.061874c-0.455711,0.155627 -0.59176,0.832229 -0.236578,1.176491c0.148724,0.144081 0.350914,0.194283 0.738602,0.183238c0.178218,-0.00502 0.418311,-0.008534 0.5334,-0.007781c0.114963,0.000879 1.028018,0.006903 2.028926,0.013555c1.209248,0.008032 1.864263,0.020081 1.952242,0.035769c0.280003,0.050077 0.625019,-0.096765 0.734585,-0.312509c0.352797,-0.694674 -0.093753,-1.334628 -0.846034,-1.212135m-12.156113,0.075554c-0.269084,0.168178 -0.310501,0.229676 -0.355683,0.527501c-0.033259,0.219761 -0.028615,0.269461 0.047065,0.504031c0.05585,0.172947 0.116971,0.236829 0.346396,0.361457l0.111575,0.060619l0.313764,-0.0123c0.17257,-0.006652 0.407894,-0.021085 0.522983,-0.032129c0.125506,-0.011923 0.895484,-0.015061 1.92438,-0.007781c1.892376,0.013429 1.788206,0.019328 2.092181,-0.117473c0.176461,-0.07932 0.395469,-0.385052 0.391076,-0.545825c-0.01004,-0.366351 -0.181607,-0.592262 -0.542561,-0.714504l-0.183615,-0.062l-0.51244,0.006903c-0.281886,0.003765 -0.728938,0.004142 -0.993629,0.001004c-0.264566,-0.003263 -0.593517,0.004016 -0.730946,0.016316c-0.176085,0.015563 -0.382542,0.015563 -0.699695,-0.000126c-0.247497,-0.012174 -0.511562,-0.016441 -0.586865,-0.009413c-0.121866,0.011421 -0.488092,-0.006777 -0.879545,-0.043676c-0.131154,-0.012425 -0.140441,-0.01004 -0.264441,0.067397" id="path0"/>
  </g>
 </g>
</svg>