<svg width="20" height="20" xmlns="http://www.w3.org/2000/svg">

 <g>
  <title>background</title>
  <rect fill="none" id="canvas_background" height="22" width="22" y="-1" x="-1"/>
 </g>
 <g>
  <title>Layer 1</title>
  <g stroke="null" id="svgg">
   <path fill-rule="evenodd" fill="#000000" d="m3.161266,0.227235c-0.030347,0.019374 -0.049818,0.046128 -0.040447,0.055548c0.003156,0.003156 0.023064,-0.012479 0.044234,-0.034717c0.041612,-0.043797 0.040641,-0.049235 -0.003787,-0.02083m13.580342,-0.005875c0,0.009905 0.058121,0.067347 0.063074,0.062345c0.010682,-0.010682 -0.007817,-0.03831 -0.035106,-0.05244c-0.015392,-0.007915 -0.027968,-0.01243 -0.027968,-0.009905m-13.909695,0.101141c-0.014907,0.01646 -0.02185,0.040495 -0.011653,0.040495c0.00573,0 0.053848,-0.048119 0.053848,-0.053848c0,-0.011362 -0.027822,-0.002573 -0.042195,0.013353m-0.202914,0.056567c-0.028502,0.015004 -0.054674,0.051906 -0.036854,0.051906c0.009954,0 0.031658,-0.019471 0.057344,-0.05142c0.015441,-0.019131 0.014955,-0.019131 -0.02049,-0.000486m14.675661,-0.003593c0.013256,0.006701 0.02957,0.023015 0.036271,0.036271c0.008983,0.017723 0.012236,0.019616 0.012333,0.007089c0.000194,-0.021947 -0.033746,-0.055888 -0.055693,-0.055693c-0.012527,0.000097 -0.010634,0.00335 0.007089,0.012333m-14.876972,0.079437c-0.006506,0.007866 -0.009565,0.019859 -0.006846,0.026706c0.003253,0.00806 0.005293,0.006604 0.005778,-0.00403c0.000437,-0.00908 0.008449,-0.020976 0.017771,-0.026414c0.009371,-0.005438 0.01209,-0.010051 0.006021,-0.010197c-0.006021,-0.000146 -0.016266,0.006118 -0.022724,0.013935m15.231866,0.074582c0.012624,0.022093 0.046371,0.056859 0.055208,0.056859c0.014615,0 -0.010002,-0.035446 -0.036854,-0.053023c-0.017043,-0.011216 -0.023307,-0.012479 -0.018354,-0.003836m-15.683045,0.149794c-0.0084,0.0084 -0.014761,0.024812 -0.01413,0.036417c0.001068,0.019714 0.001457,0.019811 0.005924,0.001748c0.006798,-0.027725 0.020393,-0.041904 0.044671,-0.046662l0.021122,-0.004127l-0.02117,-0.001311c-0.011605,-0.000728 -0.028017,0.005535 -0.036417,0.013935m15.957142,-0.005244c0.012042,0.004856 0.02219,0.016606 0.022627,0.026123c0.000486,0.010682 0.002671,0.012527 0.005778,0.004807c0.006604,-0.016412 -0.01447,-0.041078 -0.034426,-0.040301c-0.010731,0.000388 -0.008789,0.003447 0.006021,0.009371m-16.098585,0.116194c-0.017674,0.024763 -0.018208,0.028114 -0.003836,0.022578c0.017189,-0.006604 0.052343,-0.038019 0.052343,-0.046808c0,-0.015878 -0.030979,-0.000437 -0.048507,0.024229m16.207835,-0.024229c0,0.008789 0.035154,0.040204 0.052343,0.046808c0.014372,0.005535 0.013838,0.002185 -0.003836,-0.022578c-0.017529,-0.024666 -0.048507,-0.040107 -0.048507,-0.024229m0.305318,0.213791c0.010391,0.007915 0.022238,0.014421 0.026414,0.014421c0.004127,0 0.014033,0.011993 0.022044,0.026706c0.007963,0.014712 0.014664,0.020976 0.014858,0.013935c0.000777,-0.0252 -0.019179,-0.048507 -0.050401,-0.058898c-0.029036,-0.009711 -0.030153,-0.009371 -0.012916,0.003836m-16.804535,0.024132c-0.020005,0.020005 -0.02554,0.038845 -0.011411,0.038845c0.00942,0 0.050255,-0.041904 0.050255,-0.051615c0,-0.012867 -0.019616,-0.006458 -0.038845,0.01277m-0.095169,0.060209c-0.006409,0.006409 -0.011362,0.020636 -0.011022,0.031561c0.000583,0.019325 0.000874,0.019277 0.00908,-0.001117c0.004661,-0.011556 0.016412,-0.025637 0.026074,-0.03127c0.01413,-0.008206 0.014615,-0.010294 0.002573,-0.010537c-0.008254,-0.000146 -0.020296,0.004953 -0.026706,0.011362m17.019249,0.006167c0.019908,0.02083 0.024666,0.020296 0.016169,-0.001845c-0.00335,-0.008789 -0.012187,-0.015975 -0.019616,-0.015975c-0.010342,0 -0.009517,0.004224 0.003447,0.01782m-17.099074,0.064967c-0.006749,0.008109 -0.009468,0.017577 -0.006069,0.021025c0.003447,0.003447 0.006264,0.00102 0.006264,-0.00539c0,-0.006409 0.009857,-0.015586 0.02185,-0.020442c0.014809,-0.005924 0.016752,-0.008983 0.006021,-0.009371c-0.008691,-0.00034 -0.021316,0.006021 -0.028065,0.014178m17.167052,-0.004807c0.012042,0.004856 0.02185,0.014033 0.02185,0.020442c0,0.006409 0.002816,0.008837 0.006264,0.00539c0.00942,-0.009468 -0.016218,-0.035931 -0.034135,-0.035203c-0.010731,0.000388 -0.008789,0.003447 0.006021,0.009371m-17.321896,0.164167c-0.005535,0.010342 -0.009711,0.024521 -0.009274,0.031561c0.000388,0.007041 0.00505,0.00102 0.010294,-0.013353c0.005293,-0.014372 0.016946,-0.028065 0.025977,-0.030444c0.015101,-0.003982 0.015101,-0.00437 -0.000291,-0.005438c-0.009177,-0.000631 -0.02117,0.007332 -0.026706,0.017674m-0.067055,0.067638c-0.007332,0.004661 -0.011702,0.012382 -0.009711,0.017237c0.001991,0.004856 0.011216,0.000971 0.020588,-0.008594c0.01782,-0.018257 0.011799,-0.023015 -0.010876,-0.008643m17.632215,0.002913c0.006409,0.006409 0.011653,0.020248 0.011653,0.030736c0,0.010537 0.002719,0.016412 0.006021,0.01311c0.009565,-0.009614 -0.005195,-0.055499 -0.017868,-0.055499c-0.008691,0 -0.008643,0.002816 0.000194,0.011653m-17.709225,0.077689c-0.006409,0.006409 -0.011362,0.020636 -0.011022,0.031561c0.000583,0.019325 0.000874,0.019277 0.00908,-0.001117c0.004661,-0.011556 0.016412,-0.025637 0.026074,-0.03127c0.01413,-0.008206 0.014615,-0.010294 0.002573,-0.010537c-0.008254,-0.000146 -0.020296,0.004953 -0.026706,0.011362m17.828769,0.080602c0.013984,0.007575 0.03093,0.027191 0.037728,0.043603c0.006798,0.016412 0.014033,0.028211 0.016072,0.026172c0.007817,-0.007817 -0.025832,-0.072591 -0.040738,-0.07832c-0.029376,-0.011265 -0.038505,-0.005293 -0.013061,0.008546m-17.888978,0.014567c-0.020005,0.020005 -0.02554,0.038845 -0.011411,0.038845c0.00942,0 0.050255,-0.041904 0.050255,-0.051615c0,-0.012867 -0.019616,-0.006458 -0.038845,0.01277m-0.1328,0.191261c-0.025006,0.004856 -0.037145,0.018354 -0.046419,0.051518c-0.00573,0.02049 -0.00369,0.019374 0.013256,-0.007283c0.010974,-0.017334 0.026366,-0.031561 0.034135,-0.031561c0.007769,0 0.016849,-0.00437 0.020151,-0.009711c0.003302,-0.005341 0.004661,-0.009128 0.00301,-0.0084c-0.001651,0.000728 -0.012527,0.003205 -0.024132,0.005438m18.224643,0.096529c0,0.006749 0.046905,0.0521 0.053897,0.0521c0.010828,0 0.002622,-0.02117 -0.015052,-0.038845c-0.018888,-0.018888 -0.038845,-0.025686 -0.038845,-0.013256m0.112503,0.146929c0.005778,0.003933 0.015489,0.015878 0.021559,0.02656c0.008157,0.014421 0.011071,0.015538 0.011313,0.00437c0.00034,-0.017189 -0.018111,-0.038408 -0.033212,-0.038213c-0.006798,0.000097 -0.006701,0.002525 0.00034,0.007283m-18.520104,0.037291c-0.019665,0.025832 -0.021899,0.032241 -0.0084,0.024424c0.024569,-0.014227 0.061957,-0.046613 0.061957,-0.053703c0,-0.017626 -0.030444,-0.000971 -0.053557,0.029279m-0.056227,0.107745c-0.014761,0.003836 -0.042195,0.049672 -0.033746,0.056276c0.001505,0.001165 0.017043,-0.012576 0.034572,-0.030493c0.01748,-0.017917 0.028405,-0.032095 0.024278,-0.031464c-0.004176,0.000631 -0.015489,0.003205 -0.025103,0.005681m18.665334,0.010585c0.009371,0.009565 0.018597,0.01345 0.020588,0.008594c0.001991,-0.004856 -0.002379,-0.012576 -0.009711,-0.017237c-0.022675,-0.014372 -0.028696,-0.009614 -0.010876,0.008643m-18.751812,0.150134c-0.008449,0.006701 -0.018305,0.023064 -0.02185,0.036417l-0.006458,0.024278l0.019034,-0.023647c0.010439,-0.013013 0.026851,-0.029425 0.036417,-0.036417c0.01379,-0.0101 0.014372,-0.01277 0.002865,-0.01277c-0.008012,0 -0.02151,0.005487 -0.030007,0.012139m18.806049,-0.005293c0.009808,0.002525 0.023841,0.018403 0.031173,0.0353c0.008449,0.019374 0.013498,0.024181 0.013741,0.013061c0.00068,-0.030056 -0.018548,-0.055256 -0.041224,-0.054091c-0.017674,0.000923 -0.018354,0.001942 -0.00369,0.00573m-18.867375,0.165672c-0.005438,0.003933 -0.018257,0.020248 -0.028405,0.036271l-0.0185,0.029133l0.032775,-0.025103c0.041127,-0.031561 0.054334,-0.069143 0.01413,-0.040301m18.924525,0.003884c0.002088,0.006215 0.0185,0.022578 0.036514,0.036417l0.032775,0.025103l-0.0185,-0.029133c-0.025103,-0.039524 -0.060743,-0.062297 -0.050789,-0.032387m-19.013187,0.216607c-0.018985,0.013304 -0.039621,0.068949 -0.021364,0.057684c0.004564,-0.002816 0.008303,-0.011508 0.008303,-0.019277c0,-0.007769 0.014178,-0.022773 0.031561,-0.033358c0.017383,-0.010585 0.024909,-0.019277 0.016752,-0.019277c-0.008206,-0.000049 -0.024035,0.006361 -0.035251,0.014227m19.079029,-0.000146c0,0.00573 0.048119,0.053848 0.053848,0.053848c0.013353,0 0.001311,-0.030202 -0.017189,-0.043166c-0.021219,-0.014858 -0.03666,-0.019374 -0.03666,-0.010682m-19.185317,0.31163c-0.003447,0.013596 -0.003496,0.027434 -0.000194,0.030784c0.003302,0.003302 0.006021,-0.002573 0.006021,-0.01311c0,-0.010488 0.005244,-0.024326 0.011653,-0.030736c0.008837,-0.008837 0.008886,-0.011653 0.000194,-0.011653c-0.006312,0 -0.014275,0.011119 -0.017674,0.024715m19.299423,-0.014712c0.012042,0.004856 0.02185,0.014033 0.02185,0.020442c0,0.006409 0.002816,0.008837 0.006264,0.00539c0.00942,-0.009468 -0.016218,-0.035931 -0.034135,-0.035203c-0.010731,0.000388 -0.008789,0.003447 0.006021,0.009371m0.041272,0.465843c0,0.005341 0.00874,0.009711 0.019422,0.009711c0.010682,0 0.019422,-0.00437 0.019422,-0.009711c0,-0.005341 -0.00874,-0.009711 -0.019422,-0.009711c-0.010682,0 -0.019422,0.00437 -0.019422,0.009711m-13.917852,8.844416c0.09784,0.001554 0.25516,0.001554 0.349601,0c0.094441,-0.001602 0.014421,-0.002913 -0.177859,-0.002913c-0.19228,0 -0.269581,0.001311 -0.171741,0.002913m8.147642,0c0.09784,0.001554 0.25516,0.001554 0.349601,0c0.094441,-0.001602 0.014421,-0.002913 -0.177859,-0.002913c-0.19228,0 -0.269581,0.001311 -0.171741,0.002913m1.526736,0.031561c0,0.016752 0.016218,0.0454 0.02185,0.038553c0.002039,-0.002525 -0.002039,-0.015489 -0.00908,-0.028842c-0.007041,-0.013401 -0.01277,-0.017723 -0.01277,-0.009711m-11.275307,0.513719c-0.032192,0.027046 -0.036708,0.046031 -0.008303,0.035057c0.011022,-0.004273 0.052294,-0.063219 0.044283,-0.063219c-0.001262,0 -0.01748,0.012673 -0.03598,0.028162m11.704345,-0.012382c0.013256,0.003933 0.017286,0.019325 0.020053,0.077155l0.003496,0.072202l-0.000631,-0.075164c-0.000631,-0.067832 -0.002573,-0.075407 -0.020102,-0.077155c-0.014372,-0.001457 -0.015101,-0.000728 -0.002816,0.002962m-11.739548,0.129886c0,0.040058 0.001748,0.05647 0.003836,0.036417c0.002088,-0.020053 0.002088,-0.05278 0,-0.072834c-0.002088,-0.020053 -0.003836,-0.003642 -0.003836,0.036417m0.000777,1.223603c0,0.098811 0.001457,0.139258 0.003205,0.089828c0.001748,-0.04943 0.001748,-0.130226 0,-0.179656c-0.001748,-0.04943 -0.003205,-0.008983 -0.003205,0.089828m11.760087,0.0874c0,0.088129 0.001505,0.124205 0.003302,0.080117c0.001797,-0.04404 0.001797,-0.116145 0,-0.160234c-0.001797,-0.04404 -0.003302,-0.008012 -0.003302,0.080117m-11.754017,0.10891c0.000243,0.006846 0.013353,0.02321 0.029133,0.03632c0.015829,0.013061 0.028745,0.030202 0.028745,0.038019c0,0.007817 0.002768,0.011459 0.006118,0.00806c0.00976,-0.009711 -0.024424,-0.073465 -0.045351,-0.084681c-0.014324,-0.007672 -0.018937,-0.007138 -0.018645,0.002282m11.701334,0.070988c-0.006749,0.008109 -0.009468,0.017577 -0.006069,0.021025c0.003447,0.003447 0.006264,0.00102 0.006264,-0.00539c0,-0.006409 0.009857,-0.015586 0.02185,-0.020442c0.014809,-0.005924 0.016752,-0.008983 0.006021,-0.009371c-0.008691,-0.00034 -0.021316,0.006021 -0.028065,0.014178m-11.633745,0.226464c0,0.011459 0.047585,0.054285 0.053605,0.048264c0.009905,-0.009905 -0.006361,-0.034523 -0.029862,-0.045254c-0.013061,-0.005924 -0.023744,-0.007283 -0.023744,-0.00301m11.588928,0.00369c-0.011411,0.005244 -0.025589,0.020102 -0.031513,0.033115c-0.012916,0.028308 0.009954,0.020102 0.041758,-0.015052c0.022044,-0.024278 0.01816,-0.031076 -0.010245,-0.018063m-10.609851,0.354699c0.172664,0.001505 0.452345,0.001505 0.621513,0c0.169217,-0.001505 0.027968,-0.002719 -0.313864,-0.002719c-0.341832,0 -0.480264,0.001214 -0.307649,0.002719m9.041066,0c0.172664,0.001505 0.452345,0.001505 0.621513,0c0.169217,-0.001505 0.027968,-0.002719 -0.313864,-0.002719c-0.341832,0 -0.480264,0.001214 -0.307649,0.002719m-5.742388,0.006458c0.005341,0.002234 0.026074,0.006846 0.046031,0.010148c0.025977,0.00437 0.040398,0.013596 0.050595,0.032387c0.012867,0.023695 0.014324,0.024278 0.014664,0.005584c0.000534,-0.029619 -0.022093,-0.044283 -0.074873,-0.048507c-0.025395,-0.002039 -0.041758,-0.001845 -0.036417,0.000388m2.976463,0.008497c-0.014372,0.007235 -0.025346,0.022044 -0.026851,0.036271l-0.002622,0.024035l0.014858,-0.026269c0.010488,-0.018645 0.025395,-0.028065 0.051129,-0.032387c0.053848,-0.008983 0.059723,-0.012576 0.021753,-0.013256c-0.018694,-0.00034 -0.044914,0.004856 -0.058267,0.011605m8.225331,1.395587c0,0.005341 0.00874,0.009711 0.019422,0.009711c0.010682,0 0.019422,-0.00437 0.019422,-0.009711c0,-0.005341 -0.00874,-0.009711 -0.019422,-0.009711c-0.010682,0 -0.019422,0.00437 -0.019422,0.009711m-19.333752,0.429038c-0.001554,0.022433 0.025055,0.046905 0.050546,0.046419c0.017383,-0.000291 0.015683,-0.002768 -0.009517,-0.013741c-0.016897,-0.007332 -0.032775,-0.021364 -0.0353,-0.031173c-0.003836,-0.014955 -0.004758,-0.015198 -0.00573,-0.001505m0.085992,0.291771c0.019616,0.033261 0.045837,0.052634 0.056616,0.041855c0.004613,-0.004661 -0.019228,-0.02957 -0.060112,-0.062831c-0.014081,-0.011459 -0.01345,-0.007769 0.003496,0.020976m19.147784,0.020393c-0.003545,0.009177 -0.016363,0.020733 -0.028502,0.025589c-0.02151,0.008643 -0.02151,0.008886 -0.00136,0.009468c0.023404,0.000728 0.046274,-0.02185 0.040301,-0.039816c-0.002622,-0.007769 -0.006264,-0.006118 -0.010439,0.004758m-19.089226,0.178685c0,0.015975 0.05647,0.075407 0.064288,0.067687c0.00437,-0.004273 -0.008303,-0.023112 -0.028162,-0.041855c-0.019859,-0.018742 -0.036125,-0.030396 -0.036125,-0.025832m18.992697,0.030979c-0.017431,0.015586 -0.028696,0.031318 -0.025055,0.03496c0.009274,0.009274 0.023064,-0.000825 0.046953,-0.034426c0.026026,-0.036514 0.018597,-0.03666 -0.021899,-0.000534m-18.904083,0.165284c0.005341,0.015295 0.019082,0.03025 0.030542,0.033261c0.028599,0.007478 0.028114,0.005681 -0.008254,-0.029862l-0.03195,-0.031221l0.009663,0.027822m18.854944,0.002331c-0.003787,0.014324 -0.014518,0.028017 -0.023841,0.030444c-0.014324,0.003739 -0.014518,0.004613 -0.001165,0.005584c0.02083,0.001457 0.040107,-0.022675 0.035494,-0.044526c-0.002768,-0.013304 -0.005293,-0.011216 -0.010488,0.008497m-18.787403,0.141006c-0.000825,0.022578 0.032387,0.052052 0.057247,0.050741c0.008157,-0.000388 0.003059,-0.00505 -0.011313,-0.010294c-0.014372,-0.005293 -0.030347,-0.021267 -0.03564,-0.03564c-0.008546,-0.023404 -0.009614,-0.023889 -0.010294,-0.004807m18.698547,0.037728c-0.015732,0.011556 -0.016218,0.01379 -0.002962,0.01379c0.00874,0 0.018742,-0.004661 0.022238,-0.010342c0.010294,-0.016655 0.001068,-0.018305 -0.019277,-0.003447m-18.621149,0.105706c0.014372,0.040107 0.027677,0.0538 0.051663,0.053363c0.018548,-0.00034 0.017917,-0.001894 -0.006021,-0.014858c-0.014712,-0.008012 -0.026706,-0.017917 -0.026706,-0.022044c0,-0.004176 -0.006604,-0.016023 -0.014615,-0.026414c-0.013547,-0.017431 -0.013887,-0.016703 -0.004321,0.009954m18.540838,0.031901c-0.013838,0.014081 -0.016849,0.02185 -0.008449,0.02185c0.015149,0 0.038213,-0.024958 0.033309,-0.036077c-0.001845,-0.004176 -0.013013,0.002234 -0.024861,0.014227m-0.09818,0.131732c-0.035349,0.037582 -0.018791,0.052877 0.017723,0.016363c0.020005,-0.020005 0.02554,-0.038845 0.011411,-0.038845c-0.004419,0 -0.017529,0.0101 -0.029133,0.022481m-18.297428,0.057004c-0.000146,0.025346 0.022433,0.055645 0.048167,0.064579c0.017529,0.006167 0.027725,0.006652 0.024375,0.001214c-0.003156,-0.005147 -0.012139,-0.009323 -0.019908,-0.009323c-0.007769,0 -0.022773,-0.014178 -0.033358,-0.031561c-0.010585,-0.017334 -0.019277,-0.028551 -0.019277,-0.024909m18.263391,0.029133c-0.003593,0.014275 -0.014178,0.02792 -0.023501,0.030347c-0.015683,0.004127 -0.015732,0.004516 -0.00034,0.005584c0.018063,0.001214 0.040398,-0.031658 0.034183,-0.050352c-0.002136,-0.006312 -0.006798,0.000146 -0.010342,0.014421m-18.087134,0.21617c0.010731,0.023501 0.035349,0.039767 0.045254,0.029862c0.006021,-0.006021 -0.036805,-0.053605 -0.048264,-0.053605c-0.004273,0 -0.002913,0.010682 0.00301,0.023744m17.924132,-0.000923c-0.006361,0.013935 -0.019956,0.028017 -0.030202,0.03127c-0.010294,0.003302 -0.016509,0.008157 -0.013838,0.010828c0.011168,0.011119 0.046953,-0.010148 0.055693,-0.033115c0.012673,-0.033358 0.002913,-0.040884 -0.011653,-0.008983m-17.866739,0.076038c-0.000825,0.020976 0.0252,0.047002 0.046176,0.046176c0.011556,-0.000437 0.009857,-0.003205 -0.005778,-0.009468c-0.012139,-0.004856 -0.026074,-0.018791 -0.03093,-0.03093c-0.006264,-0.015635 -0.009031,-0.017334 -0.009468,-0.005778m0.077349,0.09177c-0.000437,0.016023 0.026172,0.035349 0.040641,0.02957c0.00806,-0.003253 0.006604,-0.005293 -0.00403,-0.005778c-0.00908,-0.000437 -0.020976,-0.0084 -0.026414,-0.017771c-0.005438,-0.009371 -0.010051,-0.01209 -0.010197,-0.006021m0.068318,0.072834c-0.000777,0.019956 0.023889,0.04103 0.040301,0.034426c0.00772,-0.003108 0.005875,-0.005293 -0.004807,-0.005778c-0.009517,-0.000437 -0.021267,-0.010585 -0.026123,-0.022627c-0.005924,-0.014809 -0.008983,-0.016752 -0.009371,-0.006021m0.077349,0.082545c-0.000437,0.016023 0.026172,0.035349 0.040641,0.02957c0.00806,-0.003253 0.006604,-0.005293 -0.00403,-0.005778c-0.00908,-0.000437 -0.020976,-0.0084 -0.026414,-0.017771c-0.005438,-0.009323 -0.010051,-0.01209 -0.010197,-0.006021m0.077398,0.073999c0,0.00874 0.004661,0.018742 0.010342,0.022238c0.016655,0.010294 0.018305,0.001068 0.003447,-0.019277c-0.011556,-0.015732 -0.01379,-0.016218 -0.01379,-0.002962m0.156058,0.1244c-0.000971,0.022093 0.020053,0.045108 0.047876,0.052343c0.023355,0.006118 0.02355,0.005778 0.005438,-0.00874c-0.010391,-0.008254 -0.021704,-0.015052 -0.025249,-0.015052c-0.003496,0 -0.011119,-0.009857 -0.016897,-0.02185c-0.007041,-0.014567 -0.010731,-0.0168 -0.011168,-0.006701m16.882127,0.020636c-0.005341,0.012333 -0.018451,0.023889 -0.029133,0.025783c-0.010682,0.001894 -0.023501,0.007332 -0.028502,0.012042c-0.004953,0.00471 0.005681,0.00437 0.023647,-0.000777c0.039816,-0.011411 0.05142,-0.022044 0.04705,-0.043215c-0.002671,-0.012867 -0.005341,-0.011605 -0.013061,0.006167m-0.109979,0.06924c-0.02724,0.028988 -0.026948,0.039524 0.000728,0.024958c0.02219,-0.011702 0.03598,-0.026948 0.036271,-0.040156c0.000291,-0.013887 -0.015975,-0.007186 -0.036999,0.015198m-16.471395,0.1311c-0.000777,0.0252 0.019179,0.048507 0.050401,0.058898c0.029036,0.009711 0.030153,0.009371 0.012916,-0.003836c-0.010391,-0.007915 -0.022238,-0.014421 -0.026414,-0.014421c-0.004127,0 -0.014033,-0.011993 -0.022044,-0.026706c-0.007963,-0.014664 -0.014664,-0.020976 -0.014858,-0.013935m16.281154,0.009177c-0.003884,0.01209 -0.019859,0.028599 -0.035494,0.03666c-0.036902,0.019082 -0.036465,0.025735 0.000874,0.012722c0.030444,-0.010634 0.052537,-0.039573 0.045642,-0.059723c-0.002185,-0.006361 -0.007138,-0.001748 -0.011022,0.010342m-15.884114,0.234038c0.013984,0.026172 0.060889,0.05647 0.052149,0.033698c-0.00806,-0.021025 -0.038796,-0.05176 -0.05176,-0.05176c-0.006798,0 -0.006895,0.005875 -0.000388,0.018063m0.376743,0.147415c0.002865,0.010876 0.018208,0.02656 0.034135,0.034814c0.03195,0.016509 0.030396,0.006992 -0.005438,-0.032775c-0.024424,-0.027191 -0.035446,-0.027968 -0.028696,-0.002039m14.718244,0.002039c-0.035834,0.039767 -0.037388,0.049284 -0.005438,0.032775c0.015926,-0.008254 0.03127,-0.023938 0.034135,-0.034814c0.006749,-0.025929 -0.004273,-0.025152 -0.028696,0.002039m-14.492169,0.070163c0,0.015295 0.045642,0.050109 0.054285,0.041418c0.004904,-0.004856 -0.040593,-0.055742 -0.049867,-0.055742c-0.002428,0 -0.004419,0.006458 -0.004419,0.014324m14.257742,0.011945c-0.012382,0.013353 -0.020151,0.02656 -0.017286,0.029425c0.008691,0.008691 0.054334,-0.026026 0.054334,-0.041369c0,-0.019859 -0.010731,-0.016412 -0.037048,0.011945" id="path0"/>
   <path fill-rule="evenodd" fill="#808080" d="m3.292302,0.214271c-0.011314,0.002233 -0.026367,0.017771 -0.033989,0.035105l-0.013693,0.031076l-0.1311,0.004856c-0.134402,0.005001 -0.155378,0.00976 -0.155378,0.035251c0,0.032775 -0.025686,0.042438 -0.113426,0.042583c-0.094732,0.000146 -0.104394,0.003448 -0.118331,0.040107c-0.008837,0.023307 -0.015634,0.025881 -0.085215,0.032387c-0.095315,0.008934 -0.117942,0.017674 -0.125663,0.04841c-0.004806,0.019131 -0.012333,0.024618 -0.033795,0.024618c-0.037631,0 -0.12537,0.019374 -0.124254,0.027434c0.005633,0.040835 -0.001651,0.047536 -0.058072,0.053412c-0.075747,0.007914 -0.086769,0.013207 -0.093761,0.044914c-0.00539,0.024667 -0.010634,0.027482 -0.059869,0.032581c-0.057199,0.005875 -0.09075,0.0269 -0.09075,0.05681c0,0.013887 -0.00738,0.017917 -0.032824,0.017917c-0.034474,0 -0.050206,0.012042 -0.055936,0.042874c-0.002573,0.013596 -0.019083,0.022773 -0.061471,0.033989c-0.043652,0.011605 -0.060986,0.021413 -0.070018,0.03967c-0.007527,0.015247 -0.025735,0.02821 -0.048847,0.034814c-0.031513,0.008983 -0.037243,0.014956 -0.039865,0.041273c-0.002476,0.024958 -0.007332,0.030736 -0.02588,0.030736c-0.036902,0 -0.053605,0.010342 -0.053605,0.033067c0,0.025637 -0.01714,0.044623 -0.040253,0.044623c-0.025782,0 -0.084389,0.037873 -0.091041,0.058849c-0.003302,0.010392 -0.01952,0.022045 -0.036854,0.026414c-0.021511,0.005438 -0.035106,0.017189 -0.044671,0.038553c-0.008206,0.018452 -0.024861,0.034669 -0.041612,0.040496c-0.017868,0.006215 -0.031659,0.020344 -0.038214,0.039136c-0.005632,0.016217 -0.02185,0.03496 -0.036028,0.041661c-0.014179,0.006749 -0.032338,0.026171 -0.04035,0.043215c-0.008012,0.017043 -0.02423,0.033454 -0.03598,0.036465c-0.011896,0.003108 -0.028696,0.020781 -0.037727,0.039815c-0.008934,0.01884 -0.018306,0.032192 -0.020831,0.029619c-0.01209,-0.012042 -0.070551,0.069823 -0.070551,0.098762c0,0.023889 -0.018645,0.041127 -0.04438,0.041127c-0.01714,0 -0.022287,0.007332 -0.027337,0.038845c-0.004709,0.029667 -0.010584,0.038845 -0.024812,0.038845c-0.025589,0 -0.049138,0.025782 -0.049138,0.053897c0,0.01413 -0.009469,0.029571 -0.024035,0.039087c-0.029473,0.019326 -0.053654,0.065647 -0.053654,0.102744c0,0.020199 -0.00471,0.027628 -0.017577,0.027628c-0.036854,0 -0.054673,0.025006 -0.059918,0.084049c-0.004806,0.0538 -0.006652,0.057248 -0.035931,0.065891c-0.031124,0.009128 -0.041564,0.027191 -0.041807,0.072348c-0.000096,0.013401 -0.016508,0.040932 -0.03899,0.065306c-0.030542,0.033164 -0.038845,0.049721 -0.038845,0.077641c0,0.027676 -0.007187,0.042243 -0.032629,0.066278c-0.028648,0.026996 -0.033552,0.038942 -0.039719,0.096432c-0.006264,0.058655 -0.00976,0.066813 -0.032872,0.076961c-0.037388,0.016411 -0.040156,0.023452 -0.040302,0.104103c-0.000145,0.07191 -0.019179,0.10823 -0.051857,0.09881c-0.004419,-0.001263 -0.005196,0.002233 -0.001796,0.007769c0.003399,0.005487 -0.000632,0.016849 -0.008983,0.0252c-0.011897,0.011897 -0.015198,0.037874 -0.015198,0.120078l0,0.104929l-0.027919,0.005584c-0.042924,0.008594 -0.044283,0.018936 -0.04773,0.363439c-0.003108,0.311922 -0.003884,0.322895 -0.022045,0.322895c-0.018645,0 -0.018839,0.072542 -0.018839,6.278248c0,6.27179 0,6.278249 0.019422,6.278249c0.018985,0 0.019422,0.006458 0.019422,0.296481c0,0.321584 0.003496,0.346638 0.052585,0.378782c0.024327,0.015975 0.025104,0.01952 0.025104,0.117942c0,0.106385 0.00874,0.139063 0.037242,0.139063c0.032435,0 0.040447,0.020927 0.040592,0.106337c0.000146,0.089828 0.004516,0.103035 0.039816,0.120564c0.019131,0.009516 0.024861,0.02287 0.032872,0.076572c0.007866,0.052731 0.015684,0.071425 0.041273,0.09847c0.021753,0.023016 0.031561,0.042826 0.031561,0.063754c0,0.016703 0.008546,0.047099 0.018985,0.067589c0.010488,0.02049 0.018111,0.038893 0.016994,0.040884c-0.001068,0.001991 -0.00034,0.002719 0.0017,0.001554c0.015926,-0.008983 0.04001,0.021704 0.04001,0.050983c0,0.026075 0.008691,0.042584 0.038845,0.07366c0.026512,0.027336 0.038845,0.048653 0.038845,0.067201c0,0.043506 0.00942,0.056955 0.044623,0.063559c0.028357,0.005293 0.033067,0.0101 0.033067,0.033697c0,0.032533 0.035349,0.096578 0.053314,0.096578c0.014469,0 0.024375,0.021218 0.024375,0.052245c0,0.027483 0.017383,0.044866 0.044769,0.044866c0.017528,0 0.022724,0.007186 0.028064,0.038845c0.005342,0.031658 0.010537,0.038845 0.028065,0.038845c0.025686,0 0.044769,0.017043 0.044769,0.04001c0,0.025006 0.031124,0.07429 0.054916,0.087012c0.011508,0.006215 0.029037,0.02622 0.038845,0.044476c0.009857,0.018306 0.027726,0.035737 0.039767,0.038748c0.011993,0.003059 0.022384,0.009419 0.023064,0.014178c0.002524,0.017966 0.004661,0.023793 0.01646,0.04506c0.006701,0.012042 0.020685,0.02185 0.031124,0.02185c0.012382,0 0.024958,0.012575 0.036077,0.036028c0.010974,0.023113 0.025783,0.038019 0.04137,0.041661c0.013401,0.003156 0.030055,0.017674 0.037193,0.032483c0.007138,0.014761 0.028017,0.034038 0.04642,0.042826c0.018451,0.008788 0.031609,0.020976 0.02923,0.027094c-0.004613,0.012042 0.009371,0.023841 0.061958,0.0521c0.01879,0.0101 0.033406,0.0252 0.032678,0.033746c-0.000728,0.008497 0.002379,0.013158 0.006895,0.010391c0.004564,-0.002815 0.01748,0.004079 0.028794,0.015393c0.011265,0.011265 0.035202,0.02287 0.053217,0.025782c0.02821,0.004614 0.033163,0.009566 0.035688,0.035689c0.00267,0.027482 0.006458,0.030687 0.039379,0.033406c0.031027,0.002573 0.036416,0.006409 0.036416,0.026171c0,0.026949 0.032872,0.053363 0.066424,0.053363c0.014566,0 0.036368,0.014226 0.058509,0.038213c0.025881,0.028017 0.04438,0.039039 0.069289,0.041273c0.026317,0.002379 0.034669,0.007818 0.037,0.024181c0.004515,0.031706 0.022093,0.041369 0.087789,0.048216c0.053459,0.005632 0.059723,0.008546 0.059723,0.027968c0,0.030881 0.016412,0.040835 0.082448,0.050061c0.046905,0.006506 0.0588,0.011847 0.061714,0.027482c0.005778,0.031076 0.02117,0.043652 0.053654,0.043749c0.056179,0.000194 0.103229,0.011798 0.103229,0.025443c0,0.03632 0.036465,0.052149 0.120223,0.052149c0.086721,0 0.095655,0.004273 0.106822,0.050984l0.00641,0.026705l0.09983,0c0.105366,0 0.123137,0.006409 0.123137,0.04438c0,0.027239 0.0336,0.033066 0.191795,0.033212c0.112455,0.000097 0.118962,0.001165 0.118962,0.01952c0,0.019422 0.006458,0.019422 6.778372,0.019422c6.771913,0 6.778372,0 6.778372,-0.019422c0,-0.018403 0.006797,-0.019471 0.128673,-0.020394c0.149308,-0.001117 0.176062,-0.006311 0.180239,-0.035154c0.005001,-0.034329 0.022918,-0.040689 0.122749,-0.043603c0.079583,-0.002331 0.096917,-0.005632 0.10386,-0.019811c0.004564,-0.009371 0.012042,-0.024618 0.016606,-0.033988c0.00641,-0.013111 0.022433,-0.017529 0.070406,-0.019375c0.105901,-0.004078 0.125468,-0.010002 0.136393,-0.041272c0.008788,-0.0252 0.015149,-0.028551 0.064822,-0.034038c0.030299,-0.003301 0.061374,-0.006895 0.069046,-0.007914c0.007673,-0.00102 0.017626,-0.016024 0.022141,-0.033358c0.007284,-0.028163 0.01209,-0.031708 0.044331,-0.032824c0.093178,-0.003156 0.108959,-0.00976 0.108959,-0.045642c0,-0.026851 0.002331,-0.028309 0.052585,-0.033504c0.06793,-0.006992 0.093082,-0.020782 0.093082,-0.051032c0,-0.021267 0.004127,-0.023938 0.037,-0.023938c0.031027,0 0.042341,-0.006215 0.070405,-0.038602c0.022287,-0.025782 0.041564,-0.038698 0.057927,-0.038845c0.034863,-0.00034 0.067736,-0.026366 0.067736,-0.053605c0,-0.019713 0.00539,-0.023598 0.036028,-0.026171c0.028842,-0.002428 0.037145,-0.007673 0.041515,-0.026367c0.002963,-0.012866 0.011897,-0.026414 0.019811,-0.030153c0.075261,-0.035495 0.107502,-0.055548 0.11197,-0.069532c0.002865,-0.009128 0.020781,-0.021704 0.039719,-0.027968c0.024617,-0.008109 0.03831,-0.020539 0.047924,-0.043603c0.008692,-0.020781 0.021268,-0.033309 0.035495,-0.035349c0.01345,-0.001894 0.027677,-0.015052 0.036563,-0.033843c0.009323,-0.019713 0.025006,-0.033746 0.0437,-0.039087c0.020782,-0.005924 0.031659,-0.016897 0.037971,-0.038068c0.006311,-0.021267 0.017383,-0.032338 0.03865,-0.03865c0.021171,-0.006312 0.032144,-0.017189 0.038068,-0.037971c0.005292,-0.018499 0.019422,-0.034474 0.038747,-0.0437c0.021073,-0.0101 0.032873,-0.024472 0.038505,-0.046953c0.005147,-0.020539 0.012721,-0.030638 0.020685,-0.027628c0.013498,0.005195 0.024666,-0.007672 0.053557,-0.061374c0.0101,-0.018791 0.0252,-0.033406 0.033746,-0.032678c0.008497,0.000728 0.013158,-0.002379 0.010391,-0.006895c-0.002815,-0.004565 0.004079,-0.01748 0.015393,-0.028794c0.011265,-0.011265 0.02287,-0.035204 0.025782,-0.053217c0.004614,-0.028211 0.009566,-0.033164 0.035689,-0.035688c0.02758,-0.00267 0.030687,-0.00641 0.033454,-0.039865c0.002283,-0.027628 0.008449,-0.038941 0.024667,-0.045108c0.031415,-0.011944 0.044865,-0.031949 0.052829,-0.078611c0.006701,-0.039379 0.01209,-0.045399 0.060258,-0.067687c0.008691,-0.004031 0.01578,-0.023016 0.017529,-0.047002c0.00165,-0.02219 0.006895,-0.040301 0.011653,-0.040301c0.004758,0 0.020442,-0.010925 0.034863,-0.024278c0.014421,-0.013352 0.022481,-0.024277 0.017966,-0.024277c-0.004516,0 -0.002963,-0.005245 0.003447,-0.011653c0.006409,-0.00641 0.011653,-0.025832 0.011653,-0.043166c0,-0.024812 0.005681,-0.034232 0.026705,-0.044283c0.02991,-0.014324 0.049575,-0.059967 0.050449,-0.116971c0.00034,-0.023744 0.00505,-0.036416 0.013596,-0.036416c0.027968,0 0.047002,-0.038311 0.058218,-0.117165c0.011216,-0.079048 0.016121,-0.087594 0.057394,-0.100315c0.014324,-0.004419 0.016994,-0.017431 0.016994,-0.082594c0,-0.067832 0.002282,-0.078078 0.018694,-0.083272c0.041418,-0.013158 0.058995,-0.066328 0.058995,-0.178442l0,-0.104249l0.031561,-0.009323c0.042,-0.012333 0.043602,-0.02253 0.044962,-0.283613c0.001117,-0.209227 0.001796,-0.216073 0.020588,-0.216073c0.019422,0 0.019422,-0.006459 0.019422,-6.467616c0,-6.461158 0,-6.467616 -0.019422,-6.467616c-0.018791,0 -0.019422,-0.006459 -0.019422,-0.20374c0,-0.225832 -0.009566,-0.276524 -0.054189,-0.287741c-0.02219,-0.005584 -0.022967,-0.009225 -0.025637,-0.117845c-0.002331,-0.095412 -0.005243,-0.113329 -0.019713,-0.120418c-0.009371,-0.004564 -0.024618,-0.012042 -0.033988,-0.016606c-0.013984,-0.006797 -0.017868,-0.025637 -0.02185,-0.106046c-0.00267,-0.05375 -0.007041,-0.099393 -0.009711,-0.101433c-0.00267,-0.001991 -0.016412,-0.008594 -0.030493,-0.014615c-0.023161,-0.009954 -0.026317,-0.017675 -0.032581,-0.080068c-0.006069,-0.060451 -0.01107,-0.073416 -0.039913,-0.104006c-0.02219,-0.02355 -0.033213,-0.044817 -0.033697,-0.065161c-0.001214,-0.04977 -0.023064,-0.097209 -0.051032,-0.110853c-0.019276,-0.00942 -0.025928,-0.019908 -0.025928,-0.041029c0,-0.015587 -0.008497,-0.042389 -0.018936,-0.059481c-0.010392,-0.017092 -0.016607,-0.034815 -0.013839,-0.03933c0.002816,-0.004515 0.001505,-0.007575 -0.002913,-0.006798c-0.032241,0.005584 -0.04103,-0.00267 -0.043894,-0.041223c-0.001942,-0.026609 -0.008741,-0.04307 -0.019957,-0.048556c-0.009323,-0.004516 -0.024618,-0.011994 -0.033988,-0.016558c-0.011557,-0.005681 -0.019083,-0.024958 -0.023453,-0.060258c-0.006604,-0.05312 -0.024667,-0.077106 -0.057927,-0.077106c-0.012624,0 -0.017771,-0.009371 -0.020004,-0.036416c-0.002719,-0.032922 -0.005924,-0.036709 -0.033406,-0.039379c-0.026221,-0.002525 -0.031076,-0.007478 -0.035737,-0.036077c-0.003156,-0.019374 -0.018743,-0.046565 -0.037583,-0.06555c-0.017722,-0.017821 -0.039718,-0.048411 -0.048847,-0.067882c-0.009177,-0.019471 -0.02991,-0.042292 -0.046128,-0.050692c-0.016461,-0.008497 -0.029522,-0.023064 -0.029522,-0.03292c0,-0.02088 -0.029279,-0.049818 -0.050353,-0.049818c-0.0084,0 -0.018645,-0.013644 -0.023743,-0.031561c-0.006652,-0.0235 -0.016656,-0.033843 -0.03933,-0.040592c-0.021996,-0.006556 -0.032775,-0.017238 -0.038893,-0.038553c-0.006118,-0.021364 -0.016801,-0.031901 -0.038456,-0.038116c-0.019713,-0.005681 -0.034572,-0.018936 -0.043409,-0.038747c-0.009178,-0.020588 -0.023113,-0.032533 -0.043943,-0.037777c-0.020976,-0.005341 -0.032387,-0.015198 -0.036514,-0.03161c-0.003642,-0.014469 -0.019277,-0.030153 -0.039816,-0.039913c-0.018645,-0.008837 -0.051371,-0.033018 -0.072784,-0.053799c-0.027628,-0.026851 -0.047342,-0.037777 -0.068027,-0.037777c-0.025977,0 -0.029133,-0.003205 -0.029133,-0.029424c0,-0.029765 -0.002963,-0.032241 -0.050984,-0.042778c-0.014664,-0.003205 -0.026705,-0.011508 -0.026705,-0.018403c0,-0.028017 -0.027386,-0.047244 -0.082885,-0.058218c-0.053314,-0.010537 -0.058169,-0.013693 -0.062782,-0.040544c-0.004468,-0.026414 -0.008837,-0.029424 -0.046176,-0.032095c-0.035786,-0.002622 -0.041224,-0.005973 -0.041224,-0.02554c0,-0.032581 -0.018645,-0.043555 -0.085944,-0.050547c-0.057441,-0.006021 -0.059723,-0.007283 -0.059723,-0.033455c0,-0.033989 -0.008934,-0.039475 -0.076621,-0.046711c-0.049381,-0.005341 -0.055741,-0.00874 -0.067929,-0.036368c-0.01413,-0.032096 -0.041806,-0.042001 -0.118087,-0.042243c-0.030396,-0.000097 -0.035495,-0.003788 -0.043701,-0.031659c-0.009079,-0.03093 -0.01073,-0.031706 -0.082107,-0.03933c-0.055014,-0.005875 -0.076475,-0.012479 -0.087644,-0.026948c-0.026414,-0.034281 -0.066424,-0.047827 -0.141006,-0.047827c-0.07191,0 -0.094246,-0.014324 -0.083224,-0.053412c0.001505,-0.005341 -0.000388,-0.006604 -0.004224,-0.002768c-0.003788,0.003837 -0.01617,0.001651 -0.027483,-0.004855c-0.012382,-0.007089 -0.078417,-0.013742 -0.165478,-0.016654l-0.144939,-0.004856l-0.016071,-0.029133c-0.010051,-0.01816 -0.026803,-0.031464 -0.044478,-0.035251c-0.030638,-0.006652 -13.465022,-0.0084 -13.498573,-0.001796m10.453259,12.005438c0.007672,0.022045 0.017334,0.029717 0.042194,0.033504c0.03666,0.005584 0.924792,0.015538 1.389421,0.015587c0.295121,0.000049 0.308328,0.000826 0.308328,0.018306c0,0.026996 0.024423,0.042583 0.085895,0.054868c0.04977,0.009905 0.055353,0.013596 0.059821,0.039329c0.004029,0.023258 0.010245,0.028891 0.034814,0.03127c0.025589,0.002524 0.031222,0.008157 0.038796,0.038845c0.007624,0.03093 0.013158,0.036368 0.039476,0.038893c0.027871,0.002719 0.031123,0.006604 0.036514,0.0437c0.003253,0.022432 0.006846,0.047293 0.008011,0.055305c0.002865,0.019616 0.028357,0.0437 0.046274,0.0437c0.011168,0 0.015683,0.016412 0.019422,0.069969c0.005243,0.075456 0.011265,0.086867 0.048556,0.091868l0.024277,0.003253l0.002477,0.803209c0.002428,0.776696 0.001894,0.803547 -0.015733,0.812967c-0.010002,0.00539 -0.021656,0.006652 -0.02588,0.002815c-0.004224,-0.003836 -0.00471,-0.001747 -0.001068,0.004614c0.003641,0.006311 0.001068,0.015052 -0.005729,0.019422c-0.015538,0.009905 -0.018161,0.0252 -0.024036,0.138966c-0.005243,0.101724 -0.009468,0.111533 -0.051615,0.119981c-0.025152,0.005001 -0.028939,0.010002 -0.028939,0.038019c0,0.027871 -0.004176,0.033455 -0.031319,0.041515c-0.023646,0.006992 -0.033551,0.017043 -0.040252,0.040835c-0.006409,0.022725 -0.014664,0.03161 -0.029376,0.031706c-0.030736,0.000243 -0.042633,0.011411 -0.046274,0.043603c-0.003156,0.027726 -0.005924,0.029377 -0.058995,0.035057c-0.059918,0.006458 -0.085118,0.020442 -0.085118,0.047293c0,0.027482 -0.049576,0.02894 -0.995634,0.028988c-2.474203,0.000194 -2.984766,0.009274 -3.001663,0.053265c-0.008788,0.022918 -2.873087,0.022918 -2.881876,0c-0.016897,-0.044039 -0.5278,-0.053071 -3.004188,-0.053265c-0.988545,-0.000049 -0.981018,0.000242 -0.994711,-0.039039c-0.010294,-0.029424 -0.031173,-0.038019 -0.092887,-0.038214c-0.036902,-0.000145 -0.04171,-0.002864 -0.046953,-0.02685c-0.010488,-0.047925 -0.013013,-0.050984 -0.041661,-0.050984c-0.024569,0 -0.029231,-0.004419 -0.034572,-0.033067c-0.006215,-0.032969 -0.020393,-0.044623 -0.054431,-0.044623c-0.013061,0 -0.018839,-0.008352 -0.021025,-0.03059c-0.001747,-0.017189 -0.010488,-0.034183 -0.020053,-0.038845c-0.009323,-0.004516 -0.024618,-0.011994 -0.033988,-0.016558c-0.01447,-0.007041 -0.017723,-0.026996 -0.021996,-0.133528c-0.005292,-0.133334 -0.00874,-0.145958 -0.043117,-0.159069c-0.034037,-0.012915 -0.034426,-0.021801 -0.034426,-0.806752c0,-0.732462 0.002233,-0.786019 0.033067,-0.786019c0.03059,0 0.044623,-0.029085 0.044623,-0.092401c0,-0.057782 0.001747,-0.062783 0.026414,-0.074582c0.033843,-0.016218 0.050935,-0.050498 0.051129,-0.102501c0.000146,-0.039233 0.001554,-0.041273 0.02894,-0.041273c0.030444,0 0.048895,-0.021559 0.048895,-0.057004c0,-0.014761 0.007478,-0.020199 0.030978,-0.022482c0.025832,-0.002573 0.032387,-0.008351 0.039136,-0.034619c0.006652,-0.025881 0.012916,-0.031561 0.034572,-0.03161c0.056859,-0.000146 0.100268,-0.019422 0.110658,-0.049187l0.009906,-0.028454l0.30255,-0.000049c0.459871,-0.000049 1.347177,-0.010051 1.383594,-0.015587c0.024861,-0.003787 0.034523,-0.011459 0.042196,-0.033504l0.009954,-0.02855l3.688338,0l3.688338,0" id="path1"/>
   <path fill-rule="evenodd" fill="#ffffff" d="m3.150923,0.265837c-0.009711,0.010682 -0.01311,0.019471 -0.007574,0.019471c0.012187,0 0.036416,-0.027774 0.02991,-0.034281c-0.002574,-0.002573 -0.012625,0.004079 -0.022336,0.01481m13.600396,-0.012333c0,0.012187 0.027773,0.036416 0.034281,0.02991c0.002573,-0.002574 -0.004079,-0.012625 -0.01481,-0.022336c-0.010683,-0.009711 -0.019471,-0.01311 -0.019471,-0.007574m0.342658,0.06385c0.011847,0.012285 0.023307,0.021073 0.025491,0.019471c0.005681,-0.004029 -0.029668,-0.041806 -0.039136,-0.041806c-0.004322,0 0.001845,0.010051 0.013644,0.022335m-14.249197,0.021608c-0.016799,0.020199 -0.004418,0.030007 0.014276,0.011314c0.008302,-0.008255 0.015052,-0.017529 0.015052,-0.020588c0,-0.01078 -0.017189,-0.005342 -0.029328,0.009274m14.435844,0.033843c0.003302,0.005292 0.011993,0.009614 0.019374,0.009614c0.007429,0 0.020248,0.009711 0.0286,0.021607c0.008302,0.011848 0.015101,0.016898 0.015101,0.011168c0,-0.005681 -0.007624,-0.016897 -0.016994,-0.024957c-0.021171,-0.018161 -0.054237,-0.030687 -0.04608,-0.017431m-14.659006,0.038747c-0.00772,0.004759 -0.010779,0.011896 -0.006847,0.015829c0.003933,0.003933 0.012285,0.00204 0.0185,-0.004176c0.014664,-0.014664 0.006506,-0.02287 -0.011653,-0.011653m15.042547,0.142997c0,0.012187 0.027773,0.036416 0.034281,0.02991c0.002573,-0.002574 -0.004079,-0.012625 -0.01481,-0.022336c-0.010683,-0.009711 -0.019471,-0.01311 -0.019471,-0.007574m-15.80526,0.236368c-0.003545,0.005729 -0.004078,0.012721 -0.001214,0.015538c0.006944,0.006992 0.025881,-0.005292 0.025881,-0.016752c0,-0.012382 -0.016752,-0.011556 -0.024667,0.001214m16.185839,0c0.002331,0.006992 0.009954,0.014616 0.016994,0.016994c0.007284,0.002428 0.010925,-0.001213 0.008497,-0.008497c-0.002378,-0.007041 -0.010002,-0.014664 -0.016994,-0.016994c-0.007283,-0.002428 -0.010925,0.001214 -0.008497,0.008497m0.310999,0.203885c0.009129,0.005342 0.023355,0.019277 0.031561,0.030979c0.008206,0.01175 0.014907,0.015974 0.014907,0.009468c0,-0.015683 -0.035543,-0.050838 -0.050984,-0.050449c-0.006895,0.000195 -0.004952,0.004468 0.004515,0.010002m-16.797446,0.028503c-0.009711,0.010682 -0.01311,0.019471 -0.007574,0.019471c0.012187,0 0.036416,-0.027774 0.02991,-0.034281c-0.002574,-0.002573 -0.012625,0.004079 -0.022336,0.01481m-0.080165,0.038796c-0.017335,0.010585 -0.031561,0.023646 -0.031561,0.029085c0,0.005438 0.008011,0.002233 0.017868,-0.007137c0.009809,-0.009371 0.026171,-0.02219 0.036416,-0.028551c0.010197,-0.006361 0.016363,-0.011799 0.013693,-0.01209c-0.00267,-0.00034 -0.019034,0.008109 -0.036416,0.018694m16.990212,0.014664c0.004904,0.010683 0.011361,0.025977 0.014324,0.033989c0.004661,0.012575 0.005535,0.012528 0.006166,-0.000583c0.000437,-0.008302 -0.006021,-0.023598 -0.014324,-0.033988c-0.014858,-0.018548 -0.014956,-0.018548 -0.006166,0.000582m-17.308835,0.291869c-0.018548,0.014858 -0.018548,0.014955 0.000582,0.006166c0.010683,-0.004904 0.025977,-0.011362 0.033989,-0.014324c0.012575,-0.004661 0.012528,-0.005536 -0.000583,-0.006166c-0.008302,-0.000437 -0.023598,0.00602 -0.033988,0.014324m17.672128,0.072882c0.009178,0.00539 0.021025,0.017238 0.026414,0.026414c0.005342,0.009178 0.009857,0.011557 0.010003,0.005245c0.000388,-0.014761 -0.0269,-0.042049 -0.041661,-0.041661c-0.006312,0.000146 -0.003933,0.004661 0.005243,0.010002m0.058899,0.089246c0.008934,0.0067 0.022918,0.020879 0.031027,0.03156l0.01481,0.019422l-0.006215,-0.019422c-0.006798,-0.021121 -0.030638,-0.0437 -0.04608,-0.0437c-0.005341,0 -0.002427,0.005487 0.006459,0.012139m-17.866351,0.026657c-0.009711,0.010682 -0.01311,0.019471 -0.007574,0.019471c0.012187,0 0.036416,-0.027774 0.02991,-0.034281c-0.002574,-0.002573 -0.012625,0.004079 -0.022336,0.01481m18.077229,0.289732c0,0.009662 0.021121,0.030785 0.030785,0.030785c0.012089,0 -0.001895,-0.027142 -0.016947,-0.03292c-0.007623,-0.002914 -0.013838,-0.001942 -0.013838,0.002136m0.094197,0.127993c0.011702,0.004758 0.028211,0.021947 0.03666,0.038261c0.0084,0.016266 0.017529,0.029619 0.020248,0.029619c0.006895,0 -0.014616,-0.040205 -0.032484,-0.060695c-0.008157,-0.009371 -0.021801,-0.016703 -0.030299,-0.016363c-0.010342,0.000388 -0.008351,0.003447 0.005875,0.009178m-18.482231,0.038747c-0.009662,0.010682 -0.014421,0.019422 -0.010584,0.019422c0.013887,0 0.044574,-0.020297 0.044574,-0.029473c0,-0.015247 -0.015149,-0.01078 -0.033989,0.010051m-0.064287,0.116582c-0.008643,0.005098 -0.023453,0.021316 -0.032873,0.036125c-0.015538,0.024521 -0.013887,0.023938 0.018161,-0.006507c0.042729,-0.040495 0.046516,-0.048167 0.014712,-0.029618m-0.088128,0.162613c-0.008012,0.009371 -0.017772,0.023549 -0.021608,0.031561c-0.003884,0.008011 -0.000533,0.006555 0.007429,-0.003205c0.007964,-0.009809 0.022481,-0.023841 0.03229,-0.031269c0.00976,-0.00738 0.012965,-0.013596 0.007138,-0.01379c-0.005827,-0.000146 -0.017189,0.00738 -0.025249,0.016703m18.809496,0.006312c0.009566,0.012867 0.018889,0.021947 0.020636,0.020297c0.006069,-0.005827 -0.018451,-0.043603 -0.028259,-0.043603c-0.005438,0 -0.001991,0.010488 0.007623,0.023307m-18.883932,0.171742c-0.012624,0.010245 -0.018936,0.018597 -0.013984,0.018597c0.012965,0 0.047439,-0.026705 0.041758,-0.032338c-0.00267,-0.00267 -0.015149,0.003545 -0.027774,0.013742m18.925642,-0.011314c0,0.009809 0.037777,0.034328 0.043603,0.028259c0.00165,-0.001747 -0.007429,-0.01107 -0.020297,-0.020636c-0.012819,-0.009614 -0.023307,-0.013061 -0.023307,-0.007623m-19.00469,0.214422c-0.010683,0.010682 -0.019277,0.024909 -0.019131,0.031561c0.000195,0.006895 0.004468,0.004952 0.010002,-0.004516c0.005342,-0.009128 0.019277,-0.023355 0.030979,-0.031561c0.01175,-0.008205 0.015974,-0.014906 0.009468,-0.014906c-0.006555,0 -0.020636,0.00874 -0.031318,0.019422m19.072668,0.008546c0,0.012382 0.02855,0.034135 0.035591,0.027045c0.007089,-0.007041 -0.014664,-0.035591 -0.027045,-0.035591c-0.00471,0 -0.008546,0.003836 -0.008546,0.008546m0.120709,0.288324c0.0084,0.0084 0.015247,0.020053 0.015247,0.025928c0,0.005827 0.002524,0.00806 0.005632,0.004952c0.007866,-0.007818 -0.013789,-0.046128 -0.026075,-0.046128c-0.005535,0 -0.003204,0.006846 0.005196,0.015247m0.034669,0.47031c0,0.005341 0.00874,0.009711 0.019422,0.009711c0.010682,0 0.019422,-0.00437 0.019422,-0.009711c0,-0.005341 -0.008741,-0.009711 -0.019422,-0.009711c-0.010683,0 -0.019422,0.00437 -0.019422,0.009711m-14.146695,8.824411c0.00937,0.002427 0.024666,0.002427 0.033988,0c0.009371,-0.002428 0.0017,-0.004468 -0.016994,-0.004468c-0.018694,0 -0.026317,0.00204 -0.016994,0.004468m8.914821,0c0.00937,0.002427 0.024617,0.002427 0.033988,0c0.009371,-0.002428 0.0017,-0.004468 -0.016994,-0.004468c-0.018694,0 -0.026366,0.00204 -0.016994,0.004468m-10.313808,2.110957c0.002331,0.006992 0.009954,0.014616 0.016994,0.016994c0.007284,0.002379 0.010925,-0.001213 0.008497,-0.008497c-0.002378,-0.007041 -0.010002,-0.014664 -0.016994,-0.016994c-0.007283,-0.002477 -0.010925,0.001214 -0.008497,0.008497m0.066133,0.288033c0,0.012187 0.027773,0.036416 0.034281,0.02991c0.002573,-0.002574 -0.004079,-0.012625 -0.01481,-0.022336c-0.010683,-0.009711 -0.019471,-0.01311 -0.019471,-0.007574m11.590287,0.012333c-0.009711,0.010682 -0.01311,0.019471 -0.007574,0.019471c0.012187,0 0.036416,-0.027774 0.02991,-0.034281c-0.002574,-0.002573 -0.012625,0.004079 -0.022336,0.01481m-11.097059,0.327702c0.033601,0.001894 0.086041,0.001894 0.116534,0c0.030493,-0.001942 0.00301,-0.003496 -0.061083,-0.003496c-0.064093,0.000049 -0.08905,0.001602 -0.05545,0.003496m10.517159,0c0.033601,0.001894 0.086041,0.001894 0.116534,0c0.030493,-0.001942 0.00301,-0.003496 -0.061083,-0.003496c-0.064093,0.000049 -0.08905,0.001602 -0.05545,0.003496m-7.690879,0.009809c0.177957,0.001456 0.466378,0.001456 0.640935,0c0.174509,-0.001505 0.028891,-0.002719 -0.323624,-0.002719m4.023566,0.002719c0.177957,0.001456 0.466378,0.001456 0.640935,0c0.174509,-0.001505 0.028891,-0.002719 -0.323624,-0.002719c-0.352514,0 -0.495317,0.001214 -0.317311,0.002719m-3.332618,0.015635c0.016799,0.007818 0.035251,0.02219 0.04098,0.032046m-8.214357,1.789374c0,0.009809 0.037777,0.034328 0.043603,0.028259c-0.033115,-0.03025 -0.043603,-0.033697 -0.043603,-0.028259m0.103035,0.286527c0.005778,0.015052 0.03292,0.029036 0.03292,0.016947c0,-0.009663 -0.021122,-0.030785 -0.030785,-0.030785c-0.004078,0 -0.00505,0.006215 -0.002136,0.013838m19.125011,-0.005729c0,0.006215 -0.008741,0.020053 -0.019422,0.030736c-0.010683,0.010682 -0.015149,0.019422 -0.009955,0.019422c0.012819,0 0.043312,-0.047536 0.035543,-0.055354c-0.003399,-0.00335 -0.006166,-0.001068 -0.006166,0.005196m-19.048342,0.234718c0.009711,0.01073 0.019762,0.017383 0.022336,0.01481c0.006506,-0.006507 -0.017723,-0.034281 -0.02991,-0.034281c-0.005536,0 -0.002137,0.008788 0.007574,0.019471m18.931614,-0.004661c-0.018742,0.022626 -0.00539,0.026851 0.014712,0.004661c0.009711,-0.010683 0.013111,-0.019471 0.007575,-0.019471c-0.005487,0 -0.015538,0.006652 -0.022287,0.01481m-18.881941,0.155523c0.008886,0.013596 0.025298,0.029571 0.036465,0.035543c0.013111,0.006992 0.008401,-0.0017 -0.013255,-0.024667c-0.039476,-0.041855 -0.045303,-0.044623 -0.02321,-0.010876m0.071669,0.15868c0,0.009468 0.037777,0.044816 0.041806,0.039136c0.001602,-0.002185 -0.007186,-0.013644 -0.019471,-0.025491c-0.012284,-0.011799 -0.022335,-0.017966 -0.022335,-0.013644m0.07798,0.134693c-0.000388,0.01544 0.034766,0.050984 0.050449,0.050984c0.006506,0 0.002282,-0.006701 -0.009468,-0.014907c-0.011702,-0.008206 -0.025637,-0.022432 -0.030979,-0.031561c-0.005535,-0.009468 -0.009807,-0.01141 -0.010002,-0.004515m18.538265,0.019908c0,0.006069 -0.011993,0.017529 -0.026705,0.02554c-0.014713,0.007964 -0.021705,0.014664 -0.015635,0.014858c0.016897,0.000582 0.057878,-0.035786 0.049624,-0.044089c-0.003982,-0.004029 -0.007283,-0.002379 -0.007283,0.003691m-0.116728,0.142997c-0.018742,0.022626 -0.00539,0.026851 0.014712,0.004661c0.009711,-0.010683 0.013111,-0.019471 0.007575,-0.019471c-0.005487,0 -0.015538,0.006652 -0.022287,0.01481m-18.269217,0.082253c0.0101,0.018694 0.0269,0.035057 0.037291,0.036416c0.01544,0.001991 0.014858,0.000728 -0.002962,-0.006943c-0.011994,-0.005147 -0.02185,-0.013061 -0.02185,-0.017529c0,-0.004515 -0.006943,-0.016654 -0.01544,-0.027045c-0.010392,-0.012721 -0.009469,-0.007769 0.002962,0.015101m0.182472,0.223453c0.009711,0.01073 0.019762,0.017383 0.022336,0.01481c0.006506,-0.006507 -0.017723,-0.034281 -0.02991,-0.034281c-0.005536,0 -0.002137,0.008788 0.007574,0.019471m17.879947,0.010148c-0.015004,0.015732 -0.023307,0.028648 -0.0185,0.028648c0.008983,0 0.032338,-0.024035 0.044915,-0.046128c0.010584,-0.018598 0.003496,-0.013936 -0.026414,0.01748m-0.046322,0.06487c-0.005584,0.014566 -0.015295,0.030201 -0.021656,0.034717c-0.008109,0.005778 -0.007332,0.007089 0.002622,0.004419c0.013158,-0.003593 0.045497,-0.065647 0.034232,-0.065647c-0.002816,0 -0.009662,0.011944 -0.015198,0.026512m-17.789973,0.011216c0,0.010682 0.028162,0.034474 0.03394,0.028696c0.002379,-0.002379 -0.004273,-0.011702 -0.014809,-0.020734c-0.010537,-0.008983 -0.019131,-0.012575 -0.019131,-0.007963m0.068269,0.062442c-0.000582,0.015829 0.020102,0.045497 0.03161,0.045351c0.008109,-0.000097 0.008497,-0.002379 0.001262,-0.007283c-0.005778,-0.003933 -0.015489,-0.015878 -0.021558,-0.02656c-0.006069,-0.010682 -0.011168,-0.015878 -0.011314,-0.011507m0.31197,0.326829c0.002573,0.00772 0.018936,0.019811 0.036368,0.026899c0.017868,0.007284 0.028988,0.008546 0.025444,0.002865c-0.003399,-0.005536 -0.012188,-0.010051 -0.01952,-0.010051c-0.007283,0 -0.02083,-0.007575 -0.030104,-0.016801c-0.011945,-0.011993 -0.01549,-0.012819 -0.012188,-0.002913m0.076475,0.044914c-0.000291,0.011362 0.024326,0.0353 0.048265,0.046856c0.008011,0.003884 0.006555,0.000535 -0.003205,-0.007429c-0.009809,-0.007963 -0.023841,-0.022481 -0.031269,-0.032289c-0.00738,-0.00976 -0.013596,-0.012965 -0.01379,-0.007138m16.867949,0.020248c0,0.005438 -0.009809,0.014615 -0.02185,0.020393c-0.015635,0.007527 -0.017383,0.010731 -0.00602,0.011169c0.017916,0.000777 0.043602,-0.025686 0.034135,-0.035155c-0.003447,-0.003447 -0.006264,-0.001796 -0.006264,0.003593m-0.116728,0.066473c-0.018742,0.022626 -0.00539,0.026851 0.014712,0.004661c0.009711,-0.010683 0.013111,-0.019471 0.007575,-0.019471c-0.005487,0 -0.015538,0.006652 -0.022287,0.01481m-16.450176,0.13814c-0.000388,0.015295 0.034718,0.050984 0.050109,0.050984c0.006506,0 0.004419,-0.005341 -0.004613,-0.012139c-0.008934,-0.006652 -0.022725,-0.020879 -0.030687,-0.031561c-0.007964,-0.010682 -0.014615,-0.013935 -0.01481,-0.007283m16.245125,0.022239c-0.014081,0.015829 -0.021704,0.028745 -0.016994,0.028745c0.011751,0 0.047439,-0.036563 0.047439,-0.048556c0,-0.013596 -0.0017,-0.012528 -0.030445,0.019811m-15.835704,0.213887c0.002331,0.006992 0.009954,0.014616 0.016994,0.016994c0.007284,0.002428 0.010925,-0.001213 0.008497,-0.008497c-0.002378,-0.007041 -0.010002,-0.014664 -0.016994,-0.016994c-0.007283,-0.002428 -0.010925,0.001214 -0.008497,0.008497m0.381793,0.154796c0.009711,0.01073 0.019762,0.017383 0.022336,0.01481c0.006506,-0.006507 -0.017723,-0.034281 -0.02991,-0.034281c-0.005536,0 -0.002137,0.008788 0.007574,0.019471m14.678137,-0.004661c-0.018742,0.022626 -0.00539,0.026851 0.014712,0.004661c0.009711,-0.010683 0.013111,-0.019471 0.007575,-0.019471c-0.005487,0 -0.015538,0.006652 -0.022287,0.01481m-14.459684,0.071425c0,0.012382 0.02855,0.034135 0.035591,0.027045c0.007089,-0.007041 -0.014664,-0.035591 -0.027045,-0.035591c-0.00471,0 -0.008546,0.003836 -0.008546,0.008546m14.226617,0.006264c-0.006749,0.008109 -0.009565,0.01748 -0.006264,0.020781c0.007041,0.007089 0.035592,-0.014664 0.035592,-0.027045c0,-0.013402 -0.015829,-0.010002 -0.029328,0.006264" id="path2"/>
  </g>
 </g>
</svg>