<svg width="35" height="35" xmlns="http://www.w3.org/2000/svg">

 <g>
  <title>background</title>
  <rect fill="none" id="canvas_background" height="37" width="37" y="-1" x="-1"/>
 </g>
 <g>
  <title>Layer 1</title>
  <ellipse stroke="null" ry="17.152318" rx="17.152318" id="svg_4" cy="17.483444" cx="17.483443" fill-opacity="null" stroke-opacity="null" stroke-width="null" fill="#343a40"/>
  <g stroke="null" id="svgg">
   <path stroke="null" fillRule="evenodd" fill="#ffffff" d="m30.910398,5.608258c0,0.089097 0.039994,0.167201 0.091394,0.178534c0.126533,0.027791 0.190948,0.135229 0.249964,0.416832l0.025356,0.121004l0.064756,0.02158c0.127475,0.042494 0.149063,0.077633 0.221297,0.359975c0.024617,0.096177 0.027791,0.101641 0.108793,0.185477c0.140294,0.145287 0.159179,0.195267 0.193173,0.511255c0.028124,0.260892 0.025291,0.255225 0.12417,0.255225l0.078981,0l0,-1.062308l0,-1.062308l-0.578909,0l-0.578974,0l0,0.074734m-20.81727,4.107459c-0.192571,0.011399 -0.17281,-0.05106 -0.174491,0.552198l-0.001486,0.509704l-0.026776,0.059292c-0.066103,0.146229 -0.091387,0.151686 -0.692623,0.149121c-0.579583,-0.002428 -0.616142,0.001891 -0.70342,0.083503c-0.029943,0.028059 -0.059828,0.050929 -0.066437,0.050929c-0.006544,0 -0.03332,0.019559 -0.059487,0.043364c-0.06893,0.062937 -0.129772,0.089032 -0.253066,0.108525c-0.059828,0.00945 -0.110685,0.050922 -0.121004,0.098547c-0.022928,0.106228 -0.08006,0.170099 -0.184535,0.206456c-0.082285,0.02866 -0.096387,0.055176 -0.105424,0.198093c-0.004044,0.06327 -0.012682,0.183397 -0.019218,0.266827c-0.018348,0.234043 -0.013493,10.41211 0.005051,10.696133c0.01666,0.253674 0.029407,0.29077 0.114395,0.333264c0.058002,0.029001 0.112366,0.085184 0.135236,0.139954c0.020095,0.048023 0.098474,0.111025 0.17894,0.143802c0.090039,0.036624 0.135164,0.076082 0.173208,0.151352c0.041074,0.081481 0.061444,0.090858 0.225405,0.103532c0.074466,0.005797 4.003659,0.010116 9.240603,0.010189l9.111171,0.00013l0.161606,-0.027515c0.185346,-0.031566 0.167679,-0.022667 0.194252,-0.098068c0.035682,-0.101242 0.117228,-0.160193 0.252732,-0.182723c0.066096,-0.010986 0.089503,-0.041813 0.111083,-0.146294c0.026508,-0.128149 0.029747,-0.133482 0.203695,-0.330017c0.091597,-0.103605 0.083908,0.431665 0.079923,-5.556316c-0.003841,-5.723922 -0.000268,-5.389245 -0.058335,-5.419666c-0.103873,-0.054364 -0.210912,-0.234043 -0.257051,-0.431665l-0.025421,-0.108931l-0.095916,-0.019428c-0.104474,-0.021109 -0.312488,-0.088285 -0.379802,-0.12262c-0.03919,-0.02003 -0.087481,-0.067176 -0.141845,-0.138475c-0.040733,-0.053415 0.025291,-0.052878 -6.660509,-0.053212c-3.952194,-0.000268 -6.291563,-0.004384 -6.333383,-0.011196c-0.170643,-0.027783 -0.300951,-0.102721 -0.359634,-0.206861l-0.02603,-0.046204l0.002964,-0.403476c0.001688,-0.221898 0.006406,-0.436861 0.010522,-0.477805l0.007486,-0.074321l-0.079386,-0.030892l-0.079321,-0.030892l-1.582396,0.001754c-0.870353,0.00087 -1.644927,0.005391 -1.721277,0.009913m2.582181,2.319071c0.239036,0.043639 0.299603,0.110887 0.363547,0.403411c0.031704,0.144939 0.040269,1.599397 0.010392,1.761945c-0.052342,0.284835 -0.220695,0.463637 -0.482935,0.513009c-0.147577,0.027725 -1.642768,0.017805 -1.732872,-0.011537c-0.083307,-0.02711 -0.148997,-0.093141 -0.17294,-0.17381c-0.024551,-0.082553 -0.065495,-0.13233 -0.134497,-0.16336c-0.07048,-0.031769 -0.121337,-0.083365 -0.155802,-0.158229l-0.025834,-0.05619l0,-0.786915c0,-0.940565 -0.005189,-0.910079 0.169766,-0.996277c0.08485,-0.041748 0.096249,-0.055712 0.127344,-0.156345c0.039661,-0.128489 0.115004,-0.177585 0.293067,-0.191078c0.23458,-0.017674 1.627115,-0.005399 1.740764,0.015377m13.446949,0.030892c0.101365,0.034668 0.210702,0.106025 0.253464,0.16552c0.017001,0.023667 0.055444,0.059284 0.085459,0.079111c0.02995,0.019827 0.068053,0.055103 0.084648,0.078372c0.016522,0.023276 0.051125,0.055379 0.076894,0.07143c0.127475,0.079321 0.140084,0.155737 0.138801,0.841758c-0.00108,0.597997 -0.001819,0.6017 -0.1357,0.690804c-0.052205,0.034733 -0.116685,0.122417 -0.15399,0.209427c-0.050183,0.117091 -0.131584,0.167208 -0.310865,0.191346c-0.161135,0.021725 -2.775491,0.022189 -2.917133,0.000543c-0.189122,-0.02887 -0.267769,-0.075002 -0.314575,-0.184477c-0.031769,-0.074256 -0.103873,-0.154316 -0.163092,-0.180955c-0.060705,-0.027385 -0.103134,-0.069546 -0.138069,-0.137055l-0.029066,-0.056255l-0.000812,-0.511458c-0.001152,-0.725812 0.016725,-0.813293 0.183187,-0.89868c0.022464,-0.011464 0.053487,-0.034603 0.06893,-0.051328c0.015515,-0.016732 0.050864,-0.045936 0.07872,-0.064959c0.027783,-0.019015 0.055031,-0.041951 0.060429,-0.050915c0.052002,-0.086408 0.175027,-0.166194 0.31006,-0.201137l0.096046,-0.02482l1.320838,0.002362l1.320838,0.002362l0.084988,0.029001m-7.824668,2.117739c0.102047,0.00937 0.268979,0.021986 0.370961,0.027986c0.382976,0.02266 0.510385,0.067517 0.579583,0.204035c0.036624,0.072234 0.070285,0.08788 0.244232,0.113243c0.234319,0.034197 0.327394,0.083568 0.380946,0.202071c0.029682,0.065698 0.076626,0.09767 0.188455,0.128497c0.094488,0.026095 0.148584,0.078104 0.176237,0.169563c0.019899,0.065828 0.053422,0.116076 0.077365,0.116076c0.113518,0 0.252392,0.127272 0.252863,0.231753c0.000203,0.038378 0.040668,0.079655 0.086539,0.088293c0.114322,0.021443 0.191687,0.099749 0.211717,0.214282c0.012008,0.068524 0.054835,0.123294 0.113989,0.145889c0.134222,0.05119 0.175701,0.130649 0.223318,0.427013c0.020102,0.125047 0.030356,0.142251 0.096517,0.162077c0.126808,0.037972 0.180629,0.153244 0.200463,0.429173c0.012674,0.175498 0.041009,0.424383 0.053081,0.465456c0.003638,0.012413 0.031494,0.049038 0.06198,0.081481c0.1063,0.11325 0.139012,0.247268 0.151287,0.621128c0.013899,0.420542 -0.037095,0.658296 -0.164578,0.767429c-0.055705,0.04769 -0.058335,0.060567 -0.089836,0.43531c-0.03366,0.400505 -0.068125,0.486167 -0.213267,0.529668c-0.064147,0.01916 -0.077162,0.03932 -0.090655,0.139954c-0.043168,0.321597 -0.084039,0.40415 -0.224869,0.453724c-0.068734,0.024218 -0.093691,0.060096 -0.129439,0.186027c-0.02866,0.101032 -0.091256,0.151686 -0.221833,0.179745c-0.033856,0.007218 -0.042291,0.021856 -0.069408,0.120533c-0.029131,0.106163 -0.089365,0.158643 -0.216304,0.188513c-0.066575,0.015653 -0.076285,0.024421 -0.087619,0.079256c-0.023269,0.112569 -0.083365,0.174491 -0.202412,0.208209c-0.107648,0.030559 -0.147099,0.057335 -0.169092,0.114866c-0.049907,0.130779 -0.161534,0.188723 -0.437941,0.227369c-0.117359,0.016392 -0.136714,0.02745 -0.169223,0.096046c-0.068799,0.145555 -0.158302,0.174556 -0.657013,0.213202c-0.350866,0.027182 -0.412382,0.036494 -0.489001,0.07372c-0.12046,0.05861 -0.306147,0.087351 -0.513081,0.079386l-0.175831,-0.006747l-0.105221,-0.053081c-0.116083,-0.058545 -0.165925,-0.066364 -0.632802,-0.099076c-0.369142,-0.025899 -0.529067,-0.081343 -0.614381,-0.212999c-0.034871,-0.053828 -0.156751,-0.112576 -0.233514,-0.112576c-0.011935,0 -0.053886,-0.009986 -0.093271,-0.022124c-0.073857,-0.022798 -0.075618,-0.024211 -0.206601,-0.166194c-0.035675,-0.038646 -0.069604,-0.070212 -0.075408,-0.070212c-0.118569,0 -0.387352,-0.16794 -0.414672,-0.259066c-0.014566,-0.048697 -0.088285,-0.123163 -0.122011,-0.123163c-0.076285,0 -0.189462,-0.105684 -0.208948,-0.195129c-0.013225,-0.060835 -0.069067,-0.126598 -0.125931,-0.148316c-0.113786,-0.043436 -0.209963,-0.215362 -0.25037,-0.447514l-0.012609,-0.072307l-0.065089,-0.02374c-0.137323,-0.050052 -0.16444,-0.099691 -0.216036,-0.396128l-0.036487,-0.20963l-0.059154,-0.029001c-0.172201,-0.084445 -0.185281,-0.150541 -0.220688,-1.11431c-0.005805,-0.15749 0.012877,-0.992436 0.026363,-1.180341c0.021254,-0.296169 0.065698,-0.394708 0.204506,-0.453999c0.060842,-0.026037 0.056052,-0.013283 0.087822,-0.231753c0.042965,-0.29556 0.084575,-0.375077 0.217992,-0.417165c0.042893,-0.013486 0.062654,-0.025631 0.062654,-0.038378c0,-0.160259 0.14212,-0.435781 0.25145,-0.487515c0.070212,-0.033255 0.131323,-0.103061 0.151824,-0.173679c0.018617,-0.063872 0.093691,-0.138743 0.166599,-0.166121c0.075205,-0.028262 0.12896,-0.077908 0.164172,-0.151425c0.054292,-0.113648 0.146628,-0.168346 0.406976,-0.241333c0.084923,-0.023805 0.085329,-0.024211 0.128627,-0.112163c0.044784,-0.090923 0.103061,-0.128352 0.242949,-0.156142c0.155599,-0.030892 0.21563,-0.056118 0.263921,-0.110953c0.110822,-0.125924 0.248008,-0.182716 0.483,-0.199847c0.083503,-0.006073 0.24787,-0.018885 0.365366,-0.028399c0.464449,-0.037769 0.97874,-0.04182 1.320838,-0.01045m-1.124092,1.812063c-0.182716,0.028928 -0.297176,0.079249 -0.324495,0.142512c-0.027044,0.062596 -0.123359,0.120736 -0.238493,0.143874c-0.083843,0.016928 -0.163969,0.060502 -0.172266,0.093749c-0.015377,0.061111 -0.076212,0.129098 -0.146765,0.163831c-0.089032,0.043842 -0.129569,0.086061 -0.174556,0.182107c-0.038045,0.081213 -0.074531,0.116489 -0.159585,0.154128c-0.068459,0.030211 -0.088358,0.064277 -0.112163,0.191477c-0.026037,0.138946 -0.111692,0.311749 -0.196274,0.395657c-0.090916,0.090314 -0.121402,0.354504 -0.095104,0.825156c0.017001,0.303857 0.025965,0.343721 0.092807,0.410556c0.046074,0.046074 0.083908,0.104684 0.151628,0.234725c0.0145,0.027791 0.035479,0.098612 0.046603,0.157353c0.024624,0.129366 0.045059,0.163027 0.119315,0.195941c0.067517,0.02995 0.133149,0.098604 0.15257,0.159512c0.018617,0.058342 0.082561,0.123902 0.154454,0.158374c0.067183,0.032233 0.130519,0.096851 0.155135,0.158302c0.021312,0.053342 0.086742,0.093546 0.184469,0.11317c0.115069,0.023204 0.185419,0.069408 0.226963,0.1492c0.05969,0.114663 0.168281,0.134149 0.788198,0.141707c0.698021,0.008435 0.834605,-0.005797 0.868469,-0.09038c0.048422,-0.121141 0.207601,-0.206057 0.479957,-0.256167l0.075343,-0.013899l0.023334,-0.076821c0.036624,-0.120598 0.109605,-0.182919 0.241935,-0.206659c0.059893,-0.010725 0.070017,-0.020435 0.078575,-0.076017c0.033929,-0.219275 0.129772,-0.400302 0.242348,-0.457702c0.086604,-0.044175 0.116279,-0.273769 0.117091,-0.904687c0.000804,-0.624295 -0.030689,-0.873925 -0.114127,-0.904136c-0.113583,-0.041074 -0.195057,-0.196144 -0.256167,-0.487312c-0.006877,-0.032914 -0.013218,-0.036624 -0.12262,-0.070756c-0.097394,-0.030421 -0.15844,-0.090851 -0.191216,-0.189194l-0.025834,-0.077633l-0.111358,-0.026638c-0.312821,-0.074807 -0.390186,-0.115815 -0.44468,-0.236072c-0.036632,-0.0808 -0.029139,-0.07743 -0.20626,-0.093481c-0.115199,-0.010457 -1.044902,-0.013624 -1.10723,-0.003775" id="path4"/>
  </g>
 </g>
</svg>