<svg width="60" height="60" xmlns="http://www.w3.org/2000/svg">

 <g>
  <title>background</title>
  <rect fill="none" id="canvas_background" height="62" width="62" y="-1" x="-1"/>
 </g>
 <g>
  <title>Layer 1</title>
  <g stroke="null" id="svgg">
   <path stroke="null" fill-rule="evenodd" fill="#000000" d="m25.718364,1.801449c-14.219294,2.535611 -23.353417,12.245363 -24.962962,26.536125c-0.39818,3.534584 1.202736,12.171162 2.51174,13.551059c0.209228,0.220444 4.835822,-2.300787 4.835822,-2.63512c0,-0.114177 -0.220157,-0.869697 -0.489205,-1.679143c-0.581524,-1.749317 -0.994084,-3.510857 -0.869554,-3.712319c0.049179,-0.079521 0.026603,-0.222601 -0.050042,-0.318084c-0.083547,-0.103967 -0.122661,-1.469771 -0.097927,-3.408903c0.047022,-3.663284 0.027466,-3.381725 0.314345,-4.529674c0.118634,-0.474537 0.232523,-0.992214 0.252943,-1.150393c0.034799,-0.268761 0.33347,-1.181023 0.860782,-2.628937c1.761396,-4.837404 6.129584,-9.59917 11.080877,-12.07985c2.028144,-1.016085 6.285606,-2.36262 6.686662,-2.114711c0.067298,0.041558 0.165657,0.005464 0.218719,-0.080384c0.053062,-0.085704 0.181618,-0.123236 0.285585,-0.08326c0.314201,0.120504 0.35691,-0.249348 0.35691,-3.084636c0,-2.089977 -0.041702,-2.716223 -0.179749,-2.702418c-0.09879,0.009922 -0.438587,0.064134 -0.754946,0.120648m6.401076,2.479242c0.002013,2.800777 0.058095,3.301054 0.357053,3.186302c0.10296,-0.039545 0.230366,-0.001582 0.283428,0.084123c0.053062,0.085848 0.150702,0.122373 0.217137,0.081247c0.1658,-0.102385 2.373549,0.433842 3.923704,0.953245c6.161219,2.064237 11.171326,6.804002 13.772366,13.029356c0.305573,0.73165 0.529756,1.330142 0.49812,1.330142c-0.03178,0 0.030773,0.211529 0.138766,0.469936c0.219006,0.524148 0.77594,2.750303 0.799811,3.196943c0.024014,0.448078 0.028904,7.010929 0.005464,7.333758c-0.038826,0.535221 -0.591158,2.655827 -1.020543,3.918671c-0.234968,0.690667 -0.427227,1.32324 -0.427227,1.405493c0,0.161199 4.519177,2.800489 4.795271,2.800489c0.303129,0 1.71121,-4.631628 2.204441,-7.251217c0.358923,-1.906058 0.539535,-5.384704 0.347706,-6.697303c-2.180283,-14.919021 -10.752583,-23.836007 -25.358265,-26.378233l-0.539247,-0.093901l0.002013,2.63095m-9.546108,12.987798c-0.138191,0.360361 -0.103248,26.572218 0.035662,26.791512c0.09275,0.146388 0.88494,-0.273218 3.325931,-1.76154c1.762259,-1.074467 3.251587,-1.953656 3.309538,-1.953656c0.058095,0 0.185501,-0.096345 0.283284,-0.214117c0.097783,-0.117772 0.229503,-0.18205 0.292919,-0.142936c0.063415,0.039257 0.136897,0.011648 0.1635,-0.061258c0.045153,-0.124386 0.883934,-0.656587 5.512541,-3.498346c1.028164,-0.631278 2.192937,-1.356026 2.588385,-1.610551c0.395448,-0.254668 2.029438,-1.28916 3.630929,-2.298917c1.601635,-1.009758 2.938105,-1.878305 2.969884,-1.930073c0.046447,-0.075495 -2.556749,-1.735656 -6.009943,-3.832823c-0.370427,-0.224902 -2.67941,-1.651821 -4.545348,-2.808829c-1.855585,-1.150537 -11.18772,-6.806446 -11.305635,-6.852031c-0.08858,-0.03408 -0.201894,0.044003 -0.251649,0.173566m-14.028041,28.212535c-2.575875,1.467327 -2.522957,1.391688 -1.716675,2.446312c11.158097,14.594034 33.681362,14.547875 45.18357,-0.092463l0.683046,-0.869554l-0.762136,-0.486041c-0.876456,-0.558804 -3.172785,-1.859323 -3.722961,-2.108384c-0.357053,-0.16163 -0.439738,-0.099509 -2.013188,1.514637c-3.827215,3.926149 -9.160439,6.788903 -13.216726,7.094332c-0.118634,0.008916 -0.409828,0.041989 -0.647096,0.073625c-1.583948,0.210666 -3.593685,0.248773 -4.817272,0.091456c-0.751351,-0.096633 -1.592576,-0.194992 -1.869389,-0.218719c-0.987613,-0.084698 -2.688182,-0.548738 -4.714025,-1.286427c-2.657696,-0.967768 -5.311654,-2.7608 -7.92808,-5.356232c-1.14004,-1.130837 -2.114567,-2.056184 -2.165472,-2.056184c-0.050905,0 -1.082952,0.564124 -2.293597,1.253641" id="path0"/>
  </g>
 </g>
</svg>