<svg width="60" height="60" xmlns="http://www.w3.org/2000/svg">
 <g>
  <title>background</title>
  <rect x="-1" y="-1" width="7.042017" height="7.042017" id="canvas_background" fill="none"/>
 </g>

 <g>
  <title>Layer 1</title>
  <g stroke="null" id="svgg">
   <path stroke="null" id="path0" d="m26.922339,4.718009c-12.280222,2.189832 -20.168733,10.575474 -21.558786,22.917418c-0.343881,3.052576 1.03872,10.511392 2.169216,11.703113c0.180696,0.190382 4.176365,-1.987031 4.176365,-2.275771c0,-0.098607 -0.190134,-0.751097 -0.422493,-1.45016c-0.502222,-1.510764 -0.858522,-3.032085 -0.750974,-3.206073c0.042473,-0.068677 0.022975,-0.192245 -0.043218,-0.274707c-0.072154,-0.089789 -0.105934,-1.26934 -0.084573,-2.944034c0.04061,-3.163725 0.02372,-2.920562 0.271478,-3.911966c0.102456,-0.409825 0.200814,-0.856907 0.218449,-0.993515c0.030053,-0.23211 0.287995,-1.019968 0.743398,-2.270431c1.521196,-4.177732 5.293698,-8.29014 9.569788,-10.432532c1.751568,-0.877522 5.428444,-2.040432 5.774808,-1.82633c0.058121,0.035891 0.143067,0.004719 0.188892,-0.069422c0.045826,-0.074017 0.156851,-0.10643 0.24664,-0.071906c0.271354,0.104071 0.308239,-0.215345 0.308239,-2.663987c0,-1.804969 -0.036015,-2.345814 -0.155237,-2.333892c-0.085318,0.008569 -0.378777,0.055388 -0.651995,0.104195m5.528167,2.14115c0.001738,2.418838 0.050173,2.850892 0.308362,2.751789c0.088919,-0.034152 0.198951,-0.001366 0.244777,0.072651c0.045826,0.074141 0.130151,0.105685 0.187526,0.070167c0.14319,-0.088423 2.04987,0.374679 3.388632,0.823252c5.321019,1.782739 9.647902,5.876146 11.894241,11.252555c0.263902,0.631876 0.457514,1.148752 0.430192,1.148752c-0.027446,0 0.026577,0.182683 0.119843,0.405851c0.18914,0.45267 0.670126,2.375247 0.690742,2.760979c0.020739,0.386974 0.024962,6.054855 0.004719,6.33366c-0.033531,0.462233 -0.510542,2.293654 -0.881372,3.384285c-0.202926,0.596481 -0.368966,1.142791 -0.368966,1.213827c0,0.139216 3.902901,2.418589 4.141344,2.418589c0.261792,0 1.477854,-4.000017 1.903823,-6.262375c0.309977,-1.646131 0.465959,-4.650397 0.30029,-5.783998c-1.88296,-12.884528 -9.286263,-20.585513 -21.900182,-22.781057l-0.46571,-0.081096l0.001738,2.27217m-8.244314,11.216664c-0.119346,0.311219 -0.089168,22.948589 0.030799,23.137978c0.080102,0.126425 0.764262,-0.23596 2.872377,-1.52132c1.521941,-0.927943 2.808171,-1.687238 2.858219,-1.687238c0.050173,0 0.160204,-0.083207 0.244653,-0.184918c0.084448,-0.101712 0.198206,-0.157224 0.252974,-0.123444c0.054767,0.033904 0.118228,0.01006 0.141204,-0.052904c0.038996,-0.107424 0.763393,-0.567049 4.760801,-3.02128c0.887954,-0.545191 1.893888,-1.171106 2.235409,-1.390922c0.341521,-0.219939 1.752685,-1.113358 3.135783,-1.985416c1.383221,-0.872058 2.537438,-1.622162 2.564884,-1.666871c0.040113,-0.0652 -2.208087,-1.498966 -5.190373,-3.310144c-0.319912,-0.194232 -2.314021,-1.426564 -3.925503,-2.425792c-1.602541,-0.993639 -9.662061,-5.878257 -9.763896,-5.917626c-0.0765,-0.029433 -0.174362,0.038002 -0.217332,0.149897m-12.11505,24.365217c-2.224605,1.267229 -2.178904,1.201905 -1.482574,2.112711c9.636478,12.603859 29.088265,12.563995 39.021928,-0.079854l0.5899,-0.750974l-0.658204,-0.41976c-0.756934,-0.4826 -2.740115,-1.605769 -3.215264,-1.820866c-0.308362,-0.139589 -0.379771,-0.085939 -1.738651,1.308087c-3.305301,3.390744 -7.911238,5.863107 -11.414373,6.126884c-0.102456,0.0077 -0.35394,0.036263 -0.558852,0.063585c-1.367946,0.181938 -3.103617,0.214848 -4.160345,0.078984c-0.64889,-0.083455 -1.375398,-0.168401 -1.614462,-0.188892c-0.852933,-0.073148 -2.321597,-0.473907 -4.071178,-1.110998c-2.295268,-0.835794 -4.587309,-2.384312 -6.846935,-4.625808c-0.984574,-0.976626 -1.826205,-1.775784 -1.870169,-1.775784c-0.043963,0 -0.935271,0.487195 -1.980821,1.082683" fill="#000000" fill-rule="evenodd"/>
  </g>
 </g>
</svg>