<svg width="37" height="37" xmlns="http://www.w3.org/2000/svg">
 <g>
  <title>background</title>
  <rect x="-1" y="-1" width="39" height="39" id="canvas_background" fill="none"/>
 </g>

 <g>
  <title>Layer 1</title>
  <ellipse stroke="#000" ry="18.092783" rx="18.092783" id="svg_1" cy="18.402061" cx="18.608247" stroke-width="0" fill="#ffb536"/>
  <g stroke="null" id="svgg">
   <path stroke="null" id="path1" d="m10.577071,9.861395c-0.077206,0.005833 -0.093148,0.012468 -0.110537,0.046063c-0.038735,0.074908 -0.176776,0.150613 -0.297581,0.163241c-0.082555,0.008615 -0.082291,0.008345 -0.099251,0.103791c-0.02536,0.142697 -0.102829,0.277417 -0.169123,0.294052c-0.018883,0.004761 -0.027608,0.016322 -0.033649,0.044678c-0.010649,0.050021 -0.010649,15.933116 0,15.983143c0.006041,0.028301 0.014766,0.039911 0.033649,0.044672c0.066288,0.016586 0.143763,0.151312 0.169123,0.294003c0.016959,0.095501 0.016696,0.095232 0.099251,0.103846c0.120806,0.012628 0.258846,0.088333 0.297581,0.163235c0.009466,0.018356 0.028785,0.03542 0.045211,0.040021c0.036756,0.010275 15.947135,0.010594 15.983731,0.00027c0.016316,-0.004546 0.032638,-0.020066 0.040126,-0.038098c0.029318,-0.070834 0.152856,-0.139107 0.298598,-0.165c0.045695,-0.008131 0.083897,-0.015893 0.084908,-0.017284c0.001017,-0.001391 0.007389,-0.037185 0.014129,-0.079504c0.022897,-0.142851 0.084534,-0.257456 0.158793,-0.295333c0.031462,-0.016108 0.042215,-0.02868 0.04692,-0.054947c0.003321,-0.018779 0.004767,-2.891934 0.003106,-6.384753l-0.002996,-6.350669l-0.047674,-0.042c-0.090416,-0.079559 -0.148095,-0.262161 -0.169656,-0.536742c-0.002671,-0.034562 -0.006207,-0.037718 -0.06051,-0.054892c-0.072494,-0.022903 -0.109575,-0.062495 -0.124715,-0.13306c-0.01343,-0.06271 -0.038631,-0.105617 -0.061956,-0.105617c-0.058268,0 -0.148898,-0.084963 -0.148898,-0.139591c0,-0.026107 -0.049653,-0.077414 -0.08106,-0.083731c-0.054732,-0.011022 -0.101169,-0.05211 -0.124341,-0.110163c-0.023485,-0.05869 -0.061901,-0.106897 -0.085171,-0.106897c-0.053826,0 -0.12798,-0.071104 -0.144891,-0.138997c-0.008933,-0.03569 -0.056601,-0.077102 -0.099674,-0.086568c-0.041572,-0.009099 -0.100531,-0.068058 -0.109624,-0.10963c-0.01006,-0.045689 -0.051791,-0.091169 -0.097431,-0.106095c-0.065111,-0.021346 -0.088278,-0.042907 -0.118937,-0.110482c-0.029054,-0.064045 -0.070626,-0.108827 -0.101065,-0.108827c-0.046283,0 -0.128299,-0.088976 -0.128299,-0.139211c0,-0.02199 -0.053507,-0.066668 -0.096359,-0.080306c-0.057679,-0.018461 -0.088657,-0.047729 -0.108987,-0.10305c-0.023595,-0.064045 -0.058317,-0.101334 -0.108343,-0.116315c-0.058641,-0.017603 -0.091274,-0.047882 -0.111873,-0.103901c-0.019692,-0.053556 -0.06244,-0.107326 -0.085392,-0.107326c-0.052324,0 -0.124451,-0.068107 -0.144456,-0.136325c-0.01188,-0.04072 -0.036547,-0.062654 -0.105084,-0.093737c-0.065007,-0.029483 -0.086727,-0.052649 -0.108288,-0.115512c-0.016586,-0.048317 -0.04885,-0.08106 -0.094809,-0.096145c-0.06388,-0.020924 -0.08726,-0.042748 -0.117754,-0.110059c-0.029054,-0.064039 -0.070626,-0.108821 -0.101071,-0.108821c-0.046277,0 -0.128299,-0.088976 -0.128299,-0.139162c0,-0.017499 -0.053985,-0.070571 -0.071747,-0.070571c-0.052857,0 -0.132367,-0.074259 -0.144511,-0.135039c-0.007542,-0.037669 -0.03542,-0.058212 -0.093038,-0.068487c-0.099036,-0.017707 -0.124341,-0.031241 -0.201872,-0.108074c-0.103313,-0.102296 -0.068212,-0.098448 -0.867654,-0.094968l-0.650109,0.002892l-0.005245,2.558498c-0.005882,2.863413 0.001446,2.612703 -0.07747,2.655929c-0.047135,0.025844 -6.964457,0.027933 -7.016034,0.002144c-0.080361,-0.040181 -0.073083,0.212723 -0.076134,-2.646622c-0.001979,-1.853338 -0.005882,-2.550851 -0.014392,-2.561126c-0.010698,-0.012891 -4.161389,-0.019472 -4.329176,-0.006844m8.02274,0.007009c-0.00867,0.010428 -0.011078,0.450756 -0.009148,1.654088l0.002671,1.639861l0.781141,0l0.781196,0l0.002677,-1.639861c0.001924,-1.203333 -0.000539,-1.64366 -0.009154,-1.654088c-0.017548,-0.021138 -1.531837,-0.021138 -1.549384,0m6.906937,6.825663c0.020066,0.010973 0.042374,0.035475 0.052435,0.057679c0.027124,0.059707 0.027124,8.689165 0,8.748878c-0.01006,0.022149 -0.032369,0.046706 -0.052435,0.057618c-0.043122,0.023595 -13.886264,0.036437 -13.972134,0.013001c-0.053341,-0.014552 -0.081538,-0.043391 -0.096684,-0.098767c-0.016261,-0.059812 -0.016316,-8.627583 0,-8.69232c0.012683,-0.050456 0.040236,-0.08095 0.088069,-0.097701c0.064578,-0.022627 13.939232,-0.011016 13.980749,0.011611m-12.148439,2.683647l0.002671,0.778574l5.143219,0l5.14317,0l0,-0.775951l0,-0.775951l-5.145896,-0.002622l-5.145841,-0.002622l0.002677,0.778574m0.004436,2.720134c-0.003848,0.003854 -0.007003,0.355365 -0.007003,0.781196l0,0.774181l5.145841,-0.002622l5.145786,-0.002622l0,-0.775945l0,-0.775951l-5.138783,-0.002622c-2.826388,-0.001446 -5.141987,0.000533 -5.145841,0.004387" fill="#ffffff" fill-rule="evenodd"/>
  </g>
 </g>
</svg>