<svg width="30" height="30" xmlns="http://www.w3.org/2000/svg">

 <g>
  <title>background</title>
  <rect fill="none" id="canvas_background" height="32" width="32" y="-1" x="-1"/>
 </g>
 <g>
  <title>Layer 1</title>
  <g id="svgg">
   <path fill-rule="evenodd" fill="#f57f17" d="m1.826958,0.445359c-0.126007,0.009518 -0.15203,0.020346 -0.18041,0.075185c-0.063222,0.122253 -0.288516,0.245815 -0.485692,0.266423c-0.13474,0.014059 -0.134303,0.013622 -0.161985,0.169407c-0.041391,0.232891 -0.167835,0.452771 -0.276029,0.479928c-0.030825,0.007772 -0.045059,0.026634 -0.054926,0.072915c-0.017377,0.081647 -0.017377,26.004856 0,26.086503c0.009868,0.046194 0.024101,0.065143 0.054926,0.072915c0.108193,0.02707 0.234638,0.24695 0.276029,0.479841c0.027681,0.155872 0.027245,0.155435 0.161985,0.169494c0.197176,0.020608 0.42247,0.144171 0.485692,0.266423c0.015456,0.029952 0.04698,0.057808 0.073788,0.065318c0.059991,0.016766 26.027735,0.01729 26.087464,0.000437c0.026634,-0.007422 0.053267,-0.032746 0.065492,-0.062174c0.047853,-0.115616 0.249482,-0.22704 0.487351,-0.269305c0.074574,-0.013273 0.136923,-0.025935 0.138582,-0.028205c0.001659,-0.00227 0.012051,-0.06069 0.023053,-0.129762c0.037374,-0.233153 0.137971,-0.420199 0.259175,-0.482024c0.051346,-0.026284 0.068898,-0.046805 0.076582,-0.089681c0.005414,-0.03065 0.007772,-4.719995 0.005065,-10.420717l-0.00489,-10.365092l-0.077805,-0.068549c-0.147576,-0.12985 -0.241711,-0.427884 -0.276902,-0.876027c-0.004366,-0.056411 -0.010129,-0.061563 -0.098763,-0.089594c-0.118323,-0.037374 -0.178838,-0.101994 -0.20355,-0.217173c-0.021918,-0.102343 -0.063047,-0.172376 -0.10112,-0.172376c-0.095095,0 -0.243021,-0.138669 -0.243021,-0.227826c0,-0.042614 -0.081036,-0.126357 -0.132295,-0.136661c-0.089332,-0.017989 -0.165128,-0.085053 -0.202939,-0.179799c-0.038335,-0.095794 -0.101033,-0.174472 -0.139019,-0.174472c-0.087847,0 -0.208877,-0.116053 -0.236471,-0.226866c-0.014583,-0.058245 -0.092388,-0.125833 -0.162683,-0.141289c-0.06785,-0.014845 -0.16408,-0.111075 -0.178925,-0.178925c-0.016417,-0.074574 -0.084529,-0.148799 -0.159016,-0.173162c-0.106272,-0.034842 -0.144083,-0.070033 -0.19412,-0.180322c-0.047417,-0.104526 -0.115267,-0.177615 -0.164954,-0.177615c-0.075535,0 -0.209401,-0.145219 -0.209401,-0.227215c0,-0.03589 -0.087323,-0.108805 -0.157269,-0.131072c-0.094134,-0.030127 -0.144695,-0.077892 -0.177877,-0.168185c-0.03851,-0.104526 -0.095182,-0.16539 -0.17683,-0.189841c-0.095706,-0.028729 -0.148973,-0.078154 -0.182593,-0.169582c-0.032135,-0.087411 -0.101906,-0.17517 -0.139368,-0.17517c-0.085402,0 -0.203114,-0.111162 -0.235773,-0.2225c-0.019386,-0.066453 -0.059642,-0.102255 -0.171503,-0.15299c-0.106098,-0.048115 -0.141551,-0.085926 -0.176742,-0.188531c-0.02707,-0.078853 -0.079726,-0.132295 -0.154737,-0.15692c-0.104264,-0.034143 -0.142424,-0.069771 -0.192198,-0.179624c-0.047417,-0.104526 -0.115267,-0.177615 -0.164954,-0.177615c-0.075535,0 -0.209401,-0.145219 -0.209401,-0.227128c0,-0.028555 -0.088109,-0.115179 -0.1171,-0.115179c-0.086275,0 -0.216038,-0.121205 -0.23586,-0.220404c-0.012313,-0.061476 -0.057808,-0.095008 -0.151855,-0.111774c-0.161635,-0.028904 -0.202939,-0.050997 -0.329471,-0.176393c-0.168621,-0.166962 -0.111337,-0.160675 -1.416121,-0.154999l-1.061064,0.004715l-0.008558,4.175797c-0.009606,4.673452 0.002358,4.264255 -0.126444,4.334812c-0.076932,0.042177 -11.366864,0.045583 -11.451044,0.003493c-0.131159,-0.06558 -0.119284,0.347197 -0.124261,-4.319618c-0.003231,-3.024876 -0.009606,-4.163309 -0.02349,-4.180075c-0.017465,-0.021045 -6.791913,-0.031786 -7.065759,-0.011177m13.094117,0.011439c-0.014146,0.017028 -0.018076,0.735698 -0.014932,2.699685l0.004366,2.676457l1.274919,0l1.275006,0l0.004366,-2.676457c0.003144,-1.963987 -0.000873,-2.682657 -0.014932,-2.699685c-0.028642,-0.034493 -2.500151,-0.034493 -2.528793,0m11.272992,11.140348c0.032746,0.017901 0.06916,0.057895 0.085577,0.094134c0.044273,0.097453 0.044273,14.181815 0,14.279268c-0.016417,0.036152 -0.052831,0.076233 -0.085577,0.094047c-0.070383,0.03851 -22.664131,0.059467 -22.804285,0.02122c-0.087061,-0.023752 -0.133081,-0.070819 -0.157793,-0.161199c-0.026546,-0.097627 -0.026634,-14.081306 0,-14.186968c0.020696,-0.082346 0.065667,-0.13212 0.143734,-0.159452c0.105399,-0.036938 22.750581,-0.017989 22.818344,0.018949m-19.827786,4.380046l0.004366,1.270728l8.394382,0l8.394294,0l0,-1.266449l0,-1.266449l-8.398748,-0.004279l-8.39866,-0.004279l0.004366,1.270728m0.007248,4.4396c-0.006287,0.006287 -0.011439,0.580001 -0.011439,1.275006l0,1.263567l8.39866,-0.004279l8.398573,-0.004279l0,-1.266449l0,-1.266449l-8.387134,-0.004279c-4.613024,-0.002358 -8.392373,0.000873 -8.39866,0.007161" id="path1"/>
  </g>
 </g>
</svg>