<svg width="50" height="40" xmlns="http://www.w3.org/2000/svg">

 <g>
  <title>background</title>
  <rect fill="none" id="canvas_background" height="42" width="52" y="-1" x="-1"/>
 </g>
 <g>
  <title>Layer 1</title>
  <g stroke="null" id="svgg">
   <path fill-rule="evenodd" fill="#000000" d="m14.626905,1.033137c0.023659,0.00846 0.059218,0.035703 0.078862,0.060508c0.032548,0.041152 0.035846,0.041152 0.035846,-0.000143c0,-0.045023 -0.059505,-0.082446 -0.124171,-0.078001c-0.018497,0.001147 -0.014195,0.009177 0.009463,0.017636m7.69906,0.039574c-0.010324,0.032692 -0.011184,0.067104 -0.001864,0.076424c0.00932,0.00932 0.016919,-0.003871 0.016919,-0.029394c0,-0.025523 0.022655,-0.059505 0.050185,-0.075564c0.04574,-0.02667 0.045883,-0.029251 0.001864,-0.030111c-0.026526,-0.00043 -0.056637,0.025953 -0.067104,0.058644m13.491815,-0.030398c0.054486,0.012905 0.115712,0.046313 0.136216,0.074273c0.033265,0.045596 0.03728,0.045883 0.03728,0.003441c0,-0.060222 -0.087465,-0.107682 -0.191706,-0.103954c-0.075994,0.002868 -0.07499,0.004302 0.01821,0.026239m0.238019,0.535543c0.027673,0.007169 0.072696,0.007169 0.10037,0c0.027673,-0.007169 0.005018,-0.013191 -0.050185,-0.013191c-0.055203,0 -0.077715,0.006022 -0.050185,0.013191m-20.858078,0.292075c0.037997,0.01061 0.079005,0.044736 0.091193,0.075994c0.015629,0.039574 0.022798,0.043302 0.024232,0.012188c0.002868,-0.062229 -0.05592,-0.113848 -0.125605,-0.110406c-0.051045,0.002438 -0.049755,0.005449 0.01018,0.022225m7.403686,0.041295c-0.003298,0.114134 0.046313,0.191993 0.120587,0.189842l0.06352,-0.001721l-0.063663,-0.025666c-0.035846,-0.014482 -0.071406,-0.060652 -0.081443,-0.105675c-0.02882,-0.130624 -0.036707,-0.141951 -0.039001,-0.05678m13.869061,0.005592c0.033982,0.023802 0.067391,0.072123 0.07413,0.107539c0.011327,0.058931 0.012761,0.058214 0.016346,-0.00889c0.004302,-0.081299 -0.042012,-0.141951 -0.108686,-0.141951c-0.030971,0 -0.025809,0.012474 0.01821,0.043302m-35.120588,0.079579c0.000717,0.059075 0.04746,0.112701 0.089042,0.102234c0.029251,-0.007456 0.022655,-0.02667 -0.024949,-0.073557c-0.035416,-0.034843 -0.06438,-0.047747 -0.064093,-0.028677m0.408217,0.413092c0.027673,0.007169 0.07284,0.007169 0.10037,0c0.027673,-0.007169 0.005018,-0.013191 -0.050185,-0.013191c-0.055203,0 -0.077715,0.006022 -0.050185,0.013191m21.249662,0c0.02753,0.007169 0.07284,0.007169 0.10037,0c0.027673,-0.007169 0.005018,-0.013191 -0.050185,-0.013191c-0.055203,0 -0.077715,0.006022 -0.050185,0.013191m14.067506,0.330072c0.018927,0.018927 0.035416,0.067391 0.036707,0.107539c0.001147,0.040291 0.00889,0.056494 0.017063,0.03599c0.022225,-0.05506 -0.015342,-0.177941 -0.054343,-0.177941c-0.025666,0 -0.025523,0.008316 0.000574,0.034412m-21.020963,0.29695c0.041008,0.028677 0.065384,0.077571 0.068108,0.136216c0.004015,0.084741 0.005162,0.085744 0.016059,0.014195c0.014769,-0.096642 -0.035416,-0.195004 -0.099509,-0.195004c-0.038714,0 -0.035703,0.00889 0.015342,0.044593m7.392646,0.298671c0.015916,0.135069 0.047317,0.172922 0.141521,0.170628c0.054343,-0.00129 0.0542,-0.002581 -0.004302,-0.026239c-0.072409,-0.029251 -0.096928,-0.064236 -0.12876,-0.184106c-0.018497,-0.069542 -0.020361,-0.061082 -0.00846,0.039718m-21.262567,0.030971c-0.004158,0.0932 0.04574,0.142955 0.138653,0.13808c0.064523,-0.003441 0.065814,-0.005305 0.010754,-0.016059c-0.071693,-0.014052 -0.11184,-0.05592 -0.131914,-0.137793c-0.011471,-0.046744 -0.014769,-0.043732 -0.017493,0.015772m14.382953,0.486075c0.034126,0.013765 0.075707,0.048464 0.09234,0.076998c0.024232,0.041725 0.030398,0.043159 0.031115,0.007599c0.001147,-0.062229 -0.057211,-0.113561 -0.126752,-0.11141c-0.057067,0.001721 -0.056924,0.002581 0.003298,0.026813m0.422556,0.780015c0.003871,0.019644 0.048751,0.044306 0.099653,0.054773c0.114134,0.023228 0.119583,0.02882 0.1474,0.145966l0.022368,0.094634l0.003011,-0.091193c0.003585,-0.112127 -0.060795,-0.181239 -0.168908,-0.181239c-0.04488,0 -0.088038,-0.013191 -0.096068,-0.029394c-0.00803,-0.016203 -0.011471,-0.013335 -0.007456,0.006452m-13.960254,0.135355c0.011327,0.113991 0.050185,0.146253 0.169481,0.140947c0.08216,-0.003728 0.08259,-0.004445 0.01018,-0.015486c-0.085027,-0.013048 -0.156003,-0.080009 -0.176077,-0.166183c-0.007313,-0.031545 -0.00889,-0.013191 -0.003585,0.040721m35.326775,-0.087321c0.050328,0.010754 0.100083,0.04746 0.121447,0.089759c0.034986,0.069112 0.036133,0.069398 0.036563,0.00803c0.00043,-0.071693 -0.077858,-0.124602 -0.176937,-0.11944c-0.054343,0.002724 -0.050902,0.006739 0.018927,0.021651m-14.064925,0.11012c-0.00043,0.071693 0.077858,0.124602 0.176937,0.11944c0.054343,-0.002724 0.050902,-0.006739 -0.018927,-0.021651c-0.050328,-0.010754 -0.100083,-0.04746 -0.121447,-0.089759c-0.034986,-0.069112 -0.036133,-0.069398 -0.036563,-0.00803m-20.727311,0.782452c0,0.055203 0.006022,0.077715 0.013191,0.050185c0.007169,-0.02753 0.007169,-0.072696 0,-0.10037c-0.007169,-0.02753 -0.013191,-0.005018 -0.013191,0.050185m14.11683,-0.06524c0.031545,0.007743 0.073557,0.0271 0.0932,0.043159c0.024232,0.019644 0.035846,0.019644 0.035846,0c0,-0.034269 -0.070832,-0.065384 -0.13851,-0.060652c-0.035416,0.002438 -0.032835,0.007026 0.009463,0.017493m21.22457,0.007886c0.110263,0.034986 0.145392,0.075564 0.161595,0.186401l0.012618,0.086031l0.004302,-0.087752c0.005735,-0.118293 -0.047174,-0.180952 -0.16776,-0.198588l-0.10037,-0.014625l0.089616,0.028534m-21.088928,0.172062c0,0.055203 0.006022,0.077858 0.013191,0.050185c0.007169,-0.02753 0.007169,-0.07284 0,-0.10037c-0.007169,-0.027673 -0.013191,-0.005018 -0.013191,0.050185m-13.969,0.446214c-0.004302,0.112701 0.055347,0.19529 0.127613,0.176794c0.048608,-0.012331 0.047604,-0.014482 -0.00846,-0.017493c-0.041725,-0.002151 -0.068825,-0.025809 -0.077715,-0.067821c-0.007599,-0.035416 -0.019214,-0.090333 -0.025953,-0.121877c-0.007743,-0.03642 -0.013335,-0.025379 -0.015486,0.030398m21.279343,0.012618c-0.005018,0.104671 0.030971,0.144245 0.141378,0.155143c0.053913,0.005305 0.072266,0.003728 0.040721,-0.003585c-0.080009,-0.01864 -0.152275,-0.088899 -0.166613,-0.161738c-0.010467,-0.053913 -0.012331,-0.052766 -0.015486,0.01018m-7.023573,0.086031c0,0.055203 0.006022,0.077715 0.013191,0.050185c0.007169,-0.027673 0.007169,-0.072696 0,-0.10037c-0.007169,-0.02753 -0.013191,-0.005018 -0.013191,0.050185m21.30759,0.105818c0.027673,0.007169 0.072696,0.007169 0.10037,0c0.027673,-0.007169 0.005018,-0.013191 -0.050185,-0.013191c-0.055203,0 -0.077858,0.006022 -0.050185,0.013191m0.228843,0.180952c0,0.055203 0.006022,0.077715 0.013191,0.050185c0.007169,-0.027673 0.007169,-0.072696 0,-0.10037c-0.007169,-0.02753 -0.013191,-0.005018 -0.013191,0.050185m0.515469,0.715635c0.039574,0.063376 0.067391,0.05549 0.041582,-0.011758c-0.00932,-0.024375 -0.030398,-0.044306 -0.046744,-0.044306c-0.018927,0 -0.017063,0.020504 0.005162,0.056064m-14.19813,0.268417c-0.003728,0.104241 0.043732,0.191706 0.103954,0.191706c0.042442,0 0.042155,-0.004015 -0.003441,-0.03728c-0.02796,-0.020504 -0.061369,-0.081729 -0.074273,-0.136216c-0.021938,-0.0932 -0.023372,-0.094204 -0.026239,-0.01821m-6.847639,-0.005735c0.028534,0.016633 0.063233,0.058214 0.076998,0.09234c0.024232,0.060222 0.025092,0.060365 0.026813,0.003298c0.002151,-0.069542 -0.049181,-0.127899 -0.11141,-0.126752c-0.035559,0.000717 -0.034126,0.006882 0.007599,0.031115m-14.283014,0.217228c0.02753,0.007169 0.07284,0.007169 0.10037,0c0.027673,-0.007169 0.005018,-0.013191 -0.050185,-0.013191c-0.055203,0 -0.077715,0.006022 -0.050185,0.013191m21.679244,0.639784c0,0.055203 0.006022,0.077858 0.013191,0.050185c0.007169,-0.02753 0.007169,-0.072696 0,-0.10037c-0.007169,-0.02753 -0.013191,-0.005018 -0.013191,0.050185m-6.853231,-0.023945c0.050615,0.018353 0.085027,0.056207 0.095781,0.105245c0.02839,0.12919 0.041725,0.139514 0.027387,0.021364c-0.014482,-0.11944 -0.051905,-0.160304 -0.144676,-0.157293c-0.044593,0.001434 -0.039861,0.008173 0.021508,0.030684m21.228155,-0.012618c0.081873,0.020074 0.123741,0.060222 0.137793,0.131914c0.010754,0.05506 0.012618,0.053769 0.016059,-0.010754c0.004875,-0.092914 -0.04488,-0.142811 -0.13808,-0.138653c-0.059505,0.002724 -0.062516,0.006022 -0.015772,0.017493m0.164319,0.380687c0,0.055203 0.006022,0.077858 0.013191,0.050185c0.007169,-0.02753 0.007169,-0.07284 0,-0.10037c-0.007169,-0.027673 -0.013191,-0.005018 -0.013191,0.050185m-14.230391,0.308565c0,0.062229 0.122307,0.123455 0.163889,0.082016c0.00975,-0.00975 -0.003011,-0.01778 -0.02839,-0.01778c-0.025379,0 -0.066244,-0.028677 -0.090906,-0.063806l-0.044593,-0.063663l0,0.063233m-6.657511,0.150124c0.109403,0.025809 0.136646,0.048464 0.156003,0.12919c0.01061,0.043876 0.014625,0.039001 0.017206,-0.020504c0.003871,-0.089616 -0.065097,-0.138797 -0.188408,-0.134352c-0.077858,0.002868 -0.077285,0.003871 0.015199,0.025666m21.244787,-0.007886c0.105962,0.013191 0.150554,0.058501 0.184537,0.187404c0.022942,0.087035 0.023659,0.085744 0.011327,-0.021508c-0.015342,-0.133061 -0.075851,-0.188408 -0.199162,-0.181956l-0.087752,0.004588l0.091049,0.011471m0.588452,0.842817c0.073987,0.021221 0.114421,0.053626 0.133922,0.106822c0.022368,0.060939 0.02839,0.06481 0.029824,0.01907c0.002868,-0.090906 -0.032262,-0.122594 -0.154999,-0.140087l-0.114708,-0.016203l0.105962,0.030398m-35.619137,0.374522c-0.005449,0.077858 0.028247,0.13851 0.076998,0.13851c0.041008,0 0.041008,-0.003441 -0.000717,-0.035846c-0.025379,-0.019644 -0.052049,-0.061656 -0.059505,-0.0932c-0.00975,-0.041868 -0.014339,-0.044449 -0.016776,-0.009463m21.275472,0.010897c-0.000574,0.080152 0.053913,0.128186 0.141521,0.124745l0.073126,-0.002868l-0.071406,-0.019931c-0.039431,-0.010897 -0.087608,-0.051475 -0.107109,-0.090333c-0.032262,-0.063663 -0.035703,-0.06481 -0.036133,-0.011614m-6.416911,0.43417c0.027673,0.007169 0.07284,0.007169 0.10037,0c0.027673,-0.007169 0.005018,-0.013191 -0.050185,-0.013191c-0.055203,0 -0.077715,0.006022 -0.050185,0.013191m21.452839,0.078432c0.018067,0.038284 0.03728,0.065097 0.042872,0.059648c0.01778,-0.017923 -0.026813,-0.12919 -0.051762,-0.12919c-0.013191,0 -0.009177,0.031258 0.00889,0.069542m-21.223997,0.131197c0,0.055203 0.006022,0.077715 0.013191,0.050185c0.007169,-0.02753 0.007169,-0.072696 0,-0.10037c-0.007169,-0.02753 -0.013191,-0.005018 -0.013191,0.050185m-14.539243,0.114708c0,0.055203 0.006022,0.077858 0.013191,0.050185c0.007169,-0.02753 0.007169,-0.072696 0,-0.10037c-0.007169,-0.02753 -0.013191,-0.005018 -0.013191,0.050185m0.28677,0.57354c0,0.055203 0.006022,0.077858 0.013191,0.050185c0.007169,-0.02753 0.007169,-0.072696 0,-0.10037c-0.007169,-0.02753 -0.013191,-0.005018 -0.013191,0.050185m21.274325,0.033839c-0.003441,0.102377 0.067104,0.167474 0.178658,0.164606c0.095064,-0.002294 0.086605,-0.00975 -0.044306,-0.038571c-0.056924,-0.012474 -0.085457,-0.042442 -0.104958,-0.11012c-0.025666,-0.088612 -0.026956,-0.089329 -0.029394,-0.015916m14.801351,0.1669c0,0.055203 0.006022,0.077858 0.013191,0.050185c0.007169,-0.02753 0.007169,-0.07284 0,-0.10037c-0.007169,-0.02753 -0.013191,-0.005018 -0.013191,0.050185m-21.076023,0.0932c0.06438,0.065384 0.096642,0.054486 0.067104,-0.022511c-0.00889,-0.023085 -0.041868,-0.042012 -0.073413,-0.042012c-0.055203,0 -0.05506,0.002151 0.006309,0.064523m0.371224,0.681079c0,0.055203 0.006022,0.077858 0.013191,0.050185c0.007169,-0.02753 0.007169,-0.072696 0,-0.10037c-0.007169,-0.02753 -0.013191,-0.005018 -0.013191,0.050185m0.128903,0.118006c0.069685,0.020074 0.099222,0.049611 0.119296,0.119296c0.025666,0.088612 0.026956,0.089185 0.029394,0.015629c0.001434,-0.042155 -0.017636,-0.097072 -0.042442,-0.121877c-0.024806,-0.024806 -0.079722,-0.043876 -0.121877,-0.042442c-0.073557,0.002438 -0.072983,0.003728 0.015629,0.029394m21.250093,-0.011758c0.035416,0.006739 0.083737,0.040148 0.107539,0.07413c0.030828,0.044019 0.043302,0.049181 0.043302,0.01821c0,-0.066674 -0.060652,-0.112987 -0.141951,-0.108686c-0.067104,0.003585 -0.067821,0.005018 -0.00889,0.016346m-14.63273,0.335808c0.015916,0.1398 0.035273,0.159157 0.175073,0.175073c0.11098,0.012618 0.111123,0.012474 0.016346,-0.012331c-0.120013,-0.031401 -0.147687,-0.059075 -0.179088,-0.179088c-0.024806,-0.094778 -0.024949,-0.094634 -0.012331,0.016346m-21.262567,0.109403c-0.00086,0.052192 0.111267,0.096498 0.177081,0.070115c0.020504,-0.008173 0.002294,-0.015916 -0.040291,-0.017063c-0.042585,-0.00129 -0.090619,-0.024806 -0.106678,-0.052479c-0.02753,-0.047174 -0.029251,-0.047317 -0.030111,-0.000574m36.337496,0.273865c-0.004588,0.095638 0.002438,0.10209 0.145249,0.133348c0.056924,0.012474 0.085457,0.042299 0.104958,0.109976c0.019644,0.067821 0.02753,0.076137 0.029394,0.030541c0.004588,-0.111267 -0.029967,-0.152848 -0.142381,-0.170772c-0.096928,-0.015486 -0.11141,-0.028247 -0.121304,-0.107395l-0.011327,-0.089759l-0.004588,0.094061m-21.169654,0.121447c0.054486,0.012905 0.115712,0.046313 0.136216,0.074273c0.033265,0.045596 0.03728,0.045883 0.03728,0.003441c0,-0.060222 -0.087465,-0.107682 -0.191706,-0.103954c-0.075994,0.002868 -0.07499,0.004302 0.01821,0.026239m6.632418,0.28634c0,0.055203 0.006022,0.077858 0.013191,0.050185c0.007169,-0.02753 0.007169,-0.07284 0,-0.10037c-0.007169,-0.02753 -0.013191,-0.005018 -0.013191,0.050185m15.211575,0.536834c0.108112,0.013478 0.143242,0.049898 0.160161,0.165753l0.012618,0.086031l0.004302,-0.091193c0.005449,-0.116142 -0.060939,-0.182529 -0.176937,-0.17665l-0.091193,0.004588l0.091049,0.011471m-14.902724,0.153279c0,0.031545 0.018927,0.064523 0.042012,0.073413c0.076998,0.029537 0.087895,-0.002724 0.022511,-0.067104c-0.062372,-0.061369 -0.064523,-0.061512 -0.064523,-0.006309m-21.08649,0.102807c0.038714,0.008316 0.067534,0.040578 0.075134,0.08388c0.010897,0.061082 0.012044,0.059935 0.00889,-0.009033c-0.002724,-0.062946 -0.018067,-0.080152 -0.075134,-0.08388c-0.059792,-0.003871 -0.061225,-0.002438 -0.00889,0.009033m21.921421,1.244582c-0.004158,0.0932 0.04574,0.142955 0.138653,0.13808c0.064523,-0.003441 0.065814,-0.005305 0.010754,-0.016059c-0.071693,-0.014052 -0.11184,-0.05592 -0.131914,-0.137793c-0.011471,-0.046744 -0.014769,-0.043732 -0.017493,0.015772m-21.278339,0.003441c-0.005449,0.077858 0.028247,0.13851 0.076998,0.13851c0.041008,0 0.041008,-0.003441 -0.000717,-0.035846c-0.025379,-0.019644 -0.052049,-0.061656 -0.059505,-0.0932c-0.00975,-0.041868 -0.014339,-0.044449 -0.016776,-0.009463m15.531611,0.483208c0.035846,0.014482 0.071406,0.060652 0.081443,0.105675c0.02882,0.130624 0.036707,0.141951 0.039001,0.05678c0.003298,-0.114134 -0.046313,-0.191993 -0.120587,-0.189842l-0.06352,0.001721l0.063663,0.025666m21.25124,0.000574c0.035846,0.014339 0.076998,0.05549 0.091336,0.091336c0.024519,0.061082 0.026239,0.061512 0.02796,0.006452c0.002438,-0.075134 -0.050615,-0.128186 -0.125749,-0.125749c-0.05506,0.001721 -0.05463,0.003441 0.006452,0.02796m-36.234116,0.127899c0.00043,0.063089 0.006309,0.085457 0.013048,0.049898c0.006882,-0.035703 0.006596,-0.087321 -0.000574,-0.114708c-0.007169,-0.02753 -0.012761,0.001721 -0.012474,0.06481m15.492036,0.699002c0.050328,0.010754 0.100083,0.04746 0.121447,0.089759c0.032405,0.064093 0.036133,0.065384 0.036563,0.012761c0.000574,-0.08388 -0.054916,-0.128186 -0.15586,-0.124171l-0.087465,0.003298l0.085314,0.018353m6.068772,0.051762c-0.003585,0.11227 0.060939,0.181239 0.169194,0.181239c0.058788,0 0.085744,0.016346 0.095064,0.057784c0.011041,0.049324 0.012331,0.048464 0.009177,-0.006166c-0.002868,-0.048034 -0.027387,-0.068538 -0.098506,-0.08302c-0.116429,-0.023659 -0.121734,-0.028964 -0.149551,-0.146396l-0.022368,-0.094634l-0.003011,0.091193m15.217024,-0.04488c0.067678,0.0195 0.097645,0.048034 0.11012,0.104958c0.02882,0.130911 0.036276,0.13937 0.038571,0.044306c0.002868,-0.111554 -0.062229,-0.182099 -0.164606,-0.178658c-0.073413,0.002438 -0.072696,0.003728 0.015916,0.029394m-20.671247,0.824751c0.037997,0.01061 0.079005,0.044736 0.091193,0.075994c0.015629,0.039574 0.022798,0.043302 0.024232,0.012188c0.002868,-0.062229 -0.05592,-0.113848 -0.125605,-0.110406c-0.051045,0.002438 -0.049755,0.005449 0.01018,0.022225m21.12334,-0.011041c0.015772,0.005305 0.064667,0.017636 0.108829,0.027243c0.045023,0.010037 0.091193,0.045596 0.105675,0.081443l0.025666,0.063663l0.001721,-0.06524c0.002007,-0.069685 -0.091336,-0.123168 -0.207908,-0.118866c-0.034412,0.001147 -0.049755,0.006596 -0.033982,0.011758m-14.826586,0.628743c0.007026,0.061656 0.024089,0.123455 0.037854,0.137219c0.013765,0.013765 0.075564,0.030828 0.137219,0.037854c0.11098,0.012618 0.111123,0.012474 0.016346,-0.012331c-0.052622,-0.013765 -0.108829,-0.03814 -0.124888,-0.0542c-0.016059,-0.016059 -0.040435,-0.072266 -0.0542,-0.124888c-0.024806,-0.094778 -0.024949,-0.094634 -0.012331,0.016346m-21.262567,0.109403c-0.00086,0.049755 0.127756,0.103811 0.163029,0.068538c0.00975,-0.00975 -0.009607,-0.01778 -0.043016,-0.01778c-0.033409,0 -0.073843,-0.022511 -0.089902,-0.050185c-0.02753,-0.047174 -0.029251,-0.047317 -0.030111,-0.000574m15.405862,0.099222c0.027673,0.007169 0.072696,0.007169 0.10037,0c0.027673,-0.007169 0.005018,-0.013191 -0.050185,-0.013191c-0.055203,0 -0.077858,0.006022 -0.050185,0.013191m21.285509,-0.001004c0.031545,0.006739 0.086461,0.018353 0.121877,0.025953c0.035559,0.007456 0.065527,0.03599 0.066817,0.063376c0.001721,0.03685 0.006309,0.039144 0.01821,0.009033c0.022511,-0.05678 -0.072123,-0.117719 -0.176507,-0.113848c-0.055777,0.002151 -0.066817,0.007743 -0.030398,0.015486m-14.889963,0.440049c0,0.070976 0.005592,0.100083 0.012474,0.064523c0.006882,-0.035416 0.006882,-0.093487 0,-0.129047c-0.006882,-0.035416 -0.012474,-0.006452 -0.012474,0.064523m-21.513634,-0.041582c-0.002438,0.075134 0.050615,0.128186 0.125749,0.125749c0.05506,-0.001721 0.05463,-0.003441 -0.006452,-0.02796c-0.035846,-0.014339 -0.076998,-0.05549 -0.091336,-0.091336c-0.024519,-0.061082 -0.026239,-0.061512 -0.02796,-0.006452m15.8624,0.499123c0.039574,0.063376 0.067391,0.05549 0.041582,-0.011758c-0.00932,-0.024375 -0.030398,-0.044306 -0.046744,-0.044306c-0.018927,0 -0.017063,0.020504 0.005162,0.056064m21.310314,0.259384c0,0.10252 0.005162,0.144389 0.011614,0.0932c0.006309,-0.051188 0.006309,-0.135069 0,-0.186401c-0.006452,-0.051188 -0.011614,-0.00932 -0.011614,0.0932m-15.373457,-0.028677c0,0.055203 0.006022,0.077858 0.013191,0.050185c0.007169,-0.02753 0.007169,-0.072696 0,-0.10037c-0.007169,-0.027673 -0.013191,-0.005018 -0.013191,0.050185m-5.909758,0.317168c-0.005305,0.090763 -0.057784,0.161308 -0.133348,0.178945c-0.043446,0.01018 -0.038427,0.014195 0.020504,0.016776c0.09234,0.003871 0.14654,-0.076568 0.128903,-0.191706l-0.011758,-0.077428l-0.004302,0.073413m5.7311,-0.03814c-0.057784,0.021938 -0.085601,0.067534 -0.083307,0.136789c0.001434,0.044593 0.008173,0.039861 0.030684,-0.021508c0.018353,-0.050615 0.056207,-0.085027 0.105245,-0.095781c0.123024,-0.026956 0.138367,-0.035846 0.062086,-0.035846c-0.039431,0 -0.091049,0.007313 -0.114708,0.016346m15.505801,0.131771c-0.010467,0.0271 -0.048321,0.061225 -0.084167,0.075564c-0.06352,0.025523 -0.06352,0.026239 -0.004015,0.02796c0.069112,0.002151 0.136646,-0.064523 0.11901,-0.117576c-0.007743,-0.022942 -0.018497,-0.018067 -0.030828,0.014052m-15.868709,0.465141c-0.025809,0.067248 0.002007,0.075134 0.041582,0.011758c0.022225,-0.035559 0.024089,-0.056064 0.005162,-0.056064c-0.016346,0 -0.037423,0.019931 -0.046744,0.044306m15.336607,0.272862c-0.004732,0.081873 -0.053913,0.15586 -0.11901,0.179088c-0.028103,0.010037 -0.021078,0.016203 0.020504,0.017636c0.077428,0.002724 0.130767,-0.086891 0.114565,-0.192709l-0.011758,-0.077428l-0.004302,0.073413m-36.908312,0.691833c-0.002724,0.064523 -0.018353,0.079005 -0.096498,0.088612l-0.0932,0.011614l0.094061,0.004588c0.099509,0.004875 0.136359,-0.03771 0.112414,-0.129907c-0.009033,-0.034699 -0.014482,-0.026383 -0.016776,0.025092m21.110149,0.100513c0.027673,0.007169 0.072696,0.007169 0.10037,0c0.027673,-0.007169 0.005018,-0.013191 -0.050185,-0.013191c-0.055203,0 -0.077858,0.006022 -0.050185,0.013191m-21.507756,0.28677c0.02753,0.007169 0.07284,0.007169 0.10037,0c0.027673,-0.007169 0.005018,-0.013191 -0.050185,-0.013191c-0.055203,0 -0.077715,0.006022 -0.050185,0.013191m-0.13851,0.079292c-0.00975,0.038857 -0.010897,0.087178 -0.002724,0.107539c0.008173,0.020504 0.015916,0.004158 0.017063,-0.03599c0.00129,-0.040148 0.01778,-0.088612 0.036707,-0.107539c0.026096,-0.026096 0.026239,-0.034412 0.000574,-0.034412c-0.01864,0 -0.041868,0.031688 -0.051619,0.070402m36.602472,0.09277c-0.009033,0.034986 -0.045166,0.066961 -0.08388,0.074273c-0.061225,0.011614 -0.061942,0.013191 -0.006739,0.016776c0.068968,0.004445 0.136789,-0.062086 0.118723,-0.116285c-0.006739,-0.020217 -0.01907,-0.009033 -0.028103,0.025236m-21.465887,0.086031c0.027673,0.007169 0.07284,0.007169 0.10037,0c0.027673,-0.007169 0.005018,-0.013191 -0.050185,-0.013191c-0.055203,0 -0.077858,0.006022 -0.050185,0.013191m6.108203,0.166613c0.00043,0.063089 0.006309,0.085457 0.013048,0.049898c0.006882,-0.035703 0.006596,-0.087321 -0.000574,-0.114708c-0.007169,-0.02753 -0.012761,0.001721 -0.012474,0.06481m-6.366296,0.120157c0.027673,0.007169 0.072696,0.007169 0.10037,0c0.027673,-0.007169 0.005018,-0.013191 -0.050185,-0.013191c-0.055203,0 -0.077715,0.006022 -0.050185,0.013191m-0.0932,0.333944c0,0.097358 -0.09191,0.189985 -0.19357,0.195004c-0.059218,0.003011 -0.064093,0.006882 -0.019644,0.015629c0.144532,0.028677 0.322043,-0.178371 0.230993,-0.26942c-0.00975,-0.00975 -0.01778,0.016633 -0.01778,0.058788m21.24235,0.140231c-0.009894,0.025523 -0.047747,0.052192 -0.084167,0.059075c-0.05506,0.01061 -0.056637,0.013335 -0.00889,0.016203c0.076854,0.004588 0.13894,-0.03771 0.123455,-0.084167c-0.00932,-0.027817 -0.017206,-0.025523 -0.030398,0.00889m-36.836906,0.400761c-0.018927,0.018927 -0.033552,0.054486 -0.032405,0.078862c0.001434,0.030684 0.00889,0.02667 0.024375,-0.012905c0.012331,-0.031545 0.059792,-0.065527 0.105531,-0.075421c0.079722,-0.01735 0.080009,-0.018353 0.010037,-0.021508c-0.040291,-0.001864 -0.088612,0.012044 -0.107539,0.030971m21.279773,-0.015486c-0.019644,0.00803 -0.035846,0.02796 -0.035846,0.044306c0,0.020217 0.011471,0.020504 0.035846,0.000717c0.019787,-0.016059 0.061656,-0.035416 0.0932,-0.043159l0.057354,-0.014195l-0.057354,-0.001004c-0.031545,-0.000574 -0.073413,0.005449 -0.0932,0.013335m-0.057928,0.181812c0,0.055203 0.006022,0.077858 0.013191,0.050185c0.007169,-0.027673 0.007169,-0.072696 0,-0.10037c-0.007169,-0.027673 -0.013191,-0.005018 -0.013191,0.050185m-6.209146,0.207191c-0.014912,0.055203 -0.048177,0.086031 -0.113991,0.104958c-0.084454,0.024375 -0.086174,0.0271 -0.019357,0.029394c0.105531,0.003728 0.177797,-0.058644 0.16518,-0.142381l-0.01061,-0.070115l-0.021221,0.078145m21.237331,0.048608c-0.01907,0.030541 -0.070689,0.061082 -0.114565,0.067678c-0.078432,0.011901 -0.078288,0.012188 0.009894,0.016346c0.089616,0.004302 0.168191,-0.053339 0.149407,-0.10969c-0.005449,-0.016489 -0.025523,-0.004875 -0.044736,0.025666m-15.314956,0.375095c0,0.055203 0.006022,0.077858 0.013191,0.050185c0.007169,-0.02753 0.007169,-0.072696 0,-0.10037c-0.007169,-0.02753 -0.013191,-0.005018 -0.013191,0.050185m-6.469533,0.370364c-0.014195,0.088469 -0.034699,0.118436 -0.096928,0.141091c-0.061369,0.022511 -0.066101,0.029251 -0.021508,0.030684c0.031545,0.001004 0.07284,-0.00803 0.09191,-0.020074c0.033409,-0.021364 0.087608,-0.263972 0.058788,-0.263972c-0.007886,0 -0.022368,0.050472 -0.032262,0.11227m21.258696,0.016059c-0.008173,0.054486 -0.038714,0.098506 -0.084454,0.121447c-0.066674,0.033552 -0.067391,0.036133 -0.01061,0.036563c0.083163,0.000574 0.131627,-0.065814 0.118723,-0.162742l-0.010897,-0.080582l-0.012761,0.085314m-36.577093,0.217658c-0.030398,0.049181 -0.003154,0.054056 0.056924,0.01018c0.046457,-0.034126 0.047891,-0.040721 0.008746,-0.040721c-0.025809,0 -0.055347,0.013765 -0.06567,0.030541m21.266295,0.011041c-0.01907,0.022942 -0.028534,0.064953 -0.021221,0.0932c0.010467,0.040004 0.014195,0.03685 0.016776,-0.013765c0.002007,-0.039144 0.029251,-0.075994 0.067821,-0.09148c0.043732,-0.017493 0.049468,-0.026526 0.01778,-0.027673c-0.025666,-0.001004 -0.062086,0.016919 -0.081156,0.039718m15.060878,0.044449c0,0.055203 0.006022,0.077858 0.013191,0.050185c0.007169,-0.027673 0.007169,-0.072696 0,-0.10037c-0.007169,-0.027673 -0.013191,-0.005018 -0.013191,0.050185m-36.361872,0.358463c0.00043,0.063089 0.006309,0.085457 0.013048,0.049898c0.006882,-0.035703 0.006596,-0.087321 -0.000574,-0.114708c-0.007169,-0.02753 -0.012761,0.001721 -0.012474,0.06481m14.538669,0.444494c0,0.055203 0.006022,0.077858 0.013191,0.050185c0.007169,-0.027673 0.007169,-0.072696 0,-0.10037c-0.007169,-0.02753 -0.013191,-0.005018 -0.013191,0.050185m5.910761,0.560492c-0.025809,0.067248 0.002007,0.075134 0.041582,0.011758c0.022225,-0.035559 0.024089,-0.056064 0.005162,-0.056064c-0.016346,0 -0.037423,0.019931 -0.046744,0.044306m-21.281637,0.156433c0,0.055203 0.006022,0.077858 0.013191,0.050185c0.007169,-0.027673 0.007169,-0.072696 0,-0.10037c-0.007169,-0.02753 -0.013191,-0.005018 -0.013191,0.050185m-0.286197,0.616556c0.00043,0.063089 0.006309,0.085457 0.013048,0.049898c0.006882,-0.035703 0.006596,-0.087321 -0.000574,-0.114708c-0.007169,-0.02753 -0.012761,0.001721 -0.012474,0.06481m35.781736,0.337672c0,0.10209 -0.076998,0.188121 -0.179661,0.200882l-0.09277,0.011471l0.0932,0.004588c0.117576,0.005735 0.207908,-0.079435 0.207908,-0.196151c0,-0.047317 -0.006452,-0.086031 -0.014339,-0.086031c-0.007886,0 -0.014339,0.029394 -0.014339,0.06524m-21.275042,0.083593c-0.003871,0.057641 -0.039431,0.082446 -0.158584,0.110837l-0.088469,0.021221l0.087752,0.003011c0.112844,0.003728 0.195147,-0.05592 0.176794,-0.128043c-0.011327,-0.044163 -0.014769,-0.045596 -0.017493,-0.007026m-15.047256,0.239596c-0.01018,0.040148 -0.010324,0.081013 -0.000574,0.090906c0.00975,0.00975 0.01778,-0.007599 0.01778,-0.038714c0,-0.030971 0.015486,-0.071836 0.034412,-0.090763c0.026096,-0.026096 0.026239,-0.034412 0.000574,-0.034412c-0.01864,0 -0.042155,0.032835 -0.052192,0.072983m14.499095,0.53669c0,0.089902 -0.067534,0.163746 -0.152562,0.1669c-0.034412,0.001147 -0.045883,0.00889 -0.025379,0.017063c0.115425,0.046313 0.280174,-0.156146 0.195721,-0.2406c-0.00975,-0.00975 -0.01778,0.015772 -0.01778,0.056637m21.235324,0.083163c-0.015772,0.035846 -0.060939,0.073987 -0.10037,0.084884l-0.071693,0.0195l0.075421,0.002868c0.084741,0.003154 0.149264,-0.057211 0.134925,-0.126466c-0.007456,-0.035416 -0.016203,-0.030971 -0.038284,0.019214m-0.526653,0.742734c-0.004302,0.081729 -0.053339,0.15586 -0.118579,0.179088c-0.02753,0.009894 -0.019644,0.016203 0.022225,0.017636c0.07284,0.002581 0.132201,-0.109116 0.111984,-0.210919c-0.009463,-0.048034 -0.012474,-0.045453 -0.015629,0.014195m-14.75346,-0.011327c-0.010467,0.01061 -0.018067,0.046027 -0.016776,0.078862c0.001577,0.041008 0.007026,0.046313 0.017636,0.016776c0.00846,-0.023659 0.035703,-0.059075 0.060508,-0.078862c0.039718,-0.031401 0.039861,-0.035846 0.001577,-0.035846c-0.024089,0 -0.052336,0.008603 -0.062946,0.01907m-6.534343,0.088325c-0.00975,0.035559 -0.047891,0.076568 -0.084884,0.09148c-0.064236,0.025666 -0.064523,0.026956 -0.006166,0.028677c0.074704,0.002294 0.133778,-0.06352 0.119296,-0.132918c-0.00889,-0.043446 -0.013478,-0.041295 -0.028247,0.012761m6.206995,0.623868c0.00043,0.063089 0.006309,0.085457 0.013048,0.049898c0.006882,-0.035703 0.006596,-0.087321 -0.000574,-0.114708c-0.007169,-0.02753 -0.012761,0.001721 -0.012474,0.06481m14.251899,0.444494c0,0.055203 0.006022,0.077858 0.013191,0.050185c0.007169,-0.027673 0.007169,-0.072696 0,-0.10037c-0.007169,-0.027673 -0.013191,-0.005018 -0.013191,0.050185m-21.478505,0.191849c0.027673,0.007169 0.07284,0.007169 0.10037,0c0.02753,-0.007169 0.005018,-0.013191 -0.050185,-0.013191c-0.055203,0 -0.077715,0.006022 -0.050185,0.013191m-14.524904,0.039861c-0.029967,0.017493 -0.048894,0.060508 -0.046887,0.106678c0.002581,0.059505 0.006596,0.064093 0.017206,0.020074c0.019357,-0.080726 0.0466,-0.103381 0.156003,-0.12919l0.095925,-0.022655l-0.086031,-0.002007c-0.047317,-0.001147 -0.108686,0.011041 -0.136216,0.0271m21.256832,0.026383c-0.035703,0.035703 -0.056207,0.092483 -0.054486,0.150554l0.003011,0.0932l0.022081,-0.093057c0.030398,-0.127756 0.075277,-0.174069 0.182099,-0.187404l0.091049,-0.011471l-0.0932,-0.004588c-0.059648,-0.002868 -0.113848,0.016059 -0.150554,0.052766m-0.222247,0.507296c0.027673,0.007169 0.072696,0.007169 0.10037,0c0.027673,-0.007169 0.005018,-0.013191 -0.050185,-0.013191c-0.055203,0 -0.077858,0.006022 -0.050185,0.013191m14.379655,0.191993c-0.009033,0.023228 -0.052479,0.047604 -0.096785,0.054343l-0.080582,0.012044l0.075421,0.004302c0.070832,0.004015 0.165323,-0.065527 0.132918,-0.097932c-0.008173,-0.008316 -0.022081,0.004015 -0.030971,0.027243m-21.285509,0.015629c-0.014769,0.014195 -0.059075,0.031545 -0.098506,0.038714l-0.071693,0.012905l0.071693,0.003441c0.075277,0.003585 0.167044,-0.039001 0.140661,-0.065384c-0.00846,-0.00846 -0.02753,-0.003728 -0.042155,0.010324m-14.976137,0.667314c-0.018927,0.018927 -0.034412,0.054056 -0.034412,0.078145c0,0.030971 0.012474,0.025809 0.043302,-0.01821c0.023802,-0.033982 0.072123,-0.067391 0.107539,-0.07413c0.058931,-0.011327 0.058214,-0.012761 -0.00889,-0.016346c-0.040291,-0.002151 -0.088612,0.011614 -0.107539,0.030541m14.447046,0.030111c-0.000717,0.097215 -0.039288,0.139944 -0.146396,0.161595c-0.086605,0.017636 -0.097358,0.030254 -0.100656,0.11901l-0.003728,0.099366l0.012761,-0.0932c0.010897,-0.080439 0.023802,-0.0932 0.094778,-0.0932c0.105388,0 0.172349,-0.067678 0.172349,-0.174069c0,-0.04617 -0.006452,-0.084024 -0.014339,-0.084024c-0.007886,0 -0.014482,0.029107 -0.014769,0.064523m6.813227,-0.0195c-0.024806,0.024806 -0.043876,0.079722 -0.042442,0.121877c0.002438,0.073557 0.003728,0.072983 0.029394,-0.015629c0.020074,-0.069685 0.049611,-0.099222 0.119296,-0.119296c0.088612,-0.025666 0.089185,-0.026956 0.015629,-0.029394c-0.042155,-0.001434 -0.097072,0.017636 -0.121877,0.042442m14.422527,0.114708c-0.015772,0.024949 -0.073843,0.05592 -0.129047,0.068968l-0.10037,0.023515l0.087752,0.003011c0.098075,0.003154 0.198445,-0.056064 0.181382,-0.107395c-0.007313,-0.022081 -0.020934,-0.017923 -0.039718,0.011901m-36.026064,0.585871c0,0.055203 0.006022,0.077858 0.013191,0.050185c0.007169,-0.02753 0.007169,-0.072696 0,-0.10037c-0.007169,-0.02753 -0.013191,-0.005018 -0.013191,0.050185m35.499411,0.143385c-0.006309,0.095351 -0.034269,0.134782 -0.11944,0.168764l-0.070832,0.02839l0.077858,0.001721c0.092197,0.002151 0.146396,-0.078862 0.128903,-0.19314c-0.011614,-0.075994 -0.011901,-0.076137 -0.016489,-0.005735m-21.302715,0.11227c-0.01907,0.030541 -0.064236,0.061225 -0.100226,0.068108c-0.060222,0.011471 -0.059361,0.012905 0.00975,0.016489c0.077571,0.004015 0.152705,-0.057211 0.135069,-0.11012c-0.005449,-0.016489 -0.025523,-0.005018 -0.044593,0.025523m-14.721485,0.480913c-0.016059,0.042299 -0.023945,0.103667 -0.017493,0.136216c0.009463,0.048034 0.012474,0.045453 0.015629,-0.014195c0.004732,-0.090619 0.057211,-0.161165 0.132918,-0.178945c0.042585,-0.009894 0.03685,-0.014339 -0.022225,-0.016776c-0.061512,-0.002581 -0.086174,0.014195 -0.108829,0.0737m21.286082,-0.042585c-0.018927,0.018927 -0.033552,0.060939 -0.032548,0.0932c0.001721,0.05506 0.003441,0.05463 0.02796,-0.006452c0.014339,-0.035846 0.05549,-0.076998 0.091336,-0.091336c0.061082,-0.024519 0.061512,-0.026239 0.006452,-0.02796c-0.032262,-0.001004 -0.074273,0.013622 -0.0932,0.032548m-7.090964,0.323333c-0.007886,0.054773 -0.03814,0.098362 -0.084024,0.121447c-0.069255,0.034843 -0.069542,0.036133 -0.008173,0.036563c0.0737,0.00043 0.131341,-0.089329 0.115568,-0.180235c-0.009033,-0.052049 -0.013048,-0.048034 -0.023372,0.022225m20.455883,0.861027c0.00043,0.063089 0.006309,0.085457 0.013048,0.049898c0.006882,-0.035703 0.006596,-0.087321 -0.000574,-0.114708c-0.007169,-0.02753 -0.012761,0.001721 -0.012474,0.06481m-35.474892,0.220813c-0.018927,0.018927 -0.032692,0.067391 -0.030541,0.107539c0.003585,0.067104 0.005018,0.067821 0.016346,0.00889c0.006739,-0.035416 0.040148,-0.083737 0.07413,-0.107539c0.044019,-0.030828 0.049181,-0.043302 0.01821,-0.043302c-0.024089,0 -0.059218,0.015486 -0.078145,0.034412m21.262997,-0.015342c-0.010467,0.01061 -0.01907,0.038857 -0.01907,0.062946c0,0.038284 0.004445,0.03814 0.035846,-0.001577c0.019787,-0.024806 0.055203,-0.052049 0.078862,-0.060508c0.029537,-0.01061 0.024232,-0.016059 -0.016776,-0.017636c-0.032835,-0.00129 -0.068251,0.006309 -0.078862,0.016776m-7.611881,0.640501c0,0.055203 0.006022,0.077858 0.013191,0.050185c0.007169,-0.02753 0.007169,-0.072696 0,-0.10037c-0.007169,-0.02753 -0.013191,-0.005018 -0.013191,0.050185m21.243067,0.210346c0,0.097358 -0.09191,0.189985 -0.19357,0.195004c-0.059218,0.003011 -0.064093,0.006882 -0.019644,0.015629c0.144532,0.028677 0.322043,-0.178371 0.230993,-0.26942c-0.00975,-0.00975 -0.01778,0.016633 -0.01778,0.058788m-21.285652,0.140231c-0.009894,0.025523 -0.047747,0.052192 -0.084167,0.059075c-0.05506,0.01061 -0.056637,0.013335 -0.00889,0.016203c0.076854,0.004588 0.13894,-0.03771 0.123455,-0.084167c-0.00932,-0.027817 -0.017206,-0.025523 -0.030398,0.00889m-0.25078,0.287774c0,0.025092 -0.022655,0.051619 -0.050185,0.058788c-0.04703,0.012331 -0.04703,0.013335 0.00086,0.016489c0.051905,0.003298 0.099939,-0.070402 0.067248,-0.103094c-0.009894,-0.009894 -0.017923,0.002724 -0.017923,0.027817m-14.159272,0.108112c-0.041582,0.016776 -0.063806,0.049324 -0.062659,0.09148l0.001721,0.065384l0.025666,-0.063663c0.014482,-0.035846 0.060652,-0.071406 0.105675,-0.081443c0.127326,-0.028103 0.142668,-0.036707 0.065814,-0.03728c-0.039431,-0.000143 -0.100656,0.011327 -0.136216,0.025523m21.242493,0.027817c-0.036707,0.036707 -0.055633,0.090906 -0.052766,0.150554l0.004588,0.0932l0.011471,-0.091049c0.013335,-0.106822 0.059648,-0.151701 0.187404,-0.182099l0.093057,-0.022081l-0.0932,-0.003011c-0.058071,-0.001721 -0.114851,0.018783 -0.150554,0.054486m-7.36612,0.25881c-0.005592,0.104241 -0.078288,0.194287 -0.169051,0.209342c-0.058358,0.00975 -0.052909,0.012044 0.021651,0.009033c0.111697,-0.004445 0.186544,-0.108256 0.163746,-0.226979c-0.011327,-0.058501 -0.012761,-0.057784 -0.016346,0.008603m21.245361,0.063806c-0.00086,0.067821 -0.049755,0.113274 -0.146396,0.136216l-0.096928,0.022798l0.091193,0.003011c0.101947,0.003154 0.181239,-0.059075 0.181239,-0.142525c0,-0.030398 -0.006452,-0.055347 -0.014339,-0.055347c-0.007886,0 -0.014482,0.016203 -0.014769,0.035846m-21.786926,0.552032c0.00043,0.063089 0.006309,0.085457 0.013048,0.049898c0.006882,-0.035703 0.006596,-0.087321 -0.000574,-0.114708c-0.007169,-0.02753 -0.012761,0.001721 -0.012474,0.06481m21.242493,0.218232c0,0.088469 -0.074847,0.197585 -0.135499,0.197585c-0.025379,0 -0.03814,0.00803 -0.02839,0.01778c0.009894,0.00975 0.049611,0.009894 0.088325,0.000143c0.068968,-0.01735 0.139514,-0.221673 0.09277,-0.268417c-0.009463,-0.009463 -0.017206,0.014339 -0.017206,0.052909m-21.28006,0.08216c-0.007026,0.039001 -0.04488,0.087178 -0.08431,0.107109c-0.066674,0.033552 -0.067391,0.036133 -0.01061,0.036563c0.079579,0.000574 0.132488,-0.06567 0.118579,-0.148547c-0.011041,-0.065814 -0.011184,-0.065814 -0.023659,0.004875m-14.158986,0.207191c-0.018927,0.018927 -0.034412,0.054056 -0.034412,0.078145c0,0.030971 0.012474,0.025809 0.043302,-0.01821c0.023802,-0.034126 0.078718,-0.067248 0.121877,-0.073843c0.077428,-0.011758 0.077285,-0.012044 -0.00889,-0.016203c-0.048034,-0.002438 -0.10295,0.011184 -0.121877,0.030111m21.260273,0.01061c-0.024806,0.024806 -0.044019,0.07327 -0.042729,0.107539c0.002007,0.05463 0.005879,0.052622 0.031115,-0.016346c0.018353,-0.050615 0.056207,-0.085027 0.105245,-0.095781c0.129047,-0.02839 0.137363,-0.035846 0.042585,-0.03814c-0.050041,-0.00129 -0.11141,0.017923 -0.136216,0.042729m-0.295947,0.518767c-0.019644,0.00803 -0.035846,0.02796 -0.035846,0.044306c0,0.020504 0.011327,0.020504 0.035846,0.00043c0.019787,-0.016203 0.068108,-0.035416 0.107539,-0.042729l0.071693,-0.013191l-0.071693,-0.001577c-0.039431,-0.00086 -0.087752,0.004875 -0.107539,0.012761m-7.37716,0.149264c0,0.018927 -0.028964,0.046027 -0.064523,0.060365l-0.064523,0.025953l0.065384,0.001721c0.063376,0.001864 0.117863,-0.068108 0.081586,-0.104528c-0.009894,-0.009894 -0.017923,-0.002438 -0.017923,0.016489m7.065298,0.447361c-0.00889,0.023228 -0.009463,0.058644 -0.001434,0.078862c0.008173,0.020361 0.015916,0.00889 0.017063,-0.025236c0.00129,-0.034269 0.018497,-0.068681 0.03814,-0.076711c0.028103,-0.011327 0.027817,-0.014912 -0.00086,-0.016633c-0.020217,-0.00129 -0.044019,0.016633 -0.052909,0.039718m-0.00846,0.37868c-0.004445,0.064667 0.032979,0.124171 0.078001,0.124171c0.041295,0 0.041295,-0.003298 0.000143,-0.035846c-0.024806,-0.019644 -0.052049,-0.055203 -0.060508,-0.078862c-0.00846,-0.023659 -0.016489,-0.02796 -0.017636,-0.009463" id="path0"/>
   <path fill-rule="evenodd" fill="#5e5e5e" d="m1.097236,1.047475c-0.04574,0.04574 -0.045883,0.430442 -0.000143,0.476182c0.018927,0.018927 0.075277,0.034412 0.125319,0.034412l0.090906,0l0.020217,0.20418c0.021651,0.220526 0.097645,0.340683 0.215364,0.340683c0.047604,0 0.058644,0.018353 0.058644,0.098075c0,0.163459 0.021508,0.188695 0.160735,0.188695l0.126035,0l0,0.257089c0,0.283472 0.020361,0.316451 0.195147,0.316451l0.084024,0l0.013765,0.214074c0.015199,0.235725 0.041868,0.287344 0.161452,0.311289c0.069398,0.013908 0.08388,0.034699 0.106822,0.153996c0.026526,0.136933 0.02753,0.137936 0.148547,0.146683l0.121877,0.00889l0.00043,0.206188c0.000574,0.303116 0.012331,0.329499 0.15629,0.351007l0.122164,0.018353l0.016919,0.201456c0.01864,0.222247 0.065384,0.300822 0.187548,0.315017c0.068395,0.007886 0.077285,0.022798 0.090189,0.152132l0.014339,0.143385l0.117289,0.008603l0.117432,0.008603l0.025953,0.263828l0.026096,0.263828l0.117719,0.008603l0.117719,0.008603l0.017206,0.222103c0.022511,0.292219 0.032405,0.312149 0.165466,0.334661c0.107109,0.018067 0.112414,0.023945 0.112414,0.125462c0,0.134782 0.041008,0.175217 0.177797,0.175217l0.108973,0l0,0.238019c0,0.265692 0.021508,0.306844 0.160448,0.306844l0.091623,0l0.020504,0.236585c0.023802,0.273579 0.043446,0.308278 0.17536,0.308278c0.091193,0 0.096928,0.005735 0.096928,0.098075c0,0.154426 0.023372,0.184393 0.160304,0.204897l0.126466,0.018927l0,0.224111c0,0.257089 0.033839,0.3143 0.18554,0.3143l0.095351,0l0.010037,0.244758c0.011041,0.264402 0.030971,0.298814 0.174069,0.299675c0.071693,0.00043 0.079435,0.011758 0.096928,0.143815l0.01907,0.143385l0.121734,0l0.121877,0l0.012331,0.257376c0.014052,0.2948 0.01018,0.287344 0.160878,0.307561l0.113561,0.015199l0.013335,0.23042c0.014625,0.252931 0.050041,0.307848 0.198302,0.307848c0.073843,0 0.079579,0.008746 0.087752,0.136216l0.008746,0.136216l0.118149,0.008603l0.118006,0.008603l0.025379,0.263828l0.025236,0.263828l0.114708,0.014339l0.114708,0.014339l0.021221,0.200739c0.033839,0.320752 0.03685,0.326918 0.16561,0.347565c0.109116,0.01735 0.114278,0.022942 0.114278,0.123598c0,0.133635 0.041295,0.174069 0.177797,0.174069l0.108973,0l0,0.238019c0,0.265406 0.021651,0.306844 0.159731,0.306844c0.098936,0 0.126035,0.069255 0.126752,0.32448c0.00043,0.136789 0.043446,0.220383 0.113704,0.220383c0.105818,0 0.144676,0.033409 0.145106,0.124888c0.000574,0.129047 0.032979,0.164176 0.167474,0.182099l0.118866,0.016059l0,0.223537c0,0.256516 0.033839,0.313726 0.18554,0.313726l0.095351,0l0.010037,0.241317c0.011471,0.273865 0.013478,0.27745 0.160448,0.301252c0.105388,0.016919 0.107969,0.020361 0.116572,0.153135l0.008746,0.135929l0.123455,0l0.123598,0l0.014769,0.259384c0.016919,0.298097 0.010324,0.285623 0.159301,0.305554l0.113561,0.015199l0.013335,0.23042c0.014625,0.252931 0.050041,0.307848 0.198302,0.307848c0.073843,0 0.079579,0.008746 0.087752,0.136216l0.008746,0.136216l0.120874,0.008746c0.136646,0.009894 0.144962,0.029107 0.158727,0.363194l0.007169,0.171345l0.118006,0.023228l0.118006,0.023228l0.0195,0.215078c0.025666,0.282755 0.032692,0.29652 0.163459,0.317454c0.106105,0.016919 0.111554,0.022942 0.111554,0.123168c0,0.133348 0.041295,0.174069 0.17665,0.174069l0.107969,0l0.008173,0.265262l0.008316,0.265262l0.129047,0.014339l0.129047,0.014339l0.014339,0.229416c0.016776,0.269134 0.026383,0.288921 0.151701,0.312436c0.093917,0.017636 0.095351,0.020361 0.126035,0.232857c0.034699,0.24146 0.062372,0.288921 0.183103,0.315447c0.069972,0.015342 0.084024,0.032692 0.084024,0.104098c0,0.144962 0.045453,0.196581 0.173066,0.196581l0.113704,0l0,0.430155l0,0.430155l-0.126035,0c-0.139227,0 -0.160735,0.025236 -0.160735,0.188695c0,0.086174 -0.00889,0.098075 -0.073557,0.098075c-0.152418,0 -0.177797,0.03814 -0.199592,0.300678c-0.020074,0.240887 -0.021508,0.244185 -0.097502,0.244185c-0.143815,0 -0.171919,0.048894 -0.180522,0.315447l-0.00803,0.243755l-0.129047,0.014339l-0.129047,0.014339l-0.008746,0.136216c-0.008603,0.133348 -0.010754,0.136216 -0.103954,0.136216c-0.133491,0 -0.162742,0.050902 -0.180809,0.314443l-0.015772,0.23042l-0.089185,0.00043c-0.148117,0.000717 -0.165323,0.02882 -0.182099,0.29695l-0.015342,0.247483l-0.079722,0c-0.143672,0 -0.170341,0.025092 -0.170341,0.160448c0,0.124745 -0.000717,0.125749 -0.117002,0.144389c-0.143385,0.022942 -0.169768,0.078145 -0.169768,0.356599l0,0.198875l-0.113704,0c-0.147113,0 -0.173066,0.049038 -0.173066,0.327922l0,0.216942l-0.113704,0c-0.128186,0 -0.173066,0.051619 -0.173066,0.198875c0,0.072409 -0.011614,0.087895 -0.06524,0.087895c-0.149837,0 -0.192853,0.070115 -0.192853,0.314587l0,0.225258l-0.121877,0.020361c-0.156863,0.026239 -0.163889,0.040004 -0.164463,0.320035l-0.00043,0.235008l-0.136216,0.008746l-0.136216,0.008746l-0.008746,0.136216c-0.007886,0.124028 -0.015199,0.136216 -0.080726,0.136216c-0.150841,0 -0.17622,0.038714 -0.198015,0.300678c-0.019644,0.234435 -0.023228,0.244185 -0.090619,0.244185c-0.126466,0 -0.181095,0.049898 -0.181382,0.165896c-0.000143,0.058644 -0.008316,0.173639 -0.018067,0.255656l-0.017923,0.14912l-0.118149,0.008603l-0.118006,0.008603l-0.008746,0.136216c-0.008603,0.133348 -0.010754,0.136216 -0.103954,0.136216c-0.134639,0 -0.167617,0.057211 -0.182529,0.317024l-0.013191,0.227839l-0.089616,0.00043c-0.152132,0.000717 -0.170055,0.029824 -0.184106,0.298241c-0.011901,0.227695 -0.017493,0.246192 -0.073843,0.246622c-0.12833,0.000717 -0.189985,0.033695 -0.189985,0.101373c0,0.138653 -0.050328,0.213644 -0.143385,0.213644c-0.111697,0 -0.143385,0.076281 -0.143385,0.345988l0,0.198875l-0.113704,0c-0.147113,0 -0.173066,0.049038 -0.173066,0.327922l0,0.216942l-0.113704,0c-0.131197,0 -0.173066,0.051475 -0.173066,0.213214c0,0.087608 -0.009463,0.102234 -0.066244,0.102234c-0.119296,0 -0.158871,0.060222 -0.197728,0.301109l-0.037137,0.229416l-0.114708,0.014339l-0.114708,0.014339l-0.008173,0.263685l-0.008316,0.263828l-0.135069,0.008603l-0.135212,0.008746l-0.008746,0.137219c-0.008173,0.127039 -0.015199,0.13851 -0.095208,0.154569c-0.117432,0.023515 -0.166757,0.11055 -0.187261,0.330359l-0.01735,0.185684l-0.118149,0.026239l-0.118149,0.026239l-0.026096,0.263828l-0.025953,0.263828l-0.117432,0.008603l-0.117289,0.008603l-0.008746,0.135212c-0.008316,0.129333 -0.012905,0.136072 -0.108256,0.153852c-0.125032,0.023515 -0.154712,0.079149 -0.175647,0.328925l-0.016776,0.199305l-0.089042,0.00043c-0.153852,0.000717 -0.173496,0.031831 -0.185253,0.292362c-0.011471,0.255656 -0.025666,0.279601 -0.166327,0.280318c-0.086748,0.00043 -0.091336,0.006309 -0.110263,0.143815c-0.015342,0.111554 -0.031115,0.143385 -0.071262,0.143385c-0.124028,0 -0.179661,0.092914 -0.194573,0.324624l-0.014195,0.220239l-0.105101,0c-0.153422,0 -0.174069,0.036276 -0.174069,0.306844l0,0.238019l-0.098362,0c-0.129333,0 -0.188408,0.06352 -0.188408,0.202746c0,0.098649 -0.008316,0.112701 -0.066244,0.112701c-0.128043,0 -0.168191,0.061656 -0.201313,0.308995l-0.031115,0.233144l-0.115998,0.008603l-0.115855,0.00846l-0.008316,0.265262l-0.008173,0.265262l-0.106535,0.00043c-0.1474,0.000574 -0.172779,0.024519 -0.183246,0.172062c-0.008316,0.116572 -0.016633,0.129477 -0.088612,0.137793c-0.109403,0.012474 -0.162599,0.107395 -0.183103,0.326201l-0.01735,0.185684l-0.118006,0.026239c-0.131914,0.029394 -0.156146,0.091049 -0.159588,0.40621l-0.001721,0.150554l-0.094634,0c-0.138653,0 -0.163459,0.042012 -0.163459,0.277163c0,0.17665 0.00846,0.212783 0.05549,0.238019c0.03771,0.020217 2.172283,0.029681 6.692783,0.029681l6.63715,0l0.01735,-0.064523c0.009463,-0.035416 0.017493,-0.099939 0.017636,-0.143385c0.00043,-0.07413 0.00803,-0.078862 0.127899,-0.078862l0.127469,0l0.008746,-0.136216l0.008746,-0.136216l0.114278,-0.00932c0.132918,-0.010754 0.15715,-0.038571 0.157724,-0.181095c0.00043,-0.096355 0.00803,-0.105675 0.100513,-0.123024c0.125032,-0.023515 0.152275,-0.074417 0.175933,-0.327635l0.018783,-0.20203l0.117719,-0.008603c0.115855,-0.00846 0.118149,-0.010754 0.142238,-0.143098c0.021078,-0.116142 0.035559,-0.137076 0.105675,-0.152418c0.121591,-0.026813 0.149981,-0.081156 0.165036,-0.316307l0.013765,-0.214074l0.107395,0c0.129763,0 0.164606,-0.036707 0.176794,-0.186831c0.008173,-0.1008 0.01864,-0.115282 0.088755,-0.123455c0.109546,-0.012474 0.162599,-0.107539 0.183246,-0.327778l0.017493,-0.187117l0.113131,-0.015055c0.13937,-0.018783 0.13851,-0.01778 0.157724,-0.160448c0.014052,-0.105388 0.024806,-0.118293 0.112987,-0.134782c0.124458,-0.023372 0.153135,-0.080009 0.153709,-0.30369c0.000574,-0.223394 0.014482,-0.246192 0.157724,-0.257806c0.110837,-0.009033 0.114565,-0.012761 0.123598,-0.123598c0.010324,-0.127039 0.039718,-0.157007 0.154569,-0.157724c0.107395,-0.000574 0.137219,-0.071836 0.137219,-0.328352l0,-0.216942l0.125749,0c0.134925,0 0.159731,-0.031831 0.160591,-0.206331c0.00043,-0.070259 0.011327,-0.078001 0.122307,-0.086031l0.121877,-0.008746l0.008603,-0.133348c0.008173,-0.126035 0.013765,-0.134208 0.104671,-0.151271c0.135642,-0.025379 0.161165,-0.070115 0.179661,-0.315877l0.016489,-0.216798l0.109546,0c0.123885,0 0.168908,-0.053196 0.168908,-0.199592c0,-0.075994 0.012618,-0.091193 0.088038,-0.106248c0.119583,-0.023945 0.168191,-0.11012 0.189268,-0.335378c0.017206,-0.18468 0.020074,-0.190415 0.097358,-0.190415c0.143815,0 0.170198,-0.024949 0.170198,-0.161738c0,-0.129333 0.004445,-0.134208 0.1474,-0.165466c0.092197,-0.020074 0.110263,-0.062516 0.131197,-0.310859c0.015199,-0.177797 0.021795,-0.19357 0.08216,-0.19357c0.152275,0 0.212783,-0.048608 0.212783,-0.170772c0,-0.102234 0.008746,-0.116715 0.078862,-0.131484c0.168334,-0.035416 0.20246,-0.105245 0.206188,-0.421839l0.001721,-0.136216l0.129047,0c0.121591,0 0.129047,-0.004588 0.129477,-0.078862c0.000717,-0.161882 0.028677,-0.207908 0.126179,-0.207908c0.138367,0 0.160161,-0.041438 0.160161,-0.305267l0,-0.236442l0.136216,-0.008746l0.136216,-0.008746l0.008746,-0.136216c0.00846,-0.132201 0.011471,-0.136216 0.10037,-0.136646c0.127183,-0.000574 0.153279,-0.024806 0.176364,-0.162742c0.017063,-0.101803 0.032405,-0.122738 0.101947,-0.137936c0.118293,-0.026096 0.144962,-0.072983 0.178945,-0.314587l0.030254,-0.215938l0.090333,0c0.118293,0 0.159014,-0.045166 0.159014,-0.17665c0,-0.101086 0.007026,-0.109833 0.111697,-0.137936c0.130194,-0.035129 0.144962,-0.063663 0.1669,-0.323477l0.016489,-0.19357l0.089042,-0.00043c0.131054,-0.000717 0.165323,-0.034986 0.181956,-0.182386c0.012618,-0.112557 0.024375,-0.132631 0.077428,-0.132631c0.120157,0 0.161882,-0.062803 0.194143,-0.291789l0.030541,-0.217945l0.117863,-0.024662c0.111984,-0.023515 0.118436,-0.030684 0.127326,-0.139083c0.010324,-0.127469 0.039718,-0.157007 0.15629,-0.157724c0.103094,-0.000574 0.135499,-0.083593 0.135499,-0.346418l0,-0.198875l0.126035,0c0.13894,0 0.160735,-0.025379 0.160735,-0.187117c0,-0.092914 0.004445,-0.096642 0.121877,-0.105245l0.121877,-0.008746l0.025236,-0.263828l0.025379,-0.263828l0.118006,-0.008603l0.118149,-0.008603l0.008746,-0.136216c0.008603,-0.133922 0.010467,-0.136216 0.105531,-0.136216c0.122021,0 0.186831,-0.063663 0.186831,-0.183963c0,-0.084167 0.011471,-0.097215 0.112414,-0.127469c0.120443,-0.03599 0.174356,-0.16647 0.174356,-0.421265c0,-0.090189 0.007456,-0.098936 0.083737,-0.098936c0.126466,0 0.174356,-0.027817 0.174356,-0.101517c0,-0.125605 0.049181,-0.205184 0.137793,-0.22282c0.103381,-0.020647 0.148977,-0.128903 0.148977,-0.353874c0,-0.143385 0.004588,-0.153422 0.069829,-0.153422c0.162742,0 0.216942,-0.046313 0.216942,-0.185684c0,-0.119296 0.005735,-0.129763 0.071693,-0.129763c0.114421,0 0.179518,-0.090046 0.200166,-0.277307c0.01018,-0.09191 0.020934,-0.186544 0.024089,-0.210202c0.003728,-0.02882 0.04531,-0.045883 0.126466,-0.051762l0.120874,-0.008746l0.018783,-0.141808c0.018353,-0.137793 0.021508,-0.141808 0.114565,-0.141808c0.126896,0 0.154999,-0.059075 0.154999,-0.326344l0,-0.215364l0.136216,-0.008746l0.136216,-0.008746l0.008746,-0.136216l0.008746,-0.136216l0.113848,0c0.141091,0 0.169768,-0.058358 0.169768,-0.345988l0,-0.198875l0.113704,0c0.128186,0 0.173066,-0.051619 0.173066,-0.198875c0,-0.080296 0.008173,-0.087895 0.094634,-0.087895c0.122738,0 0.163459,-0.044019 0.163459,-0.176507c0,-0.100513 0.006739,-0.108973 0.101086,-0.126609c0.259814,-0.048751 0.266123,-0.766967 0.007026,-0.791916c-0.088182,-0.00846 -0.094634,-0.016776 -0.108112,-0.13808c-0.014195,-0.127899 -0.015342,-0.12919 -0.132201,-0.13765l-0.117863,-0.008603l-0.0195,-0.233574c-0.022368,-0.26899 -0.045166,-0.308421 -0.178371,-0.308421c-0.091193,0 -0.096928,-0.005735 -0.096928,-0.098075c0,-0.147256 -0.025379,-0.188695 -0.115425,-0.188695c-0.155429,0 -0.171345,-0.020217 -0.171345,-0.216225c0,-0.260387 -0.028964,-0.318745 -0.170341,-0.34269c-0.112701,-0.01907 -0.116429,-0.023228 -0.116429,-0.130911c0,-0.12073 -0.052622,-0.170485 -0.180378,-0.170485c-0.06395,0 -0.070976,-0.013908 -0.087895,-0.175073c-0.024519,-0.235151 -0.069829,-0.32276 -0.176507,-0.341113c-0.07499,-0.013048 -0.087608,-0.029251 -0.101086,-0.129333c-0.021508,-0.160448 -0.044736,-0.186114 -0.168621,-0.186114l-0.108829,0l-0.016776,-0.199305c-0.020934,-0.250924 -0.052336,-0.309568 -0.178228,-0.333227c-0.095781,-0.017923 -0.100083,-0.023945 -0.100083,-0.141521c0,-0.133061 -0.0271,-0.15758 -0.174356,-0.15758c-0.074273,0 -0.083737,-0.009894 -0.083737,-0.087895c0,-0.147256 -0.04488,-0.198875 -0.173066,-0.198875l-0.113704,0l-0.002868,-0.19357c-0.004445,-0.300248 -0.020791,-0.335378 -0.161595,-0.345701l-0.119296,-0.008746l-0.008603,-0.134639l-0.008746,-0.134639l-0.136216,-0.008746l-0.136216,-0.008746l0,-0.22239c0,-0.250494 -0.029537,-0.311289 -0.15758,-0.324767c-0.077858,-0.00803 -0.088182,-0.021651 -0.110406,-0.143815c-0.024089,-0.132344 -0.026813,-0.135212 -0.150698,-0.153709c-0.122307,-0.018353 -0.126179,-0.022081 -0.126896,-0.123311c-0.001721,-0.262251 -0.079292,-0.405349 -0.219809,-0.405349c-0.059361,0 -0.066244,-0.013478 -0.066244,-0.128043c0,-0.143528 -0.046457,-0.187404 -0.198875,-0.187404c-0.085744,0 -0.087895,-0.003298 -0.088038,-0.136216c-0.000287,-0.249777 -0.043876,-0.345558 -0.173066,-0.380257c-0.110263,-0.029681 -0.113561,-0.034269 -0.113561,-0.155429c0,-0.134495 -0.026813,-0.159731 -0.170198,-0.159731c-0.077285,0 -0.080152,-0.005735 -0.097358,-0.190415c-0.020934,-0.223394 -0.075564,-0.321326 -0.192566,-0.344698c-0.075421,-0.015055 -0.084741,-0.028534 -0.084741,-0.122307c0,-0.133348 -0.041295,-0.174213 -0.17622,-0.174213l-0.107395,0l-0.008746,-0.136216l-0.008746,-0.136216l-0.118149,-0.008603l-0.118006,-0.008603l-0.025379,-0.263828l-0.025236,-0.263828l-0.121877,-0.008746c-0.117432,-0.008603 -0.121877,-0.012331 -0.121877,-0.105245c0,-0.161738 -0.021795,-0.187117 -0.160735,-0.187117l-0.126035,0l-0.002868,-0.19357c-0.004302,-0.293653 -0.021508,-0.331506 -0.163172,-0.359466c-0.119583,-0.023659 -0.12073,-0.025092 -0.12073,-0.14783c0,-0.130194 -0.033265,-0.15801 -0.190129,-0.159014c-0.054056,-0.00043 -0.064667,-0.025523 -0.09363,-0.222677c-0.034269,-0.232427 -0.07413,-0.293939 -0.191132,-0.293939c-0.053052,0 -0.06481,-0.020074 -0.077428,-0.132631c-0.016633,-0.1474 -0.050902,-0.181669 -0.181956,-0.182386l-0.089042,-0.00043l-0.016489,-0.19357c-0.021938,-0.259097 -0.036563,-0.287917 -0.1669,-0.326918c-0.103237,-0.030971 -0.111697,-0.041295 -0.111697,-0.137936c0,-0.129333 -0.041438,-0.173209 -0.163459,-0.173209c-0.05635,0 -0.094921,-0.014482 -0.095208,-0.035846c-0.004875,-0.30369 -0.097502,-0.509017 -0.229559,-0.509017c-0.038427,0 -0.05678,-0.031115 -0.071979,-0.121877c-0.023372,-0.139657 -0.049324,-0.163889 -0.17665,-0.164463c-0.088899,-0.00043 -0.09191,-0.004445 -0.10037,-0.136646l-0.008746,-0.136216l-0.136216,-0.008746l-0.136216,-0.008746l0,-0.238593c0,-0.264402 -0.011614,-0.284763 -0.179231,-0.315017c-0.105245,-0.018927 -0.107539,-0.022081 -0.107539,-0.147113l0,-0.127756l-0.124888,0l-0.124888,0l-0.019644,-0.235008c-0.022368,-0.267413 -0.038284,-0.296664 -0.176077,-0.322473c-0.093344,-0.017493 -0.099366,-0.025523 -0.099366,-0.131054c0,-0.125749 -0.052192,-0.171775 -0.194717,-0.171775c-0.08259,0 -0.08388,-0.002581 -0.100226,-0.19357c-0.020934,-0.248343 -0.039001,-0.290785 -0.131197,-0.310859c-0.142955,-0.031258 -0.1474,-0.036133 -0.1474,-0.165466c0,-0.136789 -0.026383,-0.161738 -0.170485,-0.161738c-0.077285,0 -0.080296,-0.005735 -0.099509,-0.19357c-0.023228,-0.228269 -0.069255,-0.310715 -0.187834,-0.336811c-0.07327,-0.016059 -0.087035,-0.032692 -0.087035,-0.104671c0,-0.143242 -0.04574,-0.196581 -0.168908,-0.196581l-0.109403,0l-0.018353,-0.222247c-0.019931,-0.241891 -0.072123,-0.322616 -0.208338,-0.322616c-0.060222,0 -0.068538,-0.013191 -0.068538,-0.108973c0,-0.133778 -0.040435,-0.177797 -0.163459,-0.177797c-0.084024,0 -0.094634,-0.00889 -0.095064,-0.078862c-0.00086,-0.17622 -0.025379,-0.207908 -0.160591,-0.207908l-0.125749,0l0,-0.198875c0,-0.27831 -0.027243,-0.335808 -0.170341,-0.36004c-0.113131,-0.01907 -0.116429,-0.022942 -0.116429,-0.132775c0,-0.119583 -0.005735,-0.124458 -0.179231,-0.153279l-0.107539,-0.017923l0,-0.208338c0,-0.134639 -0.014339,-0.227982 -0.040721,-0.263972c-0.050615,-0.069112 -13.534687,-0.104671 -13.603655,-0.035703m21.285509,0.006166c-0.0466,0.034126 -0.056064,0.075707 -0.05592,0.245188c0.000143,0.225688 0.022081,0.258093 0.17493,0.25881l0.089042,0.00043l0.016776,0.199305c0.020934,0.250064 0.052479,0.309568 0.176794,0.33294c0.093917,0.017636 0.099079,0.024806 0.107252,0.151701l0.008603,0.133348l0.117719,0.008603l0.117719,0.008603l0.016919,0.261248c0.018353,0.281895 0.033695,0.308278 0.180809,0.308995c0.088899,0.00043 0.089042,0.00086 0.106822,0.190845c0.020934,0.223394 0.071119,0.313726 0.188838,0.339536c0.078288,0.017206 0.086174,0.030111 0.094204,0.153135l0.008603,0.134208l0.135212,0.008746l0.135069,0.008603l0.008316,0.263685l0.008173,0.263685l0.118866,0.025092l0.11901,0.024949l0.018927,0.177224c0.024806,0.232427 0.067534,0.313726 0.174069,0.33208c0.075851,0.012905 0.086318,0.027387 0.094634,0.12876c0.012331,0.150841 0.04703,0.186687 0.180522,0.186687l0.111267,0l0,0.227122c0,0.301252 0.008173,0.317741 0.157007,0.317741l0.122164,0l0.013908,0.215221c0.015055,0.234721 0.067104,0.329642 0.180809,0.329642c0.054486,0 0.066244,0.020217 0.082303,0.140517c0.019787,0.149407 0.047747,0.17493 0.191706,0.17493l0.083737,0l0,0.198875c0,0.288491 0.02839,0.345988 0.171345,0.345988l0.115425,0l0.000717,0.121877c0.001577,0.278741 0.075994,0.422986 0.218232,0.422986c0.05678,0 0.065814,0.016633 0.073413,0.135499c0.008603,0.133778 0.01018,0.135642 0.127326,0.158727l0.118579,0.023228l0.020647,0.24992c0.022225,0.267126 0.036993,0.291789 0.17536,0.292505c0.088899,0.00043 0.089042,0.00086 0.106822,0.190845c0.020934,0.223394 0.071119,0.313726 0.188838,0.339536c0.078288,0.017206 0.086174,0.030111 0.094204,0.153135l0.008603,0.134208l0.135212,0.008746l0.135069,0.008603l0.008316,0.263828l0.008173,0.263685l0.118149,0.026239l0.118149,0.026239l0.029681,0.211206c0.033552,0.239166 0.058358,0.281465 0.179088,0.305697c0.072696,0.014482 0.085457,0.030254 0.085457,0.105675c0,0.147973 0.044736,0.199592 0.173066,0.199592l0.113704,0l0,0.227122c0,0.281321 0.013191,0.317741 0.115425,0.317741c0.146683,0 0.171345,0.024232 0.171345,0.168191c0,0.255225 0.060652,0.375239 0.190272,0.376242c0.06438,0.00043 0.095351,0.066817 0.096068,0.205327c0.00043,0.082446 0.044736,0.11055 0.174786,0.11055l0.083737,0l0,0.198875c0,0.288491 0.02839,0.345988 0.171345,0.345988l0.115425,0l0.000717,0.121877c0.001577,0.278741 0.075994,0.422986 0.218232,0.422986c0.05678,0 0.065814,0.016633 0.073413,0.136216c0.008603,0.134495 0.010324,0.136503 0.128473,0.162742l0.119727,0.02667l0.020217,0.245762c0.021651,0.263685 0.036133,0.287774 0.173496,0.288491c0.088899,0.00043 0.089042,0.00086 0.106822,0.190845c0.020791,0.222534 0.075564,0.321326 0.191132,0.344411c0.075851,0.015199 0.084024,0.028534 0.09191,0.149551l0.008603,0.132918l0.136216,0.008746l0.136216,0.008746l0,0.255512c0,0.27788 0.021508,0.314874 0.183246,0.314874c0.076998,0 0.077571,0.001434 0.118006,0.320322c0.018497,0.145392 0.044449,0.178084 0.164749,0.206761c0.064667,0.015486 0.078862,0.034556 0.078862,0.106248c0,0.146683 0.045023,0.198302 0.173066,0.198302l0.113704,0l0.00043,0.236585c0.000574,0.281752 0.007456,0.295373 0.164463,0.321613c0.120443,0.020074 0.121877,0.021795 0.122594,0.1398c0.001577,0.270137 0.043302,0.36176 0.177081,0.38886c0.089042,0.018067 0.095494,0.02753 0.108973,0.161595l0.014339,0.142381l0.121877,0.008746l0.121877,0.00889l0.002868,0.191849c0.004445,0.299388 0.020791,0.3338 0.163172,0.344124l0.12073,0.00889l0.000717,0.120157c0.001577,0.27831 0.076281,0.421409 0.219809,0.421409c0.059361,0 0.066244,0.013478 0.066244,0.128043c0,0.139083 0.046887,0.187404 0.181382,0.187404c0.090189,0 0.105388,0.043446 0.105388,0.300392c0,0.226548 0.012474,0.244471 0.170341,0.244471c0.075707,0 0.080582,0.00803 0.096355,0.161021c0.02796,0.270568 -0.003871,0.441196 -0.082303,0.441196c-0.127756,0 -0.174356,0.097502 -0.191419,0.401478c-0.007026,0.122738 -0.011901,0.129477 -0.100083,0.137936c-0.136933,0.013335 -0.179661,0.094491 -0.179661,0.341687l0,0.208625l-0.0932,0.00043c-0.159444,0.000717 -0.177797,0.029967 -0.19357,0.306701l-0.014339,0.252071l-0.114278,0.00932c-0.133491,0.010897 -0.15715,0.038427 -0.157724,0.18425c-0.00043,0.103381 -0.004302,0.107539 -0.099079,0.107539c-0.128043,0 -0.142238,0.026813 -0.159444,0.301109l-0.014339,0.229416l-0.100226,0.009463c-0.15672,0.014912 -0.172205,0.042729 -0.172205,0.309425l0,0.240313l-0.087895,0c-0.146683,0 -0.198875,0.045023 -0.198875,0.171775c0,0.105531 -0.006022,0.113561 -0.099366,0.131054c-0.13765,0.025809 -0.153709,0.05506 -0.175933,0.321039l-0.0195,0.233574l-0.117576,0.008603c-0.078288,0.005735 -0.119583,0.022942 -0.123311,0.051619c-0.003154,0.023659 -0.014052,0.142381 -0.024089,0.263685l-0.018353,0.220813l-0.119583,0.008603l-0.119583,0.008746l-0.00846,0.131054c-0.00846,0.128186 -0.011041,0.131484 -0.128186,0.157724c-0.138653,0.030971 -0.15715,0.070832 -0.161595,0.348999l-0.002868,0.178801l-0.117002,0.018783c-0.143242,0.022942 -0.169768,0.078288 -0.169768,0.355021l0,0.197154l-0.121734,0.00889c-0.120874,0.008746 -0.121877,0.00975 -0.14654,0.144962c-0.022655,0.124602 -0.031545,0.136216 -0.105962,0.136216c-0.124171,0 -0.170628,0.090619 -0.170628,0.332367l0,0.204897l-0.118866,0.016059c-0.153996,0.020647 -0.1669,0.046027 -0.167474,0.328495l-0.00043,0.236585l-0.126035,0c-0.13894,0 -0.160735,0.025379 -0.160735,0.186974c0,0.090476 -0.006452,0.096928 -0.106965,0.105245c-0.124458,0.010324 -0.1398,0.042155 -0.167044,0.345845l-0.01735,0.19357l-0.09234,0c-0.139657,0 -0.161165,0.040865 -0.161165,0.306844c0,0.233001 -0.001434,0.238019 -0.069829,0.238019c-0.162742,0 -0.216942,0.046313 -0.216942,0.185684c0,0.111984 -0.00803,0.129763 -0.059218,0.129763c-0.145966,0 -0.227552,0.159301 -0.227552,0.444207c0,0.094061 -0.004158,0.097645 -0.121877,0.106248l-0.121877,0.008746l-0.025379,0.265262c-0.025523,0.264832 -0.025666,0.265262 -0.105245,0.265262c-0.147256,0 -0.170485,0.023945 -0.170485,0.175073c0,0.136646 -0.002294,0.140374 -0.085314,0.140374c-0.116285,0 -0.166757,0.086174 -0.193713,0.331076l-0.022081,0.199449l-0.108973,0.009033c-0.135069,0.011041 -0.163459,0.071979 -0.163459,0.349716l0,0.197154l-0.120443,0.00889c-0.11944,0.008603 -0.120874,0.010037 -0.150554,0.150411c-0.02667,0.125462 -0.040578,0.144245 -0.122164,0.165323c-0.105101,0.027243 -0.151271,0.139944 -0.151558,0.370364l-0.000143,0.132344l-0.118866,0.016059c-0.153996,0.020647 -0.1669,0.046027 -0.167474,0.328495l-0.00043,0.236585l-0.126035,0c-0.138797,0 -0.160735,0.025523 -0.160735,0.186401c0,0.08259 -0.011614,0.098362 -0.084024,0.114278c-0.12073,0.026526 -0.148404,0.073987 -0.183103,0.315734c-0.030971,0.214934 -0.031258,0.215221 -0.120013,0.215221c-0.135929,0 -0.157724,0.042299 -0.157724,0.305554l0,0.236729l-0.107539,0.017923c-0.17579,0.029107 -0.179231,0.032405 -0.179231,0.1669c0,0.122164 -0.003728,0.127469 -0.100083,0.145536c-0.125175,0.023515 -0.152275,0.074273 -0.176077,0.329069l-0.018783,0.203463l-0.108973,0c-0.137076,0 -0.140087,0.005592 -0.160878,0.300535c-0.015772,0.223537 -0.022368,0.244328 -0.077571,0.244758c-0.160735,0.001004 -0.189268,0.027387 -0.189268,0.17493c0,0.128616 -0.005592,0.140087 -0.068538,0.140087c-0.136216,0 -0.188408,0.080726 -0.208338,0.322616l-0.018353,0.222247l-0.109403,0c-0.142381,0 -0.168908,0.051188 -0.168908,0.326201l0,0.215364l-0.121877,0.00889l-0.121877,0.008746l-0.02667,0.150554c-0.022081,0.124171 -0.037137,0.150698 -0.086031,0.150984c-0.129477,0.001004 -0.188408,0.113274 -0.188408,0.358606l0,0.154569l-0.107539,0.019357c-0.16776,0.030254 -0.179231,0.050472 -0.179231,0.316451l0,0.240313l-0.0932,0.00043c-0.157293,0.000717 -0.178945,0.031831 -0.179088,0.25881c-0.000143,0.169194 0.009463,0.211063 0.055633,0.244902c0.047891,0.035129 0.989357,0.039861 6.696081,0.033552l6.640304,-0.007169l0.008746,-0.136216l0.008746,-0.136216l0.124458,0c0.137506,0 0.159157,-0.025666 0.159157,-0.188695c0,-0.086174 0.00889,-0.098075 0.073557,-0.098075c0.152275,0 0.177797,-0.038284 0.199592,-0.299245l0.020217,-0.242607l0.118579,-0.008746l0.118579,-0.008603l0.008746,-0.136216c0.008603,-0.133922 0.010467,-0.136216 0.105531,-0.136216c0.122738,0 0.186831,-0.063806 0.186831,-0.186114c0,-0.083737 0.011184,-0.098506 0.087035,-0.115138c0.119153,-0.026239 0.169338,-0.115855 0.190272,-0.339966c0.01778,-0.189985 0.017923,-0.190415 0.106822,-0.190845c0.126609,-0.000574 0.150268,-0.025092 0.172779,-0.178801c0.016919,-0.114708 0.030111,-0.136216 0.082877,-0.136646c0.133348,-0.001004 0.191849,-0.110837 0.191849,-0.359896c0,-0.145966 0.004445,-0.15586 0.069829,-0.15586c0.162742,0 0.216942,-0.046313 0.216942,-0.185684c0,-0.116429 0.006739,-0.129763 0.066244,-0.129763c0.143815,0 0.218232,-0.143098 0.219809,-0.422986l0.000717,-0.121877l0.125749,0c0.135212,0 0.159731,-0.031688 0.160591,-0.207908c0.00043,-0.070689 0.01061,-0.078862 0.099079,-0.078862c0.128043,0 0.142238,-0.026813 0.159444,-0.301109l0.014339,-0.229416l0.129047,-0.014339l0.129047,-0.014339l0.008746,-0.136216l0.008746,-0.136216l0.113848,0c0.141091,0 0.169768,-0.058358 0.169768,-0.345988l0,-0.198875l0.113704,0c0.128186,0 0.173066,-0.051619 0.173066,-0.198875c0,-0.080296 0.008173,-0.087895 0.094634,-0.087895c0.122021,0 0.163459,-0.043876 0.163459,-0.173209c0,-0.096642 0.00846,-0.106965 0.111697,-0.137936c0.13005,-0.039001 0.144962,-0.067965 0.166757,-0.32362l0.016059,-0.190415l0.114995,-0.015342c0.134495,-0.018067 0.163029,-0.052766 0.163602,-0.199018c0.00043,-0.095494 0.00846,-0.107539 0.072123,-0.107539c0.122164,0 0.180378,-0.089329 0.202173,-0.310142l0.019644,-0.199305l0.118579,-0.024949c0.114278,-0.023945 0.118723,-0.029107 0.127183,-0.14654c0.008603,-0.117863 0.012618,-0.122451 0.123024,-0.140087c0.145679,-0.023372 0.169338,-0.070402 0.169338,-0.336955l0,-0.215364l0.136216,-0.008746l0.136216,-0.008746l0.008746,-0.136216c0.008603,-0.133348 0.010754,-0.136216 0.103954,-0.136216c0.131627,0 0.154569,-0.040004 0.176937,-0.308421l0.0195,-0.233574l0.117719,-0.008603c0.116142,-0.00846 0.118149,-0.010467 0.142525,-0.144819c0.023659,-0.13048 0.028677,-0.136216 0.121017,-0.136216c0.108686,0 0.155573,-0.058931 0.155573,-0.195721c0,-0.073987 0.012618,-0.087035 0.100083,-0.103381c0.125892,-0.023659 0.157293,-0.082303 0.178228,-0.333227l0.016776,-0.199305l0.089042,-0.00043c0.128043,-0.000574 0.163029,-0.033265 0.181239,-0.169051c0.013908,-0.103954 0.027243,-0.122594 0.097502,-0.136646c0.123168,-0.024519 0.192136,-0.196151 0.196868,-0.48966c0.000287,-0.019644 0.033695,-0.035846 0.07413,-0.035846c0.137793,0 0.184537,-0.04746 0.184537,-0.187404c0,-0.122881 0.003441,-0.128043 0.085314,-0.128043c0.116142,0 0.170055,-0.090763 0.191706,-0.32319l0.017493,-0.187691l0.125032,-0.018783c0.12962,-0.019357 0.1398,-0.033122 0.160304,-0.215938c0.006309,-0.056064 0.02667,-0.073843 0.094061,-0.081443c0.132488,-0.014912 0.149551,-0.04531 0.171202,-0.30498l0.020074,-0.24146l0.11944,-0.008603l0.11944,-0.008746l0.008746,-0.136216l0.008746,-0.136216l0.112127,0c0.145392,0 0.171489,-0.049898 0.171489,-0.327922l0,-0.216942l0.108973,0c0.136933,0 0.177797,-0.040435 0.177797,-0.17622c0,-0.105675 0.001721,-0.107395 0.121877,-0.116142c0.12116,-0.008746 0.122021,-0.009463 0.136216,-0.135355c0.012618,-0.11184 0.025092,-0.130337 0.106248,-0.157724c0.13808,-0.046744 0.154282,-0.076137 0.172205,-0.314013l0.016633,-0.218949l0.089042,-0.00043c0.129907,-0.000717 0.168621,-0.037137 0.187117,-0.176364c0.014625,-0.10969 0.025953,-0.125319 0.096068,-0.133491c0.109976,-0.012618 0.162599,-0.107539 0.183533,-0.330933c0.015772,-0.168621 0.024662,-0.190415 0.078145,-0.190845c0.123455,-0.000717 0.189412,-0.034126 0.189842,-0.096068c0.00086,-0.13808 0.033122,-0.188551 0.132488,-0.207191c0.127326,-0.023945 0.153852,-0.079722 0.153852,-0.32405l0,-0.201313l0.107539,-0.017923c0.173496,-0.02882 0.179231,-0.033695 0.179231,-0.153279c0,-0.109833 0.003298,-0.113704 0.116429,-0.132775c0.143098,-0.024232 0.170341,-0.081729 0.170341,-0.36004l0,-0.198875l0.125749,0c0.135212,0 0.159731,-0.031688 0.160591,-0.207908c0.00043,-0.069972 0.011041,-0.078862 0.095064,-0.078862c0.122307,0 0.163459,-0.044019 0.163459,-0.174643c0,-0.098075 0.007313,-0.107109 0.100083,-0.124458c0.125892,-0.023659 0.157293,-0.082303 0.178228,-0.333227l0.016776,-0.199305l0.109546,0c0.123168,0 0.168908,-0.053196 0.168908,-0.196581c0,-0.071836 0.013908,-0.088612 0.086031,-0.104528c0.142668,-0.031401 0.172062,-0.105675 0.172062,-0.43546c0,-0.320466 -0.017063,-0.353157 -0.184537,-0.353157c-0.064667,0 -0.073557,-0.011901 -0.073557,-0.098075c0,-0.162599 -0.021795,-0.188695 -0.157867,-0.188695l-0.123024,0l-0.010037,-0.241317c-0.011471,-0.273865 -0.013478,-0.27745 -0.160448,-0.301252c-0.105388,-0.016919 -0.107969,-0.020361 -0.116572,-0.153135c-0.00846,-0.131771 -0.011471,-0.135929 -0.10037,-0.136359c-0.134352,-0.000717 -0.149264,-0.021364 -0.184823,-0.256803c-0.034269,-0.226405 -0.076568,-0.28763 -0.199018,-0.28763c-0.057354,0 -0.066244,-0.014482 -0.066674,-0.107539c-0.000574,-0.146253 -0.029107,-0.180952 -0.163602,-0.199018l-0.114995,-0.015342l-0.016059,-0.190415c-0.021795,-0.256229 -0.03685,-0.285193 -0.166757,-0.320179c-0.104671,-0.028103 -0.111697,-0.03685 -0.111697,-0.137936c0,-0.131054 -0.040721,-0.17665 -0.157724,-0.17665c-0.088755,0 -0.089042,-0.000287 -0.120013,-0.215221c-0.034556,-0.240457 -0.062516,-0.289208 -0.180092,-0.315017c-0.069685,-0.015342 -0.083593,-0.035416 -0.099796,-0.142811c-0.019644,-0.131771 -0.051619,-0.158584 -0.188695,-0.158584c-0.077715,0 -0.08259,-0.007456 -0.090906,-0.136216l-0.008746,-0.136216l-0.136216,-0.008746l-0.136216,-0.008746l0,-0.225831c0,-0.252931 -0.034126,-0.315877 -0.171058,-0.315877c-0.073843,0 -0.08302,-0.011758 -0.105531,-0.136216c-0.024375,-0.134352 -0.026383,-0.136359 -0.142381,-0.144819l-0.117576,-0.008603l-0.017923,-0.231423c-0.020074,-0.261678 -0.042872,-0.303546 -0.171775,-0.316021c-0.072983,-0.007169 -0.092627,-0.023085 -0.099079,-0.080582c-0.018497,-0.16561 -0.03599,-0.200739 -0.100083,-0.201169c-0.162599,-0.001004 -0.192996,-0.027387 -0.19314,-0.16776c-0.000287,-0.219379 -0.047604,-0.344841 -0.137363,-0.364485c-0.143672,-0.031401 -0.149264,-0.03728 -0.149264,-0.153709c0,-0.124315 -0.051332,-0.173926 -0.180378,-0.173926c-0.064667,0 -0.070689,-0.012905 -0.087178,-0.190415c-0.021078,-0.225258 -0.069685,-0.311432 -0.189268,-0.335378c-0.075421,-0.015055 -0.088038,-0.030254 -0.088038,-0.106248c0,-0.147973 -0.044736,-0.199592 -0.173066,-0.199592l-0.113704,0l0,-0.126035c0,-0.135929 -0.026383,-0.160735 -0.171919,-0.160735c-0.080726,0 -0.081443,-0.001577 -0.099366,-0.222247c-0.022511,-0.276016 -0.038571,-0.306127 -0.168908,-0.317168c-0.100226,-0.00846 -0.104671,-0.013478 -0.104671,-0.116142c0,-0.135642 -0.040865,-0.176077 -0.177797,-0.176077l-0.108973,0l-0.00043,-0.19357c-0.000574,-0.255225 -0.041295,-0.334374 -0.177941,-0.345701c-0.103811,-0.008746 -0.105531,-0.011041 -0.114134,-0.143385l-0.008603,-0.134639l-0.118723,-0.008603l-0.118866,-0.008746l-0.01907,-0.163316c-0.032405,-0.278454 -0.06395,-0.345558 -0.172062,-0.365775c-0.088469,-0.016633 -0.096355,-0.027387 -0.113418,-0.155573c-0.018067,-0.136646 -0.01907,-0.137793 -0.142668,-0.15629l-0.124458,-0.01864l-0.017636,-0.189268c-0.021795,-0.233718 -0.075564,-0.324624 -0.191849,-0.324624c-0.081873,0 -0.085314,-0.005162 -0.085314,-0.128043c0,-0.1398 -0.046744,-0.187404 -0.183963,-0.187404c-0.080152,0 -0.088325,-0.020217 -0.114278,-0.282612c-0.01778,-0.178801 -0.045023,-0.220526 -0.159731,-0.243468c-0.070115,-0.014052 -0.087178,-0.034699 -0.103524,-0.125319c-0.026383,-0.146253 -0.058931,-0.180235 -0.173209,-0.180235c-0.093057,0 -0.096928,-0.004302 -0.096928,-0.108973c0,-0.137363 -0.040435,-0.177797 -0.177797,-0.177797l-0.108973,0l0,-0.208625c0,-0.256229 -0.044306,-0.336238 -0.186401,-0.336238c-0.095638,0 -0.097358,-0.002294 -0.105962,-0.136216l-0.008746,-0.136216l-0.117863,-0.008603l-0.117863,-0.008603l-0.0195,-0.233574c-0.022368,-0.26899 -0.045166,-0.308421 -0.178371,-0.308421c-0.091193,0 -0.096928,-0.005735 -0.096928,-0.098075c0,-0.162312 -0.021938,-0.188695 -0.156576,-0.188695l-0.121734,0l-0.01864,-0.219236c-0.020647,-0.244902 -0.043302,-0.286913 -0.172636,-0.320179c-0.080152,-0.020647 -0.091193,-0.036563 -0.103954,-0.150554c-0.013765,-0.122594 -0.018783,-0.128186 -0.132488,-0.152132l-0.118149,-0.024806l-0.017923,-0.171775c-0.024232,-0.23128 -0.069972,-0.319462 -0.175503,-0.337672c-0.074704,-0.013048 -0.087465,-0.029967 -0.106535,-0.141664c-0.024662,-0.143959 -0.05592,-0.172922 -0.187834,-0.173496c-0.090906,-0.00043 -0.0932,-0.003441 -0.0932,-0.126466c0,-0.139227 -0.025236,-0.160735 -0.188695,-0.160735l-0.098075,0l0,-0.238019c0,-0.26684 -0.021364,-0.306844 -0.163459,-0.306844c-0.081156,0 -0.094634,-0.009894 -0.094634,-0.069829c0,-0.154856 -0.047891,-0.216942 -0.167187,-0.216942l-0.11141,0l-0.015772,-0.23042c-0.018067,-0.263542 -0.047317,-0.314443 -0.180809,-0.314443c-0.0932,0 -0.095351,-0.002868 -0.103954,-0.136216l-0.008746,-0.136216l-0.132488,-0.008603l-0.132631,-0.008603l-0.014052,-0.218806c-0.014625,-0.228986 -0.070689,-0.32319 -0.192423,-0.32319c-0.03599,0 -0.05635,-0.036707 -0.075564,-0.136216c-0.025953,-0.134065 -0.028247,-0.136359 -0.144245,-0.144819l-0.117863,-0.008603l-0.016489,-0.197871c-0.018067,-0.215508 -0.048464,-0.29523 -0.126896,-0.333514c-0.096928,-0.047317 -13.437329,-0.04617 -13.501852,0.001147" id="path1"/>
  </g>
 </g>
</svg>