<?xml version="1.0" standalone="no"?>
<!DOCTYPE svg PUBLIC "-//W3C//DTD SVG 20010904//EN"
 "http://www.w3.org/TR/2001/REC-SVG-20010904/DTD/svg10.dtd">
<svg version="1.0" xmlns="http://www.w3.org/2000/svg"
 width="200.000000pt" height="200.000000pt" viewBox="0 0 200.000000 200.000000"
 preserveAspectRatio="xMidYMid meet">
<metadata>
Created by potrace 1.14, written by Peter Selinger 2001-2017
</metadata>
<g transform="translate(0.000000,200.000000) scale(0.100000,-0.100000)"
fill="#000000" stroke="none">
<path d="M532 1763 c-63 -31 -112 -109 -112 -179 0 -67 54 -148 118 -176 96
-43 213 -2 257 90 l20 42 72 0 73 0 0 -120 0 -120 -32 -13 c-42 -18 -87 -63
-104 -104 -17 -40 -18 -113 -2 -148 11 -25 8 -30 -73 -111 l-85 -85 -37 16
c-95 39 -220 -13 -256 -108 -26 -69 -4 -175 45 -218 93 -81 243 -63 305 37 27
45 36 119 19 169 l-12 37 83 83 84 83 33 -14 32 -14 0 -114 0 -114 -30 -12
c-76 -32 -120 -97 -120 -179 0 -61 13 -97 48 -135 59 -63 151 -82 227 -47 147
66 153 276 11 351 l-46 25 0 112 0 113 37 15 37 16 77 -77 78 -77 -16 -31
c-22 -43 -20 -123 5 -171 39 -77 97 -109 188 -103 52 3 70 9 101 34 124 98
102 279 -39 339 -43 17 -105 20 -144 5 -26 -10 -32 -6 -110 71 -74 74 -81 84
-73 106 15 40 10 111 -11 152 -22 44 -70 88 -106 97 -24 6 -24 7 -24 130 l0
124 73 0 73 0 12 -34 c17 -46 81 -102 133 -116 73 -20 143 3 197 64 101 115
35 293 -119 321 -76 14 -179 -43 -209 -115 l-12 -30 -194 0 c-156 0 -194 3
-194 13 0 26 -60 97 -99 117 -49 24 -132 26 -179 3z m145 -85 c23 -11 53 -64
53 -93 0 -49 -59 -105 -112 -105 -35 0 -83 34 -98 69 -30 75 38 161 115 144
11 -2 30 -9 42 -15z m758 -3 c79 -38 79 -152 0 -190 -45 -20 -66 -19 -106 8
-63 43 -63 131 0 174 40 27 61 28 106 8z m-374 -475 c10 -6 26 -24 34 -40 52
-100 -45 -197 -145 -145 -37 19 -50 43 -50 95 0 33 6 48 29 71 23 23 38 29 71
29 23 0 50 -5 61 -10z m-435 -454 c39 -39 44 -77 18 -127 -49 -95 -194 -55
-194 53 0 55 51 108 105 108 29 0 45 -8 71 -34z m890 0 c26 -26 34 -42 34 -71
0 -53 -53 -105 -107 -105 -73 0 -122 63 -102 133 13 48 51 77 101 77 32 0 47
-7 74 -34z m-472 -160 c44 -18 66 -52 66 -99 0 -51 -52 -107 -100 -107 -65 0
-109 43 -110 105 0 48 21 82 64 101 39 17 40 17 80 0z"/>
</g>
</svg>
