<svg width="45" height="45" xmlns="http://www.w3.org/2000/svg">
 <!-- Created with Method Draw - http://github.com/duopixel/Method-Draw/ -->

 <g>
  <title>Layer 1</title>
  <g stroke="null" id="svg_14">
   <g stroke="null" id="svg_12">
    <title stroke="null" transform="translate(-1.4210854715202004e-14,-0.0060206688940525055) translate(0.2706453204154968,1.4210854715202004e-14) translate(0,0.2706453204154968) ">background</title>
    <rect stroke="null" x="-0.729355" y="-0.735375" width="37" height="37" id="svg_10" fill="none"/>
   </g>
   <g stroke="null" id="svg_13">
    <title stroke="null" transform="translate(-1.4210854715202004e-14,-0.0060206688940525055) translate(0.2706453204154968,1.4210854715202004e-14) translate(0,0.2706453204154968) ">Layer 1</title>
    <ellipse stroke="null" fill="#343a40" stroke-width="null" stroke-opacity="null" fill-opacity="null" cx="22.546988" cy="22.540968" id="svg_9" rx="21.945217" ry="21.945217"/>
    <g stroke="null" id="svg_7">
     <path stroke="null" id="svg_8" d="m42.341079,5.908765c0,0.131876 0.059196,0.24748 0.135275,0.264254c0.187286,0.041134 0.282629,0.200157 0.36998,0.616967l0.03753,0.179102l0.095848,0.031941c0.18868,0.062897 0.220633,0.114907 0.327549,0.532811c0.036436,0.142355 0.041134,0.150442 0.161028,0.274531c0.207654,0.215044 0.235606,0.289021 0.285922,0.756726c0.041627,0.386155 0.037434,0.377767 0.183788,0.377767l0.116902,0l0,-1.572358l0,-1.572358l-0.856863,0l-0.856959,0l0,0.110616m-30.81235,6.07959c-0.285031,0.016872 -0.255782,-0.075576 -0.25827,0.817327l-0.002199,0.75443l-0.039632,0.08776c-0.097841,0.216439 -0.135265,0.224516 -1.025175,0.220719c-0.857861,-0.003594 -0.911973,0.002799 -1.041156,0.123596c-0.04432,0.041531 -0.088553,0.075382 -0.098336,0.075382c-0.009686,0 -0.049318,0.02895 -0.088049,0.064185c-0.102026,0.093155 -0.19208,0.131779 -0.374572,0.160632c-0.088553,0.013987 -0.163829,0.075371 -0.179102,0.145863c-0.033937,0.157232 -0.1185,0.251769 -0.273137,0.305583c-0.121793,0.042421 -0.142666,0.081668 -0.156042,0.293204c-0.005986,0.093648 -0.018771,0.271452 -0.028445,0.39494c-0.027157,0.346415 -0.019971,15.411318 0.007476,15.831711c0.024659,0.375472 0.043526,0.430379 0.16932,0.493275c0.085851,0.042925 0.166317,0.126084 0.200167,0.207151c0.029743,0.07108 0.145755,0.164332 0.264855,0.212846c0.13327,0.054208 0.200061,0.112612 0.256371,0.224021c0.060795,0.120603 0.090945,0.134482 0.33363,0.153241c0.11022,0.00858 5.925952,0.014973 13.677331,0.015081l13.485754,0.000192l0.239199,-0.040726c0.274337,-0.046722 0.248187,-0.03355 0.287519,-0.145154c0.052814,-0.149852 0.173513,-0.237107 0.374077,-0.270455c0.097831,-0.016261 0.132476,-0.061889 0.164418,-0.216535c0.039235,-0.189678 0.04403,-0.197571 0.301496,-0.488469c0.135576,-0.153349 0.124195,0.638922 0.118297,-8.224092c-0.005685,-8.472172 -0.000397,-7.976805 -0.086344,-8.021832c-0.153746,-0.080466 -0.312178,-0.346415 -0.38047,-0.638922l-0.037626,-0.161232l-0.141969,-0.028756c-0.154636,-0.031244 -0.462524,-0.130674 -0.562158,-0.181494c-0.058006,-0.029647 -0.129484,-0.099429 -0.20995,-0.204962c-0.06029,-0.079061 0.037434,-0.078267 -9.858446,-0.078761c-5.849777,-0.000397 -9.312357,-0.006489 -9.374256,-0.016572c-0.252575,-0.041123 -0.445448,-0.152041 -0.532307,-0.306182l-0.038528,-0.068388l0.004387,-0.597199c0.002498,-0.328439 0.009482,-0.646613 0.015574,-0.707215l0.01108,-0.110005l-0.117502,-0.045724l-0.117406,-0.045724l-2.342158,0.002596c-1.288239,0.001288 -2.434712,0.007979 -2.547721,0.014673m3.821974,3.432536c0.353805,0.064592 0.443453,0.164128 0.538098,0.597102c0.046926,0.214529 0.059604,2.367322 0.015382,2.607915c-0.077473,0.421594 -0.326658,0.686245 -0.714809,0.759322c-0.218434,0.041037 -2.431517,0.026354 -2.564883,-0.017076c-0.123306,-0.040126 -0.220536,-0.137861 -0.255974,-0.257262c-0.036339,-0.12219 -0.096941,-0.195866 -0.199074,-0.241795c-0.10432,-0.047022 -0.179595,-0.123391 -0.230608,-0.2342l-0.038238,-0.083169l0,-1.16474c0,-1.392162 -0.00768,-1.347039 0.251276,-1.474624c0.125589,-0.061793 0.142461,-0.082461 0.188486,-0.231412c0.058704,-0.190181 0.170221,-0.26285 0.433778,-0.282821c0.34721,-0.02616 2.408348,-0.007991 2.576564,0.02276m19.903287,0.045724c0.150034,0.051313 0.311867,0.156931 0.375161,0.244992c0.025164,0.03503 0.082065,0.087748 0.126491,0.117095c0.04433,0.029347 0.100728,0.08156 0.12529,0.116001c0.024455,0.034452 0.075672,0.081968 0.113813,0.105726c0.18868,0.117406 0.207343,0.230512 0.205444,1.245915c-0.001599,0.885116 -0.002692,0.890597 -0.200854,1.022483c-0.07727,0.051409 -0.172709,0.181194 -0.227926,0.30998c-0.074278,0.17331 -0.194762,0.24749 -0.460122,0.283218c-0.238501,0.032156 -4.108099,0.032843 -4.317748,0.000804c-0.279926,-0.042731 -0.396334,-0.111013 -0.465613,-0.273051c-0.047022,-0.109909 -0.153746,-0.228408 -0.241398,-0.267838c-0.089852,-0.040533 -0.152652,-0.102937 -0.204361,-0.20286l-0.043022,-0.083265l-0.001202,-0.757026c-0.001705,-1.074299 0.024755,-1.203783 0.271141,-1.330167c0.03325,-0.016968 0.079168,-0.051217 0.102026,-0.075972c0.022964,-0.024766 0.075286,-0.067991 0.116516,-0.096148c0.041123,-0.028145 0.081453,-0.062093 0.089443,-0.075361c0.07697,-0.127895 0.259063,-0.245989 0.45893,-0.29771l0.142161,-0.036737l1.955017,0.003496l1.955017,0.003496l0.125794,0.042925m-11.581558,3.134538c0.151043,0.013869 0.398125,0.032542 0.549072,0.041423c0.566856,0.03354 0.755438,0.099934 0.857861,0.301999c0.054208,0.106916 0.104031,0.130074 0.361496,0.167615c0.346824,0.050616 0.484587,0.123692 0.563851,0.299092c0.043933,0.097242 0.113417,0.144565 0.278939,0.190193c0.139855,0.038624 0.219924,0.115604 0.260854,0.250976c0.029453,0.097434 0.079072,0.171808 0.114511,0.171808c0.168022,0 0.373574,0.18838 0.374271,0.343026c0.0003,0.056805 0.060194,0.1179 0.128089,0.130685c0.169212,0.031739 0.283722,0.147642 0.31337,0.317166c0.017773,0.101425 0.081163,0.182492 0.168719,0.215935c0.198667,0.075768 0.260061,0.193378 0.330541,0.632036c0.029754,0.185086 0.044931,0.210551 0.142858,0.239896c0.187693,0.056204 0.267355,0.226822 0.296712,0.635234c0.018759,0.259761 0.060699,0.628144 0.078567,0.688937c0.005385,0.018373 0.046615,0.072583 0.091739,0.120603c0.157338,0.167625 0.205756,0.36599 0.223925,0.919353c0.020572,0.622459 -0.054906,0.974366 -0.243598,1.135898c-0.082451,0.070588 -0.086344,0.089647 -0.132969,0.644317c-0.049821,0.592801 -0.100834,0.719592 -0.315664,0.78398c-0.094946,0.028359 -0.11421,0.058199 -0.134182,0.207151c-0.063894,0.476007 -0.124389,0.598196 -0.332836,0.671572c-0.101736,0.035846 -0.138675,0.08895 -0.191587,0.275345c-0.042421,0.149541 -0.135071,0.224516 -0.328343,0.266047c-0.050111,0.010684 -0.062596,0.03235 -0.102733,0.178405c-0.043118,0.157135 -0.132272,0.234813 -0.320159,0.279025c-0.09854,0.023169 -0.112912,0.036146 -0.129688,0.11731c-0.034441,0.166617 -0.123391,0.25827 -0.299597,0.308177c-0.159333,0.045231 -0.217726,0.084863 -0.250279,0.170017c-0.073869,0.19357 -0.239092,0.279335 -0.648211,0.336537c-0.173707,0.024262 -0.202355,0.04063 -0.250473,0.142161c-0.101832,0.215441 -0.234308,0.258366 -0.972467,0.315568c-0.519329,0.040233 -0.610381,0.054016 -0.723787,0.109115c-0.178297,0.086751 -0.453139,0.129291 -0.759429,0.117502l-0.260253,-0.009986l-0.155741,-0.078567c-0.171818,-0.086654 -0.245591,-0.098228 -0.936632,-0.146646c-0.54638,-0.038334 -0.78309,-0.120399 -0.909366,-0.315267c-0.051614,-0.079673 -0.232012,-0.166628 -0.345632,-0.166628c-0.017665,0 -0.079759,-0.014781 -0.138054,-0.032746c-0.109318,-0.033744 -0.111925,-0.035836 -0.305797,-0.245989c-0.052804,-0.057201 -0.103023,-0.103923 -0.111614,-0.103923c-0.175498,0 -0.573333,-0.248574 -0.61377,-0.383452c-0.02156,-0.072078 -0.130674,-0.182298 -0.180593,-0.182298c-0.112912,0 -0.280429,-0.156426 -0.309271,-0.288817c-0.019575,-0.090044 -0.102228,-0.187382 -0.186395,-0.219528c-0.168419,-0.064291 -0.310773,-0.318765 -0.370581,-0.662381l-0.018663,-0.107024l-0.09634,-0.035138c-0.203256,-0.074084 -0.243393,-0.147556 -0.319762,-0.586323l-0.054006,-0.31028l-0.087556,-0.042925c-0.254881,-0.12499 -0.274241,-0.222821 -0.326648,-1.649328c-0.008592,-0.233106 0.01906,-1.468938 0.039021,-1.747063c0.031459,-0.43837 0.097242,-0.584221 0.302696,-0.671979c0.090054,-0.038538 0.082964,-0.019661 0.129988,-0.343026c0.063594,-0.437468 0.125182,-0.555164 0.322657,-0.61746c0.063487,-0.019961 0.092736,-0.037937 0.092736,-0.056805c0,-0.237205 0.210357,-0.645014 0.37218,-0.721588c0.103923,-0.049222 0.194376,-0.152544 0.22472,-0.257068c0.027556,-0.094539 0.138675,-0.205358 0.246589,-0.245881c0.111313,-0.041832 0.190878,-0.115314 0.242997,-0.224129c0.080359,-0.168214 0.217029,-0.249175 0.602379,-0.357205c0.125697,-0.035235 0.126298,-0.035836 0.190385,-0.166016c0.066286,-0.134578 0.152544,-0.189978 0.359597,-0.231111c0.230307,-0.045724 0.319161,-0.083062 0.390638,-0.164225c0.164031,-0.186384 0.367085,-0.270444 0.714905,-0.2958c0.123596,-0.008989 0.366881,-0.027952 0.540791,-0.042034c0.687447,-0.055903 1.448666,-0.061899 1.955017,-0.015467m-1.663807,2.682096c-0.270444,0.042817 -0.43986,0.117299 -0.480296,0.210937c-0.040029,0.09265 -0.182588,0.178705 -0.353002,0.212953c-0.124099,0.025056 -0.242696,0.089551 -0.254977,0.138761c-0.02276,0.090452 -0.112804,0.191082 -0.217232,0.242492c-0.131779,0.064892 -0.191779,0.127382 -0.258366,0.269543c-0.056312,0.120206 -0.110316,0.172419 -0.236207,0.22813c-0.101328,0.044716 -0.130782,0.095139 -0.166016,0.283412c-0.038538,0.205659 -0.165319,0.46143 -0.290512,0.585625c-0.134568,0.133677 -0.179691,0.524713 -0.140767,1.221341c0.025164,0.449749 0.038432,0.508753 0.137367,0.607678c0.068196,0.068196 0.124195,0.154946 0.22443,0.347424c0.021462,0.041134 0.052514,0.145959 0.068979,0.232904c0.036447,0.191479 0.066693,0.241302 0.176602,0.290019c0.099934,0.04433 0.197078,0.145947 0.225824,0.236099c0.027556,0.086354 0.122201,0.183392 0.228613,0.234415c0.09944,0.047709 0.193186,0.143352 0.229621,0.234308c0.031545,0.078953 0.12839,0.138461 0.273039,0.167507c0.170318,0.034345 0.274445,0.102733 0.335936,0.220836c0.088349,0.169717 0.249078,0.198559 1.166639,0.209745c1.033165,0.012485 1.235327,-0.00858 1.285451,-0.133775c0.071671,-0.179305 0.307277,-0.304992 0.710401,-0.379161l0.111518,-0.020572l0.034537,-0.113705c0.054208,-0.178501 0.16223,-0.270745 0.358096,-0.305883c0.08865,-0.015874 0.103635,-0.030247 0.116302,-0.112515c0.050219,-0.324556 0.19208,-0.592501 0.358708,-0.67746c0.128186,-0.065385 0.172109,-0.405215 0.17331,-1.339058c0.00119,-0.92404 -0.045424,-1.293526 -0.168923,-1.338242c-0.168118,-0.060795 -0.288711,-0.290319 -0.379161,-0.721287c-0.010179,-0.048717 -0.019564,-0.054208 -0.181494,-0.104728c-0.144156,-0.045027 -0.234512,-0.134472 -0.283025,-0.280032l-0.038238,-0.114907l-0.164825,-0.039428c-0.463017,-0.110724 -0.577528,-0.171422 -0.658186,-0.349418c-0.05422,-0.119595 -0.04313,-0.114607 -0.305292,-0.138364c-0.17051,-0.015478 -1.546595,-0.020165 -1.638849,-0.005588" fill="#ffffff"/>
    </g>
   </g>
  </g>
 </g>
</svg>