<svg width="45" height="45" xmlns="http://www.w3.org/2000/svg">

 <g>
  <title>background</title>
  <rect fill="none" id="canvas_background" height="47" width="47" y="-1" x="-1"/>
 </g>
 <g>
  <title>Layer 1</title>
  <g stroke="null" stroke-width="null" fill-opacity="null" fill="#343a40" id="svg_14">
   <g stroke="null" transform="matrix(1.272999027212384,0,0,1.272999027212384,-86.37414174796623,-86.38975124673) " id="svg_12">
    <title stroke="null" transform="translate(3.3467071056365967,0) translate(-3.53263521194458,-0.09296409040689468) translate(2.0864415168762207,-14.0487060546875) translate(0.13909611105918884,0) translate(0,0.47974175214767456) translate(0,0.47974175214767456) translate(0,0.47974175214767456) translate(0,0.47974175214767456) translate(0,0.47974175214767456) translate(0,0.47974175214767456) translate(0,0.47974175214767456) translate(0,0.47974175214767456) translate(0,0.47974175214767456) translate(0,0.47974175214767456) translate(0,0.47974175214767456) translate(0,0.47974175214767456) translate(0,0.47974175214767456) translate(0,0.47974175214767456) translate(0,0.47974175214767456) translate(0,0.47974175214767456) translate(0,0.47974175214767456) translate(0,0.47974175214767456) translate(0,0.47974175214767456) translate(0,0.47974175214767456) translate(0,0.47974175214767456) translate(0,0.47974175214767456) translate(0,0.47974175214767456) translate(0,0.47974175214767456) translate(0,0.47974175214767456) translate(0,0.47974175214767456) translate(0,0.47974175214767456) translate(0,0.47974175214767456) translate(0,0.47974175214767456) translate(0,0.47974175214767456) translate(0,0.47974175214767456) translate(0,0.47974175214767456) translate(0,0.47974175214767456) translate(0,0.47974175214767456) translate(0,0.47974175214767456) translate(0,0.47974175214767456) translate(0,0.47974175214767456) translate(0,0.47974175214767456) translate(0,0.47974175214767456) translate(0,0.47974175214767456) translate(0,0.47974175214767456) translate(0,0.47974175214767456) translate(0,0.47974175214767456) translate(0,0.47974175214767456) translate(0,0.47974175214767456) translate(0,0.47974175214767456) translate(0,0.47974175214767456) translate(0,0.47974175214767456) translate(0,0.47974175214767456) translate(0,0.47974175214767456) translate(0,0.47974175214767456) translate(0,0.47974175214767456) translate(0,0.47974175214767456) translate(0,0.47974175214767456) translate(0,0.47974175214767456) translate(0,0.47974175214767456) translate(0,0.47974175214767456) translate(0,0.47974175214767456) translate(0,0.47974175214767456) translate(0,0.47974175214767456) translate(0,0.47974175214767456) translate(0,0.47974175214767456) translate(0,0.47974175214767456) translate(0,0.47974175214767456) translate(0,0.47974175214767456) translate(0,0.47974175214767456) translate(0,0.47974175214767456) translate(0,0.47974175214767456) translate(0,0.47974175214767456) translate(0,0.47974175214767456) translate(0,0.47974175214767456) translate(0,0.47974175214767456) translate(0,0.47974175214767456) translate(0,0.47974175214767456) translate(0,0.47974175214767456) translate(0,0.47974175214767456) translate(0,0.47974175214767456) translate(0,0.47974175214767456) translate(0,0.47974175214767456) translate(0,0.47974175214767456) translate(0,0.47974175214767456) translate(0,0.47974175214767456) translate(0,0.47974175214767456) translate(0,0.47974175214767456) translate(0.47974175214767456,0) translate(0.47974175214767456,0) translate(0.47974175214767456,0) translate(0.47974175214767456,0) translate(0.47974175214767456,0) translate(0.47974175214767456,0) translate(0.47974175214767456,0) translate(0.47974175214767456,0) translate(0.47974175214767456,0) translate(0.47974175214767456,0) translate(0.47974175214767456,0) translate(0.47974175214767456,0) translate(0.47974175214767456,0) translate(0.47974175214767456,0) translate(0.47974175214767456,0) translate(0.47974175214767456,0) translate(0.47974175214767456,0) translate(0.47974175214767456,0) translate(0.47974175214767456,0) translate(0.47974175214767456,0) translate(0.47974175214767456,0) translate(0.47974175214767456,0) translate(0.47974175214767456,0) translate(0.47974175214767456,0) translate(0.47974175214767456,0) translate(0.47974175214767456,0) translate(0.47974175214767456,0) translate(0.47974175214767456,0) translate(0.47974175214767456,0) translate(0.47974175214767456,0) translate(0.47974175214767456,0) translate(0.47974175214767456,0) translate(0.47974175214767456,0) translate(0.47974175214767456,0) translate(0.47974175214767456,0) translate(0.47974175214767456,0) translate(0.47974175214767456,0) translate(0.47974175214767456,0) translate(0.47974175214767456,0) translate(0.47974175214767456,0) translate(0.47974175214767456,0) translate(0.47974175214767456,0) translate(0.47974175214767456,0) translate(0.47974175214767456,0) translate(0.47974175214767456,0) translate(0.47974175214767456,0) translate(0.47974175214767456,0) translate(0,0.47974175214767456) translate(0.47974175214767456,0) translate(0.47974175214767456,0) translate(0.47974175214767456,0) translate(0.47974175214767456,0) translate(0.47974175214767456,0) translate(0.47974175214767456,0) translate(0.47974175214767456,0) translate(0.47974175214767456,0) translate(0.47974175214767456,0) translate(0.47974175214767456,0) translate(0.47974175214767456,0) translate(0.47974175214767456,0) translate(0.47974175214767456,0) translate(0.47974175214767456,0) translate(0.47974175214767456,0) translate(0.47974175214767456,0) translate(0.47974175214767456,0) translate(0.47974175214767456,0) translate(0.47974175214767456,0) translate(0.47974175214767456,0) translate(0.47974175214767456,0) translate(0.47974175214767456,0) translate(0.47974175214767456,0) translate(0.47974175214767456,0) translate(0.47974175214767456,0) translate(0.47974175214767456,0) translate(0.47974175214767456,0) translate(0.47974175214767456,0) translate(0.47974175214767456,0) translate(0.47974175214767456,0) translate(0.47974175214767456,0) translate(0.47974175214767456,0) translate(0.47974175214767456,0) translate(0.47974175214767456,0) translate(0.47974175214767456,0) translate(0.47974175214767456,0) translate(0.47974175214767456,0) translate(0.47974175214767456,0) translate(0.47974175214767456,0) translate(0.47974175214767456,0) translate(0.47974175214767456,0) translate(0.47974175214767456,0) translate(0.47974175214767456,0) translate(0.47974175214767456,0) translate(0.47974175214767456,0) translate(0.47974175214767456,0) translate(0.47974175214767456,0) translate(0.47974175214767456,0) translate(0.47974175214767456,0) translate(0.47974175214767456,0) translate(0.47974175214767456,0) translate(0.47974175214767456,0) translate(0.47974175214767456,0) translate(0.47974175214767456,0) translate(0.47974175214767456,0) translate(0.47974175214767456,0) translate(0.47974175214767456,0) translate(0.47974175214767456,0) translate(0.47974175214767456,0) translate(0.47974175214767456,0) translate(0.47974175214767456,0) translate(0.47974175214767456,0) translate(0.47974175214767456,0) translate(0.47974175214767456,0) translate(0.47974175214767456,0) translate(0.47974175214767456,0) translate(0.47974175214767456,0) translate(0.47974175214767456,0) translate(0.47974175214767456,0) translate(0.47974175214767456,0) translate(0.47974175214767456,0) translate(0.47974175214767456,0) translate(0.47974175214767456,0) translate(0.47974175214767456,0) translate(0.47974175214767456,0) translate(0.47974175214767456,0) translate(0.47974175214767456,0) translate(0.47974175214767456,0) translate(0.47974175214767456,0) translate(0.47974175214767456,0) translate(0.47974175214767456,0) translate(0.47974175214767456,0) translate(0.47974175214767456,0) translate(0.47974175214767456,0) translate(0.47974175214767456,0) translate(0.47974175214767456,0) translate(0.47974175214767456,0) translate(0.47974175214767456,0) translate(0.47974175214767456,0) translate(0.47974175214767456,0) translate(0.47974175214767456,0) translate(0.47974175214767456,0) translate(0.47974175214767456,0) translate(0.47974175214767456,0) translate(0.47974175214767456,0) translate(0.47974175214767456,0) translate(0.47974175214767456,0) translate(0.47974175214767456,0) translate(0.47974175214767456,0) translate(0.47974175214767456,0) translate(0.47974175214767456,0) translate(0.47974175214767456,0) translate(0.47974175214767456,0) translate(0.47974175214767456,0) translate(0.47974175214767456,0) translate(0.47974175214767456,0) translate(0.47974175214767456,0) translate(0.47974175214767456,0) translate(0.47974175214767456,0) translate(0.47974175214767456,0) translate(0.47974175214767456,0) translate(0.47974175214767456,0) translate(0.47974175214767456,0) translate(0.47974175214767456,0) translate(0.47974175214767456,0) translate(0.47974175214767456,0) translate(0.47974175214767456,0) translate(0.47974175214767456,0) translate(0.47974175214767456,0) translate(0,0.47974175214767456) translate(0,0.47974175214767456) translate(0,0.47974175214767456) translate(0,0.47974175214767456) translate(0,0.47974175214767456) translate(0,0.47974175214767456) translate(0,0.47974175214767456) translate(0,0.47974175214767456) translate(0,0.47974175214767456) translate(0,0.47974175214767456) translate(0,0.47974175214767456) translate(0,0.47974175214767456) translate(0,0.47974175214767456) translate(0,0.47974175214767456) translate(0,0.47974175214767456) translate(0,0.47974175214767456) translate(0,0.47974175214767456) translate(0,0.47974175214767456) translate(0,0.47974175214767456) translate(0,0.47974175214767456) translate(0,0.47974175214767456) translate(0,0.47974175214767456) translate(0,0.47974175214767456) translate(0,0.47974175214767456) translate(0,0.47974175214767456) translate(0,0.47974175214767456) translate(0,0.47974175214767456) translate(0,0.47974175214767456) translate(0,0.47974175214767456) translate(0,0.47974175214767456) translate(0,0.47974175214767456) translate(0,0.47974175214767456) translate(0,0.47974175214767456) translate(0,0.47974175214767456) translate(0,0.47974175214767456) translate(0,0.47974175214767456) translate(0,0.47974175214767456) translate(0,0.47974175214767456) translate(0,0.47974175214767456) translate(0,0.47974175214767456) translate(0,0.47974175214767456) translate(0,0.47974175214767456) translate(0,0.47974175214767456) translate(0,0.47974175214767456) translate(0,0.47974175214767456) translate(0,0.47974175214767456) translate(0,0.47974175214767456) translate(0,0.47974175214767456) translate(0,0.47974175214767456) translate(0,0.47974175214767456) translate(0,0.47974175214767456) translate(0,0.47974175214767456) translate(0,0.47974175214767456) translate(0,0.47974175214767456) translate(0,0.47974175214767456) translate(0,0.47974175214767456) translate(0,0.47974175214767456) translate(0,0.47974175214767456) translate(0,0.47974175214767456) translate(0,0.47974175214767456) translate(0,0.47974175214767456) translate(0,0.47974175214767456) translate(0,0.47974175214767456) translate(0,0.47974175214767456) translate(0,0.47974175214767456) translate(0,0.47974175214767456) translate(0,0.47974175214767456) translate(0,0.47974175214767456) translate(0,0.47974175214767456) translate(0,0.47974175214767456) translate(0,0.47974175214767456) translate(0,0.47974175214767456) translate(0,0.47974175214767456) translate(0,0.47974175214767456) translate(0,0.47974175214767456) translate(0,0.47974175214767456) translate(0,0.47974175214767456) translate(0,0.47974175214767456) translate(0,0.47974175214767456) translate(0,0.47974175214767456) translate(0,0.47974175214767456) translate(0,0.47974175214767456) translate(0,0.47974175214767456) translate(0,0.47974175214767456) translate(0,0.47974175214767456) translate(0,0.47974175214767456) translate(0,0.47974175214767456) translate(0,0.47974175214767456) translate(0,0.47974175214767456) translate(0,0.47974175214767456) translate(0,0.47974175214767456) translate(0,0.47974175214767456) translate(0,0.47974175214767456) translate(0,0.47974175214767456) translate(0,0.47974175214767456) translate(0,0.47974175214767456) translate(0,0.47974175214767456) translate(0,0.47974175214767456) translate(0,0.47974175214767456) translate(0,0.47974175214767456) translate(0,0.47974175214767456) translate(0,0.47974175214767456) translate(0,0.47974175214767456) translate(0,0.47974175214767456) translate(0,0.47974175214767456) translate(0,0.47974175214767456) translate(0,0.47974175214767456) translate(0,0.47974175214767456) translate(0,0.47974175214767456) translate(0,0.47974175214767456) translate(0,0.47974175214767456) translate(0,0.47974175214767456) translate(0,0.47974175214767456) translate(0,0.47974175214767456) translate(0,0.47974175214767456) translate(-13.828911781311035,0) translate(0,-13.828911781311035) ">background</title>
    <rect stroke="null" x="66.847829" y="66.977769" width="37" height="37" id="svg_10" fill="none"/>
   </g>
   <g stroke="null" transform="matrix(1.272999027212384,0,0,1.272999027212384,-86.37414174796623,-86.38975124673) " id="svg_13">
    <title stroke="null" transform="translate(3.3467071056365967,0) translate(-3.53263521194458,-0.09296409040689468) translate(2.0864415168762207,-14.0487060546875) translate(0.13909611105918884,0) translate(0,0.47974175214767456) translate(0,0.47974175214767456) translate(0,0.47974175214767456) translate(0,0.47974175214767456) translate(0,0.47974175214767456) translate(0,0.47974175214767456) translate(0,0.47974175214767456) translate(0,0.47974175214767456) translate(0,0.47974175214767456) translate(0,0.47974175214767456) translate(0,0.47974175214767456) translate(0,0.47974175214767456) translate(0,0.47974175214767456) translate(0,0.47974175214767456) translate(0,0.47974175214767456) translate(0,0.47974175214767456) translate(0,0.47974175214767456) translate(0,0.47974175214767456) translate(0,0.47974175214767456) translate(0,0.47974175214767456) translate(0,0.47974175214767456) translate(0,0.47974175214767456) translate(0,0.47974175214767456) translate(0,0.47974175214767456) translate(0,0.47974175214767456) translate(0,0.47974175214767456) translate(0,0.47974175214767456) translate(0,0.47974175214767456) translate(0,0.47974175214767456) translate(0,0.47974175214767456) translate(0,0.47974175214767456) translate(0,0.47974175214767456) translate(0,0.47974175214767456) translate(0,0.47974175214767456) translate(0,0.47974175214767456) translate(0,0.47974175214767456) translate(0,0.47974175214767456) translate(0,0.47974175214767456) translate(0,0.47974175214767456) translate(0,0.47974175214767456) translate(0,0.47974175214767456) translate(0,0.47974175214767456) translate(0,0.47974175214767456) translate(0,0.47974175214767456) translate(0,0.47974175214767456) translate(0,0.47974175214767456) translate(0,0.47974175214767456) translate(0,0.47974175214767456) translate(0,0.47974175214767456) translate(0,0.47974175214767456) translate(0,0.47974175214767456) translate(0,0.47974175214767456) translate(0,0.47974175214767456) translate(0,0.47974175214767456) translate(0,0.47974175214767456) translate(0,0.47974175214767456) translate(0,0.47974175214767456) translate(0,0.47974175214767456) translate(0,0.47974175214767456) translate(0,0.47974175214767456) translate(0,0.47974175214767456) translate(0,0.47974175214767456) translate(0,0.47974175214767456) translate(0,0.47974175214767456) translate(0,0.47974175214767456) translate(0,0.47974175214767456) translate(0,0.47974175214767456) translate(0,0.47974175214767456) translate(0,0.47974175214767456) translate(0,0.47974175214767456) translate(0,0.47974175214767456) translate(0,0.47974175214767456) translate(0,0.47974175214767456) translate(0,0.47974175214767456) translate(0,0.47974175214767456) translate(0,0.47974175214767456) translate(0,0.47974175214767456) translate(0,0.47974175214767456) translate(0,0.47974175214767456) translate(0,0.47974175214767456) translate(0,0.47974175214767456) translate(0,0.47974175214767456) translate(0,0.47974175214767456) translate(0,0.47974175214767456) translate(0.47974175214767456,0) translate(0.47974175214767456,0) translate(0.47974175214767456,0) translate(0.47974175214767456,0) translate(0.47974175214767456,0) translate(0.47974175214767456,0) translate(0.47974175214767456,0) translate(0.47974175214767456,0) translate(0.47974175214767456,0) translate(0.47974175214767456,0) translate(0.47974175214767456,0) translate(0.47974175214767456,0) translate(0.47974175214767456,0) translate(0.47974175214767456,0) translate(0.47974175214767456,0) translate(0.47974175214767456,0) translate(0.47974175214767456,0) translate(0.47974175214767456,0) translate(0.47974175214767456,0) translate(0.47974175214767456,0) translate(0.47974175214767456,0) translate(0.47974175214767456,0) translate(0.47974175214767456,0) translate(0.47974175214767456,0) translate(0.47974175214767456,0) translate(0.47974175214767456,0) translate(0.47974175214767456,0) translate(0.47974175214767456,0) translate(0.47974175214767456,0) translate(0.47974175214767456,0) translate(0.47974175214767456,0) translate(0.47974175214767456,0) translate(0.47974175214767456,0) translate(0.47974175214767456,0) translate(0.47974175214767456,0) translate(0.47974175214767456,0) translate(0.47974175214767456,0) translate(0.47974175214767456,0) translate(0.47974175214767456,0) translate(0.47974175214767456,0) translate(0.47974175214767456,0) translate(0.47974175214767456,0) translate(0.47974175214767456,0) translate(0.47974175214767456,0) translate(0.47974175214767456,0) translate(0.47974175214767456,0) translate(0.47974175214767456,0) translate(0,0.47974175214767456) translate(0.47974175214767456,0) translate(0.47974175214767456,0) translate(0.47974175214767456,0) translate(0.47974175214767456,0) translate(0.47974175214767456,0) translate(0.47974175214767456,0) translate(0.47974175214767456,0) translate(0.47974175214767456,0) translate(0.47974175214767456,0) translate(0.47974175214767456,0) translate(0.47974175214767456,0) translate(0.47974175214767456,0) translate(0.47974175214767456,0) translate(0.47974175214767456,0) translate(0.47974175214767456,0) translate(0.47974175214767456,0) translate(0.47974175214767456,0) translate(0.47974175214767456,0) translate(0.47974175214767456,0) translate(0.47974175214767456,0) translate(0.47974175214767456,0) translate(0.47974175214767456,0) translate(0.47974175214767456,0) translate(0.47974175214767456,0) translate(0.47974175214767456,0) translate(0.47974175214767456,0) translate(0.47974175214767456,0) translate(0.47974175214767456,0) translate(0.47974175214767456,0) translate(0.47974175214767456,0) translate(0.47974175214767456,0) translate(0.47974175214767456,0) translate(0.47974175214767456,0) translate(0.47974175214767456,0) translate(0.47974175214767456,0) translate(0.47974175214767456,0) translate(0.47974175214767456,0) translate(0.47974175214767456,0) translate(0.47974175214767456,0) translate(0.47974175214767456,0) translate(0.47974175214767456,0) translate(0.47974175214767456,0) translate(0.47974175214767456,0) translate(0.47974175214767456,0) translate(0.47974175214767456,0) translate(0.47974175214767456,0) translate(0.47974175214767456,0) translate(0.47974175214767456,0) translate(0.47974175214767456,0) translate(0.47974175214767456,0) translate(0.47974175214767456,0) translate(0.47974175214767456,0) translate(0.47974175214767456,0) translate(0.47974175214767456,0) translate(0.47974175214767456,0) translate(0.47974175214767456,0) translate(0.47974175214767456,0) translate(0.47974175214767456,0) translate(0.47974175214767456,0) translate(0.47974175214767456,0) translate(0.47974175214767456,0) translate(0.47974175214767456,0) translate(0.47974175214767456,0) translate(0.47974175214767456,0) translate(0.47974175214767456,0) translate(0.47974175214767456,0) translate(0.47974175214767456,0) translate(0.47974175214767456,0) translate(0.47974175214767456,0) translate(0.47974175214767456,0) translate(0.47974175214767456,0) translate(0.47974175214767456,0) translate(0.47974175214767456,0) translate(0.47974175214767456,0) translate(0.47974175214767456,0) translate(0.47974175214767456,0) translate(0.47974175214767456,0) translate(0.47974175214767456,0) translate(0.47974175214767456,0) translate(0.47974175214767456,0) translate(0.47974175214767456,0) translate(0.47974175214767456,0) translate(0.47974175214767456,0) translate(0.47974175214767456,0) translate(0.47974175214767456,0) translate(0.47974175214767456,0) translate(0.47974175214767456,0) translate(0.47974175214767456,0) translate(0.47974175214767456,0) translate(0.47974175214767456,0) translate(0.47974175214767456,0) translate(0.47974175214767456,0) translate(0.47974175214767456,0) translate(0.47974175214767456,0) translate(0.47974175214767456,0) translate(0.47974175214767456,0) translate(0.47974175214767456,0) translate(0.47974175214767456,0) translate(0.47974175214767456,0) translate(0.47974175214767456,0) translate(0.47974175214767456,0) translate(0.47974175214767456,0) translate(0.47974175214767456,0) translate(0.47974175214767456,0) translate(0.47974175214767456,0) translate(0.47974175214767456,0) translate(0.47974175214767456,0) translate(0.47974175214767456,0) translate(0.47974175214767456,0) translate(0.47974175214767456,0) translate(0.47974175214767456,0) translate(0.47974175214767456,0) translate(0.47974175214767456,0) translate(0.47974175214767456,0) translate(0.47974175214767456,0) translate(0.47974175214767456,0) translate(0.47974175214767456,0) translate(0.47974175214767456,0) translate(0.47974175214767456,0) translate(0,0.47974175214767456) translate(0,0.47974175214767456) translate(0,0.47974175214767456) translate(0,0.47974175214767456) translate(0,0.47974175214767456) translate(0,0.47974175214767456) translate(0,0.47974175214767456) translate(0,0.47974175214767456) translate(0,0.47974175214767456) translate(0,0.47974175214767456) translate(0,0.47974175214767456) translate(0,0.47974175214767456) translate(0,0.47974175214767456) translate(0,0.47974175214767456) translate(0,0.47974175214767456) translate(0,0.47974175214767456) translate(0,0.47974175214767456) translate(0,0.47974175214767456) translate(0,0.47974175214767456) translate(0,0.47974175214767456) translate(0,0.47974175214767456) translate(0,0.47974175214767456) translate(0,0.47974175214767456) translate(0,0.47974175214767456) translate(0,0.47974175214767456) translate(0,0.47974175214767456) translate(0,0.47974175214767456) translate(0,0.47974175214767456) translate(0,0.47974175214767456) translate(0,0.47974175214767456) translate(0,0.47974175214767456) translate(0,0.47974175214767456) translate(0,0.47974175214767456) translate(0,0.47974175214767456) translate(0,0.47974175214767456) translate(0,0.47974175214767456) translate(0,0.47974175214767456) translate(0,0.47974175214767456) translate(0,0.47974175214767456) translate(0,0.47974175214767456) translate(0,0.47974175214767456) translate(0,0.47974175214767456) translate(0,0.47974175214767456) translate(0,0.47974175214767456) translate(0,0.47974175214767456) translate(0,0.47974175214767456) translate(0,0.47974175214767456) translate(0,0.47974175214767456) translate(0,0.47974175214767456) translate(0,0.47974175214767456) translate(0,0.47974175214767456) translate(0,0.47974175214767456) translate(0,0.47974175214767456) translate(0,0.47974175214767456) translate(0,0.47974175214767456) translate(0,0.47974175214767456) translate(0,0.47974175214767456) translate(0,0.47974175214767456) translate(0,0.47974175214767456) translate(0,0.47974175214767456) translate(0,0.47974175214767456) translate(0,0.47974175214767456) translate(0,0.47974175214767456) translate(0,0.47974175214767456) translate(0,0.47974175214767456) translate(0,0.47974175214767456) translate(0,0.47974175214767456) translate(0,0.47974175214767456) translate(0,0.47974175214767456) translate(0,0.47974175214767456) translate(0,0.47974175214767456) translate(0,0.47974175214767456) translate(0,0.47974175214767456) translate(0,0.47974175214767456) translate(0,0.47974175214767456) translate(0,0.47974175214767456) translate(0,0.47974175214767456) translate(0,0.47974175214767456) translate(0,0.47974175214767456) translate(0,0.47974175214767456) translate(0,0.47974175214767456) translate(0,0.47974175214767456) translate(0,0.47974175214767456) translate(0,0.47974175214767456) translate(0,0.47974175214767456) translate(0,0.47974175214767456) translate(0,0.47974175214767456) translate(0,0.47974175214767456) translate(0,0.47974175214767456) translate(0,0.47974175214767456) translate(0,0.47974175214767456) translate(0,0.47974175214767456) translate(0,0.47974175214767456) translate(0,0.47974175214767456) translate(0,0.47974175214767456) translate(0,0.47974175214767456) translate(0,0.47974175214767456) translate(0,0.47974175214767456) translate(0,0.47974175214767456) translate(0,0.47974175214767456) translate(0,0.47974175214767456) translate(0,0.47974175214767456) translate(0,0.47974175214767456) translate(0,0.47974175214767456) translate(0,0.47974175214767456) translate(0,0.47974175214767456) translate(0,0.47974175214767456) translate(0,0.47974175214767456) translate(0,0.47974175214767456) translate(0,0.47974175214767456) translate(0,0.47974175214767456) translate(0,0.47974175214767456) translate(0,0.47974175214767456) translate(0,0.47974175214767456) translate(0,0.47974175214767456) translate(-13.828911781311035,0) translate(0,-13.828911781311035) ">Layer 1</title>
    <ellipse stroke="null" fill="#343a40" stroke-width="null" stroke-opacity="null" fill-opacity="null" cx="85.331272" cy="85.461213" id="svg_9" rx="17.152318" ry="17.152318"/>
    <g stroke="null" id="svg_7">
     <path stroke="null" id="svg_8" d="m98.758227,73.586027c0,0.089097 0.039994,0.167201 0.091394,0.178534c0.126533,0.027791 0.190948,0.135229 0.249964,0.416832l0.025356,0.121004l0.064756,0.02158c0.127475,0.042494 0.149063,0.077633 0.221297,0.359975c0.024617,0.096177 0.027791,0.101641 0.108793,0.185477c0.140294,0.145287 0.159179,0.195267 0.193173,0.511255c0.028124,0.260892 0.025291,0.255225 0.12417,0.255225l0.078981,0l0,-1.062308l0,-1.062308l-0.578909,0l-0.578974,0l0,0.074734m-20.81727,4.107459c-0.192571,0.011399 -0.17281,-0.05106 -0.174491,0.552198l-0.001486,0.509704l-0.026776,0.059292c-0.066103,0.146229 -0.091387,0.151686 -0.692623,0.149121c-0.579583,-0.002428 -0.616142,0.001891 -0.70342,0.083503c-0.029943,0.028059 -0.059828,0.050929 -0.066437,0.050929c-0.006544,0 -0.03332,0.019559 -0.059487,0.043364c-0.06893,0.062937 -0.129772,0.089032 -0.253066,0.108525c-0.059828,0.00945 -0.110685,0.050922 -0.121004,0.098547c-0.022928,0.106228 -0.08006,0.170099 -0.184535,0.206456c-0.082285,0.02866 -0.096387,0.055176 -0.105424,0.198093c-0.004044,0.06327 -0.012682,0.183397 -0.019218,0.266827c-0.018348,0.234043 -0.013493,10.41211 0.005051,10.696133c0.01666,0.253674 0.029407,0.29077 0.114395,0.333264c0.058002,0.029001 0.112366,0.085184 0.135236,0.139954c0.020095,0.048023 0.098474,0.111025 0.17894,0.143802c0.090039,0.036624 0.135164,0.076082 0.173208,0.151352c0.041074,0.081481 0.061444,0.090858 0.225405,0.103532c0.074466,0.005797 4.003659,0.010116 9.240603,0.010189l9.111171,0.00013l0.161606,-0.027515c0.185346,-0.031566 0.167679,-0.022667 0.194252,-0.098068c0.035682,-0.101242 0.117228,-0.160193 0.252732,-0.182723c0.066096,-0.010986 0.089503,-0.041813 0.111083,-0.146294c0.026508,-0.128149 0.029747,-0.133482 0.203695,-0.330017c0.091597,-0.103605 0.083908,0.431665 0.079923,-5.556316c-0.003841,-5.723922 -0.000268,-5.389245 -0.058335,-5.419666c-0.103873,-0.054364 -0.210912,-0.234043 -0.257051,-0.431665l-0.025421,-0.108931l-0.095916,-0.019428c-0.104474,-0.021109 -0.312488,-0.088285 -0.379802,-0.12262c-0.03919,-0.02003 -0.087481,-0.067176 -0.141845,-0.138475c-0.040733,-0.053415 0.025291,-0.052878 -6.660509,-0.053212c-3.952194,-0.000268 -6.291563,-0.004384 -6.333383,-0.011196c-0.170643,-0.027783 -0.300951,-0.102721 -0.359634,-0.206861l-0.02603,-0.046204l0.002964,-0.403476c0.001688,-0.221898 0.006406,-0.436861 0.010522,-0.477805l0.007486,-0.074321l-0.079386,-0.030892l-0.079321,-0.030892l-1.582396,0.001754c-0.870353,0.00087 -1.644927,0.005391 -1.721277,0.009913m2.582181,2.319071c0.239036,0.043639 0.299603,0.110887 0.363547,0.403411c0.031704,0.144939 0.040269,1.599397 0.010392,1.761945c-0.052342,0.284835 -0.220695,0.463637 -0.482935,0.513009c-0.147577,0.027725 -1.642768,0.017805 -1.732872,-0.011537c-0.083307,-0.02711 -0.148997,-0.093141 -0.17294,-0.17381c-0.024551,-0.082553 -0.065495,-0.13233 -0.134497,-0.16336c-0.07048,-0.031769 -0.121337,-0.083365 -0.155802,-0.158229l-0.025834,-0.05619l0,-0.786915c0,-0.940565 -0.005189,-0.910079 0.169766,-0.996277c0.08485,-0.041748 0.096249,-0.055712 0.127344,-0.156345c0.039661,-0.128489 0.115004,-0.177585 0.293067,-0.191078c0.23458,-0.017674 1.627115,-0.005399 1.740764,0.015377m13.446949,0.030892c0.101365,0.034668 0.210702,0.106025 0.253464,0.16552c0.017001,0.023667 0.055444,0.059284 0.085459,0.079111c0.02995,0.019827 0.068053,0.055103 0.084648,0.078372c0.016522,0.023276 0.051125,0.055379 0.076894,0.07143c0.127475,0.079321 0.140084,0.155737 0.138801,0.841758c-0.00108,0.597997 -0.001819,0.6017 -0.1357,0.690804c-0.052205,0.034733 -0.116685,0.122417 -0.15399,0.209427c-0.050183,0.117091 -0.131584,0.167208 -0.310865,0.191346c-0.161135,0.021725 -2.775491,0.022189 -2.917133,0.000543c-0.189122,-0.02887 -0.267769,-0.075002 -0.314575,-0.184477c-0.031769,-0.074256 -0.103873,-0.154316 -0.163092,-0.180955c-0.060705,-0.027385 -0.103134,-0.069546 -0.138069,-0.137055l-0.029066,-0.056255l-0.000812,-0.511458c-0.001152,-0.725812 0.016725,-0.813293 0.183187,-0.89868c0.022464,-0.011464 0.053487,-0.034603 0.06893,-0.051328c0.015515,-0.016732 0.050864,-0.045936 0.07872,-0.064959c0.027783,-0.019015 0.055031,-0.041951 0.060429,-0.050915c0.052002,-0.086408 0.175027,-0.166194 0.31006,-0.201137l0.096046,-0.02482l1.320838,0.002362l1.320838,0.002362l0.084988,0.029001m-7.824668,2.117739c0.102047,0.00937 0.268979,0.021986 0.370961,0.027986c0.382976,0.02266 0.510385,0.067517 0.579583,0.204035c0.036624,0.072234 0.070285,0.08788 0.244232,0.113243c0.234319,0.034197 0.327394,0.083568 0.380946,0.202071c0.029682,0.065698 0.076626,0.09767 0.188455,0.128497c0.094488,0.026095 0.148584,0.078104 0.176237,0.169563c0.019899,0.065828 0.053422,0.116076 0.077365,0.116076c0.113518,0 0.252392,0.127272 0.252863,0.231753c0.000203,0.038378 0.040668,0.079655 0.086539,0.088293c0.114322,0.021443 0.191687,0.099749 0.211717,0.214282c0.012008,0.068524 0.054835,0.123294 0.113989,0.145889c0.134222,0.05119 0.175701,0.130649 0.223318,0.427013c0.020102,0.125047 0.030356,0.142251 0.096517,0.162077c0.126808,0.037972 0.180629,0.153244 0.200463,0.429173c0.012674,0.175498 0.041009,0.424383 0.053081,0.465456c0.003638,0.012413 0.031494,0.049038 0.06198,0.081481c0.1063,0.11325 0.139012,0.247268 0.151287,0.621128c0.013899,0.420542 -0.037095,0.658296 -0.164578,0.767429c-0.055705,0.04769 -0.058335,0.060567 -0.089836,0.43531c-0.03366,0.400505 -0.068125,0.486167 -0.213267,0.529668c-0.064147,0.01916 -0.077162,0.03932 -0.090655,0.139954c-0.043168,0.321597 -0.084039,0.40415 -0.224869,0.453724c-0.068734,0.024218 -0.093691,0.060096 -0.129439,0.186027c-0.02866,0.101032 -0.091256,0.151686 -0.221833,0.179745c-0.033856,0.007218 -0.042291,0.021856 -0.069408,0.120533c-0.029131,0.106163 -0.089365,0.158643 -0.216304,0.188513c-0.066575,0.015653 -0.076285,0.024421 -0.087619,0.079256c-0.023269,0.112569 -0.083365,0.174491 -0.202412,0.208209c-0.107648,0.030559 -0.147099,0.057335 -0.169092,0.114866c-0.049907,0.130779 -0.161534,0.188723 -0.437941,0.227369c-0.117359,0.016392 -0.136714,0.02745 -0.169223,0.096046c-0.068799,0.145555 -0.158302,0.174556 -0.657013,0.213202c-0.350866,0.027182 -0.412382,0.036494 -0.489001,0.07372c-0.12046,0.05861 -0.306147,0.087351 -0.513081,0.079386l-0.175831,-0.006747l-0.105221,-0.053081c-0.116083,-0.058545 -0.165925,-0.066364 -0.632802,-0.099076c-0.369142,-0.025899 -0.529067,-0.081343 -0.614381,-0.212999c-0.034871,-0.053828 -0.156751,-0.112576 -0.233514,-0.112576c-0.011935,0 -0.053886,-0.009986 -0.093271,-0.022124c-0.073857,-0.022798 -0.075618,-0.024211 -0.206601,-0.166194c-0.035675,-0.038646 -0.069604,-0.070212 -0.075408,-0.070212c-0.118569,0 -0.387352,-0.16794 -0.414672,-0.259066c-0.014566,-0.048697 -0.088285,-0.123163 -0.122011,-0.123163c-0.076285,0 -0.189462,-0.105684 -0.208948,-0.195129c-0.013225,-0.060835 -0.069067,-0.126598 -0.125931,-0.148316c-0.113786,-0.043436 -0.209963,-0.215362 -0.25037,-0.447514l-0.012609,-0.072307l-0.065089,-0.02374c-0.137323,-0.050052 -0.16444,-0.099691 -0.216036,-0.396128l-0.036487,-0.20963l-0.059154,-0.029001c-0.172201,-0.084445 -0.185281,-0.150541 -0.220688,-1.11431c-0.005805,-0.15749 0.012877,-0.992436 0.026363,-1.180341c0.021254,-0.296169 0.065698,-0.394708 0.204506,-0.453999c0.060842,-0.026037 0.056052,-0.013283 0.087822,-0.231753c0.042965,-0.29556 0.084575,-0.375077 0.217992,-0.417165c0.042893,-0.013486 0.062654,-0.025631 0.062654,-0.038378c0,-0.160259 0.14212,-0.435781 0.25145,-0.487515c0.070212,-0.033255 0.131323,-0.103061 0.151824,-0.173679c0.018617,-0.063872 0.093691,-0.138743 0.166599,-0.166121c0.075205,-0.028262 0.12896,-0.077908 0.164172,-0.151425c0.054292,-0.113648 0.146628,-0.168346 0.406976,-0.241333c0.084923,-0.023805 0.085329,-0.024211 0.128627,-0.112163c0.044784,-0.090923 0.103061,-0.128352 0.242949,-0.156142c0.155599,-0.030892 0.21563,-0.056118 0.263921,-0.110953c0.110822,-0.125924 0.248008,-0.182716 0.483,-0.199847c0.083503,-0.006073 0.24787,-0.018885 0.365366,-0.028399c0.464449,-0.037769 0.97874,-0.04182 1.320838,-0.01045m-1.124092,1.812063c-0.182716,0.028928 -0.297176,0.079249 -0.324495,0.142512c-0.027044,0.062596 -0.123359,0.120736 -0.238493,0.143874c-0.083843,0.016928 -0.163969,0.060502 -0.172266,0.093749c-0.015377,0.061111 -0.076212,0.129098 -0.146765,0.163831c-0.089032,0.043842 -0.129569,0.086061 -0.174556,0.182107c-0.038045,0.081213 -0.074531,0.116489 -0.159585,0.154128c-0.068459,0.030211 -0.088358,0.064277 -0.112163,0.191477c-0.026037,0.138946 -0.111692,0.311749 -0.196274,0.395657c-0.090916,0.090314 -0.121402,0.354504 -0.095104,0.825156c0.017001,0.303857 0.025965,0.343721 0.092807,0.410556c0.046074,0.046074 0.083908,0.104684 0.151628,0.234725c0.0145,0.027791 0.035479,0.098612 0.046603,0.157353c0.024624,0.129366 0.045059,0.163027 0.119315,0.195941c0.067517,0.02995 0.133149,0.098604 0.15257,0.159512c0.018617,0.058342 0.082561,0.123902 0.154454,0.158374c0.067183,0.032233 0.130519,0.096851 0.155135,0.158302c0.021312,0.053342 0.086742,0.093546 0.184469,0.11317c0.115069,0.023204 0.185419,0.069408 0.226963,0.1492c0.05969,0.114663 0.168281,0.134149 0.788198,0.141707c0.698021,0.008435 0.834605,-0.005797 0.868469,-0.09038c0.048422,-0.121141 0.207601,-0.206057 0.479957,-0.256167l0.075343,-0.013899l0.023334,-0.076821c0.036624,-0.120598 0.109605,-0.182919 0.241935,-0.206659c0.059893,-0.010725 0.070017,-0.020435 0.078575,-0.076017c0.033929,-0.219275 0.129772,-0.400302 0.242348,-0.457702c0.086604,-0.044175 0.116279,-0.273769 0.117091,-0.904687c0.000804,-0.624295 -0.030689,-0.873925 -0.114127,-0.904136c-0.113583,-0.041074 -0.195057,-0.196144 -0.256167,-0.487312c-0.006877,-0.032914 -0.013218,-0.036624 -0.12262,-0.070756c-0.097394,-0.030421 -0.15844,-0.090851 -0.191216,-0.189194l-0.025834,-0.077633l-0.111358,-0.026638c-0.312821,-0.074807 -0.390186,-0.115815 -0.44468,-0.236072c-0.036632,-0.0808 -0.029139,-0.07743 -0.20626,-0.093481c-0.115199,-0.010457 -1.044902,-0.013624 -1.10723,-0.003775" fill="#ffffff"/>
    </g>
   </g>
   <ellipse stroke="null" ry="16.201832" rx="16.201832" id="svg_15" cy="21.829751" cx="22.435294" stroke-width="null" fill="#343a40"/>
  </g>
  <g stroke="null" id="svgg">
   <path fill-rule="evenodd" fill="#ffffff" d="m8.162002,6.394975c-0.083312,0.09209 -0.13207,0.28385 -0.13207,0.51982c0,0.558683 0.214823,0.662104 1.504956,0.724588c1.813065,0.08786 3.497891,0.374503 4.521491,0.769356c0.220329,0.084987 0.448239,0.154494 0.506413,0.154494c0.058254,0 0.201177,0.049636 0.317685,0.110364c0.116509,0.060648 0.409296,0.207162 0.650692,0.325506c0.425177,0.208439 0.597625,0.309626 1.085365,0.637206c0.310025,0.208199 1.069246,0.973645 1.069246,1.078103c0,0.045726 0.027531,0.083232 0.061127,0.083232c0.125287,0 0.55956,0.856179 0.696658,1.373285c0.172927,0.652368 0.128319,0.997106 -0.196628,1.519878c-0.281616,0.453107 -0.297815,0.686762 -0.080598,1.165405c0.086823,0.191361 0.157845,0.414563 0.157845,0.496039c0,0.081556 0.049396,0.266134 0.109646,0.410254c0.060329,0.14412 0.190962,0.531391 0.290234,0.860568c0.099272,0.329177 0.233735,0.730413 0.298693,0.89169c0.176199,0.436987 0.17596,1.173385 -0.000319,1.272338c-0.076848,0.043092 -0.139651,0.11587 -0.139651,0.161755c0,0.045965 -0.077646,0.192558 -0.172528,0.325825c-0.244748,0.343621 -0.242513,1.298831 0.003751,1.644766c0.092808,0.130314 0.168778,0.272518 0.168778,0.31585c0,0.043411 0.053865,0.099591 0.119701,0.124888c0.065835,0.025217 0.119701,0.086743 0.119701,0.136618c0,0.078284 0.105416,0.229666 0.479999,0.688997c0.043252,0.052987 0.078603,0.13199 0.078603,0.175561c0,0.043571 0.045087,0.10789 0.10015,0.143002c0.055062,0.035112 0.379132,0.440897 0.720119,0.901745c0.340987,0.460847 0.681974,0.913475 0.757705,1.005884c0.254005,0.309865 0.435471,0.683411 0.365885,0.752997c-0.121855,0.121855 -1.142343,0.475531 -1.372008,0.475531c-0.657795,0 -0.780448,0.571371 -0.400518,1.866452c0.180668,0.616059 0.150344,0.68373 -0.307072,0.685964c-0.140529,0.000638 -0.46372,0.056339 -0.718204,0.12377c-0.254563,0.067431 -0.696179,0.144279 -0.981465,0.170773c-1.692886,0.157047 -1.330752,1.661285 0.686124,2.849912c0.280419,0.165267 0.356548,0.244349 0.268768,0.279301c-0.523491,0.208598 -0.582543,0.578074 -0.310823,1.946731c0.260788,1.313754 -0.337476,1.502482 -3.676484,1.15958c-1.735659,-0.178274 -2.739308,-0.107332 -3.063059,0.216339c-0.064638,0.064718 -0.147072,0.119621 -0.183142,0.122015c-0.15194,0.010294 -0.514553,0.590683 -0.832238,1.332268l-0.179471,0.418952l-0.993754,0c-1.281594,0 -1.53137,0.116189 -1.53137,0.712378c0,0.642074 0.02793,0.651171 1.923349,0.625954l1.627769,-0.021626l0.214823,-0.438902c0.118105,-0.241396 0.216897,-0.502902 0.219451,-0.581186c0.002554,-0.078284 0.092409,-0.315451 0.199661,-0.527161c0.304598,-0.601136 0.594194,-0.672957 1.999479,-0.4958c2.391858,0.301566 4.006858,0.271321 4.521012,-0.084668c0.116509,-0.080598 0.251212,-0.146593 0.299252,-0.146593c0.04812,0 0.087461,-0.033516 0.087461,-0.074454c0,-0.040938 0.07182,-0.097197 0.159601,-0.125047c0.08778,-0.02785 0.159601,-0.103262 0.159601,-0.167501c0,-0.064239 0.048918,-0.135581 0.108688,-0.158484c0.299252,-0.114913 0.49181,-1.10332 0.364049,-1.868925c-0.12385,-0.741825 -0.074853,-0.957206 0.217855,-0.957206c0.318005,0 0.640797,-0.779411 0.515351,-1.244328c-0.118264,-0.438344 -0.273795,-0.59571 -0.886742,-0.897116c-1.029505,-0.506254 -1.069325,-0.621885 -0.249775,-0.724747c1.566482,-0.196708 2.132187,-0.832478 1.821045,-2.046402c-0.066793,-0.260628 -0.133426,-0.524608 -0.14811,-0.586533c-0.017476,-0.073815 0.097356,-0.149706 0.332448,-0.22001c1.432178,-0.428209 1.916327,-1.277285 1.397544,-2.450511c-0.109167,-0.246823 -0.234853,-0.448797 -0.279301,-0.448797c-0.044449,0 -0.080838,-0.039741 -0.080838,-0.088339c0,-0.076289 -0.249935,-0.423421 -0.779012,-1.081774c-0.076289,-0.094962 -0.390064,-0.520857 -0.697296,-0.946513c-0.307232,-0.425576 -0.693226,-0.957445 -0.857854,-1.181844c-0.354074,-0.482713 -0.359501,-0.527959 -0.099751,-0.836627c0.109726,-0.130394 0.199501,-0.261346 0.199501,-0.291112c0,-0.029686 0.051312,-0.105257 0.113955,-0.16798c0.146115,-0.146115 0.237885,-0.876208 0.166384,-1.32357c-0.055062,-0.344339 -0.17979,-0.779411 -0.442653,-1.543579c-0.075491,-0.219451 -0.246344,-0.743421 -0.37969,-1.164447l-0.242354,-0.765445l0.189287,-0.551261c0.298853,-0.870383 0.212668,-2.244147 -0.185696,-2.959957c-0.053386,-0.09592 -0.097037,-0.211471 -0.097037,-0.256878c0,-0.314972 -1.633355,-2.162352 -1.911858,-2.162352c-0.045726,0 -0.083152,-0.036469 -0.083152,-0.081077c0,-0.044608 -0.125686,-0.141007 -0.279301,-0.214264c-0.153616,-0.073257 -0.279301,-0.158962 -0.279301,-0.190404c0,-0.031521 -0.098713,-0.096159 -0.219451,-0.143721c-0.120738,-0.047561 -0.273316,-0.117227 -0.339152,-0.154893c-0.325985,-0.186254 -0.897196,-0.426533 -1.436407,-0.604009c-0.329177,-0.108369 -0.706234,-0.233257 -0.837904,-0.277466c-1.573744,-0.528518 -5.561609,-0.868468 -5.892861,-0.502423m22.368931,14.06123c-0.143322,0.146673 -0.236688,0.326543 -0.236688,0.456139c0,0.117706 -0.06783,0.556368 -0.150663,0.974842c-0.156409,0.789785 -0.412807,2.233853 -0.616857,3.474031c-0.064958,0.395012 -0.188169,1.059749 -0.273795,1.477105c-0.085626,0.417436 -0.155691,0.866553 -0.155691,0.998064c0,0.131511 -0.037586,0.364528 -0.083471,0.517905c-0.045965,0.153297 -0.113237,0.512159 -0.149626,0.797445c-0.036389,0.285286 -0.121536,0.788029 -0.189287,1.117206c-0.067671,0.329177 -0.167421,0.879161 -0.221686,1.222143l-0.098474,0.62364l-0.186254,-0.58374c-0.102464,-0.321037 -0.186733,-0.657555 -0.187371,-0.74781c-0.000559,-0.090254 -0.068229,-0.377536 -0.150424,-0.638403c-0.082194,-0.260868 -0.209556,-0.74366 -0.283052,-1.072837c-0.073496,-0.329177 -0.201576,-0.849874 -0.284648,-1.157106c-0.083072,-0.307232 -0.208518,-0.809974 -0.278902,-1.117206c-0.416079,-1.816816 -0.532508,-2.03491 -1.085764,-2.03491c-0.514473,0 -0.650293,0.190883 -1.06741,1.499928c-0.06009,0.188648 -0.143401,0.386154 -0.185057,0.438902c-0.041656,0.052828 -0.095202,0.185855 -0.118903,0.295581c-0.063441,0.293825 -0.385835,1.145136 -0.466912,1.232916c-0.038464,0.041656 -0.069985,0.133666 -0.069985,0.204449c0,0.070783 -0.07182,0.277306 -0.159601,0.459012c-0.08778,0.181706 -0.159601,0.366284 -0.159601,0.410254c0,0.346493 -0.175162,0.466034 -0.742303,0.506653c-1.472637,0.105337 -1.268268,1.350223 0.230543,1.404328c1.211849,0.04381 1.464896,-0.107252 1.718342,-1.025595c0.030324,-0.109726 0.126962,-0.379052 0.214823,-0.598503c0.08786,-0.219451 0.204927,-0.524688 0.260149,-0.678303c0.055142,-0.153616 0.148269,-0.392458 0.206922,-0.530752c0.058573,-0.138294 0.106534,-0.308907 0.106534,-0.379052c0,-0.293506 0.141406,-0.094484 0.235331,0.331251c0.055701,0.252409 0.169177,0.672318 0.252169,0.933186c0.082992,0.260868 0.150903,0.545037 0.150903,0.631381c0,0.152419 0.084987,0.482633 0.404827,1.573265c0.084588,0.288399 0.153775,0.590443 0.153775,0.671281c0,0.080838 0.05211,0.329655 0.11587,0.552937c0.063761,0.223282 0.192239,0.711261 0.285606,1.084328c0.093366,0.373067 0.217297,0.857854 0.275551,1.077305c0.058174,0.219451 0.128,0.524688 0.155052,0.678303c0.105975,0.601695 0.676069,0.922812 1.138672,0.641436c0.225197,-0.136858 0.584937,-1.32349 0.581825,-1.91904c-0.000559,-0.109327 0.050913,-0.450074 0.114354,-0.757306c0.063362,-0.307232 0.192399,-1.00748 0.286723,-1.556108c0.160239,-0.932468 0.277147,-1.582761 0.590284,-3.28235c0.069746,-0.378813 0.126883,-0.773505 0.126883,-0.877006c0,-0.103421 0.070863,-0.529635 0.157526,-0.947071c0.086663,-0.417356 0.221207,-1.127261 0.299092,-1.577415l0.141486,-0.818593l0.129356,0.419591c0.071182,0.230703 0.189686,0.688837 0.263341,1.018014c0.073656,0.329177 0.201097,0.849874 0.283212,1.157106c0.082115,0.307232 0.225835,0.863839 0.319281,1.236906c0.093446,0.373067 0.222085,0.861046 0.285845,1.084328c0.063761,0.223282 0.11587,0.468827 0.11587,0.545516c0,0.076768 0.074454,0.414723 0.165426,0.751081c0.090972,0.336359 0.213147,0.809096 0.271641,1.050493c0.058414,0.241396 0.181466,0.716448 0.273476,1.05568c0.09201,0.339232 0.167262,0.673196 0.167262,0.742144c0,1.100049 1.250712,1.182562 1.545814,0.101985c0.075651,-0.276828 0.190324,-0.67152 0.254882,-0.877166c0.064559,-0.205646 0.150743,-0.528837 0.191441,-0.718204c0.091292,-0.424299 0.214104,-0.90358 0.405306,-1.581245c0.080519,-0.285286 0.201815,-0.717326 0.269566,-0.960158c0.136459,-0.488857 0.604807,-2.319159 0.604807,-2.363449c0,-0.015401 0.03591,-0.02801 0.0798,-0.02801c0.04389,0 0.0798,0.095601 0.0798,0.212429c0,0.204369 0.071661,0.492608 0.404827,1.628646c0.084588,0.288399 0.153775,0.590443 0.153775,0.671281c0,0.080838 0.05211,0.329655 0.11587,0.552937c0.063761,0.223282 0.192399,0.711261 0.285845,1.084328c0.093446,0.373067 0.236608,0.929675 0.318164,1.236906c0.165346,0.623321 0.363411,1.458991 0.440897,1.860147c0.066713,0.345376 0.447361,0.733366 0.71948,0.733366c0.644947,0 0.85179,-0.678543 0.524209,-1.720178c-0.082035,-0.260868 -0.21187,-0.761615 -0.288399,-1.112737c-0.076608,-0.351122 -0.207002,-0.851869 -0.289755,-1.112737c-0.082753,-0.260868 -0.150504,-0.545037 -0.150504,-0.631381c0,-0.152419 -0.084987,-0.482633 -0.404827,-1.573265c-0.084588,-0.288399 -0.153775,-0.590443 -0.153775,-0.671281c0,-0.080838 -0.05211,-0.329655 -0.11587,-0.552937c-0.063761,-0.223282 -0.192399,-0.711261 -0.285845,-1.084328c-0.093446,-0.373067 -0.236608,-0.929675 -0.318164,-1.236906c-0.081476,-0.307232 -0.208359,-0.801515 -0.281935,-1.098373c-0.268688,-1.084408 -1.33139,-1.137315 -1.517963,-0.075571c-0.028648,0.162873 -0.115711,0.5116 -0.193436,0.774942c-0.077726,0.263341 -0.201735,0.712219 -0.275631,0.997505c-0.073895,0.285286 -0.201257,0.770074 -0.282972,1.077305c-0.081716,0.307232 -0.208359,0.792019 -0.281456,1.077305c-0.073017,0.285286 -0.197905,0.752119 -0.277546,1.037405c-0.079641,0.285286 -0.213227,0.764248 -0.296858,1.064458l-0.15202,0.545675l-0.129835,-0.465875c-0.126962,-0.45574 -0.365087,-1.384298 -0.57991,-2.261464c-0.059132,-0.241396 -0.18394,-0.744139 -0.277386,-1.117206c-0.093446,-0.373067 -0.218254,-0.875809 -0.277386,-1.117206c-0.238603,-0.974363 -0.454623,-1.817055 -0.564348,-2.201534c-0.063761,-0.223282 -0.11587,-0.472099 -0.11587,-0.552937c0,-0.080838 -0.070304,-0.382882 -0.156249,-0.671281c-0.085945,-0.288399 -0.237247,-0.824099 -0.336279,-1.190383c-0.265735,-0.982981 -0.746214,-1.25925 -1.265794,-0.72778" id="path0"/>
  </g>
 </g>
</svg>