<svg width="60" height="60" xmlns="http://www.w3.org/2000/svg">
 <!-- Created with Method Draw - http://github.com/duopixel/Method-Draw/ -->

 <g>
  <title>background</title>
  <rect fill="#fff" id="canvas_background" height="62" width="62" y="-1" x="-1"/>
  <g display="none" overflow="visible" y="0" x="0" height="100%" width="100%" id="canvasGrid">
   <rect fill="url(#gridpattern)" stroke-width="0" y="0" x="0" height="100%" width="100%"/>
  </g>
 </g>
 <g>
  <title>Layer 1</title>
  <g stroke="null" id="svg_12">
   <g stroke="null" transform="matrix(1.6476074646355772,0,0,1.6476074646355772,11.146788463006414,-34.27470725427416) " id="svg_10">
    <title stroke="null" transform="translate(-1.2138813734054565,4.855525493621826) translate(-6.1122517585754395,20.37417221069336) translate(2.482813596725464,0) translate(0,-3.7187490463256836) ">background</title>
    <rect stroke="null" x="-5.84332" y="20.510949" width="37" height="37" id="svg_8" fill="none"/>
   </g>
   <g stroke="null" transform="matrix(1.6476074646355772,0,0,1.6476074646355772,11.146788463006414,-34.27470725427416) " id="svg_11">
    <title stroke="null" transform="translate(-1.2138813734054565,4.855525493621826) translate(-6.1122517585754395,20.37417221069336) translate(2.482813596725464,0) translate(0,-3.7187490463256836) ">Layer 1</title>
    <g stroke="null" id="svg_6">
     <path stroke="null" id="svg_7" d="m-3.08529,22.509059c-0.08331,0.09209 -0.13207,0.28385 -0.13207,0.51982c0,0.55868 0.21482,0.6621 1.50496,0.72459c1.81306,0.08786 3.49789,0.3745 4.52149,0.76935c0.22033,0.08499 0.44824,0.1545 0.50641,0.1545c0.05825,0 0.20118,0.04963 0.31769,0.11036c0.1165,0.06065 0.40929,0.20716 0.65069,0.32551c0.42517,0.20844 0.59762,0.30962 1.08536,0.6372c0.31003,0.2082 1.06925,0.97365 1.06925,1.07811c0,0.04572 0.02753,0.08323 0.06113,0.08323c0.12528,0 0.55956,0.85618 0.69665,1.37328c0.17293,0.65237 0.12832,0.99711 -0.19663,1.51988c-0.28161,0.45311 -0.29781,0.68676 -0.08059,1.16541c0.08682,0.19136 0.15784,0.41456 0.15784,0.49604c0,0.08155 0.0494,0.26613 0.10965,0.41025c0.06033,0.14412 0.19096,0.53139 0.29023,0.86057c0.09927,0.32918 0.23374,0.73041 0.29869,0.89169c0.1762,0.43699 0.17596,1.17338 -0.00031,1.27234c-0.07685,0.04309 -0.13966,0.11587 -0.13966,0.16175c0,0.04597 -0.07764,0.19256 -0.17252,0.32583c-0.24475,0.34362 -0.24252,1.29883 0.00375,1.64476c0.09281,0.13032 0.16878,0.27252 0.16878,0.31585c0,0.04341 0.05386,0.09959 0.1197,0.12489c0.06583,0.02522 0.1197,0.08674 0.1197,0.13662c0,0.07828 0.10541,0.22966 0.48,0.689c0.04325,0.05298 0.0786,0.13199 0.0786,0.17556c0,0.04357 0.04509,0.10789 0.10015,0.143c0.05506,0.03511 0.37913,0.44089 0.72012,0.90174c0.34099,0.46085 0.68197,0.91348 0.7577,1.00589c0.25401,0.30986 0.43547,0.68341 0.36589,0.75299c-0.12186,0.12186 -1.14234,0.47554 -1.37201,0.47554c-0.65779,0 -0.78045,0.57137 -0.40052,1.86645c0.18067,0.61606 0.15035,0.68373 -0.30707,0.68596c-0.14053,0.00064 -0.46372,0.05634 -0.7182,0.12377c-0.25457,0.06743 -0.69618,0.14428 -0.98147,0.17077c-1.69288,0.15705 -1.33075,1.66129 0.68613,2.84992c0.28041,0.16526 0.35654,0.24434 0.26876,0.2793c-0.52349,0.20859 -0.58254,0.57807 -0.31082,1.94673c0.26079,1.31375 -0.33748,1.50248 -3.67648,1.15958c-1.73566,-0.17828 -2.73931,-0.10733 -3.06306,0.21634c-0.06464,0.06472 -0.14707,0.11962 -0.18314,0.12201c-0.15194,0.0103 -0.51456,0.59069 -0.83224,1.33227l-0.17947,0.41895l-0.99376,0c-1.28159,0 -1.53137,0.11619 -1.53137,0.71238c0,0.64207 0.02793,0.65117 1.92335,0.62595l1.62777,-0.02162l0.21482,-0.4389c0.11811,-0.2414 0.2169,-0.50291 0.21945,-0.58119c0.00256,-0.07828 0.09241,-0.31545 0.19967,-0.52716c0.30459,-0.60114 0.59419,-0.67296 1.99947,-0.4958c2.39186,0.30157 4.00686,0.27132 4.52102,-0.08467c0.11651,-0.0806 0.25121,-0.14659 0.29925,-0.14659c0.04812,0 0.08746,-0.03352 0.08746,-0.07446c0,-0.04093 0.07182,-0.09719 0.1596,-0.12504c0.08778,-0.02785 0.1596,-0.10326 0.1596,-0.1675c0,-0.06424 0.04892,-0.13558 0.10869,-0.15849c0.29925,-0.11491 0.49181,-1.10332 0.36405,-1.86892c-0.12385,-0.74183 -0.07485,-0.95721 0.21785,-0.95721c0.31801,0 0.6408,-0.77941 0.51535,-1.24433c-0.11826,-0.43834 -0.27379,-0.59571 -0.88674,-0.89711c-1.0295,-0.50626 -1.06932,-0.62189 -0.24977,-0.72475c1.56648,-0.19671 2.13218,-0.83248 1.82104,-2.0464c-0.06679,-0.26063 -0.13342,-0.52461 -0.14811,-0.58653c-0.01747,-0.07382 0.09736,-0.14971 0.33245,-0.22001c1.43218,-0.42821 1.91633,-1.27729 1.39754,-2.45052c-0.10916,-0.24682 -0.23485,-0.44879 -0.2793,-0.44879c-0.04445,0 -0.08083,-0.03974 -0.08083,-0.08834c0,-0.07629 -0.24994,-0.42342 -0.77902,-1.08178c-0.07629,-0.09496 -0.39006,-0.52085 -0.69729,-0.94651c-0.30723,-0.42557 -0.69323,-0.95744 -0.85786,-1.18184c-0.35407,-0.48272 -0.3595,-0.52796 -0.09975,-0.83663c0.10973,-0.13039 0.1995,-0.26135 0.1995,-0.29111c0,-0.02969 0.05132,-0.10526 0.11396,-0.16798c0.14611,-0.14612 0.23788,-0.87621 0.16638,-1.32357c-0.05506,-0.34434 -0.17979,-0.77941 -0.44265,-1.54358c-0.07549,-0.21945 -0.24634,-0.74342 -0.37969,-1.16445l-0.24235,-0.76544l0.18928,-0.55126c0.29886,-0.87039 0.21267,-2.24415 -0.18569,-2.95996c-0.05339,-0.09592 -0.09704,-0.21147 -0.09704,-0.25688c0,-0.31497 -1.63336,-2.16235 -1.91186,-2.16235c-0.04572,0 -0.08315,-0.03647 -0.08315,-0.08108c0,-0.04461 -0.12569,-0.141 -0.2793,-0.21426c-0.15362,-0.07326 -0.2793,-0.15896 -0.2793,-0.19041c0,-0.03152 -0.09872,-0.09615 -0.21945,-0.14372c-0.12074,-0.04756 -0.27332,-0.11722 -0.33916,-0.15489c-0.32598,-0.18625 -0.89719,-0.42653 -1.4364,-0.60401c-0.32918,-0.10837 -0.70624,-0.23326 -0.83791,-0.27746c-1.57374,-0.52852 -5.56161,-0.86847 -5.89286,-0.50243m22.36893,14.06123c-0.14332,0.14668 -0.23668,0.32655 -0.23668,0.45614c0,0.11771 -0.06783,0.55637 -0.15067,0.97484c-0.15641,0.78979 -0.4128,2.23386 -0.61685,3.47403c-0.06496,0.39502 -0.18817,1.05975 -0.2738,1.47711c-0.08563,0.41744 -0.15569,0.86655 -0.15569,0.99806c0,0.13151 -0.03759,0.36453 -0.08347,0.51791c-0.04597,0.1533 -0.11324,0.51216 -0.14963,0.79744c-0.03639,0.28529 -0.12153,0.78803 -0.18928,1.11721c-0.06768,0.32918 -0.16743,0.87916 -0.22169,1.22214l-0.09847,0.62364l-0.18626,-0.58374c-0.10246,-0.32103 -0.18673,-0.65755 -0.18737,-0.74781c-0.00056,-0.09025 -0.06823,-0.37753 -0.15042,-0.6384c-0.0822,-0.26087 -0.20956,-0.74366 -0.28306,-1.07284c-0.07349,-0.32917 -0.20157,-0.84987 -0.28464,-1.1571c-0.08308,-0.30724 -0.20852,-0.80998 -0.27891,-1.11721c-0.41607,-1.81682 -0.5325,-2.03491 -1.08576,-2.03491c-0.51447,0 -0.65029,0.19088 -1.06741,1.49993c-0.06009,0.18865 -0.1434,0.38615 -0.18506,0.4389c-0.04165,0.05283 -0.0952,0.18586 -0.1189,0.29558c-0.06344,0.29383 -0.38583,1.14514 -0.46691,1.23292c-0.03847,0.04165 -0.06999,0.13366 -0.06999,0.20445c0,0.07078 -0.07182,0.2773 -0.1596,0.45901c-0.08778,0.1817 -0.1596,0.36628 -0.1596,0.41025c0,0.3465 -0.17516,0.46604 -0.7423,0.50666c-1.47264,0.10533 -1.26827,1.35022 0.23054,1.40432c1.21185,0.04381 1.4649,-0.10725 1.71834,-1.02559c0.03033,-0.10973 0.12697,-0.37905 0.21483,-0.5985c0.08786,-0.21946 0.20492,-0.52469 0.26015,-0.67831c0.05514,-0.15361 0.14826,-0.39246 0.20692,-0.53075c0.05857,-0.13829 0.10653,-0.30891 0.10653,-0.37905c0,-0.29351 0.14141,-0.09449 0.23533,0.33125c0.0557,0.25241 0.16918,0.67232 0.25217,0.93319c0.08299,0.26086 0.1509,0.54503 0.1509,0.63138c0,0.15242 0.08499,0.48263 0.40483,1.57326c0.08459,0.2884 0.15378,0.59044 0.15378,0.67128c0,0.08084 0.05211,0.32966 0.11587,0.55294c0.06376,0.22328 0.19224,0.71126 0.2856,1.08433c0.09337,0.37306 0.2173,0.85785 0.27555,1.0773c0.05818,0.21945 0.128,0.52469 0.15506,0.67831c0.10597,0.60169 0.67606,0.92281 1.13867,0.64143c0.22519,-0.13686 0.58493,-1.32349 0.58182,-1.91904c-0.00056,-0.10933 0.05092,-0.45007 0.11436,-0.7573c0.06336,-0.30724 0.1924,-1.00748 0.28672,-1.55611c0.16024,-0.93247 0.27715,-1.58276 0.59028,-3.28235c0.06975,-0.37882 0.12689,-0.77351 0.12689,-0.87701c0,-0.10342 0.07086,-0.52963 0.15752,-0.94707c0.08667,-0.41736 0.22121,-1.12726 0.29909,-1.57741l0.14149,-0.8186l0.12936,0.41959c0.07118,0.23071 0.18968,0.68884 0.26334,1.01802c0.07365,0.32917 0.20109,0.84987 0.28321,1.1571c0.08211,0.30724 0.22583,0.86384 0.31928,1.23691c0.09345,0.37307 0.22209,0.86105 0.28585,1.08433c0.06376,0.22328 0.11587,0.46882 0.11587,0.54551c0,0.07677 0.07445,0.41473 0.16542,0.75108c0.09097,0.33636 0.21315,0.8091 0.27164,1.0505c0.05842,0.24139 0.18147,0.71644 0.27348,1.05568c0.09201,0.33923 0.16726,0.67319 0.16726,0.74214c0,1.10005 1.25071,1.18256 1.54581,0.10199c0.07566,-0.27683 0.19033,-0.67152 0.25489,-0.87717c0.06456,-0.20565 0.15074,-0.52884 0.19144,-0.7182c0.09129,-0.4243 0.2141,-0.90358 0.4053,-1.58125c0.08052,-0.28529 0.20182,-0.71733 0.26957,-0.96016c0.13646,-0.48885 0.60481,-2.31916 0.60481,-2.36345c0,-0.0154 0.03591,-0.02801 0.0798,-0.02801c0.04389,0 0.0798,0.09561 0.0798,0.21243c0,0.20437 0.07166,0.49261 0.40482,1.62865c0.08459,0.2884 0.15378,0.59044 0.15378,0.67128c0,0.08084 0.05211,0.32966 0.11587,0.55294c0.06376,0.22328 0.1924,0.71126 0.28584,1.08433c0.09345,0.37306 0.23661,0.92967 0.31817,1.2369c0.16534,0.62332 0.36341,1.45899 0.44089,1.86015c0.06672,0.34537 0.44737,0.73336 0.71948,0.73336c0.64495,0 0.85179,-0.67854 0.52421,-1.72017c-0.08203,-0.26087 -0.21187,-0.76162 -0.2884,-1.11274c-0.0766,-0.35112 -0.207,-0.85187 -0.28975,-1.11274c-0.08275,-0.26087 -0.1505,-0.54503 -0.1505,-0.63138c0,-0.15242 -0.08499,-0.48263 -0.40483,-1.57326c-0.08459,-0.2884 -0.15378,-0.59045 -0.15378,-0.67128c0,-0.08084 -0.05211,-0.32966 -0.11587,-0.55294c-0.06376,-0.22328 -0.1924,-0.71126 -0.28584,-1.08433c-0.09345,-0.37307 -0.23661,-0.92967 -0.31817,-1.23691c-0.08147,-0.30723 -0.20835,-0.80151 -0.28193,-1.09837c-0.26869,-1.08441 -1.33139,-1.13731 -1.51796,-0.07557c-0.02865,0.16287 -0.11571,0.5116 -0.19344,0.77494c-0.07773,0.26334 -0.20173,0.71222 -0.27563,0.99751c-0.0739,0.28528 -0.20126,0.77007 -0.28297,1.0773c-0.08172,0.30723 -0.20836,0.79202 -0.28146,1.07731c-0.07302,0.28528 -0.1979,0.75212 -0.27754,1.0374c-0.07965,0.28529 -0.21323,0.76425 -0.29686,1.06446l-0.15202,0.54568l-0.12984,-0.46588c-0.12696,-0.45574 -0.36508,-1.3843 -0.57991,-2.26146c-0.05913,-0.2414 -0.18394,-0.74414 -0.27738,-1.11721c-0.09345,-0.37307 -0.21826,-0.87581 -0.27739,-1.11721c-0.2386,-0.97436 -0.45462,-1.81705 -0.56435,-2.20153c-0.06376,-0.22328 -0.11587,-0.4721 -0.11587,-0.55294c0,-0.08083 -0.0703,-0.38288 -0.15625,-0.67128c-0.08594,-0.2884 -0.23724,-0.8241 -0.33628,-1.19038c-0.26573,-0.98298 -0.74621,-1.25925 -1.26579,-0.72778" fill="#000000" fill-rule="evenodd"/>
    </g>
   </g>
  </g>
 </g>
</svg>