<svg width="22" height="22" xmlns="http://www.w3.org/2000/svg">
 <g stroke="null">
  <title>background</title>
  <rect x="-1" y="-1" width="24" height="24" id="canvas_background" fill="none" stroke="null"/>
 </g>

 <g stroke="null">
  <title>Layer 1</title>
  <g stroke="null" id="svgg">
   <path stroke="null" id="path0" d="m9.379162,2.957648c-1.124578,0.267356 -1.555422,0.460711 -2.288244,1.026798c-1.995719,1.541677 -2.373845,4.460789 -0.85583,6.607179l0.159718,0.225774l4.248122,0.001276c2.336496,0.000638 4.247891,-0.018384 4.2476,-0.042279c-0.00087,-0.068666 -0.670015,-0.430379 -1.304362,-0.705159c-0.985738,-0.426958 -0.944562,-0.411647 -1.884833,-0.70052c-2.144185,-0.658706 -3.062707,-1.220327 -3.528754,-2.157524c-0.615789,-1.238364 0.249262,-2.699544 1.777252,-3.001871c1.494701,-0.295774 2.959128,0.372327 3.616558,1.650011c0.199676,0.387986 0.283421,0.579832 0.572873,1.311669l0.128806,0.325815l0.383984,0.036247c0.211217,0.01995 0.506063,0.036479 0.655283,0.036711l0.2713,0.000406l0.040596,-0.325061c0.022386,-0.178798 0.023546,-0.524621 0.002668,-0.768432c-0.097257,-1.135249 -0.166909,-1.70992 -0.279129,-2.303034l-0.121383,-0.641771l-0.498639,-0.148582c-1.562613,-0.465525 -2.24701,-0.571075 -3.659358,-0.564464c-0.961961,0.004465 -1.213542,0.02488 -1.684228,0.13681m-8.381705,8.634214c-0.016122,0.042046 -0.021864,0.36183 -0.012759,0.710611l0.016587,0.634231l10.1201,0l10.1201,0l0,-0.695938l0,-0.695938l-10.107341,-0.014672c-8.317215,-0.012063 -10.112561,-0.001102 -10.136687,0.061706m11.167835,2.127773c0,0.031897 0.030796,0.057995 0.068434,0.057995c0.037638,0 0.362758,0.144755 0.722558,0.321697c1.494237,0.73491 2.02808,2.006737 1.362067,3.244985c-1.03602,1.926009 -4.493672,2.18397 -6.101173,0.455086c-0.450504,-0.484431 -0.577222,-0.694952 -0.920088,-1.52799c-0.072204,-0.175434 -0.164357,-0.397265 -0.204722,-0.492956c-0.040422,-0.095691 -0.102419,-0.245783 -0.137796,-0.33347l-0.064316,-0.159486l-0.601813,0l-0.601813,0l-0.036943,0.391465c-0.048136,0.509195 -0.040713,2.924738 0.009975,3.26221c0.046338,0.308359 0.237141,0.428118 1.025117,0.643569c0.255177,0.06971 0.594447,0.163661 0.753933,0.208782c1.478985,0.417969 1.518305,0.423536 2.999551,0.423536c1.76084,0 2.313646,-0.102013 3.408879,-0.62907c2.234658,-1.075398 3.073727,-2.414615 3.073727,-4.90561l0,-1.018738l-2.377788,0c-1.546548,0 -2.377788,0.020298 -2.377788,0.057995" fill="currentColor" fillRule="evenodd"/>
  </g>
 </g>
</svg>