<svg width="50" height="50" xmlns="http://www.w3.org/2000/svg" preserveAspectRatio="xMidYMid meet">

 <g>
  <title>Layer 1</title>
  <g id="svg_3">
   <title transform="translate(-2,0) "/>
   <rect fill-opacity="0" y="-2" x="0" width="52" id="canvas_background" height="52" fill="#000000"/>
  </g>
  <g stroke="null" id="svg_4">
   <title stroke="null" transform="translate(-25,-40) translate(-26,-307) translate(46,-634) translate(1,-506) translate(69.0999984741211,75.59998321533203) scale(0.3150995075702667) translate(-69.0999984741211,-75.59998321533203) translate(222.4694061279297,859.8492431640625) scale(0.2862268090248108) translate(-222.4694061279297,-859.8492431640625) "/>
   <g stroke="null" transform="translate(0,1024) scale(0.10000000149011612,-0.10000000149011612) " id="svg_1" fill="#000000">
    <path stroke="null" id="svg_2" fill="#3b5998" d="m1027.813513,10027.523102c-50.416169,-2.976268 -100.561768,-16.053807 -145.927301,-37.879769c-110.1219,-53.031677 -189.579226,-155.036484 -213.840316,-274.538137c-17.045896,-83.786442 -6.042725,-171.36086 31.025335,-248.022298c53.121867,-109.94152 154.946294,-189.128276 274.267567,-213.299176c83.786442,-17.045896 171.36086,-6.042725 248.022298,31.025335c79.186756,38.240529 144.033313,103.087086 182.273842,182.273842c18.218365,37.699389 30.213625,78.014286 35.534831,119.411463c9.830702,75.759538 -2.525318,152.420976 -35.534831,220.60456c-38.240529,79.186756 -103.087086,144.033313 -182.273842,182.273842c-59.976301,29.041156 -126.897227,42.208886 -193.547582,38.150339zm159.54598,-212.938417l-0.27057,-42.659835l-41.487366,-0.45095c-46.898762,-0.54114 -44.012684,0 -49.06332,-7.936714c-5.140826,-8.207283 -5.501586,-11.003171 -5.501586,-44.553824l0,-30.484195l48.251611,0l48.251611,0l0,-40.134517l0,-40.134517l-48.251611,0l-48.251611,0l0,-119.952602l0,-119.952602l-46.447812,0l-46.447812,0l0,119.952602l0,119.952602l-41.487366,0l-41.487366,0l0,40.134517l0,40.134517l41.487366,0l41.487366,0l0,28.950966c0,31.476284 0.901899,41.216796 5.050636,55.556995c11.363931,39.142428 41.667746,70.618713 77.292767,80.088655c12.987349,3.517407 18.579125,3.787977 64.485798,3.968357l42.569645,0.09019l-0.18038,-42.569645z"/>
   </g>
  </g>
  <g stroke="null" id="svg_16">
   <g stroke="null" transform="matrix(0.01311254105725473,0,0,0.012226495047949128,-1236.480078465953,-1122.8516138793839) " id="svg_14">
    <title stroke="null" transform="translate(51.99681854248047,-1617.1849365234375) translate(462.9793701171875,-340.8285217285156) translate(93859.8515625,0) translate(0,93859.8515625) "/>
    <rect stroke="null" y="91900.838104" x="94373.827751" width="1026" id="svg_12" height="1026" fill="none"/>
   </g>
   <g stroke="null" transform="matrix(0.05439082345677622,0,0,0.050715504397236745,-5129.23938483375,-4657.963940408664) " id="svg_15">
    <title stroke="null" transform="translate(-4.178464889526367,49.294029235839844) translate(1.4551915228366852e-11,0) translate(-121.32591247558594,-111.52999114990234) translate(51.99681854248047,-1617.1849365234375) translate(462.9793701171875,-340.8285217285156) translate(93859.8515625,0) translate(0,93859.8515625) "/>
    <g stroke="null" transform="translate(0,1024) scale(0.10000000149011612,-0.10000000149011612) " id="svg_10" fill="#000000">
     <path stroke="null" id="svg_11" fill="#3b5998" d="m947362.217854,-908957.005585c-559,-33 -1115,-178 -1618,-420c-1221,-588 -2102,-1719 -2371,-3044c-189,-929 -67,-1900 344,-2750c589,-1219 1718,-2097 3041,-2365c929,-189 1900,-67 2750,344c878,424 1597,1143 2021,2021c202,418 335,865 394,1324c109,840 -28,1690 -394,2446c-424,878 -1143,1597 -2021,2021c-665,322 -1407,468 -2146,423zm1769,-2361l-3,-473l-460,-5c-520,-6 -488,0 -544,-88c-57,-91 -61,-122 -61,-494l0,-338l535,0l535,0l0,-445l0,-445l-535,0l-535,0l0,-1330l0,-1330l-515,0l-515,0l0,1330l0,1330l-460,0l-460,0l0,445l0,445l460,0l460,0l0,321c0,349 10,457 56,616c126,434 462,783 857,888c144,39 206,42 715,44l472,1l-2,-472z"/>
    </g>
   </g>
  </g>
 </g>
</svg>