<svg width="50" height="50" xmlns="http://www.w3.org/2000/svg">

 <g>
  <title>background</title>
  <rect fill="none" id="canvas_background" height="52" width="52" y="-1" x="-1"/>
 </g>
 <g>
  <title>Layer 1</title>
  <g stroke="null" id="svgg">
   <path fill-rule="evenodd" fill="#598dca" d="m22.250388,0.777504c-0.153322,0.016948 -0.201276,0.05045 -0.202064,0.140841c-0.000394,0.042436 -0.047166,0.046115 -0.598178,0.04756c-0.746113,0.001839 -0.799585,0.009722 -0.833087,0.123367l-0.025225,0.085266l-0.456155,0c-0.502795,0 -0.557713,0.013007 -0.557713,0.132301l0,0.077909l-0.405573,0c-0.370757,0 -0.406756,0.004204 -0.420814,0.048348c-0.041911,0.132038 -0.11601,0.159628 -0.448798,0.167511l-0.314526,0.007489l-0.037575,0.085398c-0.036787,0.083558 -0.041385,0.085398 -0.21021,0.087368c-0.334365,0.00381 -0.407938,0.025357 -0.417398,0.122841l-0.008146,0.085398l-0.218487,0c-0.328715,0 -0.378115,0.015109 -0.398085,0.121396l-0.016685,0.088814l-0.187481,0.003153c-0.282469,0.004598 -0.339357,0.022729 -0.382844,0.121659c-0.037444,0.085004 -0.038495,0.085398 -0.227158,0.085398c-0.202195,0 -0.221377,0.012744 -0.221377,0.146621c0,0.061224 -0.006832,0.063588 -0.184722,0.063588c-0.209027,0 -0.353941,0.048742 -0.378903,0.127308c-0.013401,0.042305 -0.04756,0.056494 -0.166723,0.069632c-0.082507,0.009065 -0.167642,0.018787 -0.18932,0.021415c-0.021678,0.002759 -0.055574,0.041648 -0.075281,0.086317c-0.033371,0.075807 -0.048217,0.08277 -0.223348,0.105105c-0.184853,0.023386 -0.187612,0.024962 -0.195495,0.105762c-0.007883,0.08185 -0.008277,0.081982 -0.193393,0.095251c-0.193787,0.013795 -0.230968,0.037049 -0.231756,0.144651c-0.000394,0.054129 -0.012613,0.059121 -0.146621,0.059121c-0.180912,0 -0.236486,0.028247 -0.256981,0.130461c-0.014058,0.070814 -0.026276,0.079748 -0.109309,0.079748c-0.140052,0 -0.269857,0.062932 -0.280236,0.135717c-0.007357,0.051764 -0.026145,0.062669 -0.120345,0.069369c-0.06845,0.004992 -0.111674,0.021021 -0.111674,0.041516c0,0.064902 -0.119294,0.141366 -0.249624,0.160154c-0.139921,0.020101 -0.169744,0.044275 -0.170401,0.138476c-0.000263,0.048217 -0.015109,0.059121 -0.080011,0.059121c-0.121265,0 -0.259215,0.068055 -0.287199,0.141629c-0.019444,0.051107 -0.046378,0.067004 -0.124549,0.073442c-0.094726,0.007883 -0.100244,0.013401 -0.107995,0.106813l-0.008146,0.098536l-0.128097,0c-0.183014,0 -0.252383,0.033108 -0.271696,0.129279c-0.014321,0.071471 -0.02667,0.080931 -0.106025,0.080931c-0.090127,0 -0.121659,0.032977 -0.121659,0.127308c0,0.031531 -0.038889,0.053472 -0.135585,0.076332c-0.136636,0.032583 -0.232282,0.094332 -0.232282,0.150169c0,0.016554 -0.050188,0.041385 -0.111674,0.055049c-0.100112,0.022203 -0.112462,0.033371 -0.11982,0.108652c-0.007357,0.075938 -0.017211,0.084609 -0.105105,0.091967c-0.091441,0.007489 -0.097485,0.013664 -0.105105,0.10655c-0.007883,0.095777 -0.011036,0.098536 -0.111674,0.098536c-0.056888,0 -0.103528,0.011036 -0.103528,0.024568c0,0.013401 -0.024306,0.032188 -0.054129,0.041648c-0.029824,0.009459 -0.067136,0.045721 -0.083033,0.080537c-0.021678,0.047429 -0.049662,0.063457 -0.111411,0.063457c-0.101558,0 -0.14557,0.04086 -0.14557,0.13506c0,0.064245 -0.010642,0.072917 -0.098536,0.080142c-0.089076,0.007357 -0.099324,0.016028 -0.10655,0.09039c-0.007095,0.073573 -0.018919,0.084084 -0.111674,0.09893c-0.097353,0.015503 -0.10366,0.022072 -0.10366,0.10655c0,0.085135 -0.005387,0.090522 -0.098536,0.098273c-0.093149,0.007751 -0.09893,0.013532 -0.106681,0.106681c-0.007751,0.093412 -0.013007,0.098536 -0.099324,0.098536c-0.063194,0 -0.096302,0.014189 -0.10747,0.045983c-0.02378,0.06753 -0.117192,0.164226 -0.158446,0.164226c-0.019707,0 -0.085923,0.051633 -0.147278,0.114564c-0.061224,0.063063 -0.137687,0.122973 -0.169876,0.13322c-0.032188,0.010248 -0.073705,0.04756 -0.092361,0.083033c-0.018525,0.035473 -0.074362,0.085004 -0.123892,0.109966c-0.05518,0.027721 -0.09604,0.070814 -0.105105,0.111017c-0.010116,0.044407 -0.035998,0.068581 -0.079617,0.074756c-0.088682,0.012481 -0.125732,0.048085 -0.135323,0.129805c-0.005781,0.049005 -0.027327,0.073573 -0.073836,0.084215c-0.040203,0.009065 -0.083296,0.049925 -0.111017,0.105105c-0.024962,0.049531 -0.074493,0.105368 -0.109966,0.123892c-0.035473,0.018656 -0.072785,0.060173 -0.083033,0.092361c-0.010248,0.032188 -0.070158,0.108652 -0.13322,0.169876c-0.062932,0.061355 -0.114564,0.127571 -0.114564,0.147278c0,0.041254 -0.096696,0.134666 -0.164226,0.158446c-0.031794,0.011167 -0.045983,0.044275 -0.045983,0.10747c0,0.086317 -0.005124,0.091573 -0.098536,0.099324c-0.093149,0.007751 -0.09893,0.013532 -0.106681,0.106681c-0.007751,0.093149 -0.013138,0.098536 -0.098273,0.098536c-0.084478,0 -0.091047,0.006306 -0.10655,0.10366c-0.014846,0.092755 -0.025357,0.104579 -0.09893,0.111674c-0.074362,0.007226 -0.083033,0.017474 -0.09039,0.10655c-0.007226,0.087894 -0.015897,0.098536 -0.080142,0.098536c-0.0942,0 -0.13506,0.044013 -0.13506,0.14557c0,0.061749 -0.016028,0.089733 -0.063457,0.111411c-0.034816,0.015897 -0.071077,0.053209 -0.080537,0.083033c-0.009459,0.029824 -0.028247,0.054129 -0.041648,0.054129c-0.013532,0 -0.024568,0.04664 -0.024568,0.103528c0,0.100638 -0.002759,0.103791 -0.098536,0.111674c-0.092886,0.00762 -0.099061,0.013664 -0.10655,0.105105c-0.007357,0.087894 -0.016028,0.097748 -0.091967,0.105105c-0.075281,0.007357 -0.086449,0.019707 -0.108652,0.11982c-0.013664,0.061355 -0.038495,0.111674 -0.055049,0.111674c-0.055837,0 -0.117586,0.095645 -0.150169,0.232282c-0.02286,0.096696 -0.044801,0.135585 -0.076332,0.135585c-0.094332,0 -0.127308,0.031531 -0.127308,0.121659c0,0.079354 -0.009459,0.091704 -0.080931,0.106025c-0.096171,0.019313 -0.129279,0.088682 -0.129279,0.271696l0,0.128097l-0.098536,0.008146c-0.093412,0.007751 -0.09893,0.013269 -0.106813,0.107995c-0.006438,0.078172 -0.022335,0.105105 -0.073442,0.124549c-0.073573,0.027984 -0.141629,0.165934 -0.141629,0.287199c0,0.064902 -0.010905,0.079748 -0.059121,0.080011c-0.0942,0.000657 -0.118374,0.03048 -0.138476,0.170401c-0.018787,0.13033 -0.095251,0.249624 -0.160154,0.249624c-0.020495,0 -0.036524,0.043224 -0.041516,0.111674c-0.0067,0.0942 -0.017605,0.112988 -0.069369,0.120345c-0.072785,0.010379 -0.135717,0.140184 -0.135717,0.280236c0,0.083033 -0.008934,0.095251 -0.079748,0.109309c-0.102214,0.020495 -0.130461,0.07607 -0.130461,0.256981c0,0.134009 -0.004992,0.146227 -0.059121,0.146621c-0.107601,0.000788 -0.130856,0.037969 -0.144651,0.231756c-0.013269,0.185116 -0.013401,0.18551 -0.095251,0.193393c-0.080799,0.007883 -0.082376,0.010642 -0.105762,0.195495c-0.022335,0.175131 -0.029298,0.189977 -0.105105,0.223348c-0.04467,0.019707 -0.083558,0.053603 -0.086317,0.075281c-0.002628,0.021678 -0.01235,0.106813 -0.021415,0.18932c-0.013138,0.119163 -0.027327,0.153322 -0.069632,0.166723c-0.078566,0.024962 -0.127308,0.169876 -0.127308,0.378903c0,0.17789 -0.002365,0.184722 -0.063588,0.184722c-0.134009,0 -0.146621,0.01905 -0.146621,0.222297l0,0.190503l-0.085266,0.024437c-0.100638,0.028904 -0.117192,0.080405 -0.12179,0.381005l-0.003153,0.200619l-0.088814,0.016685c-0.106287,0.01997 -0.121396,0.069369 -0.121396,0.398085l0,0.218487l-0.085398,0.008146c-0.097748,0.009459 -0.119163,0.083033 -0.122841,0.421602c-0.001839,0.170533 -0.004598,0.177496 -0.07423,0.194575c-0.105236,0.025751 -0.110886,0.045064 -0.11128,0.381662l-0.000394,0.306381l-0.080799,0.068055c-0.044538,0.037444 -0.091835,0.068055 -0.105105,0.068055c-0.013795,0 -0.024306,0.175788 -0.024306,0.407281l0,0.407281l-0.077909,0c-0.119425,0 -0.132301,0.054655 -0.132301,0.563231l0,0.461542l-0.062537,0c-0.126651,0 -0.133877,0.038363 -0.143337,0.763193l-0.008803,0.67635l-0.075938,0.015109c-0.117849,0.023649 -0.116666,-0.003153 -0.116666,2.736405c0,2.747967 -0.002233,2.701589 0.128491,2.734303l0.064639,0.016291l0.00854,0.647972c0.009197,0.693167 0.019707,0.7515 0.140709,0.781849l0.064902,0.016291l0.002628,0.437368c0.003153,0.531174 0.01051,0.565858 0.123235,0.576894l0.084347,0.008146l0,0.391647c0,0.423047 0.008014,0.445907 0.155949,0.445907c0.051896,0 0.05426,0.014189 0.054655,0.321884c0.000394,0.345401 0.027327,0.447615 0.121133,0.461148c0.050056,0.007226 0.055968,0.031006 0.071603,0.286279c0.018131,0.296396 0.039283,0.349605 0.138476,0.349605c0.05991,0 0.062537,0.007883 0.064114,0.190503c0.002496,0.319519 0.024437,0.394932 0.123498,0.42331l0.085135,0.024437l0,0.193262c0,0.190503 0.001577,0.194838 0.105105,0.298366c0.101952,0.101952 0.105105,0.11036 0.105105,0.283783c0,0.197597 0.024962,0.241741 0.136636,0.241741l0.073573,0l0,0.19786c0,0.16081 0.008277,0.201144 0.044013,0.214808c0.091047,0.034947 0.131644,0.109046 0.16265,0.297447c0.033502,0.202852 0.056625,0.250412 0.133746,0.274849c0.035867,0.01143 0.050713,0.055311 0.064639,0.190371c0.01997,0.195101 0.046378,0.243581 0.133089,0.243581c0.05229,0 0.060435,0.016948 0.074756,0.153322c0.021415,0.204954 0.035736,0.234778 0.121528,0.253697c0.066742,0.014583 0.074362,0.028772 0.088157,0.161993c0.015897,0.154767 0.072785,0.245551 0.153716,0.245551c0.039152,0 0.04848,0.020495 0.04848,0.105893c0,0.074887 0.012875,0.110886 0.044013,0.122841c0.097485,0.037444 0.149512,0.122053 0.161073,0.262237c0.01143,0.137556 0.012875,0.139658 0.096696,0.139658l0.085135,0l0.017999,0.176182c0.020233,0.197729 0.046378,0.244237 0.136899,0.244237c0.053998,0 0.062537,0.012613 0.062537,0.092755c0,0.064771 0.013926,0.097748 0.045983,0.109046c0.104185,0.036787 0.164226,0.120608 0.164621,0.229786c0.000526,0.135979 0.020495,0.165934 0.11798,0.17697c0.068712,0.007751 0.079748,0.020627 0.087368,0.100901c0.009591,0.102214 0.117455,0.262762 0.176576,0.262762c0.027459,0 0.038101,0.032188 0.038101,0.115484c0,0.118243 0.025882,0.147278 0.13125,0.147278c0.035604,0 0.052684,0.027196 0.065822,0.105105c0.010905,0.064639 0.032057,0.105105 0.054917,0.105105c0.065822,0 0.136111,0.096696 0.155424,0.21402c0.023123,0.139921 0.053209,0.180123 0.134403,0.180123c0.048611,0 0.062537,0.014189 0.062537,0.063588c0,0.113513 0.026933,0.146621 0.119425,0.146621c0.082245,0 0.088157,0.006044 0.095777,0.098536c0.007751,0.093149 0.013532,0.09893 0.106681,0.106681c0.093543,0.007751 0.098536,0.012875 0.098536,0.09985c0,0.119425 0.065165,0.242792 0.144125,0.272879c0.048348,0.018393 0.064639,0.04664 0.070946,0.12363c0.007489,0.090259 0.01616,0.100638 0.089339,0.107732c0.069369,0.006832 0.084609,0.022072 0.105105,0.105105c0.02089,0.084478 0.03521,0.098273 0.10944,0.105499c0.069895,0.0067 0.085398,0.019444 0.085398,0.070026c0,0.111805 0.027327,0.145045 0.119425,0.145045c0.082245,0 0.088157,0.006044 0.095777,0.098536c0.00762,0.092886 0.013664,0.099061 0.105236,0.10655c0.091178,0.00762 0.097485,0.013926 0.105105,0.105105c0.007489,0.091573 0.013664,0.097616 0.10655,0.105236c0.092886,0.007751 0.098536,0.013269 0.098536,0.097091c0,0.070946 0.014583,0.095908 0.071471,0.123235c0.039283,0.018919 0.084741,0.060829 0.100901,0.093149c0.016028,0.03232 0.069632,0.085923 0.1189,0.119163c0.049399,0.033108 0.093543,0.086449 0.098142,0.118506c0.004992,0.034816 0.026933,0.058202 0.054523,0.058202c0.057545,0 0.160416,0.106419 0.160416,0.165934c0,0.025357 0.020495,0.044275 0.047954,0.044275c0.051501,0 0.144125,0.089208 0.170664,0.164226c0.011167,0.031794 0.044275,0.045983 0.10747,0.045983c0.086317,0 0.091573,0.005124 0.099324,0.098536c0.007357,0.089208 0.015897,0.099324 0.090916,0.10655c0.071209,0.006963 0.085135,0.020627 0.099718,0.098536c0.012218,0.064902 0.030875,0.090522 0.066216,0.090522c0.083033,0 0.132301,0.029561 0.132301,0.079486c0,0.097616 0.030743,0.130724 0.121002,0.130724c0.076858,0 0.089208,0.008803 0.089208,0.063588c0,0.114039 0.026933,0.146621 0.121002,0.146621c0.081325,0 0.089208,0.006832 0.089208,0.077909c0,0.08277 0.058333,0.132301 0.155949,0.132301c0.039677,0 0.05426,0.016817 0.05426,0.062537c0,0.078172 0.039152,0.109703 0.164226,0.132301c0.057939,0.010379 0.098536,0.032714 0.098536,0.054129c0,0.052552 0.141892,0.145964 0.247916,0.163175c0.078697,0.012744 0.091835,0.025619 0.098799,0.096828c0.007226,0.074362 0.017474,0.083033 0.10655,0.09039c0.087894,0.007226 0.098536,0.015897 0.098536,0.080142c0,0.090522 0.043487,0.13506 0.131907,0.13506c0.052421,0 0.077778,0.020364 0.106419,0.085398c0.034422,0.078303 0.051239,0.087368 0.201801,0.109703c0.134928,0.01997 0.164226,0.033239 0.164226,0.073968c0,0.092886 0.050844,0.151351 0.131512,0.151351c0.064902,0 0.080668,0.013532 0.099193,0.085004c0.01997,0.076989 0.034553,0.087237 0.151877,0.106813c0.129673,0.021678 0.248047,0.101689 0.248047,0.167511c0,0.023123 0.035342,0.034816 0.105105,0.034816c0.097616,0 0.105105,0.005255 0.105105,0.073573c0,0.109835 0.044801,0.136636 0.228603,0.136636c0.157526,0 0.16554,0.003022 0.16554,0.063588c0,0.118243 0.026013,0.146621 0.13414,0.146621c0.090259,0 0.102346,0.007357 0.102346,0.062537c0,0.089602 0.049662,0.119163 0.232545,0.138213c0.155424,0.016291 0.161599,0.019707 0.161599,0.090522c0,0.093412 0.014452,0.101295 0.220063,0.120476c0.165934,0.015503 0.169876,0.017605 0.18551,0.100638c0.014846,0.079223 0.024437,0.085792 0.146753,0.100244c0.145307,0.017211 0.260135,0.08566 0.261448,0.155949c0.000657,0.037181 0.024568,0.045983 0.125994,0.045983c0.104579,0 0.12941,0.009722 0.151088,0.059121c0.014189,0.032583 0.052552,0.070814 0.085004,0.085004c0.032583,0.014321 0.059121,0.035079 0.059121,0.045983c0,0.011036 0.047297,0.020101 0.105105,0.020101c0.087631,0 0.122579,0.017474 0.21021,0.105105c0.096302,0.096302 0.116798,0.105105 0.245026,0.105105c0.13887,0 0.254222,0.068055 0.254222,0.149906c0,0.044013 0.068187,0.060304 0.251726,0.060304l0.168693,0l0,0.090127l0,0.090259l0.21021,0.018262c0.197466,0.017211 0.21021,0.022072 0.21021,0.079748c0,0.091178 0.074624,0.115747 0.351444,0.115747l0.249755,0l0.008146,0.098536l0.008146,0.098536l0.215334,0.00762c0.184196,0.006438 0.217567,0.014715 0.231099,0.057151c0.031663,0.099718 0.183408,0.158577 0.408989,0.158577c0.165803,0 0.208765,0.007883 0.208765,0.038495c0,0.106025 0.18262,0.171715 0.477439,0.171715l0.281287,0l0.008146,0.085135c0.009854,0.101163 0.07988,0.121133 0.435266,0.123498c0.163307,0.001182 0.216779,0.010248 0.216779,0.036918c0,0.105105 0.098536,0.13506 0.492285,0.149512l0.381793,0.014058l0.08185,0.097616l0.081982,0.097616l0.487292,0l0.487161,0l0.025225,0.085398c0.034028,0.115615 0.052158,0.11798 0.908632,0.121659l0.725881,0.003153l0.015634,0.078172c0.023911,0.119688 0.008277,0.1189 2.303242,0.1189c2.309548,0 2.294571,0.00092 2.328598,-0.134666l0.015634,-0.062406l0.707487,0c0.773309,0 0.86659,-0.014583 0.915463,-0.143205l0.025488,-0.067004l0.480198,-0.000394c0.52697,-0.000394 0.531174,-0.001445 0.557844,-0.124418l0.018525,-0.085398l0.385472,0l0.385472,0l0.070158,-0.088025l0.070289,-0.088025l0.318336,-0.014583c0.337387,-0.015634 0.395194,-0.036261 0.395194,-0.140972c0,-0.06188 0.002759,-0.062537 0.277871,-0.062537l0.27774,0l0.094332,-0.105105l0.094463,-0.105105l0.232939,0c0.18932,0 0.236092,-0.007883 0.249099,-0.042042c0.04756,-0.124024 0.135848,-0.168168 0.336073,-0.168168c0.226238,0 0.27682,-0.014583 0.27682,-0.079486c0,-0.115615 0.024831,-0.130724 0.213888,-0.130724c0.204298,0 0.351182,-0.048874 0.375356,-0.124943c0.013138,-0.041516 0.053341,-0.055311 0.21783,-0.074756c0.198517,-0.023254 0.201933,-0.024962 0.223611,-0.109046c0.021152,-0.082639 0.026408,-0.085398 0.159102,-0.085792c0.21875,-0.000526 0.255405,-0.017868 0.255405,-0.120871l0,-0.088945l0.19786,0c0.164752,0 0.200619,-0.007751 0.214151,-0.045983c0.040728,-0.115484 0.118637,-0.164226 0.262237,-0.164226l0.139658,0l0.016685,-0.104054l0.016554,-0.103922l0.187349,-0.007751l0.187349,-0.00762l0.008014,-0.081982c0.008277,-0.085398 0.091047,-0.11509 0.321358,-0.11509c0.072522,0 0.104185,-0.039414 0.104185,-0.130199c0,-0.038101 0.030875,-0.05045 0.163964,-0.065559c0.186167,-0.021021 0.23018,-0.047034 0.23018,-0.135848c0,-0.055443 0.011956,-0.062537 0.105105,-0.062537c0.057808,0 0.105105,-0.009985 0.105105,-0.022072c0,-0.012087 0.02851,-0.035079 0.063457,-0.050976c0.034816,-0.015897 0.071077,-0.053209 0.080537,-0.083033c0.013269,-0.041911 0.039283,-0.054129 0.115221,-0.054129c0.117192,0 0.161205,-0.037312 0.161205,-0.136636c0,-0.069501 0.006438,-0.073573 0.116535,-0.073573c0.172372,0 0.249624,-0.037706 0.26828,-0.130987c0.014452,-0.071734 0.025488,-0.079223 0.117717,-0.079223c0.09801,0 0.10182,-0.003285 0.10182,-0.088288c0,-0.086712 0.002496,-0.088682 0.134666,-0.104317c0.158446,-0.018787 0.259478,-0.076989 0.259478,-0.149643c0,-0.039808 0.017868,-0.051896 0.076989,-0.051896c0.093543,0 0.159497,-0.060567 0.159497,-0.146359c0,-0.055574 0.012087,-0.063851 0.092755,-0.063851c0.064771,0 0.097748,-0.013926 0.109046,-0.045983c0.035604,-0.100901 0.121002,-0.164226 0.221377,-0.164226c0.112988,0 0.181175,-0.054523 0.181175,-0.144782c0,-0.052947 0.014715,-0.063457 0.098536,-0.07042c0.089339,-0.007357 0.099324,-0.015897 0.106681,-0.091441c0.007226,-0.074624 0.018919,-0.085266 0.111674,-0.100901c0.096828,-0.016423 0.103528,-0.023254 0.103528,-0.107207c0,-0.079486 0.007883,-0.089602 0.070026,-0.089602c0.112988,0 0.271433,-0.082507 0.288513,-0.150169c0.009459,-0.037838 0.041122,-0.066085 0.084478,-0.075544c0.125863,-0.027459 0.135979,-0.035079 0.152008,-0.115221c0.012875,-0.064639 0.029035,-0.079486 0.086186,-0.079486c0.089733,0 0.133352,-0.044144 0.133352,-0.13506c0,-0.064245 0.010642,-0.072917 0.098536,-0.080142c0.092886,-0.00762 0.099061,-0.013664 0.10655,-0.105236c0.00762,-0.091178 0.013926,-0.097485 0.105105,-0.105105c0.088288,-0.007226 0.097879,-0.015766 0.105368,-0.093412c0.006044,-0.062669 0.021152,-0.085398 0.056888,-0.085398c0.091835,0 0.130461,-0.0314 0.147015,-0.119294c0.014058,-0.07515 0.02851,-0.089208 0.099193,-0.09604c0.075019,-0.007226 0.083558,-0.017342 0.090916,-0.10655c0.007883,-0.095777 0.011036,-0.098536 0.111674,-0.098536c0.103266,0 0.103528,-0.000263 0.103528,-0.105105l0,-0.105105l0.105105,0c0.104842,0 0.105105,-0.000263 0.105105,-0.103528c0,-0.100638 0.002759,-0.103791 0.098536,-0.111674c0.089208,-0.007357 0.099324,-0.015897 0.10655,-0.090916c0.006832,-0.070683 0.02089,-0.085135 0.09604,-0.099193c0.087894,-0.016554 0.119294,-0.05518 0.119294,-0.147015c0,-0.035736 0.022729,-0.050844 0.085398,-0.056888c0.077646,-0.007489 0.086186,-0.01708 0.093412,-0.105368c0.00762,-0.091178 0.013926,-0.097485 0.105105,-0.105105c0.091573,-0.007489 0.097616,-0.013664 0.105236,-0.10655c0.007226,-0.087894 0.015897,-0.098536 0.080142,-0.098536c0.090916,0 0.13506,-0.043619 0.13506,-0.133352c0,-0.057151 0.014846,-0.073311 0.079486,-0.086186c0.080142,-0.016028 0.087763,-0.026145 0.115221,-0.152008c0.009459,-0.043356 0.037706,-0.075019 0.075544,-0.084478c0.067661,-0.01708 0.150169,-0.175525 0.150169,-0.288513c0,-0.062143 0.010116,-0.070026 0.089602,-0.070026c0.083953,0 0.090784,-0.0067 0.107207,-0.103528c0.015634,-0.092755 0.026276,-0.104448 0.100901,-0.111674c0.075544,-0.007357 0.084084,-0.017342 0.091441,-0.106681c0.006963,-0.083821 0.017474,-0.098536 0.07042,-0.098536c0.090259,0 0.144782,-0.068187 0.144782,-0.181175c0,-0.100375 0.063326,-0.185773 0.164226,-0.221377c0.032057,-0.011299 0.045983,-0.044275 0.045983,-0.109046c0,-0.080668 0.008277,-0.092755 0.063851,-0.092755c0.085792,0 0.146359,-0.065953 0.146359,-0.159497c0,-0.059121 0.012087,-0.076989 0.051896,-0.076989c0.072654,0 0.130856,-0.101032 0.149643,-0.259478c0.015634,-0.132169 0.017605,-0.134666 0.104317,-0.134666c0.085004,0 0.088288,-0.00381 0.088288,-0.10182c0,-0.09223 0.007489,-0.103266 0.079223,-0.117717c0.093281,-0.018656 0.130987,-0.095908 0.130987,-0.26828c0,-0.110097 0.004073,-0.116535 0.073573,-0.116535c0.099324,0 0.136636,-0.044013 0.136636,-0.161205c0,-0.075938 0.012218,-0.101952 0.054129,-0.115221c0.029824,-0.009459 0.067136,-0.045721 0.083033,-0.080537c0.015897,-0.034947 0.038889,-0.063457 0.050976,-0.063457c0.012087,0 0.022072,-0.047297 0.022072,-0.105105c0,-0.093149 0.007095,-0.105105 0.062537,-0.105105c0.088814,0 0.114827,-0.044013 0.135848,-0.23018c0.015109,-0.133089 0.027459,-0.163964 0.065559,-0.163964c0.090784,0 0.130199,-0.031663 0.130199,-0.104185c0,-0.230311 0.029692,-0.313081 0.11509,-0.321358l0.081982,-0.008014l0.00762,-0.187349l0.007751,-0.187349l0.103922,-0.016554l0.104054,-0.016685l0,-0.139658c0,-0.1436 0.048742,-0.221509 0.164226,-0.262237c0.038232,-0.013532 0.045983,-0.049399 0.045983,-0.214151l0,-0.19786l0.088945,0c0.103003,0 0.120345,-0.036655 0.120871,-0.255405c0.000394,-0.132695 0.003153,-0.13795 0.085792,-0.159102c0.084084,-0.021678 0.085792,-0.025094 0.109046,-0.223611c0.019444,-0.164489 0.033239,-0.204692 0.074756,-0.21783c0.07607,-0.024174 0.124943,-0.171058 0.124943,-0.375356c0,-0.189057 0.015109,-0.213888 0.130724,-0.213888c0.064902,0 0.079486,-0.050582 0.079486,-0.27682c0,-0.200225 0.044144,-0.288513 0.168168,-0.336073c0.034159,-0.013007 0.042042,-0.059778 0.042042,-0.249099l0,-0.232939l0.105105,-0.094463l0.105105,-0.094332l0,-0.27774c0,-0.275112 0.000657,-0.277871 0.062537,-0.277871c0.104711,0 0.125338,-0.057808 0.140972,-0.395194l0.014583,-0.318336l0.088025,-0.070289l0.088025,-0.070158l0,-0.385472l0,-0.385472l0.085398,-0.018525c0.122973,-0.02667 0.124024,-0.030875 0.124418,-0.557844l0.000394,-0.480198l0.067004,-0.025488c0.128622,-0.048874 0.143205,-0.142154 0.143205,-0.915463l0,-0.707487l0.062406,-0.015634c0.135585,-0.034028 0.134666,-0.01905 0.134666,-2.328598c0,-2.294965 0.000788,-2.279331 -0.1189,-2.303242l-0.078172,-0.015634l-0.003153,-0.725881c-0.003679,-0.856473 -0.006044,-0.874604 -0.121659,-0.908632l-0.085398,-0.025225l0,-0.487161l0,-0.487292l-0.097616,-0.081982l-0.097616,-0.08185l-0.014058,-0.381793c-0.014452,-0.393749 -0.044407,-0.492285 -0.149512,-0.492285c-0.02667,0 -0.035736,-0.053472 -0.036918,-0.216779c-0.002365,-0.355386 -0.022335,-0.425412 -0.123498,-0.435266l-0.085135,-0.008146l0,-0.281287c0,-0.294819 -0.065691,-0.477439 -0.171715,-0.477439c-0.030612,0 -0.038495,-0.042962 -0.038495,-0.208765c0,-0.225581 -0.058859,-0.377326 -0.158577,-0.408989c-0.042436,-0.013532 -0.050713,-0.046903 -0.057151,-0.231099l-0.00762,-0.215334l-0.098536,-0.008146l-0.098536,-0.008146l0,-0.249755c0,-0.27682 -0.024568,-0.351444 -0.115747,-0.351444c-0.057676,0 -0.062537,-0.012744 -0.079748,-0.21021l-0.018262,-0.21021l-0.090259,0l-0.090127,0l0,-0.168693c0,-0.187612 -0.016291,-0.251726 -0.063983,-0.251726c-0.078172,0 -0.146227,-0.120082 -0.146227,-0.257901c0,-0.123892 -0.009459,-0.145702 -0.105105,-0.241347c-0.087631,-0.087631 -0.105105,-0.122579 -0.105105,-0.21021c0,-0.057808 -0.009065,-0.105105 -0.020101,-0.105105c-0.010905,0 -0.031663,-0.02667 -0.045983,-0.059121c-0.014189,-0.032583 -0.052421,-0.070814 -0.085004,-0.085004c-0.049399,-0.021678 -0.059121,-0.046509 -0.059121,-0.151088c0,-0.101426 -0.008803,-0.125338 -0.045983,-0.125994c-0.070289,-0.001314 -0.138738,-0.116141 -0.155949,-0.261448c-0.014452,-0.122316 -0.021021,-0.131907 -0.100244,-0.146753c-0.083033,-0.015634 -0.085135,-0.019576 -0.100638,-0.18551c-0.019182,-0.205611 -0.027065,-0.220063 -0.120476,-0.220063c-0.070814,0 -0.07423,-0.006175 -0.090522,-0.161599c-0.01905,-0.182882 -0.048611,-0.232545 -0.138213,-0.232545c-0.05518,0 -0.062537,-0.012087 -0.062537,-0.102346c0,-0.108127 -0.028378,-0.13414 -0.146621,-0.13414c-0.060567,0 -0.063588,-0.008014 -0.063588,-0.16554c0,-0.183802 -0.026802,-0.228603 -0.136636,-0.228603c-0.068318,0 -0.073573,-0.007489 -0.073573,-0.105105c0,-0.069763 -0.011693,-0.105105 -0.034816,-0.105105c-0.065822,0 -0.145833,-0.118374 -0.167511,-0.248047c-0.019576,-0.117323 -0.029824,-0.131907 -0.106813,-0.151877c-0.071471,-0.018525 -0.085004,-0.03429 -0.085004,-0.099193c0,-0.080668 -0.058465,-0.131512 -0.151351,-0.131512c-0.040728,0 -0.053998,-0.029298 -0.073968,-0.164226c-0.022335,-0.150563 -0.0314,-0.16738 -0.109703,-0.201801c-0.065034,-0.028641 -0.085398,-0.053998 -0.085398,-0.106419c0,-0.088419 -0.044538,-0.131907 -0.13506,-0.131907c-0.064245,0 -0.072917,-0.010642 -0.080142,-0.098536c-0.007357,-0.089076 -0.016028,-0.099324 -0.09039,-0.10655c-0.071209,-0.006963 -0.084084,-0.020101 -0.096828,-0.098799c-0.017211,-0.106025 -0.110623,-0.247916 -0.163175,-0.247916c-0.021415,0 -0.04375,-0.040597 -0.054129,-0.098536c-0.022598,-0.125075 -0.054129,-0.164226 -0.132301,-0.164226c-0.045721,0 -0.062537,-0.014583 -0.062537,-0.05426c0,-0.097616 -0.049531,-0.155949 -0.132301,-0.155949c-0.071077,0 -0.077909,-0.007883 -0.077909,-0.089208c0,-0.094069 -0.032583,-0.121002 -0.146621,-0.121002c-0.054786,0 -0.063588,-0.01235 -0.063588,-0.089208c0,-0.090259 -0.033108,-0.121002 -0.130724,-0.121002c-0.049925,0 -0.079486,-0.049268 -0.079486,-0.132301c0,-0.035342 -0.025619,-0.053998 -0.090522,-0.066216c-0.077909,-0.014583 -0.091573,-0.02851 -0.098536,-0.099718c-0.007226,-0.075019 -0.017342,-0.083558 -0.10655,-0.090916c-0.093412,-0.007751 -0.098536,-0.013007 -0.098536,-0.099324c0,-0.063194 -0.014189,-0.096302 -0.045983,-0.10747c-0.075019,-0.026539 -0.164226,-0.119163 -0.164226,-0.170664c0,-0.028904 -0.01905,-0.047954 -0.047954,-0.047954c-0.058202,0 -0.162256,-0.105236 -0.162256,-0.164095c0,-0.02378 -0.025619,-0.046115 -0.058202,-0.050844c-0.032057,-0.004598 -0.085398,-0.048742 -0.118506,-0.098142c-0.033239,-0.049268 -0.086843,-0.102871 -0.119163,-0.1189c-0.03232,-0.01616 -0.07423,-0.061618 -0.093149,-0.100901c-0.027327,-0.056888 -0.05229,-0.071471 -0.123235,-0.071471c-0.083821,0 -0.089339,-0.005649 -0.097091,-0.098536c-0.00762,-0.092886 -0.013664,-0.099061 -0.105236,-0.10655c-0.091178,-0.00762 -0.097485,-0.013926 -0.105105,-0.105105c-0.007489,-0.091573 -0.013664,-0.097616 -0.10655,-0.105236c-0.092492,-0.00762 -0.098536,-0.013532 -0.098536,-0.095777c0,-0.092098 -0.033239,-0.119425 -0.145045,-0.119425c-0.05045,0 -0.063326,-0.015634 -0.070026,-0.084609c-0.007226,-0.073705 -0.02089,-0.0875 -0.106813,-0.107732c-0.076989,-0.017999 -0.098536,-0.035736 -0.098536,-0.080931c0,-0.078435 -0.048217,-0.120871 -0.137293,-0.120871c-0.054655,0 -0.080668,-0.01708 -0.098667,-0.064377c-0.030612,-0.080537 -0.15319,-0.145833 -0.273535,-0.145833c-0.086974,0 -0.092098,-0.004992 -0.09985,-0.098536c-0.007751,-0.093149 -0.013532,-0.09893 -0.106681,-0.106681c-0.092492,-0.00762 -0.098536,-0.013532 -0.098536,-0.095777c0,-0.092492 -0.033108,-0.119425 -0.146621,-0.119425c-0.049399,0 -0.063588,-0.013926 -0.063588,-0.062537c0,-0.081194 -0.040203,-0.11128 -0.180123,-0.134403c-0.117323,-0.019313 -0.21402,-0.089602 -0.21402,-0.155424c0,-0.02286 -0.040465,-0.044013 -0.105105,-0.054917c-0.08566,-0.014452 -0.105105,-0.02851 -0.105105,-0.075938c0,-0.084347 -0.049531,-0.121133 -0.162913,-0.121133c-0.069632,0 -0.09985,-0.011562 -0.09985,-0.038101c0,-0.059121 -0.160548,-0.166985 -0.262762,-0.176576c-0.080274,-0.00762 -0.093149,-0.018656 -0.100901,-0.087368c-0.011036,-0.097485 -0.040991,-0.117455 -0.17697,-0.11798c-0.109178,-0.000394 -0.192999,-0.060435 -0.229786,-0.164621c-0.011299,-0.032057 -0.044275,-0.045983 -0.109046,-0.045983c-0.080142,0 -0.092755,-0.00854 -0.092755,-0.062537c0,-0.090522 -0.046509,-0.116666 -0.244237,-0.136899l-0.176182,-0.017999l0,-0.085135c0,-0.083821 -0.002102,-0.085266 -0.139658,-0.096696c-0.140184,-0.011562 -0.224793,-0.063588 -0.262237,-0.161073c-0.011956,-0.031137 -0.047954,-0.044013 -0.122841,-0.044013c-0.085398,0 -0.105893,-0.009328 -0.105893,-0.04848c0,-0.080931 -0.090784,-0.137819 -0.245551,-0.153716c-0.130199,-0.013532 -0.148723,-0.022992 -0.171584,-0.088551c-0.02759,-0.079223 -0.148066,-0.129279 -0.31203,-0.129542c-0.072391,-0.000131 -0.085398,-0.009722 -0.085398,-0.062669c0,-0.090522 -0.046509,-0.116666 -0.243581,-0.136768c-0.13506,-0.013926 -0.178941,-0.028772 -0.190371,-0.064639c-0.024437,-0.077121 -0.071997,-0.100244 -0.274849,-0.133746c-0.1884,-0.031006 -0.262499,-0.071603 -0.297447,-0.16265c-0.013664,-0.035736 -0.053998,-0.044013 -0.214808,-0.044013l-0.19786,0l0,-0.073573c0,-0.111674 -0.044144,-0.136636 -0.241741,-0.136636c-0.173423,0 -0.181831,-0.003153 -0.283783,-0.105105c-0.103528,-0.103528 -0.107864,-0.105105 -0.298366,-0.105105l-0.193262,0l-0.024437,-0.085135c-0.028378,-0.099061 -0.103791,-0.121002 -0.42331,-0.123498c-0.18262,-0.001577 -0.190503,-0.004204 -0.190503,-0.064114c0,-0.099193 -0.053209,-0.120345 -0.349605,-0.138476c-0.255273,-0.015634 -0.279053,-0.021546 -0.286279,-0.071603c-0.013532,-0.093806 -0.115747,-0.120739 -0.461148,-0.121133c-0.307695,-0.000394 -0.321884,-0.002759 -0.321884,-0.054655c0,-0.148066 -0.022729,-0.155949 -0.447615,-0.155949l-0.393224,0l0,-0.062537c0,-0.120214 -0.053078,-0.133877 -0.553509,-0.143205l-0.466666,-0.008671l-0.015766,-0.0628c-0.029692,-0.118769 -0.09039,-0.129542 -0.781323,-0.138607l-0.647972,-0.00854l-0.016291,-0.064639c-0.032583,-0.130199 0.006175,-0.128228 -2.642336,-0.131775c-1.365706,-0.001839 -2.551684,0.004336 -2.635373,0.013532m8.591666,14.572528c0.016948,0.005781 0.034685,0.04375 0.039414,0.084347c0.008014,0.070814 0.016554,0.074887 0.204298,0.100375c0.177233,0.023911 0.197466,0.032714 0.211392,0.091704c0.016685,0.070814 0.069763,0.094332 0.269331,0.119031c0.107076,0.013401 0.124812,0.023911 0.124812,0.074362c0,0.094332 0.051239,0.121922 0.227027,0.121922l0.163964,0l0.008146,0.098536c0.007751,0.093149 0.013532,0.09893 0.106681,0.106681c0.073179,0.006044 0.098536,0.01997 0.098536,0.054129c0,0.095383 0.062143,0.136111 0.236749,0.155424c0.170401,0.018787 0.170533,0.018919 0.183671,0.110754c0.013007,0.091047 0.014452,0.092098 0.157526,0.100112c0.09131,0.005124 0.152139,0.022072 0.16554,0.045983c0.02759,0.049268 0.108389,0.04848 0.149906,-0.001577c0.025094,-0.030218 0.098142,-0.040071 0.311899,-0.042042c0.365634,-0.003416 0.408464,-0.016028 0.418974,-0.123235l0.008146,-0.084347l0.267755,-0.000394c0.302571,-0.000526 0.325037,-0.008277 0.337518,-0.11798l0.008934,-0.078697l0.262762,-0.013138c0.296921,-0.014846 0.317811,-0.02286 0.341459,-0.130593c0.016685,-0.075938 0.020627,-0.077515 0.20456,-0.085135c0.174737,-0.007095 0.188795,-0.012087 0.205743,-0.073311c0.016685,-0.060567 0.018393,-0.05899 0.020758,0.019707c0.002365,0.077778 -0.004336,0.085398 -0.075281,0.085398c-0.09039,0 -0.132301,0.059253 -0.132301,0.187087c0,0.086974 -0.084741,0.207057 -0.146227,0.207057c-0.037969,0 -0.063983,0.05899 -0.063983,0.145045c0,0.050582 -0.015503,0.063326 -0.085398,0.070026c-0.077515,0.007489 -0.086186,0.017211 -0.093412,0.104185c-0.007226,0.086186 -0.01708,0.097616 -0.098273,0.112856c-0.070683,0.013138 -0.093806,0.032451 -0.105893,0.088025c-0.027065,0.123761 -0.032977,0.132564 -0.094989,0.141235c-0.045983,0.006569 -0.070552,0.038232 -0.101295,0.130856c-0.04756,0.143205 -0.09223,0.203115 -0.175131,0.234647c-0.057676,0.021941 -0.060173,0.034816 -0.060173,0.312556l0,0.289695l0.500036,0c0.443411,0 0.502007,-0.004992 0.516985,-0.044013c0.041516,-0.108258 0.100769,-0.132958 0.347897,-0.144782c0.171846,-0.008146 0.248704,-0.022466 0.265784,-0.049268c0.019707,-0.031137 0.023911,-0.029692 0.024306,0.008146c0.000263,0.028641 -0.019444,0.045983 -0.052158,0.045983c-0.071603,0 -0.157657,0.091441 -0.157657,0.167511c0,0.047823 -0.017736,0.065953 -0.076464,0.077646c-0.057939,0.011693 -0.083558,0.037181 -0.106287,0.105893c-0.020364,0.061618 -0.050713,0.095777 -0.095251,0.106944c-0.035998,0.009065 -0.076332,0.045064 -0.089602,0.07988c-0.013269,0.034947 -0.166591,0.206268 -0.340671,0.380611c-0.17408,0.174343 -0.316497,0.328715 -0.316497,0.343036c0,0.014321 -0.01708,0.026013 -0.038101,0.026013c-0.039152,0 -0.172109,0.155555 -0.172109,0.201539c0,0.032977 -0.104317,0.127308 -0.164226,0.148461c-0.033239,0.011693 -0.045983,0.044801 -0.045983,0.1189c0,0.091967 -0.007751,0.104185 -0.075544,0.117717c-0.116141,0.023254 -0.11982,0.051239 -0.129148,0.983387c-0.008277,0.830985 -0.011167,0.874867 -0.059384,0.900617c-0.11601,0.062143 -0.139395,0.168168 -0.151351,0.687649l-0.011299,0.491234l-0.082245,0.008014l-0.082245,0.008014l-0.007226,0.400712l-0.007226,0.400712l-0.063194,0c-0.124024,0 -0.145702,0.056625 -0.145702,0.381662c0,0.314789 -0.027721,0.387443 -0.168168,0.44144c-0.034947,0.013401 -0.042042,0.064245 -0.042042,0.302965l0,0.286936l-0.089471,0.016817c-0.107207,0.020101 -0.120739,0.049531 -0.120739,0.261448c0,0.15411 -0.003941,0.164358 -0.073311,0.190503c-0.083558,0.031531 -0.136899,0.167117 -0.136899,0.34816c0,0.108127 -0.048348,0.186298 -0.135979,0.220063c-0.025357,0.009591 -0.045983,0.064639 -0.055968,0.148986c-0.017474,0.147935 -0.085529,0.263025 -0.156212,0.264339c-0.037181,0.000657 -0.045983,0.024568 -0.045983,0.125994c0,0.104579 -0.009722,0.12941 -0.059121,0.151088c-0.032451,0.014189 -0.070814,0.052552 -0.085004,0.085004c-0.014321,0.032583 -0.035079,0.059121 -0.045983,0.059121c-0.011036,0 -0.020101,0.046509 -0.020101,0.103397c0,0.097222 -0.005124,0.103922 -0.084347,0.111674c-0.09604,0.009459 -0.1189,0.058465 -0.123235,0.26447c-0.002496,0.120214 -0.005518,0.124812 -0.080537,0.124812c-0.086317,0 -0.132301,0.058727 -0.132301,0.169087c0,0.049662 -0.013664,0.067398 -0.051896,0.067398c-0.06753,0 -0.122316,0.088682 -0.145833,0.236486c-0.020364,0.127177 -0.045721,0.156606 -0.135717,0.157263c-0.047429,0.000263 -0.05899,0.017736 -0.065691,0.09893c-0.007226,0.087763 -0.016817,0.099455 -0.086843,0.10747c-0.093149,0.010642 -0.117455,0.041648 -0.11798,0.151088c-0.000263,0.060041 -0.016817,0.088682 -0.063851,0.110097c-0.034816,0.015897 -0.071077,0.053209 -0.080537,0.083033c-0.009459,0.029824 -0.028247,0.054129 -0.041648,0.054129c-0.013532,0 -0.024568,0.04664 -0.024568,0.103528c0,0.100638 -0.002759,0.103791 -0.098536,0.111674c-0.093149,0.007751 -0.09893,0.013532 -0.106681,0.106681c-0.007751,0.093149 -0.013138,0.098536 -0.098536,0.098536c-0.076858,0 -0.09039,0.009065 -0.09039,0.060698c0,0.082639 -0.052421,0.144125 -0.131381,0.154241c-0.052684,0.0067 -0.067267,0.025225 -0.073968,0.093675c-0.006438,0.067793 -0.022729,0.088814 -0.078829,0.102214c-0.099324,0.023649 -0.136242,0.05899 -0.136242,0.13033c0,0.047297 -0.019576,0.066742 -0.084084,0.083427c-0.063983,0.016685 -0.089076,0.041254 -0.105105,0.103003c-0.015109,0.058333 -0.041385,0.086449 -0.093018,0.099324c-0.083033,0.02089 -0.111017,0.055574 -0.111543,0.138738c-0.000263,0.044144 -0.015766,0.059121 -0.061092,0.059121c-0.082639,0 -0.144125,0.052421 -0.154241,0.131381c-0.006044,0.047166 -0.026933,0.068318 -0.074099,0.074756c-0.088814,0.01235 -0.131381,0.051501 -0.131381,0.120871c0,0.045064 -0.021941,0.063326 -0.098536,0.082245c-0.085923,0.021152 -0.099587,0.03521 -0.106813,0.109703c-0.0067,0.069895 -0.019444,0.085398 -0.070026,0.085398c-0.111805,0 -0.145045,0.027327 -0.145045,0.119425c0,0.082245 -0.006044,0.088157 -0.098536,0.095777c-0.093149,0.007751 -0.09893,0.013532 -0.106681,0.106681c-0.007883,0.094463 -0.012087,0.098536 -0.105105,0.09893c-0.12363,0.000526 -0.218487,0.048611 -0.259609,0.131512c-0.023386,0.047297 -0.059516,0.068712 -0.131907,0.078303c-0.089865,0.011824 -0.100375,0.021415 -0.107864,0.098536c-0.007489,0.078303 -0.015766,0.085398 -0.099324,0.085398c-0.063063,0 -0.096171,0.014189 -0.107338,0.045983c-0.035604,0.100769 -0.121002,0.164226 -0.221114,0.164226c-0.142943,0 -0.178021,0.021021 -0.196283,0.117849c-0.016028,0.085792 -0.017605,0.08658 -0.18643,0.097353c-0.17881,0.01143 -0.217961,0.037575 -0.21875,0.146096c-0.000394,0.053735 -0.012875,0.059121 -0.139001,0.059121c-0.152139,0 -0.255536,0.052421 -0.255536,0.12941c0,0.049399 -0.105236,0.07988 -0.277214,0.080537c-0.095645,0.000263 -0.143205,0.041385 -0.143205,0.123761c0,0.055706 -0.011299,0.060435 -0.142811,0.060435c-0.207188,0 -0.277608,0.033108 -0.277608,0.130724l0,0.079486l-0.216779,0.003153c-0.326351,0.004598 -0.372728,0.019444 -0.382713,0.12179l-0.008146,0.085266l-0.272353,0c-0.29679,0 -0.354992,0.024043 -0.354992,0.146359l0,0.063851l-0.326745,0c-0.383107,0 -0.456418,0.020101 -0.47849,0.130987l-0.015897,0.079223l-0.47757,0c-0.505423,0 -0.540633,0.008014 -0.540633,0.123498l0,0.060435l-1.95679,0l-1.956921,0l-0.022072,-0.085398l-0.022072,-0.085398l-0.49754,-0.013138l-0.497672,-0.013138l-0.008408,-0.065691c-0.014452,-0.112988 -0.069763,-0.131381 -0.397296,-0.132038l-0.303753,-0.000526l-0.077252,-0.104579l-0.077383,-0.104448l-0.223085,0c-0.227289,0 -0.344875,-0.049925 -0.344875,-0.146227c0,-0.047691 -0.064114,-0.063983 -0.251726,-0.063983c-0.160154,0 -0.168693,-0.003153 -0.168693,-0.062537c0,-0.0942 -0.051239,-0.11982 -0.278659,-0.138738c-0.214808,-0.017868 -0.323329,-0.065953 -0.324905,-0.144125c-0.000657,-0.034947 -0.041254,-0.046903 -0.209553,-0.061749l-0.208765,-0.018525l-0.008014,-0.08277l-0.008014,-0.08277l-0.190503,-0.007751c-0.17119,-0.006963 -0.190503,-0.013138 -0.190503,-0.060829c0,-0.029167 -0.012218,-0.075938 -0.027196,-0.103922c-0.026408,-0.049268 -0.013926,-0.050844 0.41385,-0.052158c0.645475,-0.001971 0.778958,-0.021152 0.873816,-0.124943l0.076595,-0.083953l0.525787,0l0.525656,0l0.080011,-0.085398c0.044013,-0.046903 0.080142,-0.0942 0.080142,-0.105105c0.000131,-0.010773 0.141103,-0.019707 0.313344,-0.019707c0.37194,0 0.389939,-0.005255 0.411617,-0.120739l0.016817,-0.089471l0.267623,0c0.291666,0 0.330818,-0.01616 0.330818,-0.136636l0,-0.073573l0.194313,0c0.203247,0 0.226107,-0.013532 0.226107,-0.133483c0,-0.043224 0.019576,-0.05045 0.13795,-0.050844c0.219538,-0.000526 0.256193,-0.017868 0.256193,-0.120871l0,-0.088945l0.159365,0c0.198385,0 0.261054,-0.030875 0.261054,-0.128622c0,-0.071734 0.005518,-0.074756 0.158577,-0.088682c0.179072,-0.01616 0.235566,-0.050056 0.235566,-0.140578c0,-0.054523 0.012613,-0.062669 0.098536,-0.063588c0.081982,-0.000788 0.10747,-0.01524 0.151351,-0.085398c0.029035,-0.046378 0.079748,-0.096171 0.112594,-0.110623c0.055311,-0.024306 0.059384,-0.040465 0.052421,-0.21021l-0.00762,-0.183934l-0.187744,-0.00762l-0.187875,-0.007751l-0.016554,-0.088288c-0.020364,-0.108915 -0.047297,-0.119688 -0.297972,-0.119688c-0.202721,0 -0.32149,-0.053866 -0.32149,-0.145833c0,-0.037969 -0.1189,-0.064377 -0.290615,-0.064377c-0.118112,0 -0.126914,-0.00473 -0.134666,-0.071734c-0.009065,-0.078829 -0.053209,-0.099981 -0.261974,-0.125863c-0.105236,-0.013007 -0.124681,-0.024831 -0.140052,-0.085792c-0.024174,-0.096434 -0.053472,-0.109835 -0.241873,-0.11036l-0.16265,-0.000394l-0.008146,-0.098536c-0.00762,-0.092098 -0.014189,-0.099061 -0.101558,-0.106419c-0.079617,-0.0067 -0.097222,-0.020233 -0.118243,-0.091441c-0.021546,-0.072391 -0.04086,-0.086712 -0.143074,-0.106287c-0.12941,-0.024831 -0.203903,-0.077515 -0.238851,-0.168825c-0.017474,-0.045852 -0.043356,-0.059121 -0.115221,-0.059121c-0.088288,0 -0.092624,-0.004336 -0.092624,-0.091704c0,-0.08658 -0.005781,-0.092492 -0.105105,-0.108389c-0.098536,-0.015766 -0.105105,-0.022335 -0.105105,-0.105499c0,-0.08369 -0.004992,-0.088551 -0.091967,-0.088551c-0.079748,0 -0.091967,-0.008408 -0.091967,-0.063457c0,-0.101163 -0.094726,-0.295607 -0.15122,-0.310322c-0.035867,-0.009328 -0.056231,-0.045064 -0.068055,-0.119163c-0.016817,-0.105368 -0.05229,-0.137687 -0.150694,-0.137687c-0.044013,0 -0.05045,-0.019707 -0.05045,-0.155555c0,-0.210735 -0.014189,-0.238588 -0.121002,-0.238588c-0.10182,0 -0.119425,-0.039283 -0.027984,-0.062275c0.033634,-0.008408 0.074756,-0.045195 0.09131,-0.081588l0.030218,-0.066347l0.690408,-0.002365c0.379691,-0.001182 0.749398,-0.010116 0.821657,-0.019707l0.131381,-0.017342l0.007883,-0.164358c0.00854,-0.180386 -0.025357,-0.216647 -0.202327,-0.216647c-0.051764,0 -0.100244,-0.03048 -0.167248,-0.105105c-0.091704,-0.102214 -0.099061,-0.105105 -0.26539,-0.105105l-0.171058,0l-0.008146,-0.085135c-0.007883,-0.081719 -0.014189,-0.086055 -0.151351,-0.10563c-0.146359,-0.021021 -0.224924,-0.068581 -0.251726,-0.152796c-0.010248,-0.03232 -0.046115,-0.050188 -0.112331,-0.055706c-0.081062,-0.0067 -0.098799,-0.018919 -0.106287,-0.073705c-0.013401,-0.096959 -0.052684,-0.131381 -0.150037,-0.131381c-0.064771,0 -0.09131,-0.013795 -0.104185,-0.054129c-0.009459,-0.029824 -0.045721,-0.067136 -0.080537,-0.083033c-0.034947,-0.015897 -0.063457,-0.038889 -0.063457,-0.050976c0,-0.012087 -0.04664,-0.022072 -0.103528,-0.022072c-0.100638,0 -0.103791,-0.002759 -0.111674,-0.098536c-0.007226,-0.087763 -0.016817,-0.099455 -0.086843,-0.10747c-0.087763,-0.009985 -0.117323,-0.042042 -0.11798,-0.127834c-0.000263,-0.045326 -0.020495,-0.061749 -0.092361,-0.07515c-0.080142,-0.015109 -0.091967,-0.027196 -0.091967,-0.093806c0,-0.05518 -0.016554,-0.082901 -0.059121,-0.099193c-0.089602,-0.03429 -0.144651,-0.109309 -0.165409,-0.225713c-0.023517,-0.131644 -0.054129,-0.170795 -0.133352,-0.170795c-0.05518,0 -0.062537,-0.012087 -0.062537,-0.102346c0,-0.108127 -0.028378,-0.13414 -0.146621,-0.13414c-0.061618,0 -0.063588,-0.006175 -0.063588,-0.197072c0,-0.146096 -0.009065,-0.197072 -0.034816,-0.197072c-0.102346,0 -0.161993,-0.129542 -0.171452,-0.371808c-0.007226,-0.18459 -0.018262,-0.23977 -0.050582,-0.25212c-0.110754,-0.042436 -0.128753,-0.095514 -0.143994,-0.423967c-0.015634,-0.33962 -0.03613,-0.397296 -0.140972,-0.397296c-0.055443,0 -0.062537,-0.011956 -0.062537,-0.105105c0,-0.108521 0.037444,-0.14176 0.064245,-0.057019c0.027065,0.085266 0.224793,0.162124 0.417266,0.162124c0.144388,0 0.178153,0.00854 0.200619,0.050582c0.066742,0.124812 0.536298,0.195626 0.981154,0.148066l0.177759,-0.01905l-0.007357,-0.280367l-0.007489,-0.280236l-0.098536,-0.024306c-0.088419,-0.021809 -0.098536,-0.033108 -0.098536,-0.108784c0,-0.07515 -0.009722,-0.086186 -0.089471,-0.101163c-0.089733,-0.016817 -0.120739,-0.05518 -0.120739,-0.148855c0,-0.040071 -0.018787,-0.05045 -0.091967,-0.05045c-0.084215,0 -0.091967,-0.006569 -0.091967,-0.076989c0,-0.089865 -0.097748,-0.255536 -0.164226,-0.278528c-0.025225,-0.008803 -0.046115,-0.041648 -0.046378,-0.073179c-0.000788,-0.127571 -0.030218,-0.17408 -0.120739,-0.191028c-0.075807,-0.014321 -0.089076,-0.02759 -0.089076,-0.089471c0,-0.121659 -0.071997,-0.260266 -0.144651,-0.278528c-0.059647,-0.014977 -0.065559,-0.029167 -0.065559,-0.156475c0,-0.194838 -0.031531,-0.263945 -0.129279,-0.28352l-0.080931,-0.01616l0,-0.244369c0,-0.263288 -0.035998,-0.361298 -0.132826,-0.361298c-0.049662,0 -0.051107,-0.027065 -0.051107,-0.984176l0,-0.984307l0.091967,-0.073311l0.091967,-0.073442l0,-0.277871l0,-0.27774l0.098536,-0.024437c0.096565,-0.02378 0.098799,-0.027196 0.111674,-0.168825c0.009328,-0.103003 0.018131,-0.127571 0.030349,-0.085398c0.013138,0.044801 0.036918,0.059121 0.098536,0.059121c0.071603,0 0.081325,0.008803 0.081325,0.073573c0,0.092886 0.043224,0.136636 0.134928,0.136636c0.062012,0 0.073048,0.011824 0.080142,0.085398c0.007226,0.074493 0.02089,0.088551 0.106813,0.109703c0.089208,0.022072 0.098536,0.032583 0.098536,0.111674c0,0.084347 0.003547,0.087368 0.105105,0.087368l0.105105,0l0,0.105105c0,0.104842 0.000263,0.105105 0.103528,0.105105c0.100638,0 0.103791,0.002759 0.111674,0.098536c0.007357,0.089208 0.015897,0.099324 0.090916,0.10655c0.070683,0.006832 0.085135,0.02089 0.099193,0.09604c0.016423,0.0875 0.05518,0.119294 0.145702,0.119294c0.033371,0 0.052552,0.026933 0.064508,0.09039c0.014452,0.077646 0.02851,0.091441 0.099324,0.098536c0.065165,0.006438 0.087894,0.0247 0.108258,0.086974c0.029824,0.091704 0.060829,0.117323 0.142548,0.117849c0.033502,0.000263 0.104579,0.045852 0.164226,0.105499c0.081062,0.081062 0.125338,0.105105 0.193656,0.105105c0.083164,0 0.089733,0.006569 0.105499,0.105105c0.015766,0.098536 0.022335,0.105105 0.105499,0.105105c0.080011,0 0.09039,0.008671 0.105499,0.089076c0.016948,0.090522 0.063457,0.119951 0.191028,0.120739c0.031531,0.000263 0.064377,0.021152 0.073179,0.046378c0.022729,0.065953 0.1884,0.164226 0.27682,0.164226c0.065822,0 0.076464,0.010905 0.083558,0.085135c0.007883,0.081719 0.014189,0.086055 0.150563,0.105499c0.156081,0.022335 0.206137,0.052158 0.240822,0.143337c0.018525,0.048742 0.042699,0.060173 0.126914,0.060173c0.093675,0 0.104842,0.007095 0.112331,0.071603c0.01051,0.090916 0.099981,0.137687 0.26447,0.138213c0.111674,0.000394 0.124812,0.006569 0.125206,0.059516c0.000788,0.111411 0.039283,0.135454 0.234515,0.14649c0.185116,0.01051 0.18551,0.010773 0.18551,0.087237c0,0.089602 0.01524,0.097485 0.238325,0.122053c0.139658,0.015503 0.169876,0.02759 0.177759,0.071209c0.015766,0.087763 0.049662,0.103266 0.287593,0.131512c0.216385,0.025882 0.231625,0.031926 0.28155,0.111148c0.051896,0.082639 0.055574,0.083821 0.262894,0.085004c0.20548,0.001051 0.211261,0.00289 0.255011,0.079748c0.024568,0.043356 0.063063,0.078697 0.085398,0.078697c0.022335,0 0.040597,0.011824 0.040597,0.026276c0,0.015634 0.099324,0.026276 0.245288,0.026276l0.245288,0l0.094463,0.105105l0.094332,0.105105l0.381268,0l0.381268,0l0.008146,0.084347c0.011299,0.114958 0.040071,0.120082 0.681605,0.123235l0.541947,0.002628l0.015634,0.078172c0.01143,0.057019 0.035342,0.083296 0.088682,0.097353c0.094857,0.025094 0.794856,0.027196 0.854765,0.002628c0.04283,-0.017605 0.045983,-0.101032 0.045983,-1.226311l0,-1.207392l0.085398,-0.018525c0.118112,-0.025619 0.123892,-0.042173 0.124418,-0.346977l0.000394,-0.269331l0.089208,0c0.106813,0 0.121002,-0.027853 0.121002,-0.238588c0,-0.154898 0.000263,-0.155555 0.077909,-0.155555c0.085792,0 0.132301,-0.058727 0.132301,-0.167248c0,-0.047691 0.015897,-0.067924 0.058202,-0.073968c0.071603,-0.010379 0.1189,-0.100112 0.139527,-0.264602c0.015372,-0.121659 0.017999,-0.124812 0.106025,-0.124812c0.08566,0 0.09039,-0.00473 0.09039,-0.091441c0,-0.078435 0.010248,-0.093806 0.07226,-0.107338c0.129936,-0.02851 0.13795,-0.03521 0.13795,-0.115747c0,-0.062932 0.011299,-0.079617 0.05426,-0.079617c0.097616,0 0.155949,-0.049531 0.155949,-0.132301c0,-0.071077 0.007883,-0.077909 0.089208,-0.077909c0.094069,0 0.121002,-0.032583 0.121002,-0.146621c0,-0.054655 0.012481,-0.063588 0.088025,-0.063588c0.152665,0 0.254354,-0.049925 0.271039,-0.133089c0.013007,-0.065559 0.027721,-0.075281 0.123498,-0.082376c0.100375,-0.007226 0.109309,-0.014058 0.116666,-0.089865c0.008277,-0.08566 0.091047,-0.11509 0.322935,-0.11509c0.06372,0 0.076332,-0.012744 0.091178,-0.091967l0.017342,-0.091967l0.155687,0c0.176708,0 0.349868,-0.071997 0.376801,-0.156738c0.015897,-0.050319 0.043093,-0.052815 0.6259,-0.059516c0.703283,-0.008146 1.856152,0.003153 1.90161,0.018656" id="path0"/>
   <path fill-rule="evenodd" fill="#0000ff" d="m27.454261,0.807459c0.032451,0.013138 0.059121,0.037969 0.059121,0.055311c0,0.017342 0.00762,0.023911 0.016948,0.014583c0.025488,-0.025619 -0.043881,-0.097222 -0.092361,-0.095251c-0.029035,0.001051 -0.02378,0.009328 0.016291,0.025357m4.105659,0.82284c0.03613,0.01905 0.071209,0.030086 0.07804,0.024568c0.018525,-0.01524 -0.05899,-0.059121 -0.104317,-0.059121c-0.021678,0 -0.009985,0.015503 0.026276,0.034553m-15.464211,0.649811c-0.024831,0.078303 -0.004204,0.084347 0.031269,0.009197c0.016554,-0.035079 0.020233,-0.06372 0.008146,-0.06372c-0.012218,0 -0.029824,0.024568 -0.039414,0.054523m17.261899,-0.01997c0.025882,0.018919 0.069106,0.063326 0.095908,0.098536l0.048742,0.063983l-0.015503,-0.065691c-0.017211,-0.073573 -0.077515,-0.131381 -0.136899,-0.131381c-0.031137,0 -0.029561,0.007226 0.007751,0.034553m-18.202062,0.377983c-0.044801,0.011562 -0.111805,0.13322 -0.087106,0.158051c0.006306,0.006306 0.019576,-0.014189 0.029561,-0.045458c0.009854,-0.031269 0.055311,-0.073048 0.100901,-0.092886c0.079617,-0.034553 0.055837,-0.045458 -0.043356,-0.019707m19.631357,0.210604c0.033502,0.006306 0.084609,0.049137 0.113776,0.094989c0.045983,0.072391 0.050582,0.074756 0.035079,0.017605c-0.022072,-0.081325 -0.084215,-0.132564 -0.155424,-0.127834c-0.047691,0.003153 -0.046903,0.004992 0.006569,0.01524m0.904953,0.43001c0.025357,0.014715 0.046903,0.046903 0.048085,0.071471c0.001314,0.028772 0.006832,0.032714 0.015634,0.010905c0.015634,-0.039152 -0.036655,-0.111148 -0.080011,-0.109966c-0.016423,0.000394 -0.008934,0.012875 0.016291,0.02759m-23.676186,1.027926c-0.017342,0.017342 -0.030743,0.055837 -0.029824,0.085398c0.001577,0.05229 0.002365,0.052158 0.024568,-0.003022c0.012613,-0.031269 0.044407,-0.069369 0.070552,-0.084609c0.038232,-0.022203 0.039546,-0.027853 0.006963,-0.02851c-0.022466,-0.000394 -0.054917,0.013401 -0.07226,0.030743m26.083088,0.431061c0.033108,0.023254 0.070552,0.067661 0.083033,0.098536l0.022729,0.056362l0.001577,-0.057282c0.001971,-0.067136 -0.062537,-0.139789 -0.124287,-0.139789c-0.033239,0 -0.029429,0.009854 0.016948,0.042173m-28.090853,1.015444c-0.02286,0.018131 -0.049268,0.062406 -0.058596,0.098536l-0.016948,0.065691l0.036918,-0.0628c0.020233,-0.034553 0.065034,-0.078435 0.099587,-0.097616c0.041122,-0.022729 0.048611,-0.035079 0.021809,-0.035736c-0.022466,-0.000526 -0.059778,0.013926 -0.08277,0.031926m29.743628,0.201276c0.047034,0.029692 0.085398,0.07134 0.085398,0.092361c0,0.021021 0.010116,0.044538 0.022466,0.052158c0.033239,0.020627 0.003022,-0.110229 -0.031926,-0.138082c-0.016423,-0.013138 -0.059516,-0.032188 -0.095645,-0.042305c-0.055443,-0.015503 -0.052421,-0.009985 0.019707,0.035867m-30.971515,0.886691c-0.030218,0.038232 -0.048742,0.075807 -0.041254,0.083296c0.016291,0.016291 0.144782,-0.100244 0.144782,-0.131381c0,-0.043224 -0.049925,-0.020101 -0.103528,0.048085m-0.163701,0.117717c-0.040071,0.014715 -0.081194,0.057019 -0.095645,0.098404c-0.017474,0.050188 -0.052552,0.080537 -0.113513,0.09801c-0.051107,0.014583 -0.091967,0.045195 -0.097353,0.072654c-0.008146,0.042173 -0.003022,0.041385 0.045852,-0.007489c0.030218,-0.030218 0.067793,-0.054917 0.083558,-0.054917c0.015766,0 0.080274,-0.053209 0.143468,-0.118243c0.063194,-0.065034 0.112462,-0.117323 0.10944,-0.116141c-0.003153,0.001051 -0.037181,0.013664 -0.075807,0.027721m32.902292,0.64876c0,0.025488 0.113382,0.135979 0.139658,0.135979c0.034816,0 0.017474,-0.053078 -0.034553,-0.105105c-0.054129,-0.054129 -0.105105,-0.069106 -0.105105,-0.030875m-34.028359,0.439864c-0.014058,0.037049 -0.025619,0.079091 -0.025619,0.093281c0,0.014321 -0.034553,0.038101 -0.076858,0.052815c-0.04756,0.016554 -0.086843,0.054917 -0.102609,0.100244c-0.02378,0.068318 -0.017605,0.065691 0.090127,-0.03902c0.063588,-0.061749 0.115615,-0.125206 0.115615,-0.140972c0,-0.015766 0.023649,-0.05229 0.052552,-0.081194c0.041648,-0.041648 0.044275,-0.052552 0.012481,-0.052552c-0.022072,0 -0.051633,0.030349 -0.065691,0.067398m-0.331343,0.415164c-0.041385,0.035604 -0.066085,0.073968 -0.054786,0.085266c0.011299,0.011299 0.052027,-0.010905 0.090522,-0.049531c0.091178,-0.091047 0.062143,-0.120082 -0.035736,-0.035736m36.015104,0.965125c0,0.013007 0.016685,0.02378 0.037181,0.02378c0.020495,0 0.06188,0.032583 0.092098,0.07226c0.039414,0.051896 0.049925,0.057545 0.037444,0.019707c-0.031006,-0.094463 -0.166723,-0.188663 -0.166723,-0.115747m-37.023191,0.199699c-0.053341,0.01905 -0.105368,0.087763 -0.104185,0.137819c0.000657,0.026802 0.013007,0.019313 0.035736,-0.021809c0.019182,-0.034553 0.063063,-0.078435 0.097616,-0.097616c0.062537,-0.034685 0.045852,-0.045195 -0.029167,-0.018393m-1.518765,2.062814c-0.017342,0.017342 -0.031137,0.049793 -0.030743,0.07226c0.000657,0.032583 0.006306,0.031269 0.02851,-0.006963c0.01524,-0.026145 0.053341,-0.057939 0.084609,-0.070552c0.05518,-0.022203 0.055311,-0.022992 0.003022,-0.024568c-0.029561,-0.00092 -0.068055,0.012481 -0.085398,0.029824m41.222131,1.852736c0.021678,0.008014 0.060173,0.032451 0.085398,0.054523c0.02759,0.024043 0.045983,0.028247 0.045983,0.010642c0,-0.033765 -0.085004,-0.084872 -0.136242,-0.081719c-0.02378,0.001445 -0.022335,0.006569 0.004861,0.016554m0.233596,0.424886c0.034553,0.02667 0.084741,0.076595 0.111543,0.111148l0.048874,0.0628l-0.029429,-0.087237c-0.017605,-0.052158 -0.055311,-0.097091 -0.093675,-0.111674c-0.095908,-0.036524 -0.107338,-0.028772 -0.037312,0.024962m-43.053846,0.791046c-0.050188,0.020233 -0.108127,0.14741 -0.080142,0.175525c0.006175,0.006175 0.018787,-0.018525 0.027984,-0.055049c0.009065,-0.036393 0.048874,-0.083821 0.088551,-0.105236c0.077646,-0.042173 0.05426,-0.051896 -0.036393,-0.01524m25.294013,0.600412c0,0.016817 -0.023649,0.05426 -0.052552,0.083164c-0.028904,0.028904 -0.040991,0.052552 -0.026933,0.052552c0.034685,0 0.117192,-0.128622 0.096171,-0.149774c-0.009197,-0.009065 -0.016685,-0.00289 -0.016685,0.014058m-1.205684,0.626556c-0.001708,0.0314 -0.021546,0.075807 -0.044275,0.098536c-0.022729,0.022729 -0.029035,0.041254 -0.014058,0.041254c0.03902,0 0.086974,-0.09985 0.073179,-0.152402c-0.008671,-0.032977 -0.012613,-0.029692 -0.014846,0.012613m8.013327,0.066216c-0.001182,0.024568 -0.022729,0.056757 -0.048085,0.071471c-0.025357,0.014715 -0.032714,0.027196 -0.016291,0.02759c0.043356,0.001182 0.095645,-0.070814 0.080011,-0.109966c-0.008803,-0.021809 -0.014321,-0.017868 -0.015634,0.010905m12.022552,0.407676c0.027065,0.028247 0.064639,0.074099 0.083427,0.10182c0.018919,0.02759 0.012875,0.009722 -0.013269,-0.039677c-0.026276,-0.049399 -0.063851,-0.095251 -0.083558,-0.10182c-0.021415,-0.007095 -0.016028,0.008803 0.013401,0.039677m-32.119392,0.20456c0.000394,0.057808 0.005781,0.078303 0.011956,0.045721c0.006306,-0.032714 0.006044,-0.080011 -0.000526,-0.105105c-0.006569,-0.025225 -0.011693,0.001577 -0.01143,0.059384m17.939825,-0.040071c0.041911,0.078566 0.121528,0.113119 0.183539,0.079748c0.057545,-0.030612 0.121528,-0.131644 0.08369,-0.131644c-0.013269,0 -0.038757,0.017736 -0.056757,0.039414c-0.017999,0.021678 -0.055311,0.039414 -0.082901,0.039414c-0.02759,0 -0.056888,-0.017736 -0.065296,-0.039414c-0.008277,-0.021678 -0.031926,-0.039414 -0.052552,-0.039414c-0.029298,0 -0.0314,0.01143 -0.009722,0.051896m1.617695,0.426989c-0.022466,0.032057 -0.040334,0.076332 -0.039808,0.098536c0.000526,0.022072 0.017342,0.002628 0.037181,-0.043224c0.022203,-0.051107 0.060041,-0.087763 0.097616,-0.094989c0.058859,-0.011167 0.05899,-0.011824 0.003547,-0.01524c-0.032714,-0.001971 -0.075281,0.021678 -0.098536,0.054917m12.67683,-0.029692c0,0.013007 0.017474,0.02378 0.038757,0.02378c0.021415,0 0.058465,0.029955 0.082376,0.066479c0.024043,0.036655 0.049531,0.060567 0.056757,0.053341c0.024043,-0.024043 -0.068581,-0.13887 -0.12363,-0.153322c-0.029824,-0.007751 -0.05426,-0.003416 -0.05426,0.009722m-32.352199,0.20548c-0.047166,0.042173 -0.077646,0.084741 -0.067793,0.094594c0.025094,0.025094 0.062406,-0.002233 0.127046,-0.093149c0.07042,-0.098799 0.050319,-0.099193 -0.059253,-0.001445m19.538996,0.064377c-0.041385,0.035604 -0.066085,0.073968 -0.054786,0.085266c0.011299,0.011299 0.052027,-0.010905 0.090522,-0.049531c0.091178,-0.091047 0.062143,-0.120082 -0.035736,-0.035736m1.369779,0.542341c-0.06753,0.074624 -0.038889,0.080537 0.037181,0.007883c0.034816,-0.033371 0.05137,-0.060567 0.036918,-0.060567c-0.014583,0 -0.047823,0.02378 -0.074099,0.052684m-18.692376,0.233727c0.01524,0.043619 0.051239,0.086843 0.080011,0.095908c0.075544,0.024043 0.071734,0.009197 -0.023123,-0.088288l-0.084478,-0.086974l0.02759,0.079354m17.49037,-0.057019c0.061486,0.005649 0.161993,0.005649 0.223348,0c0.061486,-0.005518 0.011167,-0.009985 -0.111674,-0.009985c-0.122841,0 -0.173029,0.004467 -0.111674,0.009985m1.024772,0.035473c-0.025225,0.014715 -0.045852,0.040991 -0.045589,0.058333c0.000263,0.022598 0.006438,0.021941 0.021941,-0.002365c0.011824,-0.018787 0.055968,-0.044275 0.098142,-0.056888c0.052815,-0.015766 0.060304,-0.023386 0.024043,-0.024437c-0.028904,-0.000788 -0.073179,0.010642 -0.098536,0.025357m-0.197729,0.222691c-0.032188,0.022598 -0.057151,0.060961 -0.055443,0.085398c0.002628,0.037969 0.004861,0.037444 0.015503,-0.003679c0.006832,-0.026539 0.049793,-0.064508 0.095514,-0.084347c0.045721,-0.01997 0.065034,-0.036655 0.042962,-0.037181c-0.022203,-0.000526 -0.066479,0.017342 -0.098536,0.039808m-33.603604,0.017605c-0.030875,0.014189 -0.069238,0.054392 -0.085266,0.089602c-0.034947,0.076595 0.026933,0.054392 0.112988,-0.040728c0.059647,-0.065691 0.049137,-0.084084 -0.027721,-0.048874m33.423743,0.177627c-0.030743,0.01235 -0.063457,0.052947 -0.072785,0.090127c-0.011036,0.043881 -0.048348,0.080668 -0.106287,0.104973c-0.059516,0.024831 -0.092361,0.057808 -0.098142,0.098667c-0.005518,0.039546 -0.038889,0.074624 -0.093806,0.098799c-0.071077,0.031269 -0.139395,0.122184 -0.107732,0.143337c0.004861,0.003285 0.136768,-0.12179 0.29298,-0.277871c0.156212,-0.156212 0.274455,-0.283126 0.262762,-0.282207c-0.011693,0.00092 -0.046378,0.011693 -0.076989,0.024174m12.444942,-0.007226c0.021678,0.008014 0.060173,0.032451 0.085398,0.054523c0.02759,0.024043 0.045983,0.028247 0.045983,0.010642c0,-0.033765 -0.085004,-0.084872 -0.136242,-0.081719c-0.02378,0.001445 -0.022335,0.006569 0.004861,0.016554m-29.744284,0.232282c-0.000526,0.04086 0.056888,0.090784 0.103397,0.089865c0.030218,-0.000657 0.027196,-0.00854 -0.011824,-0.030612c-0.028904,-0.016423 -0.061224,-0.042699 -0.071865,-0.058333c-0.012875,-0.01905 -0.019444,-0.019313 -0.019707,-0.00092m16.658728,0.432244c-0.028904,0.028904 -0.052552,0.067004 -0.052552,0.084741c0,0.017605 0.01905,0.004992 0.042173,-0.028247c0.023254,-0.033108 0.067661,-0.070552 0.098536,-0.083033c0.045064,-0.018131 0.047166,-0.022992 0.010379,-0.024306c-0.025225,-0.00092 -0.069632,0.021941 -0.098536,0.050844m13.249257,0.052552c0,0.050582 0.005518,0.07134 0.012087,0.045983c0.006569,-0.025225 0.006569,-0.06661 0,-0.091967c-0.006569,-0.025225 -0.012087,-0.004598 -0.012087,0.045983m-28.909883,0.210867c0,0.02286 0.101952,0.06372 0.118374,0.047429c0.004992,-0.005124 -0.019576,-0.022729 -0.054655,-0.039283c-0.035079,-0.016554 -0.06372,-0.020233 -0.06372,-0.008146m2.260806,0.893391c-0.001839,0.067924 0.077646,0.157132 0.138344,0.155292l0.057676,-0.001577l-0.057545,-0.023254c-0.031663,-0.012744 -0.075544,-0.056362 -0.097485,-0.096828c-0.022203,-0.040991 -0.040465,-0.055837 -0.040991,-0.033634m-5.922134,0.03521c0.045721,0.021152 0.088682,0.060173 0.095514,0.086712c0.008146,0.031663 0.013401,0.034685 0.015109,0.008803c0.004204,-0.063588 -0.031269,-0.09985 -0.11509,-0.117455l-0.078566,-0.016554l0.083033,0.038495m0.395983,0.626556c0.032188,0.015503 0.065165,0.049137 0.073179,0.074756c0.008146,0.025488 0.032714,0.061224 0.054655,0.079486c0.03521,0.029167 0.035998,0.024043 0.007226,-0.043619c-0.038626,-0.090522 -0.095777,-0.143074 -0.152665,-0.140578c-0.02759,0.001182 -0.021809,0.011036 0.017605,0.029955m18.308349,0.651519c-0.067136,0.07423 -0.038626,0.081194 0.032057,0.007751c0.031926,-0.033239 0.048611,-0.060435 0.036918,-0.060435c-0.011693,0 -0.042699,0.02378 -0.068975,0.052684m-19.325633,0.382188c-0.000526,0.04086 0.056888,0.090784 0.103397,0.089865c0.030218,-0.000657 0.027196,-0.00854 -0.011824,-0.030612c-0.028904,-0.016423 -0.061224,-0.042699 -0.071865,-0.058333c-0.012875,-0.01905 -0.019444,-0.019313 -0.019707,-0.00092m0.603959,0.185904c0,0.015372 0.020758,0.045721 0.045983,0.06753c0.057282,0.049137 0.146753,0.083033 0.124681,0.047166c-0.008934,-0.014321 -0.032451,-0.026013 -0.052421,-0.026013c-0.020101,0 -0.054786,-0.026276 -0.077383,-0.058465c-0.022466,-0.032057 -0.04086,-0.045721 -0.04086,-0.030218m18.427512,1.271112c0,0.079486 0.004861,0.112068 0.010905,0.07226c0.006044,-0.039808 0.006044,-0.104711 0,-0.144519c-0.006044,-0.039808 -0.010905,-0.007226 -0.010905,0.07226m-0.769105,2.035487c-0.017605,0.021284 -0.025882,0.053735 -0.018525,0.07226c0.008803,0.021809 0.014321,0.017868 0.015634,-0.010905c0.001182,-0.024568 0.02286,-0.056757 0.048085,-0.071471c0.025357,-0.014715 0.032714,-0.027196 0.016291,-0.02759c-0.016291,-0.000394 -0.044013,0.016554 -0.061486,0.037706m-16.328567,1.240632c-0.010116,0.031531 -0.05045,0.069106 -0.089471,0.083427c-0.039677,0.014452 -0.052027,0.026802 -0.027984,0.027984c0.061749,0.003022 0.163701,-0.086974 0.148723,-0.13125c-0.009065,-0.026408 -0.018262,-0.020495 -0.031269,0.019839m15.738403,-0.00289c-0.022729,0.022729 -0.041122,0.067136 -0.04086,0.098536c0.000394,0.054655 0.001839,0.054392 0.033371,-0.007883c0.018131,-0.035867 0.062275,-0.080011 0.098142,-0.098142c0.062275,-0.031531 0.062537,-0.032977 0.007883,-0.033371c-0.0314,-0.000263 -0.075807,0.018131 -0.098536,0.04086m16.082096,0.00289c-0.010116,0.031531 -0.05045,0.069106 -0.089471,0.083427c-0.039677,0.014452 -0.052027,0.026802 -0.027984,0.027984c0.061749,0.003022 0.163701,-0.086974 0.148723,-0.13125c-0.009065,-0.026408 -0.018262,-0.020495 -0.031269,0.019839m-47.337789,0.405968c-0.001971,0.04848 0.069632,0.117849 0.095251,0.092361c0.009328,-0.009328 0.002759,-0.016948 -0.014583,-0.016948c-0.017342,0 -0.042173,-0.02667 -0.055311,-0.059121c-0.016028,-0.040071 -0.024306,-0.045326 -0.025357,-0.016291m15.851654,0.382976c0.026539,0.006832 0.064508,0.049793 0.084347,0.095514c0.01997,0.045721 0.036655,0.065034 0.037181,0.042962c0.001577,-0.062275 -0.075807,-0.157395 -0.125206,-0.153979c-0.037969,0.002628 -0.037444,0.004861 0.003679,0.015503m31.278421,0.85713c-0.009591,0.024831 -0.044275,0.0561 -0.077121,0.069238c-0.058202,0.023386 -0.058202,0.024043 -0.003679,0.025619c0.063326,0.001971 0.125206,-0.059121 0.109046,-0.107732c-0.007095,-0.021021 -0.016948,-0.016554 -0.028247,0.012875m-17.114095,0.241873c-0.024043,0.036655 -0.03613,0.074099 -0.026933,0.083296c0.009197,0.009065 0.016685,0.00289 0.016685,-0.014058c0,-0.016817 0.023649,-0.05426 0.052552,-0.083164c0.028904,-0.028904 0.040991,-0.052552 0.026933,-0.052552c-0.014189,0 -0.045326,0.029955 -0.069238,0.066479m16.762388,1.063399c0,0.093937 0.00473,0.132301 0.010642,0.085398c0.005781,-0.046903 0.005781,-0.123761 0,-0.170795c-0.005912,-0.046903 -0.010642,-0.00854 -0.010642,0.085398m-45.964725,1.550297c0,0.045326 0.043881,0.122841 0.059121,0.104317c0.005518,-0.006832 -0.005518,-0.041911 -0.024568,-0.07804c-0.01905,-0.036261 -0.034553,-0.047954 -0.034553,-0.026276m15.219711,0.4195c-0.080799,0.102346 -0.07423,0.120345 0.019707,0.053472c0.043356,-0.030875 0.078829,-0.073048 0.078829,-0.093806c0,-0.056494 -0.032714,-0.043093 -0.098536,0.040334m-1.688247,0.816928c0,0.031137 0.10366,0.127571 0.13887,0.129016c0.035998,0.001577 -0.032714,-0.10182 -0.086974,-0.130724c-0.037444,-0.020101 -0.051896,-0.019576 -0.051896,0.001708m-12.901623,0.579785c0,0.059384 0.057808,0.119688 0.131381,0.136899l0.065691,0.015503l-0.063983,-0.048742c-0.03521,-0.026802 -0.079617,-0.070026 -0.098536,-0.095908c-0.027327,-0.037312 -0.034553,-0.038889 -0.034553,-0.007751m21.36204,0.220852c-0.018262,0.021941 -0.025619,0.04756 -0.016423,0.056888c0.009328,0.009328 0.016948,0.002759 0.016948,-0.014583c0,-0.017342 0.02667,-0.042173 0.059121,-0.055311c0.040071,-0.016028 0.045326,-0.024306 0.016291,-0.025357c-0.023517,-0.00092 -0.057676,0.016291 -0.075938,0.038363m-6.008451,0.104448c0.00473,0.046378 0.025488,0.052815 0.175919,0.054786l0.170533,0.002233l-0.162518,-0.009985c-0.124812,-0.007751 -0.165672,-0.020495 -0.175919,-0.054786c-0.009722,-0.032977 -0.011824,-0.030875 -0.008014,0.007751m5.712844,0.058333c0.04664,0.005912 0.12941,0.005912 0.183934,0.000263c0.054392,-0.005649 0.016291,-0.010379 -0.084872,-0.01051c-0.101163,-0.000131 -0.145833,0.004467 -0.099061,0.010248m-20.458532,1.046845c-0.00473,0.071209 0.046509,0.133352 0.127834,0.155424c0.057151,0.015503 0.054786,0.010905 -0.017605,-0.035079c-0.045852,-0.029167 -0.088682,-0.080274 -0.094989,-0.113776c-0.010248,-0.053472 -0.012087,-0.05426 -0.01524,-0.006569m41.985849,2.292337c0,0.016423 -0.032451,0.047429 -0.07226,0.069106c-0.039677,0.021546 -0.058727,0.039677 -0.042305,0.040203c0.045721,0.001577 0.156606,-0.096828 0.134271,-0.119294c-0.010773,-0.010905 -0.019707,-0.006438 -0.019707,0.009985m-40.123785,1.009138c0,0.061749 0.072654,0.126257 0.139789,0.124287l0.057282,-0.001577l-0.056362,-0.022729c-0.030875,-0.012481 -0.075281,-0.049925 -0.098536,-0.083033c-0.03232,-0.046378 -0.042173,-0.050188 -0.042173,-0.016948m38.810105,0.848459c-0.033896,0.03613 -0.055574,0.071734 -0.048085,0.079223c0.017736,0.017736 0.153059,-0.088682 0.153059,-0.120476c0,-0.042567 -0.041516,-0.026276 -0.104973,0.041254m-37.587079,0.801556c0.010116,0.03613 0.029167,0.079223 0.042305,0.095645c0.027853,0.034947 0.158708,0.065165 0.138082,0.031926c-0.00762,-0.01235 -0.031137,-0.022466 -0.052158,-0.022466c-0.021021,0 -0.062669,-0.038363 -0.092361,-0.085398c-0.045852,-0.072128 -0.05137,-0.07515 -0.035867,-0.019707m36.867242,0.221114c-0.009328,0.037181 -0.045983,0.074493 -0.088288,0.089865c-0.045458,0.016685 -0.05518,0.027196 -0.026276,0.02851c0.055443,0.002496 0.151088,-0.087631 0.151088,-0.142417c0,-0.059516 -0.018656,-0.047297 -0.036524,0.024043m-35.199884,1.591945c0,0.034028 0.097353,0.131381 0.131381,0.131381c0.043619,0 0.029824,-0.040071 -0.034553,-0.100507c-0.066085,-0.062143 -0.096828,-0.071865 -0.096828,-0.030875m32.125567,1.482373c-0.009328,0.037181 -0.045983,0.074493 -0.088288,0.089865c-0.045458,0.016685 -0.05518,0.027196 -0.026276,0.02851c0.055443,0.002496 0.151088,-0.087631 0.151088,-0.142417c0,-0.059516 -0.018656,-0.047297 -0.036524,0.024043m-30.294114,0.198385c0.015372,0.058596 0.049793,0.090127 0.126126,0.11509c0.037838,0.012481 0.032188,0.001971 -0.019707,-0.037444c-0.039677,-0.030218 -0.07226,-0.071603 -0.07226,-0.092098c0,-0.020495 -0.010773,-0.037181 -0.02378,-0.037181c-0.013138,0 -0.017736,0.023254 -0.010379,0.051633m29.174616,0.618279c-0.066085,0.07042 -0.055049,0.122316 0.013795,0.065165c0.053209,-0.044144 0.09985,-0.130724 0.07042,-0.130724c-0.012481,0 -0.050319,0.029561 -0.084215,0.065559m-1.760638,1.191364c0,0.016817 -0.023649,0.05426 -0.052552,0.083164c-0.028904,0.028904 -0.040991,0.052552 -0.026933,0.052552c0.034685,0 0.117192,-0.128622 0.096171,-0.149774c-0.009197,-0.009065 -0.016685,-0.00289 -0.016685,0.014058m-23.674084,0.662686c0.030875,0.057676 0.096302,0.094069 0.122316,0.068187c0.016423,-0.016554 -0.094726,-0.11982 -0.130593,-0.121265c-0.011299,-0.000526 -0.00762,0.023386 0.008277,0.053078m0.369181,0.151351c-0.003153,0.051239 0.047954,0.136242 0.081719,0.136242c0.017605,0 0.013401,-0.018393 -0.010642,-0.045983c-0.022072,-0.025225 -0.046509,-0.06372 -0.054523,-0.085398c-0.009985,-0.027196 -0.015109,-0.028641 -0.016554,-0.004861m0.392567,0.193656c-0.002233,0.069632 0.060041,0.1503 0.135585,0.175788l0.087237,0.029429l-0.0628,-0.048874c-0.034553,-0.026802 -0.084478,-0.076989 -0.111148,-0.111543c-0.026539,-0.034553 -0.04848,-0.054655 -0.048874,-0.044801m2.501102,1.101762c0.006569,0.019707 0.052421,0.057282 0.10182,0.083558c0.049399,0.026145 0.067267,0.032188 0.039677,0.013269c-0.027721,-0.018787 -0.073573,-0.056362 -0.10182,-0.083427c-0.030875,-0.029429 -0.046772,-0.034816 -0.039677,-0.013401m0.59174,0.18262c0.014452,0.055049 0.129279,0.147672 0.153322,0.12363c0.007226,-0.007226 -0.016685,-0.032714 -0.053341,-0.056757c-0.036524,-0.023911 -0.066479,-0.060961 -0.066479,-0.082376c0,-0.021284 -0.010773,-0.038757 -0.02378,-0.038757c-0.013138,0 -0.017474,0.024437 -0.009722,0.05426m1.428244,0.387574c-0.003153,0.051239 0.047954,0.136242 0.081719,0.136242c0.017605,0 0.013401,-0.018393 -0.010642,-0.045983c-0.022072,-0.025225 -0.046509,-0.06372 -0.054523,-0.085398c-0.009985,-0.027196 -0.015109,-0.028641 -0.016554,-0.004861m0.687649,0.180649c0.025357,0.006569 0.066742,0.006569 0.091967,0c0.025357,-0.006569 0.004598,-0.012087 -0.045983,-0.012087c-0.050582,0 -0.071209,0.005518 -0.045983,0.012087m10.444797,0.00092c0.047034,0.005781 0.123892,0.005781 0.170795,0c0.046903,-0.005912 0.00854,-0.010642 -0.085398,-0.010642c-0.093937,0 -0.132301,0.00473 -0.085398,0.010642m-1.146563,0.248836c-0.001708,0.024437 -0.029298,0.0628 -0.061486,0.085398c-0.04375,0.030612 -0.047823,0.04086 -0.016291,0.04086c0.057808,0 0.107864,-0.066479 0.093149,-0.123498c-0.010773,-0.041385 -0.012744,-0.041648 -0.015372,-0.002759m-1.640293,0.207582c-0.009328,0.037312 -0.043881,0.080799 -0.076727,0.096565c-0.046378,0.022335 -0.049531,0.029167 -0.014321,0.03048c0.052158,0.002102 0.135848,-0.111411 0.119294,-0.161336c-0.006175,-0.018393 -0.018919,-0.003022 -0.028247,0.03429" id="path1"/>
  </g>
 </g>
</svg>