<svg width="50" height="50" xmlns="http://www.w3.org/2000/svg">

 <g>
  <title>background</title>
  <rect fill="none" id="canvas_background" height="52" width="52" y="-1" x="-1"/>
 </g>
 <g>
  <title>Layer 1</title>
  <g stroke="null" id="svg_1">
   <circle stroke="null" id="svg_2" r="24.273193" fill="#45668E" cy="25.097937" cx="25.097937"/>
   <path stroke="null" id="svg_3" fill="#FFFFFF" d="m20.935463,19.067565c0.113781,-0.293933 0.322378,-0.474086 0.587866,-0.60683c0.502531,-0.246525 1.042989,-0.322378 1.583447,-0.312897c0.777501,0.018963 1.555002,0.066372 2.323021,0.094817c0.350824,0.018963 0.692165,0.028445 1.024025,0.161189c0.493049,0.199116 0.749056,0.568903 0.768019,1.090397c0.009482,0.417196 -0.047409,0.843873 -0.066372,1.27055c-0.028445,0.900763 -0.066372,1.801526 -0.066372,2.702289c0,0.284451 0.123262,0.568903 0.199116,0.853354c0.018963,0.075854 0.075854,0.151707 0.123262,0.218079c0.189634,0.265488 0.246525,0.265488 0.512013,0.094817c0.493049,-0.312897 0.862836,-0.739574 1.194696,-1.21366c0.455122,-0.644757 0.853354,-1.308477 1.194696,-2.010124c0.33186,-0.701647 0.673202,-1.412776 0.986099,-2.123905c0.151707,-0.360305 0.398232,-0.512013 0.786982,-0.502531c1.450703,0.009482 2.910887,0.009482 4.36159,0c0.464604,0 0.796464,0.398232 0.692165,0.853354c-0.113781,0.483568 -0.33186,0.919727 -0.587866,1.32744c-0.72061,1.175733 -1.526556,2.285094 -2.436801,3.318601c-0.322378,0.360305 -0.60683,0.749056 -0.758537,1.223141c-0.161189,0.512013 -0.05689,0.967135 0.322378,1.346404c0.673202,0.673202 1.374849,1.32744 2.029087,2.019606c0.38875,0.407714 0.730092,0.862836 1.071434,1.317959c0.218079,0.284451 0.360305,0.625793 0.322378,1.005062c-0.047409,0.426677 -0.256006,0.644757 -0.682684,0.66372c-0.815428,0.047409 -1.640337,0.075854 -2.465246,0.113781c-0.474086,0.018963 -0.957653,0.047409 -1.431739,0.066372c-0.379269,0.018963 -0.72061,-0.123262 -1.042989,-0.312897c-0.512013,-0.293933 -0.948172,-0.692165 -1.365367,-1.109361c-0.436159,-0.426677 -0.843873,-0.872318 -1.175733,-1.393812c-0.208598,-0.33186 -0.786982,-0.512013 -1.147288,-0.369787c-0.284451,0.104299 -0.417196,0.33186 -0.445641,0.616312c-0.047409,0.474086 -0.075854,0.93869 -0.113781,1.412776c-0.05689,0.578385 -0.417196,0.93869 -0.99558,1.014544c-1.137806,0.151707 -2.26613,0.094817 -3.384973,-0.123262c-0.824909,-0.161189 -1.536038,-0.559421 -2.20924,-1.042989c-0.929208,-0.654238 -1.716191,-1.460184 -2.455765,-2.304057c-0.379269,-0.445641 -0.72061,-0.929208 -1.042989,-1.412776c-1.052471,-1.54552 -2.048051,-3.119485 -2.910887,-4.778785c-0.417196,-0.796464 -0.834391,-1.583447 -1.052471,-2.465246c-0.047409,-0.199116 -0.075854,-0.398232 -0.113781,-0.597348c-0.018963,-0.094817 0.018963,-0.170671 0.104299,-0.199116c0.237043,-0.075854 0.474086,-0.180153 0.711129,-0.189634c0.768019,-0.028445 1.54552,-0.028445 2.313539,-0.037927c0.33186,0 0.66372,0.028445 0.99558,0.018963c0.445641,-0.018963 0.749056,0.180153 0.93869,0.559421c0.189634,0.379269 0.360305,0.768019 0.540458,1.147288c0.654238,1.365367 1.365367,2.702289 2.294575,3.906467c0.132744,0.180153 0.341342,0.322378 0.540458,0.436159c0.237043,0.132744 0.445641,0.066372 0.587866,-0.170671c0.170671,-0.27497 0.246525,-0.587866 0.256006,-0.910245c0.009482,-0.910245 0.037927,-1.82049 0.028445,-2.730734c-0.009482,-0.93869 -0.474086,-1.564483 -1.365367,-1.905825c-0.018963,0 -0.047409,-0.009482 -0.075854,-0.028445z"/>
  </g>
 </g>
</svg>